%TF.GenerationSoftware,KiCad,Pcbnew,7.0.10*%
%TF.CreationDate,2024-03-08T11:36:06-05:00*%
%TF.ProjectId,swipe-stack-hub,73776970-652d-4737-9461-636b2d687562,rev?*%
%TF.SameCoordinates,Original*%
%TF.FileFunction,Drillmap*%
%TF.FilePolarity,Positive*%
%FSLAX45Y45*%
G04 Gerber Fmt 4.5, Leading zero omitted, Abs format (unit mm)*
G04 Created by KiCad (PCBNEW 7.0.10) date 2024-03-08 11:36:06*
%MOMM*%
%LPD*%
G01*
G04 APERTURE LIST*
%ADD10C,0.100000*%
%ADD11C,0.200000*%
%ADD12C,0.120000*%
%ADD13C,0.170000*%
G04 APERTURE END LIST*
D10*
X8915400Y-8610600D02*
X19837400Y-8610600D01*
X19837400Y-15748000D01*
X8915400Y-15748000D01*
X8915400Y-8610600D01*
D11*
D10*
X10013000Y-14305600D02*
X10053000Y-14345600D01*
X10053000Y-14305600D02*
X10013000Y-14345600D01*
X10114600Y-10800400D02*
X10154600Y-10840400D01*
X10154600Y-10800400D02*
X10114600Y-10840400D01*
X10114600Y-10940100D02*
X10154600Y-10980100D01*
X10154600Y-10940100D02*
X10114600Y-10980100D01*
X10120295Y-10473900D02*
X10160295Y-10513900D01*
X10160295Y-10473900D02*
X10120295Y-10513900D01*
X10203500Y-10546400D02*
X10243500Y-10586400D01*
X10243500Y-10546400D02*
X10203500Y-10586400D01*
X10444800Y-13264200D02*
X10484800Y-13304200D01*
X10484800Y-13264200D02*
X10444800Y-13304200D01*
X10457500Y-12248200D02*
X10497500Y-12288200D01*
X10497500Y-12248200D02*
X10457500Y-12288200D01*
X10457500Y-12603800D02*
X10497500Y-12643800D01*
X10497500Y-12603800D02*
X10457500Y-12643800D01*
X10495600Y-11752900D02*
X10535600Y-11792900D01*
X10535600Y-11752900D02*
X10495600Y-11792900D01*
X10521000Y-13340400D02*
X10561000Y-13380400D01*
X10561000Y-13340400D02*
X10521000Y-13380400D01*
X10597200Y-13416600D02*
X10637200Y-13456600D01*
X10637200Y-13416600D02*
X10597200Y-13456600D01*
X10876600Y-14737400D02*
X10916600Y-14777400D01*
X10916600Y-14737400D02*
X10876600Y-14777400D01*
X10876600Y-14864400D02*
X10916600Y-14904400D01*
X10916600Y-14864400D02*
X10876600Y-14904400D01*
X11003600Y-11753437D02*
X11043600Y-11793437D01*
X11043600Y-11753437D02*
X11003600Y-11793437D01*
X11009950Y-12749850D02*
X11049950Y-12789850D01*
X11049950Y-12749850D02*
X11009950Y-12789850D01*
X11079800Y-15169200D02*
X11119800Y-15209200D01*
X11119800Y-15169200D02*
X11079800Y-15209200D01*
X11120389Y-11987542D02*
X11160389Y-12027542D01*
X11160389Y-11987542D02*
X11120389Y-12027542D01*
X11223260Y-11986595D02*
X11263260Y-12026595D01*
X11263260Y-11986595D02*
X11223260Y-12026595D01*
X11257600Y-15169200D02*
X11297600Y-15209200D01*
X11297600Y-15169200D02*
X11257600Y-15209200D01*
X11333800Y-10571800D02*
X11373800Y-10611800D01*
X11373800Y-10571800D02*
X11333800Y-10611800D01*
X11460800Y-9403400D02*
X11500800Y-9443400D01*
X11500800Y-9403400D02*
X11460800Y-9443400D01*
X11460800Y-15169200D02*
X11500800Y-15209200D01*
X11500800Y-15169200D02*
X11460800Y-15209200D01*
X11486200Y-10914700D02*
X11526200Y-10954700D01*
X11526200Y-10914700D02*
X11486200Y-10954700D01*
X11600500Y-11879900D02*
X11640500Y-11919900D01*
X11640500Y-11879900D02*
X11600500Y-11919900D01*
X11664000Y-9606600D02*
X11704000Y-9646600D01*
X11704000Y-9606600D02*
X11664000Y-9646600D01*
X11664000Y-9809800D02*
X11704000Y-9849800D01*
X11704000Y-9809800D02*
X11664000Y-9849800D01*
X11689400Y-11308400D02*
X11729400Y-11348400D01*
X11729400Y-11308400D02*
X11689400Y-11348400D01*
X11867200Y-12743500D02*
X11907200Y-12783500D01*
X11907200Y-12743500D02*
X11867200Y-12783500D01*
X11918000Y-11932235D02*
X11958000Y-11972235D01*
X11958000Y-11932235D02*
X11918000Y-11972235D01*
X12051350Y-11797350D02*
X12091350Y-11837350D01*
X12091350Y-11797350D02*
X12051350Y-11837350D01*
X12107957Y-13267900D02*
X12147957Y-13307900D01*
X12147957Y-13267900D02*
X12107957Y-13307900D01*
X12197400Y-13340400D02*
X12237400Y-13380400D01*
X12237400Y-13340400D02*
X12197400Y-13380400D01*
X12210100Y-11473500D02*
X12250100Y-11513500D01*
X12250100Y-11473500D02*
X12210100Y-11513500D01*
X12210100Y-15004100D02*
X12250100Y-15044100D01*
X12250100Y-15004100D02*
X12210100Y-15044100D01*
X12268111Y-13412900D02*
X12308111Y-13452900D01*
X12308111Y-13412900D02*
X12268111Y-13452900D01*
X12273600Y-9454200D02*
X12313600Y-9494200D01*
X12313600Y-9454200D02*
X12273600Y-9494200D01*
X12349800Y-11105200D02*
X12389800Y-11145200D01*
X12389800Y-11105200D02*
X12349800Y-11145200D01*
X12413300Y-10267000D02*
X12453300Y-10307000D01*
X12453300Y-10267000D02*
X12413300Y-10307000D01*
X12451400Y-13035600D02*
X12491400Y-13075600D01*
X12491400Y-13035600D02*
X12451400Y-13075600D01*
X12581100Y-14546900D02*
X12621100Y-14586900D01*
X12621100Y-14546900D02*
X12581100Y-14586900D01*
X12581100Y-15496700D02*
X12621100Y-15536700D01*
X12621100Y-15496700D02*
X12581100Y-15536700D01*
X12667300Y-12553000D02*
X12707300Y-12593000D01*
X12707300Y-12553000D02*
X12667300Y-12593000D01*
X12730800Y-11029000D02*
X12770800Y-11069000D01*
X12770800Y-11029000D02*
X12730800Y-11069000D01*
X12807000Y-12654600D02*
X12847000Y-12694600D01*
X12847000Y-12654600D02*
X12807000Y-12694600D01*
X12990615Y-11022115D02*
X13030615Y-11062115D01*
X13030615Y-11022115D02*
X12990615Y-11062115D01*
X13028500Y-11453700D02*
X13068500Y-11493700D01*
X13068500Y-11453700D02*
X13028500Y-11493700D01*
X13213400Y-12146600D02*
X13253400Y-12186600D01*
X13253400Y-12146600D02*
X13213400Y-12186600D01*
X13238800Y-13340400D02*
X13278800Y-13380400D01*
X13278800Y-13340400D02*
X13238800Y-13380400D01*
X13264200Y-11600500D02*
X13304200Y-11640500D01*
X13304200Y-11600500D02*
X13264200Y-11640500D01*
X13295950Y-11771950D02*
X13335950Y-11811950D01*
X13335950Y-11771950D02*
X13295950Y-11811950D01*
X13391200Y-12273600D02*
X13431200Y-12313600D01*
X13431200Y-12273600D02*
X13391200Y-12313600D01*
X13467400Y-12057700D02*
X13507400Y-12097700D01*
X13507400Y-12057700D02*
X13467400Y-12097700D01*
X13530900Y-11451800D02*
X13570900Y-11491800D01*
X13570900Y-11451800D02*
X13530900Y-11491800D01*
X13569000Y-11054400D02*
X13609000Y-11094400D01*
X13609000Y-11054400D02*
X13569000Y-11094400D01*
X13696000Y-9708200D02*
X13736000Y-9748200D01*
X13736000Y-9708200D02*
X13696000Y-9748200D01*
X13705700Y-12423000D02*
X13745700Y-12463000D01*
X13745700Y-12423000D02*
X13705700Y-12463000D01*
X13705700Y-12880200D02*
X13745700Y-12920200D01*
X13745700Y-12880200D02*
X13705700Y-12920200D01*
X13797600Y-11384600D02*
X13837600Y-11424600D01*
X13837600Y-11384600D02*
X13797600Y-11424600D01*
X13924600Y-12553000D02*
X13964600Y-12593000D01*
X13964600Y-12553000D02*
X13924600Y-12593000D01*
X13924600Y-12819700D02*
X13964600Y-12859700D01*
X13964600Y-12819700D02*
X13924600Y-12859700D01*
X13975400Y-11473500D02*
X14015400Y-11513500D01*
X14015400Y-11473500D02*
X13975400Y-11513500D01*
X14178600Y-9708200D02*
X14218600Y-9748200D01*
X14218600Y-9708200D02*
X14178600Y-9748200D01*
X14178600Y-10762300D02*
X14218600Y-10802300D01*
X14218600Y-10762300D02*
X14178600Y-10802300D01*
X14343700Y-10317800D02*
X14383700Y-10357800D01*
X14383700Y-10317800D02*
X14343700Y-10357800D01*
X14469997Y-11523597D02*
X14509997Y-11563597D01*
X14509997Y-11523597D02*
X14469997Y-11563597D01*
X14673900Y-11003600D02*
X14713900Y-11043600D01*
X14713900Y-11003600D02*
X14673900Y-11043600D01*
X14673900Y-11109433D02*
X14713900Y-11149433D01*
X14713900Y-11109433D02*
X14673900Y-11149433D01*
X14673900Y-11215267D02*
X14713900Y-11255267D01*
X14713900Y-11215267D02*
X14673900Y-11255267D01*
X14673900Y-11371900D02*
X14713900Y-11411900D01*
X14713900Y-11371900D02*
X14673900Y-11411900D01*
X14673900Y-11511600D02*
X14713900Y-11551600D01*
X14713900Y-11511600D02*
X14673900Y-11551600D01*
X14674365Y-11766065D02*
X14714365Y-11806065D01*
X14714365Y-11766065D02*
X14674365Y-11806065D01*
X14750100Y-12654600D02*
X14790100Y-12694600D01*
X14790100Y-12654600D02*
X14750100Y-12694600D01*
X14915200Y-10453121D02*
X14955200Y-10493121D01*
X14955200Y-10453121D02*
X14915200Y-10493121D01*
X15067600Y-12012170D02*
X15107600Y-12052170D01*
X15107600Y-12012170D02*
X15067600Y-12052170D01*
X15093000Y-12248200D02*
X15133000Y-12288200D01*
X15133000Y-12248200D02*
X15093000Y-12288200D01*
X15131100Y-11206800D02*
X15171100Y-11246800D01*
X15171100Y-11206800D02*
X15131100Y-11246800D01*
X15156500Y-12108460D02*
X15196500Y-12148460D01*
X15196500Y-12108460D02*
X15156500Y-12148460D01*
X15270800Y-10453121D02*
X15310800Y-10493121D01*
X15310800Y-10453121D02*
X15270800Y-10493121D01*
X15438090Y-10455310D02*
X15478090Y-10495310D01*
X15478090Y-10455310D02*
X15438090Y-10495310D01*
X15728000Y-11791000D02*
X15768000Y-11831000D01*
X15768000Y-11791000D02*
X15728000Y-11831000D01*
X15740700Y-10453121D02*
X15780700Y-10493121D01*
X15780700Y-10453121D02*
X15740700Y-10493121D01*
X16272770Y-10444800D02*
X16312770Y-10484800D01*
X16312770Y-10444800D02*
X16272770Y-10484800D01*
X16272770Y-10736900D02*
X16312770Y-10776900D01*
X16312770Y-10736900D02*
X16272770Y-10776900D01*
X16350300Y-12393170D02*
X16390300Y-12433170D01*
X16390300Y-12393170D02*
X16350300Y-12433170D01*
X16439200Y-12476800D02*
X16479200Y-12516800D01*
X16479200Y-12476800D02*
X16439200Y-12516800D01*
X16490000Y-15172100D02*
X16530000Y-15212100D01*
X16530000Y-15172100D02*
X16490000Y-15212100D01*
X16511400Y-14448200D02*
X16551400Y-14488200D01*
X16551400Y-14448200D02*
X16511400Y-14488200D01*
X16526770Y-10444800D02*
X16566770Y-10484800D01*
X16566770Y-10444800D02*
X16526770Y-10484800D01*
X16528100Y-10736900D02*
X16568100Y-10776900D01*
X16568100Y-10736900D02*
X16528100Y-10776900D01*
X16858300Y-14826300D02*
X16898300Y-14866300D01*
X16898300Y-14826300D02*
X16858300Y-14866300D01*
X16921800Y-14356400D02*
X16961800Y-14396400D01*
X16961800Y-14356400D02*
X16921800Y-14396400D01*
X17175800Y-14559600D02*
X17215800Y-14599600D01*
X17215800Y-14559600D02*
X17175800Y-14599600D01*
X17709200Y-9403400D02*
X17749200Y-9443400D01*
X17749200Y-9403400D02*
X17709200Y-9443400D01*
X18191800Y-9555800D02*
X18231800Y-9595800D01*
X18231800Y-9555800D02*
X18191800Y-9595800D01*
X18191800Y-9759000D02*
X18231800Y-9799000D01*
X18231800Y-9759000D02*
X18191800Y-9799000D01*
X18191800Y-9962200D02*
X18231800Y-10002200D01*
X18231800Y-9962200D02*
X18191800Y-10002200D01*
X18191800Y-10190800D02*
X18231800Y-10230800D01*
X18231800Y-10190800D02*
X18191800Y-10230800D01*
X18716800Y-9386400D02*
X18756800Y-9426400D01*
X18756800Y-9386400D02*
X18716800Y-9426400D01*
X18928400Y-11847070D02*
X18968400Y-11887070D01*
X18968400Y-11847070D02*
X18928400Y-11887070D01*
X19071800Y-11974070D02*
X19111800Y-12014070D01*
X19111800Y-11974070D02*
X19071800Y-12014070D01*
X19144300Y-11466070D02*
X19184300Y-11506070D01*
X19184300Y-11466070D02*
X19144300Y-11506070D01*
X19144300Y-11593070D02*
X19184300Y-11633070D01*
X19184300Y-11593070D02*
X19144300Y-11633070D01*
X19144300Y-11720070D02*
X19184300Y-11760070D01*
X19184300Y-11720070D02*
X19144300Y-11760070D01*
X19525300Y-10787700D02*
X19565300Y-10827700D01*
X19565300Y-10787700D02*
X19525300Y-10827700D01*
X19551600Y-9962200D02*
X19591600Y-10002200D01*
X19591600Y-9962200D02*
X19551600Y-10002200D01*
X19551600Y-10190800D02*
X19591600Y-10230800D01*
X19591600Y-10190800D02*
X19551600Y-10230800D01*
X19551600Y-10419400D02*
X19591600Y-10459400D01*
X19591600Y-10419400D02*
X19551600Y-10459400D01*
X10758800Y-14228000D02*
G75*
G03*
X10678800Y-14228000I-40000J0D01*
G01*
X10678800Y-14228000D02*
G75*
G03*
X10758800Y-14228000I40000J0D01*
G01*
X10758800Y-14478000D02*
G75*
G03*
X10678800Y-14478000I-40000J0D01*
G01*
X10678800Y-14478000D02*
G75*
G03*
X10758800Y-14478000I40000J0D01*
G01*
X13208000Y-9043200D02*
X13208000Y-9143200D01*
X13158000Y-9093200D02*
X13258000Y-9093200D01*
X13208000Y-9297200D02*
X13208000Y-9397200D01*
X13158000Y-9347200D02*
X13258000Y-9347200D01*
X13462000Y-9043200D02*
X13462000Y-9143200D01*
X13412000Y-9093200D02*
X13512000Y-9093200D01*
X13462000Y-9297200D02*
X13462000Y-9397200D01*
X13412000Y-9347200D02*
X13512000Y-9347200D01*
X13716000Y-9043200D02*
X13716000Y-9143200D01*
X13666000Y-9093200D02*
X13766000Y-9093200D01*
X13716000Y-9297200D02*
X13716000Y-9397200D01*
X13666000Y-9347200D02*
X13766000Y-9347200D01*
X13970000Y-9043200D02*
X13970000Y-9143200D01*
X13920000Y-9093200D02*
X14020000Y-9093200D01*
X13970000Y-9297200D02*
X13970000Y-9397200D01*
X13920000Y-9347200D02*
X14020000Y-9347200D01*
X14224000Y-9043200D02*
X14224000Y-9143200D01*
X14174000Y-9093200D02*
X14274000Y-9093200D01*
X14224000Y-9297200D02*
X14224000Y-9397200D01*
X14174000Y-9347200D02*
X14274000Y-9347200D01*
X14930570Y-10026371D02*
X14930570Y-10126371D01*
X14880570Y-10076371D02*
X14980570Y-10076371D01*
X15291570Y-10026371D02*
X15291570Y-10126371D01*
X15241570Y-10076371D02*
X15341570Y-10076371D01*
X15652770Y-10026371D02*
X15652770Y-10126371D01*
X15602770Y-10076371D02*
X15702770Y-10076371D01*
X16013370Y-10026371D02*
X16013370Y-10126371D01*
X15963370Y-10076371D02*
X16063370Y-10076371D01*
X18440400Y-13242200D02*
X18440400Y-13342200D01*
X18390400Y-13292200D02*
X18490400Y-13292200D01*
X18440400Y-13492200D02*
X18440400Y-13592200D01*
X18390400Y-13542200D02*
X18490400Y-13542200D01*
X18440400Y-13742200D02*
X18440400Y-13842200D01*
X18390400Y-13792200D02*
X18490400Y-13792200D01*
D12*
X14758200Y-14012427D02*
X14758200Y-13927573D01*
X14673346Y-13927573D01*
X14673346Y-14012427D01*
X14758200Y-14012427D01*
X15258200Y-14012427D02*
X15258200Y-13927573D01*
X15173346Y-13927573D01*
X15173346Y-14012427D01*
X15258200Y-14012427D01*
X18724127Y-14774427D02*
X18724127Y-14689573D01*
X18639273Y-14689573D01*
X18639273Y-14774427D01*
X18724127Y-14774427D01*
X18724127Y-15274427D02*
X18724127Y-15189573D01*
X18639273Y-15189573D01*
X18639273Y-15274427D01*
X18724127Y-15274427D01*
D13*
X9550400Y-13572400D02*
X9635400Y-13487400D01*
X9550400Y-13402400D01*
X9465400Y-13487400D01*
X9550400Y-13572400D01*
X9550400Y-13968400D02*
X9635400Y-13883400D01*
X9550400Y-13798400D01*
X9465400Y-13883400D01*
X9550400Y-13968400D01*
X9550400Y-14364400D02*
X9635400Y-14279400D01*
X9550400Y-14194400D01*
X9465400Y-14279400D01*
X9550400Y-14364400D01*
X9550400Y-14760400D02*
X9635400Y-14675400D01*
X9550400Y-14590400D01*
X9465400Y-14675400D01*
X9550400Y-14760400D01*
X9550400Y-15156400D02*
X9635400Y-15071400D01*
X9550400Y-14986400D01*
X9465400Y-15071400D01*
X9550400Y-15156400D01*
X9550400Y-15552400D02*
X9635400Y-15467400D01*
X9550400Y-15382400D01*
X9465400Y-15467400D01*
X9550400Y-15552400D01*
X14445950Y-15430800D02*
X14530950Y-15345800D01*
X14445950Y-15260800D01*
X14360950Y-15345800D01*
X14445950Y-15430800D01*
X14841950Y-15430800D02*
X14926950Y-15345800D01*
X14841950Y-15260800D01*
X14756950Y-15345800D01*
X14841950Y-15430800D01*
X15237950Y-15430800D02*
X15322950Y-15345800D01*
X15237950Y-15260800D01*
X15152950Y-15345800D01*
X15237950Y-15430800D01*
X15633950Y-15430800D02*
X15718950Y-15345800D01*
X15633950Y-15260800D01*
X15548950Y-15345800D01*
X15633950Y-15430800D01*
X16878400Y-15277100D02*
X16963400Y-15192100D01*
X16878400Y-15107100D01*
X16793400Y-15192100D01*
X16878400Y-15277100D01*
X17274400Y-15277100D02*
X17359400Y-15192100D01*
X17274400Y-15107100D01*
X17189400Y-15192100D01*
X17274400Y-15277100D01*
D11*
X9171177Y-16064484D02*
X9171177Y-15864484D01*
X9171177Y-15864484D02*
X9218796Y-15864484D01*
X9218796Y-15864484D02*
X9247367Y-15874008D01*
X9247367Y-15874008D02*
X9266415Y-15893055D01*
X9266415Y-15893055D02*
X9275939Y-15912103D01*
X9275939Y-15912103D02*
X9285463Y-15950198D01*
X9285463Y-15950198D02*
X9285463Y-15978769D01*
X9285463Y-15978769D02*
X9275939Y-16016865D01*
X9275939Y-16016865D02*
X9266415Y-16035912D01*
X9266415Y-16035912D02*
X9247367Y-16054960D01*
X9247367Y-16054960D02*
X9218796Y-16064484D01*
X9218796Y-16064484D02*
X9171177Y-16064484D01*
X9371177Y-16064484D02*
X9371177Y-15931150D01*
X9371177Y-15969246D02*
X9380701Y-15950198D01*
X9380701Y-15950198D02*
X9390224Y-15940674D01*
X9390224Y-15940674D02*
X9409272Y-15931150D01*
X9409272Y-15931150D02*
X9428320Y-15931150D01*
X9494986Y-16064484D02*
X9494986Y-15931150D01*
X9494986Y-15864484D02*
X9485463Y-15874008D01*
X9485463Y-15874008D02*
X9494986Y-15883531D01*
X9494986Y-15883531D02*
X9504510Y-15874008D01*
X9504510Y-15874008D02*
X9494986Y-15864484D01*
X9494986Y-15864484D02*
X9494986Y-15883531D01*
X9618796Y-16064484D02*
X9599748Y-16054960D01*
X9599748Y-16054960D02*
X9590224Y-16035912D01*
X9590224Y-16035912D02*
X9590224Y-15864484D01*
X9723558Y-16064484D02*
X9704510Y-16054960D01*
X9704510Y-16054960D02*
X9694986Y-16035912D01*
X9694986Y-16035912D02*
X9694986Y-15864484D01*
X9952129Y-16064484D02*
X9952129Y-15864484D01*
X9952129Y-15864484D02*
X10018796Y-16007341D01*
X10018796Y-16007341D02*
X10085463Y-15864484D01*
X10085463Y-15864484D02*
X10085463Y-16064484D01*
X10266415Y-16064484D02*
X10266415Y-15959722D01*
X10266415Y-15959722D02*
X10256891Y-15940674D01*
X10256891Y-15940674D02*
X10237844Y-15931150D01*
X10237844Y-15931150D02*
X10199748Y-15931150D01*
X10199748Y-15931150D02*
X10180701Y-15940674D01*
X10266415Y-16054960D02*
X10247367Y-16064484D01*
X10247367Y-16064484D02*
X10199748Y-16064484D01*
X10199748Y-16064484D02*
X10180701Y-16054960D01*
X10180701Y-16054960D02*
X10171177Y-16035912D01*
X10171177Y-16035912D02*
X10171177Y-16016865D01*
X10171177Y-16016865D02*
X10180701Y-15997817D01*
X10180701Y-15997817D02*
X10199748Y-15988293D01*
X10199748Y-15988293D02*
X10247367Y-15988293D01*
X10247367Y-15988293D02*
X10266415Y-15978769D01*
X10361653Y-15931150D02*
X10361653Y-16131150D01*
X10361653Y-15940674D02*
X10380701Y-15931150D01*
X10380701Y-15931150D02*
X10418796Y-15931150D01*
X10418796Y-15931150D02*
X10437844Y-15940674D01*
X10437844Y-15940674D02*
X10447367Y-15950198D01*
X10447367Y-15950198D02*
X10456891Y-15969246D01*
X10456891Y-15969246D02*
X10456891Y-16026388D01*
X10456891Y-16026388D02*
X10447367Y-16045436D01*
X10447367Y-16045436D02*
X10437844Y-16054960D01*
X10437844Y-16054960D02*
X10418796Y-16064484D01*
X10418796Y-16064484D02*
X10380701Y-16064484D01*
X10380701Y-16064484D02*
X10361653Y-16054960D01*
X10542605Y-16045436D02*
X10552129Y-16054960D01*
X10552129Y-16054960D02*
X10542605Y-16064484D01*
X10542605Y-16064484D02*
X10533082Y-16054960D01*
X10533082Y-16054960D02*
X10542605Y-16045436D01*
X10542605Y-16045436D02*
X10542605Y-16064484D01*
X10542605Y-15940674D02*
X10552129Y-15950198D01*
X10552129Y-15950198D02*
X10542605Y-15959722D01*
X10542605Y-15959722D02*
X10533082Y-15950198D01*
X10533082Y-15950198D02*
X10542605Y-15940674D01*
X10542605Y-15940674D02*
X10542605Y-15959722D01*
D10*
X8870400Y-16373000D02*
X8910400Y-16413000D01*
X8910400Y-16373000D02*
X8870400Y-16413000D01*
D11*
X9209272Y-16284484D02*
X9228320Y-16284484D01*
X9228320Y-16284484D02*
X9247367Y-16294008D01*
X9247367Y-16294008D02*
X9256891Y-16303531D01*
X9256891Y-16303531D02*
X9266415Y-16322579D01*
X9266415Y-16322579D02*
X9275939Y-16360674D01*
X9275939Y-16360674D02*
X9275939Y-16408293D01*
X9275939Y-16408293D02*
X9266415Y-16446388D01*
X9266415Y-16446388D02*
X9256891Y-16465436D01*
X9256891Y-16465436D02*
X9247367Y-16474960D01*
X9247367Y-16474960D02*
X9228320Y-16484484D01*
X9228320Y-16484484D02*
X9209272Y-16484484D01*
X9209272Y-16484484D02*
X9190224Y-16474960D01*
X9190224Y-16474960D02*
X9180701Y-16465436D01*
X9180701Y-16465436D02*
X9171177Y-16446388D01*
X9171177Y-16446388D02*
X9161653Y-16408293D01*
X9161653Y-16408293D02*
X9161653Y-16360674D01*
X9161653Y-16360674D02*
X9171177Y-16322579D01*
X9171177Y-16322579D02*
X9180701Y-16303531D01*
X9180701Y-16303531D02*
X9190224Y-16294008D01*
X9190224Y-16294008D02*
X9209272Y-16284484D01*
X9361653Y-16465436D02*
X9371177Y-16474960D01*
X9371177Y-16474960D02*
X9361653Y-16484484D01*
X9361653Y-16484484D02*
X9352129Y-16474960D01*
X9352129Y-16474960D02*
X9361653Y-16465436D01*
X9361653Y-16465436D02*
X9361653Y-16484484D01*
X9542605Y-16351150D02*
X9542605Y-16484484D01*
X9494986Y-16274960D02*
X9447367Y-16417817D01*
X9447367Y-16417817D02*
X9571177Y-16417817D01*
X9685463Y-16284484D02*
X9704510Y-16284484D01*
X9704510Y-16284484D02*
X9723558Y-16294008D01*
X9723558Y-16294008D02*
X9733082Y-16303531D01*
X9733082Y-16303531D02*
X9742605Y-16322579D01*
X9742605Y-16322579D02*
X9752129Y-16360674D01*
X9752129Y-16360674D02*
X9752129Y-16408293D01*
X9752129Y-16408293D02*
X9742605Y-16446388D01*
X9742605Y-16446388D02*
X9733082Y-16465436D01*
X9733082Y-16465436D02*
X9723558Y-16474960D01*
X9723558Y-16474960D02*
X9704510Y-16484484D01*
X9704510Y-16484484D02*
X9685463Y-16484484D01*
X9685463Y-16484484D02*
X9666415Y-16474960D01*
X9666415Y-16474960D02*
X9656891Y-16465436D01*
X9656891Y-16465436D02*
X9647367Y-16446388D01*
X9647367Y-16446388D02*
X9637844Y-16408293D01*
X9637844Y-16408293D02*
X9637844Y-16360674D01*
X9637844Y-16360674D02*
X9647367Y-16322579D01*
X9647367Y-16322579D02*
X9656891Y-16303531D01*
X9656891Y-16303531D02*
X9666415Y-16294008D01*
X9666415Y-16294008D02*
X9685463Y-16284484D01*
X9875939Y-16284484D02*
X9894986Y-16284484D01*
X9894986Y-16284484D02*
X9914034Y-16294008D01*
X9914034Y-16294008D02*
X9923558Y-16303531D01*
X9923558Y-16303531D02*
X9933082Y-16322579D01*
X9933082Y-16322579D02*
X9942605Y-16360674D01*
X9942605Y-16360674D02*
X9942605Y-16408293D01*
X9942605Y-16408293D02*
X9933082Y-16446388D01*
X9933082Y-16446388D02*
X9923558Y-16465436D01*
X9923558Y-16465436D02*
X9914034Y-16474960D01*
X9914034Y-16474960D02*
X9894986Y-16484484D01*
X9894986Y-16484484D02*
X9875939Y-16484484D01*
X9875939Y-16484484D02*
X9856891Y-16474960D01*
X9856891Y-16474960D02*
X9847367Y-16465436D01*
X9847367Y-16465436D02*
X9837844Y-16446388D01*
X9837844Y-16446388D02*
X9828320Y-16408293D01*
X9828320Y-16408293D02*
X9828320Y-16360674D01*
X9828320Y-16360674D02*
X9837844Y-16322579D01*
X9837844Y-16322579D02*
X9847367Y-16303531D01*
X9847367Y-16303531D02*
X9856891Y-16294008D01*
X9856891Y-16294008D02*
X9875939Y-16284484D01*
X10028320Y-16484484D02*
X10028320Y-16351150D01*
X10028320Y-16370198D02*
X10037844Y-16360674D01*
X10037844Y-16360674D02*
X10056891Y-16351150D01*
X10056891Y-16351150D02*
X10085463Y-16351150D01*
X10085463Y-16351150D02*
X10104510Y-16360674D01*
X10104510Y-16360674D02*
X10114034Y-16379722D01*
X10114034Y-16379722D02*
X10114034Y-16484484D01*
X10114034Y-16379722D02*
X10123558Y-16360674D01*
X10123558Y-16360674D02*
X10142605Y-16351150D01*
X10142605Y-16351150D02*
X10171177Y-16351150D01*
X10171177Y-16351150D02*
X10190225Y-16360674D01*
X10190225Y-16360674D02*
X10199748Y-16379722D01*
X10199748Y-16379722D02*
X10199748Y-16484484D01*
X10294986Y-16484484D02*
X10294986Y-16351150D01*
X10294986Y-16370198D02*
X10304510Y-16360674D01*
X10304510Y-16360674D02*
X10323558Y-16351150D01*
X10323558Y-16351150D02*
X10352129Y-16351150D01*
X10352129Y-16351150D02*
X10371177Y-16360674D01*
X10371177Y-16360674D02*
X10380701Y-16379722D01*
X10380701Y-16379722D02*
X10380701Y-16484484D01*
X10380701Y-16379722D02*
X10390225Y-16360674D01*
X10390225Y-16360674D02*
X10409272Y-16351150D01*
X10409272Y-16351150D02*
X10437844Y-16351150D01*
X10437844Y-16351150D02*
X10456891Y-16360674D01*
X10456891Y-16360674D02*
X10466415Y-16379722D01*
X10466415Y-16379722D02*
X10466415Y-16484484D01*
X10856891Y-16274960D02*
X10685463Y-16532103D01*
X11114034Y-16284484D02*
X11133082Y-16284484D01*
X11133082Y-16284484D02*
X11152129Y-16294008D01*
X11152129Y-16294008D02*
X11161653Y-16303531D01*
X11161653Y-16303531D02*
X11171177Y-16322579D01*
X11171177Y-16322579D02*
X11180701Y-16360674D01*
X11180701Y-16360674D02*
X11180701Y-16408293D01*
X11180701Y-16408293D02*
X11171177Y-16446388D01*
X11171177Y-16446388D02*
X11161653Y-16465436D01*
X11161653Y-16465436D02*
X11152129Y-16474960D01*
X11152129Y-16474960D02*
X11133082Y-16484484D01*
X11133082Y-16484484D02*
X11114034Y-16484484D01*
X11114034Y-16484484D02*
X11094987Y-16474960D01*
X11094987Y-16474960D02*
X11085463Y-16465436D01*
X11085463Y-16465436D02*
X11075939Y-16446388D01*
X11075939Y-16446388D02*
X11066415Y-16408293D01*
X11066415Y-16408293D02*
X11066415Y-16360674D01*
X11066415Y-16360674D02*
X11075939Y-16322579D01*
X11075939Y-16322579D02*
X11085463Y-16303531D01*
X11085463Y-16303531D02*
X11094987Y-16294008D01*
X11094987Y-16294008D02*
X11114034Y-16284484D01*
X11266415Y-16465436D02*
X11275939Y-16474960D01*
X11275939Y-16474960D02*
X11266415Y-16484484D01*
X11266415Y-16484484D02*
X11256891Y-16474960D01*
X11256891Y-16474960D02*
X11266415Y-16465436D01*
X11266415Y-16465436D02*
X11266415Y-16484484D01*
X11399748Y-16284484D02*
X11418796Y-16284484D01*
X11418796Y-16284484D02*
X11437844Y-16294008D01*
X11437844Y-16294008D02*
X11447367Y-16303531D01*
X11447367Y-16303531D02*
X11456891Y-16322579D01*
X11456891Y-16322579D02*
X11466415Y-16360674D01*
X11466415Y-16360674D02*
X11466415Y-16408293D01*
X11466415Y-16408293D02*
X11456891Y-16446388D01*
X11456891Y-16446388D02*
X11447367Y-16465436D01*
X11447367Y-16465436D02*
X11437844Y-16474960D01*
X11437844Y-16474960D02*
X11418796Y-16484484D01*
X11418796Y-16484484D02*
X11399748Y-16484484D01*
X11399748Y-16484484D02*
X11380701Y-16474960D01*
X11380701Y-16474960D02*
X11371177Y-16465436D01*
X11371177Y-16465436D02*
X11361653Y-16446388D01*
X11361653Y-16446388D02*
X11352129Y-16408293D01*
X11352129Y-16408293D02*
X11352129Y-16360674D01*
X11352129Y-16360674D02*
X11361653Y-16322579D01*
X11361653Y-16322579D02*
X11371177Y-16303531D01*
X11371177Y-16303531D02*
X11380701Y-16294008D01*
X11380701Y-16294008D02*
X11399748Y-16284484D01*
X11656891Y-16484484D02*
X11542606Y-16484484D01*
X11599748Y-16484484D02*
X11599748Y-16284484D01*
X11599748Y-16284484D02*
X11580701Y-16313055D01*
X11580701Y-16313055D02*
X11561653Y-16332103D01*
X11561653Y-16332103D02*
X11542606Y-16341627D01*
X11837844Y-16284484D02*
X11742606Y-16284484D01*
X11742606Y-16284484D02*
X11733082Y-16379722D01*
X11733082Y-16379722D02*
X11742606Y-16370198D01*
X11742606Y-16370198D02*
X11761653Y-16360674D01*
X11761653Y-16360674D02*
X11809272Y-16360674D01*
X11809272Y-16360674D02*
X11828320Y-16370198D01*
X11828320Y-16370198D02*
X11837844Y-16379722D01*
X11837844Y-16379722D02*
X11847367Y-16398769D01*
X11847367Y-16398769D02*
X11847367Y-16446388D01*
X11847367Y-16446388D02*
X11837844Y-16465436D01*
X11837844Y-16465436D02*
X11828320Y-16474960D01*
X11828320Y-16474960D02*
X11809272Y-16484484D01*
X11809272Y-16484484D02*
X11761653Y-16484484D01*
X11761653Y-16484484D02*
X11742606Y-16474960D01*
X11742606Y-16474960D02*
X11733082Y-16465436D01*
X11914034Y-16284484D02*
X12047367Y-16284484D01*
X12047367Y-16284484D02*
X11961653Y-16484484D01*
X12114034Y-16284484D02*
X12114034Y-16322579D01*
X12190225Y-16284484D02*
X12190225Y-16322579D01*
X12485463Y-16560674D02*
X12475939Y-16551150D01*
X12475939Y-16551150D02*
X12456891Y-16522579D01*
X12456891Y-16522579D02*
X12447368Y-16503531D01*
X12447368Y-16503531D02*
X12437844Y-16474960D01*
X12437844Y-16474960D02*
X12428320Y-16427341D01*
X12428320Y-16427341D02*
X12428320Y-16389246D01*
X12428320Y-16389246D02*
X12437844Y-16341627D01*
X12437844Y-16341627D02*
X12447368Y-16313055D01*
X12447368Y-16313055D02*
X12456891Y-16294008D01*
X12456891Y-16294008D02*
X12475939Y-16265436D01*
X12475939Y-16265436D02*
X12485463Y-16255912D01*
X12666415Y-16484484D02*
X12552129Y-16484484D01*
X12609272Y-16484484D02*
X12609272Y-16284484D01*
X12609272Y-16284484D02*
X12590225Y-16313055D01*
X12590225Y-16313055D02*
X12571177Y-16332103D01*
X12571177Y-16332103D02*
X12552129Y-16341627D01*
X12790225Y-16284484D02*
X12809272Y-16284484D01*
X12809272Y-16284484D02*
X12828320Y-16294008D01*
X12828320Y-16294008D02*
X12837844Y-16303531D01*
X12837844Y-16303531D02*
X12847368Y-16322579D01*
X12847368Y-16322579D02*
X12856891Y-16360674D01*
X12856891Y-16360674D02*
X12856891Y-16408293D01*
X12856891Y-16408293D02*
X12847368Y-16446388D01*
X12847368Y-16446388D02*
X12837844Y-16465436D01*
X12837844Y-16465436D02*
X12828320Y-16474960D01*
X12828320Y-16474960D02*
X12809272Y-16484484D01*
X12809272Y-16484484D02*
X12790225Y-16484484D01*
X12790225Y-16484484D02*
X12771177Y-16474960D01*
X12771177Y-16474960D02*
X12761653Y-16465436D01*
X12761653Y-16465436D02*
X12752129Y-16446388D01*
X12752129Y-16446388D02*
X12742606Y-16408293D01*
X12742606Y-16408293D02*
X12742606Y-16360674D01*
X12742606Y-16360674D02*
X12752129Y-16322579D01*
X12752129Y-16322579D02*
X12761653Y-16303531D01*
X12761653Y-16303531D02*
X12771177Y-16294008D01*
X12771177Y-16294008D02*
X12790225Y-16284484D01*
X12923558Y-16284484D02*
X13056891Y-16284484D01*
X13056891Y-16284484D02*
X12971177Y-16484484D01*
X13285463Y-16484484D02*
X13285463Y-16284484D01*
X13371177Y-16484484D02*
X13371177Y-16379722D01*
X13371177Y-16379722D02*
X13361653Y-16360674D01*
X13361653Y-16360674D02*
X13342606Y-16351150D01*
X13342606Y-16351150D02*
X13314034Y-16351150D01*
X13314034Y-16351150D02*
X13294987Y-16360674D01*
X13294987Y-16360674D02*
X13285463Y-16370198D01*
X13494987Y-16484484D02*
X13475939Y-16474960D01*
X13475939Y-16474960D02*
X13466415Y-16465436D01*
X13466415Y-16465436D02*
X13456891Y-16446388D01*
X13456891Y-16446388D02*
X13456891Y-16389246D01*
X13456891Y-16389246D02*
X13466415Y-16370198D01*
X13466415Y-16370198D02*
X13475939Y-16360674D01*
X13475939Y-16360674D02*
X13494987Y-16351150D01*
X13494987Y-16351150D02*
X13523558Y-16351150D01*
X13523558Y-16351150D02*
X13542606Y-16360674D01*
X13542606Y-16360674D02*
X13552130Y-16370198D01*
X13552130Y-16370198D02*
X13561653Y-16389246D01*
X13561653Y-16389246D02*
X13561653Y-16446388D01*
X13561653Y-16446388D02*
X13552130Y-16465436D01*
X13552130Y-16465436D02*
X13542606Y-16474960D01*
X13542606Y-16474960D02*
X13523558Y-16484484D01*
X13523558Y-16484484D02*
X13494987Y-16484484D01*
X13675939Y-16484484D02*
X13656891Y-16474960D01*
X13656891Y-16474960D02*
X13647368Y-16455912D01*
X13647368Y-16455912D02*
X13647368Y-16284484D01*
X13828320Y-16474960D02*
X13809272Y-16484484D01*
X13809272Y-16484484D02*
X13771177Y-16484484D01*
X13771177Y-16484484D02*
X13752130Y-16474960D01*
X13752130Y-16474960D02*
X13742606Y-16455912D01*
X13742606Y-16455912D02*
X13742606Y-16379722D01*
X13742606Y-16379722D02*
X13752130Y-16360674D01*
X13752130Y-16360674D02*
X13771177Y-16351150D01*
X13771177Y-16351150D02*
X13809272Y-16351150D01*
X13809272Y-16351150D02*
X13828320Y-16360674D01*
X13828320Y-16360674D02*
X13837844Y-16379722D01*
X13837844Y-16379722D02*
X13837844Y-16398769D01*
X13837844Y-16398769D02*
X13742606Y-16417817D01*
X13914034Y-16474960D02*
X13933082Y-16484484D01*
X13933082Y-16484484D02*
X13971177Y-16484484D01*
X13971177Y-16484484D02*
X13990225Y-16474960D01*
X13990225Y-16474960D02*
X13999749Y-16455912D01*
X13999749Y-16455912D02*
X13999749Y-16446388D01*
X13999749Y-16446388D02*
X13990225Y-16427341D01*
X13990225Y-16427341D02*
X13971177Y-16417817D01*
X13971177Y-16417817D02*
X13942606Y-16417817D01*
X13942606Y-16417817D02*
X13923558Y-16408293D01*
X13923558Y-16408293D02*
X13914034Y-16389246D01*
X13914034Y-16389246D02*
X13914034Y-16379722D01*
X13914034Y-16379722D02*
X13923558Y-16360674D01*
X13923558Y-16360674D02*
X13942606Y-16351150D01*
X13942606Y-16351150D02*
X13971177Y-16351150D01*
X13971177Y-16351150D02*
X13990225Y-16360674D01*
X14066415Y-16560674D02*
X14075939Y-16551150D01*
X14075939Y-16551150D02*
X14094987Y-16522579D01*
X14094987Y-16522579D02*
X14104511Y-16503531D01*
X14104511Y-16503531D02*
X14114034Y-16474960D01*
X14114034Y-16474960D02*
X14123558Y-16427341D01*
X14123558Y-16427341D02*
X14123558Y-16389246D01*
X14123558Y-16389246D02*
X14114034Y-16341627D01*
X14114034Y-16341627D02*
X14104511Y-16313055D01*
X14104511Y-16313055D02*
X14094987Y-16294008D01*
X14094987Y-16294008D02*
X14075939Y-16265436D01*
X14075939Y-16265436D02*
X14066415Y-16255912D01*
D10*
X8910400Y-16657000D02*
G75*
G03*
X8830400Y-16657000I-40000J0D01*
G01*
X8830400Y-16657000D02*
G75*
G03*
X8910400Y-16657000I40000J0D01*
G01*
D11*
X9209272Y-16548484D02*
X9228320Y-16548484D01*
X9228320Y-16548484D02*
X9247367Y-16558008D01*
X9247367Y-16558008D02*
X9256891Y-16567531D01*
X9256891Y-16567531D02*
X9266415Y-16586579D01*
X9266415Y-16586579D02*
X9275939Y-16624674D01*
X9275939Y-16624674D02*
X9275939Y-16672293D01*
X9275939Y-16672293D02*
X9266415Y-16710388D01*
X9266415Y-16710388D02*
X9256891Y-16729436D01*
X9256891Y-16729436D02*
X9247367Y-16738960D01*
X9247367Y-16738960D02*
X9228320Y-16748484D01*
X9228320Y-16748484D02*
X9209272Y-16748484D01*
X9209272Y-16748484D02*
X9190224Y-16738960D01*
X9190224Y-16738960D02*
X9180701Y-16729436D01*
X9180701Y-16729436D02*
X9171177Y-16710388D01*
X9171177Y-16710388D02*
X9161653Y-16672293D01*
X9161653Y-16672293D02*
X9161653Y-16624674D01*
X9161653Y-16624674D02*
X9171177Y-16586579D01*
X9171177Y-16586579D02*
X9180701Y-16567531D01*
X9180701Y-16567531D02*
X9190224Y-16558008D01*
X9190224Y-16558008D02*
X9209272Y-16548484D01*
X9361653Y-16729436D02*
X9371177Y-16738960D01*
X9371177Y-16738960D02*
X9361653Y-16748484D01*
X9361653Y-16748484D02*
X9352129Y-16738960D01*
X9352129Y-16738960D02*
X9361653Y-16729436D01*
X9361653Y-16729436D02*
X9361653Y-16748484D01*
X9485463Y-16634198D02*
X9466415Y-16624674D01*
X9466415Y-16624674D02*
X9456891Y-16615150D01*
X9456891Y-16615150D02*
X9447367Y-16596103D01*
X9447367Y-16596103D02*
X9447367Y-16586579D01*
X9447367Y-16586579D02*
X9456891Y-16567531D01*
X9456891Y-16567531D02*
X9466415Y-16558008D01*
X9466415Y-16558008D02*
X9485463Y-16548484D01*
X9485463Y-16548484D02*
X9523558Y-16548484D01*
X9523558Y-16548484D02*
X9542605Y-16558008D01*
X9542605Y-16558008D02*
X9552129Y-16567531D01*
X9552129Y-16567531D02*
X9561653Y-16586579D01*
X9561653Y-16586579D02*
X9561653Y-16596103D01*
X9561653Y-16596103D02*
X9552129Y-16615150D01*
X9552129Y-16615150D02*
X9542605Y-16624674D01*
X9542605Y-16624674D02*
X9523558Y-16634198D01*
X9523558Y-16634198D02*
X9485463Y-16634198D01*
X9485463Y-16634198D02*
X9466415Y-16643722D01*
X9466415Y-16643722D02*
X9456891Y-16653246D01*
X9456891Y-16653246D02*
X9447367Y-16672293D01*
X9447367Y-16672293D02*
X9447367Y-16710388D01*
X9447367Y-16710388D02*
X9456891Y-16729436D01*
X9456891Y-16729436D02*
X9466415Y-16738960D01*
X9466415Y-16738960D02*
X9485463Y-16748484D01*
X9485463Y-16748484D02*
X9523558Y-16748484D01*
X9523558Y-16748484D02*
X9542605Y-16738960D01*
X9542605Y-16738960D02*
X9552129Y-16729436D01*
X9552129Y-16729436D02*
X9561653Y-16710388D01*
X9561653Y-16710388D02*
X9561653Y-16672293D01*
X9561653Y-16672293D02*
X9552129Y-16653246D01*
X9552129Y-16653246D02*
X9542605Y-16643722D01*
X9542605Y-16643722D02*
X9523558Y-16634198D01*
X9685463Y-16548484D02*
X9704510Y-16548484D01*
X9704510Y-16548484D02*
X9723558Y-16558008D01*
X9723558Y-16558008D02*
X9733082Y-16567531D01*
X9733082Y-16567531D02*
X9742605Y-16586579D01*
X9742605Y-16586579D02*
X9752129Y-16624674D01*
X9752129Y-16624674D02*
X9752129Y-16672293D01*
X9752129Y-16672293D02*
X9742605Y-16710388D01*
X9742605Y-16710388D02*
X9733082Y-16729436D01*
X9733082Y-16729436D02*
X9723558Y-16738960D01*
X9723558Y-16738960D02*
X9704510Y-16748484D01*
X9704510Y-16748484D02*
X9685463Y-16748484D01*
X9685463Y-16748484D02*
X9666415Y-16738960D01*
X9666415Y-16738960D02*
X9656891Y-16729436D01*
X9656891Y-16729436D02*
X9647367Y-16710388D01*
X9647367Y-16710388D02*
X9637844Y-16672293D01*
X9637844Y-16672293D02*
X9637844Y-16624674D01*
X9637844Y-16624674D02*
X9647367Y-16586579D01*
X9647367Y-16586579D02*
X9656891Y-16567531D01*
X9656891Y-16567531D02*
X9666415Y-16558008D01*
X9666415Y-16558008D02*
X9685463Y-16548484D01*
X9875939Y-16548484D02*
X9894986Y-16548484D01*
X9894986Y-16548484D02*
X9914034Y-16558008D01*
X9914034Y-16558008D02*
X9923558Y-16567531D01*
X9923558Y-16567531D02*
X9933082Y-16586579D01*
X9933082Y-16586579D02*
X9942605Y-16624674D01*
X9942605Y-16624674D02*
X9942605Y-16672293D01*
X9942605Y-16672293D02*
X9933082Y-16710388D01*
X9933082Y-16710388D02*
X9923558Y-16729436D01*
X9923558Y-16729436D02*
X9914034Y-16738960D01*
X9914034Y-16738960D02*
X9894986Y-16748484D01*
X9894986Y-16748484D02*
X9875939Y-16748484D01*
X9875939Y-16748484D02*
X9856891Y-16738960D01*
X9856891Y-16738960D02*
X9847367Y-16729436D01*
X9847367Y-16729436D02*
X9837844Y-16710388D01*
X9837844Y-16710388D02*
X9828320Y-16672293D01*
X9828320Y-16672293D02*
X9828320Y-16624674D01*
X9828320Y-16624674D02*
X9837844Y-16586579D01*
X9837844Y-16586579D02*
X9847367Y-16567531D01*
X9847367Y-16567531D02*
X9856891Y-16558008D01*
X9856891Y-16558008D02*
X9875939Y-16548484D01*
X10028320Y-16748484D02*
X10028320Y-16615150D01*
X10028320Y-16634198D02*
X10037844Y-16624674D01*
X10037844Y-16624674D02*
X10056891Y-16615150D01*
X10056891Y-16615150D02*
X10085463Y-16615150D01*
X10085463Y-16615150D02*
X10104510Y-16624674D01*
X10104510Y-16624674D02*
X10114034Y-16643722D01*
X10114034Y-16643722D02*
X10114034Y-16748484D01*
X10114034Y-16643722D02*
X10123558Y-16624674D01*
X10123558Y-16624674D02*
X10142605Y-16615150D01*
X10142605Y-16615150D02*
X10171177Y-16615150D01*
X10171177Y-16615150D02*
X10190225Y-16624674D01*
X10190225Y-16624674D02*
X10199748Y-16643722D01*
X10199748Y-16643722D02*
X10199748Y-16748484D01*
X10294986Y-16748484D02*
X10294986Y-16615150D01*
X10294986Y-16634198D02*
X10304510Y-16624674D01*
X10304510Y-16624674D02*
X10323558Y-16615150D01*
X10323558Y-16615150D02*
X10352129Y-16615150D01*
X10352129Y-16615150D02*
X10371177Y-16624674D01*
X10371177Y-16624674D02*
X10380701Y-16643722D01*
X10380701Y-16643722D02*
X10380701Y-16748484D01*
X10380701Y-16643722D02*
X10390225Y-16624674D01*
X10390225Y-16624674D02*
X10409272Y-16615150D01*
X10409272Y-16615150D02*
X10437844Y-16615150D01*
X10437844Y-16615150D02*
X10456891Y-16624674D01*
X10456891Y-16624674D02*
X10466415Y-16643722D01*
X10466415Y-16643722D02*
X10466415Y-16748484D01*
X10856891Y-16538960D02*
X10685463Y-16796103D01*
X11114034Y-16548484D02*
X11133082Y-16548484D01*
X11133082Y-16548484D02*
X11152129Y-16558008D01*
X11152129Y-16558008D02*
X11161653Y-16567531D01*
X11161653Y-16567531D02*
X11171177Y-16586579D01*
X11171177Y-16586579D02*
X11180701Y-16624674D01*
X11180701Y-16624674D02*
X11180701Y-16672293D01*
X11180701Y-16672293D02*
X11171177Y-16710388D01*
X11171177Y-16710388D02*
X11161653Y-16729436D01*
X11161653Y-16729436D02*
X11152129Y-16738960D01*
X11152129Y-16738960D02*
X11133082Y-16748484D01*
X11133082Y-16748484D02*
X11114034Y-16748484D01*
X11114034Y-16748484D02*
X11094987Y-16738960D01*
X11094987Y-16738960D02*
X11085463Y-16729436D01*
X11085463Y-16729436D02*
X11075939Y-16710388D01*
X11075939Y-16710388D02*
X11066415Y-16672293D01*
X11066415Y-16672293D02*
X11066415Y-16624674D01*
X11066415Y-16624674D02*
X11075939Y-16586579D01*
X11075939Y-16586579D02*
X11085463Y-16567531D01*
X11085463Y-16567531D02*
X11094987Y-16558008D01*
X11094987Y-16558008D02*
X11114034Y-16548484D01*
X11266415Y-16729436D02*
X11275939Y-16738960D01*
X11275939Y-16738960D02*
X11266415Y-16748484D01*
X11266415Y-16748484D02*
X11256891Y-16738960D01*
X11256891Y-16738960D02*
X11266415Y-16729436D01*
X11266415Y-16729436D02*
X11266415Y-16748484D01*
X11399748Y-16548484D02*
X11418796Y-16548484D01*
X11418796Y-16548484D02*
X11437844Y-16558008D01*
X11437844Y-16558008D02*
X11447367Y-16567531D01*
X11447367Y-16567531D02*
X11456891Y-16586579D01*
X11456891Y-16586579D02*
X11466415Y-16624674D01*
X11466415Y-16624674D02*
X11466415Y-16672293D01*
X11466415Y-16672293D02*
X11456891Y-16710388D01*
X11456891Y-16710388D02*
X11447367Y-16729436D01*
X11447367Y-16729436D02*
X11437844Y-16738960D01*
X11437844Y-16738960D02*
X11418796Y-16748484D01*
X11418796Y-16748484D02*
X11399748Y-16748484D01*
X11399748Y-16748484D02*
X11380701Y-16738960D01*
X11380701Y-16738960D02*
X11371177Y-16729436D01*
X11371177Y-16729436D02*
X11361653Y-16710388D01*
X11361653Y-16710388D02*
X11352129Y-16672293D01*
X11352129Y-16672293D02*
X11352129Y-16624674D01*
X11352129Y-16624674D02*
X11361653Y-16586579D01*
X11361653Y-16586579D02*
X11371177Y-16567531D01*
X11371177Y-16567531D02*
X11380701Y-16558008D01*
X11380701Y-16558008D02*
X11399748Y-16548484D01*
X11533082Y-16548484D02*
X11656891Y-16548484D01*
X11656891Y-16548484D02*
X11590225Y-16624674D01*
X11590225Y-16624674D02*
X11618796Y-16624674D01*
X11618796Y-16624674D02*
X11637844Y-16634198D01*
X11637844Y-16634198D02*
X11647367Y-16643722D01*
X11647367Y-16643722D02*
X11656891Y-16662769D01*
X11656891Y-16662769D02*
X11656891Y-16710388D01*
X11656891Y-16710388D02*
X11647367Y-16729436D01*
X11647367Y-16729436D02*
X11637844Y-16738960D01*
X11637844Y-16738960D02*
X11618796Y-16748484D01*
X11618796Y-16748484D02*
X11561653Y-16748484D01*
X11561653Y-16748484D02*
X11542606Y-16738960D01*
X11542606Y-16738960D02*
X11533082Y-16729436D01*
X11847367Y-16748484D02*
X11733082Y-16748484D01*
X11790225Y-16748484D02*
X11790225Y-16548484D01*
X11790225Y-16548484D02*
X11771177Y-16577055D01*
X11771177Y-16577055D02*
X11752129Y-16596103D01*
X11752129Y-16596103D02*
X11733082Y-16605627D01*
X12028320Y-16548484D02*
X11933082Y-16548484D01*
X11933082Y-16548484D02*
X11923558Y-16643722D01*
X11923558Y-16643722D02*
X11933082Y-16634198D01*
X11933082Y-16634198D02*
X11952129Y-16624674D01*
X11952129Y-16624674D02*
X11999748Y-16624674D01*
X11999748Y-16624674D02*
X12018796Y-16634198D01*
X12018796Y-16634198D02*
X12028320Y-16643722D01*
X12028320Y-16643722D02*
X12037844Y-16662769D01*
X12037844Y-16662769D02*
X12037844Y-16710388D01*
X12037844Y-16710388D02*
X12028320Y-16729436D01*
X12028320Y-16729436D02*
X12018796Y-16738960D01*
X12018796Y-16738960D02*
X11999748Y-16748484D01*
X11999748Y-16748484D02*
X11952129Y-16748484D01*
X11952129Y-16748484D02*
X11933082Y-16738960D01*
X11933082Y-16738960D02*
X11923558Y-16729436D01*
X12114034Y-16548484D02*
X12114034Y-16586579D01*
X12190225Y-16548484D02*
X12190225Y-16586579D01*
X12485463Y-16824674D02*
X12475939Y-16815150D01*
X12475939Y-16815150D02*
X12456891Y-16786579D01*
X12456891Y-16786579D02*
X12447368Y-16767531D01*
X12447368Y-16767531D02*
X12437844Y-16738960D01*
X12437844Y-16738960D02*
X12428320Y-16691341D01*
X12428320Y-16691341D02*
X12428320Y-16653246D01*
X12428320Y-16653246D02*
X12437844Y-16605627D01*
X12437844Y-16605627D02*
X12447368Y-16577055D01*
X12447368Y-16577055D02*
X12456891Y-16558008D01*
X12456891Y-16558008D02*
X12475939Y-16529436D01*
X12475939Y-16529436D02*
X12485463Y-16519912D01*
X12552129Y-16567531D02*
X12561653Y-16558008D01*
X12561653Y-16558008D02*
X12580701Y-16548484D01*
X12580701Y-16548484D02*
X12628320Y-16548484D01*
X12628320Y-16548484D02*
X12647368Y-16558008D01*
X12647368Y-16558008D02*
X12656891Y-16567531D01*
X12656891Y-16567531D02*
X12666415Y-16586579D01*
X12666415Y-16586579D02*
X12666415Y-16605627D01*
X12666415Y-16605627D02*
X12656891Y-16634198D01*
X12656891Y-16634198D02*
X12542606Y-16748484D01*
X12542606Y-16748484D02*
X12666415Y-16748484D01*
X12904510Y-16748484D02*
X12904510Y-16548484D01*
X12990225Y-16748484D02*
X12990225Y-16643722D01*
X12990225Y-16643722D02*
X12980701Y-16624674D01*
X12980701Y-16624674D02*
X12961653Y-16615150D01*
X12961653Y-16615150D02*
X12933082Y-16615150D01*
X12933082Y-16615150D02*
X12914034Y-16624674D01*
X12914034Y-16624674D02*
X12904510Y-16634198D01*
X13114034Y-16748484D02*
X13094987Y-16738960D01*
X13094987Y-16738960D02*
X13085463Y-16729436D01*
X13085463Y-16729436D02*
X13075939Y-16710388D01*
X13075939Y-16710388D02*
X13075939Y-16653246D01*
X13075939Y-16653246D02*
X13085463Y-16634198D01*
X13085463Y-16634198D02*
X13094987Y-16624674D01*
X13094987Y-16624674D02*
X13114034Y-16615150D01*
X13114034Y-16615150D02*
X13142606Y-16615150D01*
X13142606Y-16615150D02*
X13161653Y-16624674D01*
X13161653Y-16624674D02*
X13171177Y-16634198D01*
X13171177Y-16634198D02*
X13180701Y-16653246D01*
X13180701Y-16653246D02*
X13180701Y-16710388D01*
X13180701Y-16710388D02*
X13171177Y-16729436D01*
X13171177Y-16729436D02*
X13161653Y-16738960D01*
X13161653Y-16738960D02*
X13142606Y-16748484D01*
X13142606Y-16748484D02*
X13114034Y-16748484D01*
X13294987Y-16748484D02*
X13275939Y-16738960D01*
X13275939Y-16738960D02*
X13266415Y-16719912D01*
X13266415Y-16719912D02*
X13266415Y-16548484D01*
X13447368Y-16738960D02*
X13428320Y-16748484D01*
X13428320Y-16748484D02*
X13390225Y-16748484D01*
X13390225Y-16748484D02*
X13371177Y-16738960D01*
X13371177Y-16738960D02*
X13361653Y-16719912D01*
X13361653Y-16719912D02*
X13361653Y-16643722D01*
X13361653Y-16643722D02*
X13371177Y-16624674D01*
X13371177Y-16624674D02*
X13390225Y-16615150D01*
X13390225Y-16615150D02*
X13428320Y-16615150D01*
X13428320Y-16615150D02*
X13447368Y-16624674D01*
X13447368Y-16624674D02*
X13456891Y-16643722D01*
X13456891Y-16643722D02*
X13456891Y-16662769D01*
X13456891Y-16662769D02*
X13361653Y-16681817D01*
X13533082Y-16738960D02*
X13552130Y-16748484D01*
X13552130Y-16748484D02*
X13590225Y-16748484D01*
X13590225Y-16748484D02*
X13609272Y-16738960D01*
X13609272Y-16738960D02*
X13618796Y-16719912D01*
X13618796Y-16719912D02*
X13618796Y-16710388D01*
X13618796Y-16710388D02*
X13609272Y-16691341D01*
X13609272Y-16691341D02*
X13590225Y-16681817D01*
X13590225Y-16681817D02*
X13561653Y-16681817D01*
X13561653Y-16681817D02*
X13542606Y-16672293D01*
X13542606Y-16672293D02*
X13533082Y-16653246D01*
X13533082Y-16653246D02*
X13533082Y-16643722D01*
X13533082Y-16643722D02*
X13542606Y-16624674D01*
X13542606Y-16624674D02*
X13561653Y-16615150D01*
X13561653Y-16615150D02*
X13590225Y-16615150D01*
X13590225Y-16615150D02*
X13609272Y-16624674D01*
X13685463Y-16824674D02*
X13694987Y-16815150D01*
X13694987Y-16815150D02*
X13714034Y-16786579D01*
X13714034Y-16786579D02*
X13723558Y-16767531D01*
X13723558Y-16767531D02*
X13733082Y-16738960D01*
X13733082Y-16738960D02*
X13742606Y-16691341D01*
X13742606Y-16691341D02*
X13742606Y-16653246D01*
X13742606Y-16653246D02*
X13733082Y-16605627D01*
X13733082Y-16605627D02*
X13723558Y-16577055D01*
X13723558Y-16577055D02*
X13714034Y-16558008D01*
X13714034Y-16558008D02*
X13694987Y-16529436D01*
X13694987Y-16529436D02*
X13685463Y-16519912D01*
D10*
X8860400Y-16871000D02*
X8860400Y-16971000D01*
X8810400Y-16921000D02*
X8910400Y-16921000D01*
D11*
X9275939Y-17012484D02*
X9161653Y-17012484D01*
X9218796Y-17012484D02*
X9218796Y-16812484D01*
X9218796Y-16812484D02*
X9199748Y-16841055D01*
X9199748Y-16841055D02*
X9180701Y-16860103D01*
X9180701Y-16860103D02*
X9161653Y-16869627D01*
X9361653Y-16993436D02*
X9371177Y-17002960D01*
X9371177Y-17002960D02*
X9361653Y-17012484D01*
X9361653Y-17012484D02*
X9352129Y-17002960D01*
X9352129Y-17002960D02*
X9361653Y-16993436D01*
X9361653Y-16993436D02*
X9361653Y-17012484D01*
X9494986Y-16812484D02*
X9514034Y-16812484D01*
X9514034Y-16812484D02*
X9533082Y-16822008D01*
X9533082Y-16822008D02*
X9542605Y-16831531D01*
X9542605Y-16831531D02*
X9552129Y-16850579D01*
X9552129Y-16850579D02*
X9561653Y-16888674D01*
X9561653Y-16888674D02*
X9561653Y-16936293D01*
X9561653Y-16936293D02*
X9552129Y-16974389D01*
X9552129Y-16974389D02*
X9542605Y-16993436D01*
X9542605Y-16993436D02*
X9533082Y-17002960D01*
X9533082Y-17002960D02*
X9514034Y-17012484D01*
X9514034Y-17012484D02*
X9494986Y-17012484D01*
X9494986Y-17012484D02*
X9475939Y-17002960D01*
X9475939Y-17002960D02*
X9466415Y-16993436D01*
X9466415Y-16993436D02*
X9456891Y-16974389D01*
X9456891Y-16974389D02*
X9447367Y-16936293D01*
X9447367Y-16936293D02*
X9447367Y-16888674D01*
X9447367Y-16888674D02*
X9456891Y-16850579D01*
X9456891Y-16850579D02*
X9466415Y-16831531D01*
X9466415Y-16831531D02*
X9475939Y-16822008D01*
X9475939Y-16822008D02*
X9494986Y-16812484D01*
X9685463Y-16812484D02*
X9704510Y-16812484D01*
X9704510Y-16812484D02*
X9723558Y-16822008D01*
X9723558Y-16822008D02*
X9733082Y-16831531D01*
X9733082Y-16831531D02*
X9742605Y-16850579D01*
X9742605Y-16850579D02*
X9752129Y-16888674D01*
X9752129Y-16888674D02*
X9752129Y-16936293D01*
X9752129Y-16936293D02*
X9742605Y-16974389D01*
X9742605Y-16974389D02*
X9733082Y-16993436D01*
X9733082Y-16993436D02*
X9723558Y-17002960D01*
X9723558Y-17002960D02*
X9704510Y-17012484D01*
X9704510Y-17012484D02*
X9685463Y-17012484D01*
X9685463Y-17012484D02*
X9666415Y-17002960D01*
X9666415Y-17002960D02*
X9656891Y-16993436D01*
X9656891Y-16993436D02*
X9647367Y-16974389D01*
X9647367Y-16974389D02*
X9637844Y-16936293D01*
X9637844Y-16936293D02*
X9637844Y-16888674D01*
X9637844Y-16888674D02*
X9647367Y-16850579D01*
X9647367Y-16850579D02*
X9656891Y-16831531D01*
X9656891Y-16831531D02*
X9666415Y-16822008D01*
X9666415Y-16822008D02*
X9685463Y-16812484D01*
X9875939Y-16812484D02*
X9894986Y-16812484D01*
X9894986Y-16812484D02*
X9914034Y-16822008D01*
X9914034Y-16822008D02*
X9923558Y-16831531D01*
X9923558Y-16831531D02*
X9933082Y-16850579D01*
X9933082Y-16850579D02*
X9942605Y-16888674D01*
X9942605Y-16888674D02*
X9942605Y-16936293D01*
X9942605Y-16936293D02*
X9933082Y-16974389D01*
X9933082Y-16974389D02*
X9923558Y-16993436D01*
X9923558Y-16993436D02*
X9914034Y-17002960D01*
X9914034Y-17002960D02*
X9894986Y-17012484D01*
X9894986Y-17012484D02*
X9875939Y-17012484D01*
X9875939Y-17012484D02*
X9856891Y-17002960D01*
X9856891Y-17002960D02*
X9847367Y-16993436D01*
X9847367Y-16993436D02*
X9837844Y-16974389D01*
X9837844Y-16974389D02*
X9828320Y-16936293D01*
X9828320Y-16936293D02*
X9828320Y-16888674D01*
X9828320Y-16888674D02*
X9837844Y-16850579D01*
X9837844Y-16850579D02*
X9847367Y-16831531D01*
X9847367Y-16831531D02*
X9856891Y-16822008D01*
X9856891Y-16822008D02*
X9875939Y-16812484D01*
X10028320Y-17012484D02*
X10028320Y-16879150D01*
X10028320Y-16898198D02*
X10037844Y-16888674D01*
X10037844Y-16888674D02*
X10056891Y-16879150D01*
X10056891Y-16879150D02*
X10085463Y-16879150D01*
X10085463Y-16879150D02*
X10104510Y-16888674D01*
X10104510Y-16888674D02*
X10114034Y-16907722D01*
X10114034Y-16907722D02*
X10114034Y-17012484D01*
X10114034Y-16907722D02*
X10123558Y-16888674D01*
X10123558Y-16888674D02*
X10142605Y-16879150D01*
X10142605Y-16879150D02*
X10171177Y-16879150D01*
X10171177Y-16879150D02*
X10190225Y-16888674D01*
X10190225Y-16888674D02*
X10199748Y-16907722D01*
X10199748Y-16907722D02*
X10199748Y-17012484D01*
X10294986Y-17012484D02*
X10294986Y-16879150D01*
X10294986Y-16898198D02*
X10304510Y-16888674D01*
X10304510Y-16888674D02*
X10323558Y-16879150D01*
X10323558Y-16879150D02*
X10352129Y-16879150D01*
X10352129Y-16879150D02*
X10371177Y-16888674D01*
X10371177Y-16888674D02*
X10380701Y-16907722D01*
X10380701Y-16907722D02*
X10380701Y-17012484D01*
X10380701Y-16907722D02*
X10390225Y-16888674D01*
X10390225Y-16888674D02*
X10409272Y-16879150D01*
X10409272Y-16879150D02*
X10437844Y-16879150D01*
X10437844Y-16879150D02*
X10456891Y-16888674D01*
X10456891Y-16888674D02*
X10466415Y-16907722D01*
X10466415Y-16907722D02*
X10466415Y-17012484D01*
X10856891Y-16802960D02*
X10685463Y-17060103D01*
X11114034Y-16812484D02*
X11133082Y-16812484D01*
X11133082Y-16812484D02*
X11152129Y-16822008D01*
X11152129Y-16822008D02*
X11161653Y-16831531D01*
X11161653Y-16831531D02*
X11171177Y-16850579D01*
X11171177Y-16850579D02*
X11180701Y-16888674D01*
X11180701Y-16888674D02*
X11180701Y-16936293D01*
X11180701Y-16936293D02*
X11171177Y-16974389D01*
X11171177Y-16974389D02*
X11161653Y-16993436D01*
X11161653Y-16993436D02*
X11152129Y-17002960D01*
X11152129Y-17002960D02*
X11133082Y-17012484D01*
X11133082Y-17012484D02*
X11114034Y-17012484D01*
X11114034Y-17012484D02*
X11094987Y-17002960D01*
X11094987Y-17002960D02*
X11085463Y-16993436D01*
X11085463Y-16993436D02*
X11075939Y-16974389D01*
X11075939Y-16974389D02*
X11066415Y-16936293D01*
X11066415Y-16936293D02*
X11066415Y-16888674D01*
X11066415Y-16888674D02*
X11075939Y-16850579D01*
X11075939Y-16850579D02*
X11085463Y-16831531D01*
X11085463Y-16831531D02*
X11094987Y-16822008D01*
X11094987Y-16822008D02*
X11114034Y-16812484D01*
X11266415Y-16993436D02*
X11275939Y-17002960D01*
X11275939Y-17002960D02*
X11266415Y-17012484D01*
X11266415Y-17012484D02*
X11256891Y-17002960D01*
X11256891Y-17002960D02*
X11266415Y-16993436D01*
X11266415Y-16993436D02*
X11266415Y-17012484D01*
X11399748Y-16812484D02*
X11418796Y-16812484D01*
X11418796Y-16812484D02*
X11437844Y-16822008D01*
X11437844Y-16822008D02*
X11447367Y-16831531D01*
X11447367Y-16831531D02*
X11456891Y-16850579D01*
X11456891Y-16850579D02*
X11466415Y-16888674D01*
X11466415Y-16888674D02*
X11466415Y-16936293D01*
X11466415Y-16936293D02*
X11456891Y-16974389D01*
X11456891Y-16974389D02*
X11447367Y-16993436D01*
X11447367Y-16993436D02*
X11437844Y-17002960D01*
X11437844Y-17002960D02*
X11418796Y-17012484D01*
X11418796Y-17012484D02*
X11399748Y-17012484D01*
X11399748Y-17012484D02*
X11380701Y-17002960D01*
X11380701Y-17002960D02*
X11371177Y-16993436D01*
X11371177Y-16993436D02*
X11361653Y-16974389D01*
X11361653Y-16974389D02*
X11352129Y-16936293D01*
X11352129Y-16936293D02*
X11352129Y-16888674D01*
X11352129Y-16888674D02*
X11361653Y-16850579D01*
X11361653Y-16850579D02*
X11371177Y-16831531D01*
X11371177Y-16831531D02*
X11380701Y-16822008D01*
X11380701Y-16822008D02*
X11399748Y-16812484D01*
X11533082Y-16812484D02*
X11656891Y-16812484D01*
X11656891Y-16812484D02*
X11590225Y-16888674D01*
X11590225Y-16888674D02*
X11618796Y-16888674D01*
X11618796Y-16888674D02*
X11637844Y-16898198D01*
X11637844Y-16898198D02*
X11647367Y-16907722D01*
X11647367Y-16907722D02*
X11656891Y-16926770D01*
X11656891Y-16926770D02*
X11656891Y-16974389D01*
X11656891Y-16974389D02*
X11647367Y-16993436D01*
X11647367Y-16993436D02*
X11637844Y-17002960D01*
X11637844Y-17002960D02*
X11618796Y-17012484D01*
X11618796Y-17012484D02*
X11561653Y-17012484D01*
X11561653Y-17012484D02*
X11542606Y-17002960D01*
X11542606Y-17002960D02*
X11533082Y-16993436D01*
X11752129Y-17012484D02*
X11790225Y-17012484D01*
X11790225Y-17012484D02*
X11809272Y-17002960D01*
X11809272Y-17002960D02*
X11818796Y-16993436D01*
X11818796Y-16993436D02*
X11837844Y-16964865D01*
X11837844Y-16964865D02*
X11847367Y-16926770D01*
X11847367Y-16926770D02*
X11847367Y-16850579D01*
X11847367Y-16850579D02*
X11837844Y-16831531D01*
X11837844Y-16831531D02*
X11828320Y-16822008D01*
X11828320Y-16822008D02*
X11809272Y-16812484D01*
X11809272Y-16812484D02*
X11771177Y-16812484D01*
X11771177Y-16812484D02*
X11752129Y-16822008D01*
X11752129Y-16822008D02*
X11742606Y-16831531D01*
X11742606Y-16831531D02*
X11733082Y-16850579D01*
X11733082Y-16850579D02*
X11733082Y-16898198D01*
X11733082Y-16898198D02*
X11742606Y-16917246D01*
X11742606Y-16917246D02*
X11752129Y-16926770D01*
X11752129Y-16926770D02*
X11771177Y-16936293D01*
X11771177Y-16936293D02*
X11809272Y-16936293D01*
X11809272Y-16936293D02*
X11828320Y-16926770D01*
X11828320Y-16926770D02*
X11837844Y-16917246D01*
X11837844Y-16917246D02*
X11847367Y-16898198D01*
X12018796Y-16879150D02*
X12018796Y-17012484D01*
X11971177Y-16802960D02*
X11923558Y-16945817D01*
X11923558Y-16945817D02*
X12047367Y-16945817D01*
X12114034Y-16812484D02*
X12114034Y-16850579D01*
X12190225Y-16812484D02*
X12190225Y-16850579D01*
X12485463Y-17088674D02*
X12475939Y-17079150D01*
X12475939Y-17079150D02*
X12456891Y-17050579D01*
X12456891Y-17050579D02*
X12447368Y-17031531D01*
X12447368Y-17031531D02*
X12437844Y-17002960D01*
X12437844Y-17002960D02*
X12428320Y-16955341D01*
X12428320Y-16955341D02*
X12428320Y-16917246D01*
X12428320Y-16917246D02*
X12437844Y-16869627D01*
X12437844Y-16869627D02*
X12447368Y-16841055D01*
X12447368Y-16841055D02*
X12456891Y-16822008D01*
X12456891Y-16822008D02*
X12475939Y-16793436D01*
X12475939Y-16793436D02*
X12485463Y-16783912D01*
X12666415Y-17012484D02*
X12552129Y-17012484D01*
X12609272Y-17012484D02*
X12609272Y-16812484D01*
X12609272Y-16812484D02*
X12590225Y-16841055D01*
X12590225Y-16841055D02*
X12571177Y-16860103D01*
X12571177Y-16860103D02*
X12552129Y-16869627D01*
X12733082Y-16812484D02*
X12866415Y-16812484D01*
X12866415Y-16812484D02*
X12780701Y-17012484D01*
X13094987Y-17012484D02*
X13094987Y-16812484D01*
X13180701Y-17012484D02*
X13180701Y-16907722D01*
X13180701Y-16907722D02*
X13171177Y-16888674D01*
X13171177Y-16888674D02*
X13152130Y-16879150D01*
X13152130Y-16879150D02*
X13123558Y-16879150D01*
X13123558Y-16879150D02*
X13104510Y-16888674D01*
X13104510Y-16888674D02*
X13094987Y-16898198D01*
X13304510Y-17012484D02*
X13285463Y-17002960D01*
X13285463Y-17002960D02*
X13275939Y-16993436D01*
X13275939Y-16993436D02*
X13266415Y-16974389D01*
X13266415Y-16974389D02*
X13266415Y-16917246D01*
X13266415Y-16917246D02*
X13275939Y-16898198D01*
X13275939Y-16898198D02*
X13285463Y-16888674D01*
X13285463Y-16888674D02*
X13304510Y-16879150D01*
X13304510Y-16879150D02*
X13333082Y-16879150D01*
X13333082Y-16879150D02*
X13352130Y-16888674D01*
X13352130Y-16888674D02*
X13361653Y-16898198D01*
X13361653Y-16898198D02*
X13371177Y-16917246D01*
X13371177Y-16917246D02*
X13371177Y-16974389D01*
X13371177Y-16974389D02*
X13361653Y-16993436D01*
X13361653Y-16993436D02*
X13352130Y-17002960D01*
X13352130Y-17002960D02*
X13333082Y-17012484D01*
X13333082Y-17012484D02*
X13304510Y-17012484D01*
X13485463Y-17012484D02*
X13466415Y-17002960D01*
X13466415Y-17002960D02*
X13456891Y-16983912D01*
X13456891Y-16983912D02*
X13456891Y-16812484D01*
X13637844Y-17002960D02*
X13618796Y-17012484D01*
X13618796Y-17012484D02*
X13580701Y-17012484D01*
X13580701Y-17012484D02*
X13561653Y-17002960D01*
X13561653Y-17002960D02*
X13552130Y-16983912D01*
X13552130Y-16983912D02*
X13552130Y-16907722D01*
X13552130Y-16907722D02*
X13561653Y-16888674D01*
X13561653Y-16888674D02*
X13580701Y-16879150D01*
X13580701Y-16879150D02*
X13618796Y-16879150D01*
X13618796Y-16879150D02*
X13637844Y-16888674D01*
X13637844Y-16888674D02*
X13647368Y-16907722D01*
X13647368Y-16907722D02*
X13647368Y-16926770D01*
X13647368Y-16926770D02*
X13552130Y-16945817D01*
X13723558Y-17002960D02*
X13742606Y-17012484D01*
X13742606Y-17012484D02*
X13780701Y-17012484D01*
X13780701Y-17012484D02*
X13799749Y-17002960D01*
X13799749Y-17002960D02*
X13809272Y-16983912D01*
X13809272Y-16983912D02*
X13809272Y-16974389D01*
X13809272Y-16974389D02*
X13799749Y-16955341D01*
X13799749Y-16955341D02*
X13780701Y-16945817D01*
X13780701Y-16945817D02*
X13752130Y-16945817D01*
X13752130Y-16945817D02*
X13733082Y-16936293D01*
X13733082Y-16936293D02*
X13723558Y-16917246D01*
X13723558Y-16917246D02*
X13723558Y-16907722D01*
X13723558Y-16907722D02*
X13733082Y-16888674D01*
X13733082Y-16888674D02*
X13752130Y-16879150D01*
X13752130Y-16879150D02*
X13780701Y-16879150D01*
X13780701Y-16879150D02*
X13799749Y-16888674D01*
X13875939Y-17088674D02*
X13885463Y-17079150D01*
X13885463Y-17079150D02*
X13904511Y-17050579D01*
X13904511Y-17050579D02*
X13914034Y-17031531D01*
X13914034Y-17031531D02*
X13923558Y-17002960D01*
X13923558Y-17002960D02*
X13933082Y-16955341D01*
X13933082Y-16955341D02*
X13933082Y-16917246D01*
X13933082Y-16917246D02*
X13923558Y-16869627D01*
X13923558Y-16869627D02*
X13914034Y-16841055D01*
X13914034Y-16841055D02*
X13904511Y-16822008D01*
X13904511Y-16822008D02*
X13885463Y-16793436D01*
X13885463Y-16793436D02*
X13875939Y-16783912D01*
D12*
X8892827Y-17227427D02*
X8892827Y-17142573D01*
X8807973Y-17142573D01*
X8807973Y-17227427D01*
X8892827Y-17227427D01*
D11*
X9275939Y-17276484D02*
X9161653Y-17276484D01*
X9218796Y-17276484D02*
X9218796Y-17076484D01*
X9218796Y-17076484D02*
X9199748Y-17105055D01*
X9199748Y-17105055D02*
X9180701Y-17124103D01*
X9180701Y-17124103D02*
X9161653Y-17133627D01*
X9361653Y-17257436D02*
X9371177Y-17266960D01*
X9371177Y-17266960D02*
X9361653Y-17276484D01*
X9361653Y-17276484D02*
X9352129Y-17266960D01*
X9352129Y-17266960D02*
X9361653Y-17257436D01*
X9361653Y-17257436D02*
X9361653Y-17276484D01*
X9447367Y-17095531D02*
X9456891Y-17086008D01*
X9456891Y-17086008D02*
X9475939Y-17076484D01*
X9475939Y-17076484D02*
X9523558Y-17076484D01*
X9523558Y-17076484D02*
X9542605Y-17086008D01*
X9542605Y-17086008D02*
X9552129Y-17095531D01*
X9552129Y-17095531D02*
X9561653Y-17114579D01*
X9561653Y-17114579D02*
X9561653Y-17133627D01*
X9561653Y-17133627D02*
X9552129Y-17162198D01*
X9552129Y-17162198D02*
X9437844Y-17276484D01*
X9437844Y-17276484D02*
X9561653Y-17276484D01*
X9685463Y-17076484D02*
X9704510Y-17076484D01*
X9704510Y-17076484D02*
X9723558Y-17086008D01*
X9723558Y-17086008D02*
X9733082Y-17095531D01*
X9733082Y-17095531D02*
X9742605Y-17114579D01*
X9742605Y-17114579D02*
X9752129Y-17152674D01*
X9752129Y-17152674D02*
X9752129Y-17200293D01*
X9752129Y-17200293D02*
X9742605Y-17238389D01*
X9742605Y-17238389D02*
X9733082Y-17257436D01*
X9733082Y-17257436D02*
X9723558Y-17266960D01*
X9723558Y-17266960D02*
X9704510Y-17276484D01*
X9704510Y-17276484D02*
X9685463Y-17276484D01*
X9685463Y-17276484D02*
X9666415Y-17266960D01*
X9666415Y-17266960D02*
X9656891Y-17257436D01*
X9656891Y-17257436D02*
X9647367Y-17238389D01*
X9647367Y-17238389D02*
X9637844Y-17200293D01*
X9637844Y-17200293D02*
X9637844Y-17152674D01*
X9637844Y-17152674D02*
X9647367Y-17114579D01*
X9647367Y-17114579D02*
X9656891Y-17095531D01*
X9656891Y-17095531D02*
X9666415Y-17086008D01*
X9666415Y-17086008D02*
X9685463Y-17076484D01*
X9875939Y-17076484D02*
X9894986Y-17076484D01*
X9894986Y-17076484D02*
X9914034Y-17086008D01*
X9914034Y-17086008D02*
X9923558Y-17095531D01*
X9923558Y-17095531D02*
X9933082Y-17114579D01*
X9933082Y-17114579D02*
X9942605Y-17152674D01*
X9942605Y-17152674D02*
X9942605Y-17200293D01*
X9942605Y-17200293D02*
X9933082Y-17238389D01*
X9933082Y-17238389D02*
X9923558Y-17257436D01*
X9923558Y-17257436D02*
X9914034Y-17266960D01*
X9914034Y-17266960D02*
X9894986Y-17276484D01*
X9894986Y-17276484D02*
X9875939Y-17276484D01*
X9875939Y-17276484D02*
X9856891Y-17266960D01*
X9856891Y-17266960D02*
X9847367Y-17257436D01*
X9847367Y-17257436D02*
X9837844Y-17238389D01*
X9837844Y-17238389D02*
X9828320Y-17200293D01*
X9828320Y-17200293D02*
X9828320Y-17152674D01*
X9828320Y-17152674D02*
X9837844Y-17114579D01*
X9837844Y-17114579D02*
X9847367Y-17095531D01*
X9847367Y-17095531D02*
X9856891Y-17086008D01*
X9856891Y-17086008D02*
X9875939Y-17076484D01*
X10028320Y-17276484D02*
X10028320Y-17143150D01*
X10028320Y-17162198D02*
X10037844Y-17152674D01*
X10037844Y-17152674D02*
X10056891Y-17143150D01*
X10056891Y-17143150D02*
X10085463Y-17143150D01*
X10085463Y-17143150D02*
X10104510Y-17152674D01*
X10104510Y-17152674D02*
X10114034Y-17171722D01*
X10114034Y-17171722D02*
X10114034Y-17276484D01*
X10114034Y-17171722D02*
X10123558Y-17152674D01*
X10123558Y-17152674D02*
X10142605Y-17143150D01*
X10142605Y-17143150D02*
X10171177Y-17143150D01*
X10171177Y-17143150D02*
X10190225Y-17152674D01*
X10190225Y-17152674D02*
X10199748Y-17171722D01*
X10199748Y-17171722D02*
X10199748Y-17276484D01*
X10294986Y-17276484D02*
X10294986Y-17143150D01*
X10294986Y-17162198D02*
X10304510Y-17152674D01*
X10304510Y-17152674D02*
X10323558Y-17143150D01*
X10323558Y-17143150D02*
X10352129Y-17143150D01*
X10352129Y-17143150D02*
X10371177Y-17152674D01*
X10371177Y-17152674D02*
X10380701Y-17171722D01*
X10380701Y-17171722D02*
X10380701Y-17276484D01*
X10380701Y-17171722D02*
X10390225Y-17152674D01*
X10390225Y-17152674D02*
X10409272Y-17143150D01*
X10409272Y-17143150D02*
X10437844Y-17143150D01*
X10437844Y-17143150D02*
X10456891Y-17152674D01*
X10456891Y-17152674D02*
X10466415Y-17171722D01*
X10466415Y-17171722D02*
X10466415Y-17276484D01*
X10856891Y-17066960D02*
X10685463Y-17324103D01*
X11114034Y-17076484D02*
X11133082Y-17076484D01*
X11133082Y-17076484D02*
X11152129Y-17086008D01*
X11152129Y-17086008D02*
X11161653Y-17095531D01*
X11161653Y-17095531D02*
X11171177Y-17114579D01*
X11171177Y-17114579D02*
X11180701Y-17152674D01*
X11180701Y-17152674D02*
X11180701Y-17200293D01*
X11180701Y-17200293D02*
X11171177Y-17238389D01*
X11171177Y-17238389D02*
X11161653Y-17257436D01*
X11161653Y-17257436D02*
X11152129Y-17266960D01*
X11152129Y-17266960D02*
X11133082Y-17276484D01*
X11133082Y-17276484D02*
X11114034Y-17276484D01*
X11114034Y-17276484D02*
X11094987Y-17266960D01*
X11094987Y-17266960D02*
X11085463Y-17257436D01*
X11085463Y-17257436D02*
X11075939Y-17238389D01*
X11075939Y-17238389D02*
X11066415Y-17200293D01*
X11066415Y-17200293D02*
X11066415Y-17152674D01*
X11066415Y-17152674D02*
X11075939Y-17114579D01*
X11075939Y-17114579D02*
X11085463Y-17095531D01*
X11085463Y-17095531D02*
X11094987Y-17086008D01*
X11094987Y-17086008D02*
X11114034Y-17076484D01*
X11266415Y-17257436D02*
X11275939Y-17266960D01*
X11275939Y-17266960D02*
X11266415Y-17276484D01*
X11266415Y-17276484D02*
X11256891Y-17266960D01*
X11256891Y-17266960D02*
X11266415Y-17257436D01*
X11266415Y-17257436D02*
X11266415Y-17276484D01*
X11399748Y-17076484D02*
X11418796Y-17076484D01*
X11418796Y-17076484D02*
X11437844Y-17086008D01*
X11437844Y-17086008D02*
X11447367Y-17095531D01*
X11447367Y-17095531D02*
X11456891Y-17114579D01*
X11456891Y-17114579D02*
X11466415Y-17152674D01*
X11466415Y-17152674D02*
X11466415Y-17200293D01*
X11466415Y-17200293D02*
X11456891Y-17238389D01*
X11456891Y-17238389D02*
X11447367Y-17257436D01*
X11447367Y-17257436D02*
X11437844Y-17266960D01*
X11437844Y-17266960D02*
X11418796Y-17276484D01*
X11418796Y-17276484D02*
X11399748Y-17276484D01*
X11399748Y-17276484D02*
X11380701Y-17266960D01*
X11380701Y-17266960D02*
X11371177Y-17257436D01*
X11371177Y-17257436D02*
X11361653Y-17238389D01*
X11361653Y-17238389D02*
X11352129Y-17200293D01*
X11352129Y-17200293D02*
X11352129Y-17152674D01*
X11352129Y-17152674D02*
X11361653Y-17114579D01*
X11361653Y-17114579D02*
X11371177Y-17095531D01*
X11371177Y-17095531D02*
X11380701Y-17086008D01*
X11380701Y-17086008D02*
X11399748Y-17076484D01*
X11637844Y-17143150D02*
X11637844Y-17276484D01*
X11590225Y-17066960D02*
X11542606Y-17209817D01*
X11542606Y-17209817D02*
X11666415Y-17209817D01*
X11723558Y-17076484D02*
X11856891Y-17076484D01*
X11856891Y-17076484D02*
X11771177Y-17276484D01*
X11923558Y-17095531D02*
X11933082Y-17086008D01*
X11933082Y-17086008D02*
X11952129Y-17076484D01*
X11952129Y-17076484D02*
X11999748Y-17076484D01*
X11999748Y-17076484D02*
X12018796Y-17086008D01*
X12018796Y-17086008D02*
X12028320Y-17095531D01*
X12028320Y-17095531D02*
X12037844Y-17114579D01*
X12037844Y-17114579D02*
X12037844Y-17133627D01*
X12037844Y-17133627D02*
X12028320Y-17162198D01*
X12028320Y-17162198D02*
X11914034Y-17276484D01*
X11914034Y-17276484D02*
X12037844Y-17276484D01*
X12114034Y-17076484D02*
X12114034Y-17114579D01*
X12190225Y-17076484D02*
X12190225Y-17114579D01*
X12485463Y-17352674D02*
X12475939Y-17343150D01*
X12475939Y-17343150D02*
X12456891Y-17314579D01*
X12456891Y-17314579D02*
X12447368Y-17295531D01*
X12447368Y-17295531D02*
X12437844Y-17266960D01*
X12437844Y-17266960D02*
X12428320Y-17219341D01*
X12428320Y-17219341D02*
X12428320Y-17181246D01*
X12428320Y-17181246D02*
X12437844Y-17133627D01*
X12437844Y-17133627D02*
X12447368Y-17105055D01*
X12447368Y-17105055D02*
X12456891Y-17086008D01*
X12456891Y-17086008D02*
X12475939Y-17057436D01*
X12475939Y-17057436D02*
X12485463Y-17047912D01*
X12647368Y-17143150D02*
X12647368Y-17276484D01*
X12599748Y-17066960D02*
X12552129Y-17209817D01*
X12552129Y-17209817D02*
X12675939Y-17209817D01*
X12904510Y-17276484D02*
X12904510Y-17076484D01*
X12990225Y-17276484D02*
X12990225Y-17171722D01*
X12990225Y-17171722D02*
X12980701Y-17152674D01*
X12980701Y-17152674D02*
X12961653Y-17143150D01*
X12961653Y-17143150D02*
X12933082Y-17143150D01*
X12933082Y-17143150D02*
X12914034Y-17152674D01*
X12914034Y-17152674D02*
X12904510Y-17162198D01*
X13114034Y-17276484D02*
X13094987Y-17266960D01*
X13094987Y-17266960D02*
X13085463Y-17257436D01*
X13085463Y-17257436D02*
X13075939Y-17238389D01*
X13075939Y-17238389D02*
X13075939Y-17181246D01*
X13075939Y-17181246D02*
X13085463Y-17162198D01*
X13085463Y-17162198D02*
X13094987Y-17152674D01*
X13094987Y-17152674D02*
X13114034Y-17143150D01*
X13114034Y-17143150D02*
X13142606Y-17143150D01*
X13142606Y-17143150D02*
X13161653Y-17152674D01*
X13161653Y-17152674D02*
X13171177Y-17162198D01*
X13171177Y-17162198D02*
X13180701Y-17181246D01*
X13180701Y-17181246D02*
X13180701Y-17238389D01*
X13180701Y-17238389D02*
X13171177Y-17257436D01*
X13171177Y-17257436D02*
X13161653Y-17266960D01*
X13161653Y-17266960D02*
X13142606Y-17276484D01*
X13142606Y-17276484D02*
X13114034Y-17276484D01*
X13294987Y-17276484D02*
X13275939Y-17266960D01*
X13275939Y-17266960D02*
X13266415Y-17247912D01*
X13266415Y-17247912D02*
X13266415Y-17076484D01*
X13447368Y-17266960D02*
X13428320Y-17276484D01*
X13428320Y-17276484D02*
X13390225Y-17276484D01*
X13390225Y-17276484D02*
X13371177Y-17266960D01*
X13371177Y-17266960D02*
X13361653Y-17247912D01*
X13361653Y-17247912D02*
X13361653Y-17171722D01*
X13361653Y-17171722D02*
X13371177Y-17152674D01*
X13371177Y-17152674D02*
X13390225Y-17143150D01*
X13390225Y-17143150D02*
X13428320Y-17143150D01*
X13428320Y-17143150D02*
X13447368Y-17152674D01*
X13447368Y-17152674D02*
X13456891Y-17171722D01*
X13456891Y-17171722D02*
X13456891Y-17190770D01*
X13456891Y-17190770D02*
X13361653Y-17209817D01*
X13533082Y-17266960D02*
X13552130Y-17276484D01*
X13552130Y-17276484D02*
X13590225Y-17276484D01*
X13590225Y-17276484D02*
X13609272Y-17266960D01*
X13609272Y-17266960D02*
X13618796Y-17247912D01*
X13618796Y-17247912D02*
X13618796Y-17238389D01*
X13618796Y-17238389D02*
X13609272Y-17219341D01*
X13609272Y-17219341D02*
X13590225Y-17209817D01*
X13590225Y-17209817D02*
X13561653Y-17209817D01*
X13561653Y-17209817D02*
X13542606Y-17200293D01*
X13542606Y-17200293D02*
X13533082Y-17181246D01*
X13533082Y-17181246D02*
X13533082Y-17171722D01*
X13533082Y-17171722D02*
X13542606Y-17152674D01*
X13542606Y-17152674D02*
X13561653Y-17143150D01*
X13561653Y-17143150D02*
X13590225Y-17143150D01*
X13590225Y-17143150D02*
X13609272Y-17152674D01*
X13685463Y-17352674D02*
X13694987Y-17343150D01*
X13694987Y-17343150D02*
X13714034Y-17314579D01*
X13714034Y-17314579D02*
X13723558Y-17295531D01*
X13723558Y-17295531D02*
X13733082Y-17266960D01*
X13733082Y-17266960D02*
X13742606Y-17219341D01*
X13742606Y-17219341D02*
X13742606Y-17181246D01*
X13742606Y-17181246D02*
X13733082Y-17133627D01*
X13733082Y-17133627D02*
X13723558Y-17105055D01*
X13723558Y-17105055D02*
X13714034Y-17086008D01*
X13714034Y-17086008D02*
X13694987Y-17057436D01*
X13694987Y-17057436D02*
X13685463Y-17047912D01*
D13*
X8825400Y-17534000D02*
X8910400Y-17449000D01*
X8825400Y-17364000D01*
X8740400Y-17449000D01*
X8825400Y-17534000D01*
D11*
X9275939Y-17540484D02*
X9161653Y-17540484D01*
X9218796Y-17540484D02*
X9218796Y-17340484D01*
X9218796Y-17340484D02*
X9199748Y-17369055D01*
X9199748Y-17369055D02*
X9180701Y-17388103D01*
X9180701Y-17388103D02*
X9161653Y-17397627D01*
X9361653Y-17521436D02*
X9371177Y-17530960D01*
X9371177Y-17530960D02*
X9361653Y-17540484D01*
X9361653Y-17540484D02*
X9352129Y-17530960D01*
X9352129Y-17530960D02*
X9361653Y-17521436D01*
X9361653Y-17521436D02*
X9361653Y-17540484D01*
X9437844Y-17340484D02*
X9571177Y-17340484D01*
X9571177Y-17340484D02*
X9485463Y-17540484D01*
X9685463Y-17340484D02*
X9704510Y-17340484D01*
X9704510Y-17340484D02*
X9723558Y-17350008D01*
X9723558Y-17350008D02*
X9733082Y-17359531D01*
X9733082Y-17359531D02*
X9742605Y-17378579D01*
X9742605Y-17378579D02*
X9752129Y-17416674D01*
X9752129Y-17416674D02*
X9752129Y-17464293D01*
X9752129Y-17464293D02*
X9742605Y-17502389D01*
X9742605Y-17502389D02*
X9733082Y-17521436D01*
X9733082Y-17521436D02*
X9723558Y-17530960D01*
X9723558Y-17530960D02*
X9704510Y-17540484D01*
X9704510Y-17540484D02*
X9685463Y-17540484D01*
X9685463Y-17540484D02*
X9666415Y-17530960D01*
X9666415Y-17530960D02*
X9656891Y-17521436D01*
X9656891Y-17521436D02*
X9647367Y-17502389D01*
X9647367Y-17502389D02*
X9637844Y-17464293D01*
X9637844Y-17464293D02*
X9637844Y-17416674D01*
X9637844Y-17416674D02*
X9647367Y-17378579D01*
X9647367Y-17378579D02*
X9656891Y-17359531D01*
X9656891Y-17359531D02*
X9666415Y-17350008D01*
X9666415Y-17350008D02*
X9685463Y-17340484D01*
X9875939Y-17340484D02*
X9894986Y-17340484D01*
X9894986Y-17340484D02*
X9914034Y-17350008D01*
X9914034Y-17350008D02*
X9923558Y-17359531D01*
X9923558Y-17359531D02*
X9933082Y-17378579D01*
X9933082Y-17378579D02*
X9942605Y-17416674D01*
X9942605Y-17416674D02*
X9942605Y-17464293D01*
X9942605Y-17464293D02*
X9933082Y-17502389D01*
X9933082Y-17502389D02*
X9923558Y-17521436D01*
X9923558Y-17521436D02*
X9914034Y-17530960D01*
X9914034Y-17530960D02*
X9894986Y-17540484D01*
X9894986Y-17540484D02*
X9875939Y-17540484D01*
X9875939Y-17540484D02*
X9856891Y-17530960D01*
X9856891Y-17530960D02*
X9847367Y-17521436D01*
X9847367Y-17521436D02*
X9837844Y-17502389D01*
X9837844Y-17502389D02*
X9828320Y-17464293D01*
X9828320Y-17464293D02*
X9828320Y-17416674D01*
X9828320Y-17416674D02*
X9837844Y-17378579D01*
X9837844Y-17378579D02*
X9847367Y-17359531D01*
X9847367Y-17359531D02*
X9856891Y-17350008D01*
X9856891Y-17350008D02*
X9875939Y-17340484D01*
X10028320Y-17540484D02*
X10028320Y-17407150D01*
X10028320Y-17426198D02*
X10037844Y-17416674D01*
X10037844Y-17416674D02*
X10056891Y-17407150D01*
X10056891Y-17407150D02*
X10085463Y-17407150D01*
X10085463Y-17407150D02*
X10104510Y-17416674D01*
X10104510Y-17416674D02*
X10114034Y-17435722D01*
X10114034Y-17435722D02*
X10114034Y-17540484D01*
X10114034Y-17435722D02*
X10123558Y-17416674D01*
X10123558Y-17416674D02*
X10142605Y-17407150D01*
X10142605Y-17407150D02*
X10171177Y-17407150D01*
X10171177Y-17407150D02*
X10190225Y-17416674D01*
X10190225Y-17416674D02*
X10199748Y-17435722D01*
X10199748Y-17435722D02*
X10199748Y-17540484D01*
X10294986Y-17540484D02*
X10294986Y-17407150D01*
X10294986Y-17426198D02*
X10304510Y-17416674D01*
X10304510Y-17416674D02*
X10323558Y-17407150D01*
X10323558Y-17407150D02*
X10352129Y-17407150D01*
X10352129Y-17407150D02*
X10371177Y-17416674D01*
X10371177Y-17416674D02*
X10380701Y-17435722D01*
X10380701Y-17435722D02*
X10380701Y-17540484D01*
X10380701Y-17435722D02*
X10390225Y-17416674D01*
X10390225Y-17416674D02*
X10409272Y-17407150D01*
X10409272Y-17407150D02*
X10437844Y-17407150D01*
X10437844Y-17407150D02*
X10456891Y-17416674D01*
X10456891Y-17416674D02*
X10466415Y-17435722D01*
X10466415Y-17435722D02*
X10466415Y-17540484D01*
X10856891Y-17330960D02*
X10685463Y-17588103D01*
X11114034Y-17340484D02*
X11133082Y-17340484D01*
X11133082Y-17340484D02*
X11152129Y-17350008D01*
X11152129Y-17350008D02*
X11161653Y-17359531D01*
X11161653Y-17359531D02*
X11171177Y-17378579D01*
X11171177Y-17378579D02*
X11180701Y-17416674D01*
X11180701Y-17416674D02*
X11180701Y-17464293D01*
X11180701Y-17464293D02*
X11171177Y-17502389D01*
X11171177Y-17502389D02*
X11161653Y-17521436D01*
X11161653Y-17521436D02*
X11152129Y-17530960D01*
X11152129Y-17530960D02*
X11133082Y-17540484D01*
X11133082Y-17540484D02*
X11114034Y-17540484D01*
X11114034Y-17540484D02*
X11094987Y-17530960D01*
X11094987Y-17530960D02*
X11085463Y-17521436D01*
X11085463Y-17521436D02*
X11075939Y-17502389D01*
X11075939Y-17502389D02*
X11066415Y-17464293D01*
X11066415Y-17464293D02*
X11066415Y-17416674D01*
X11066415Y-17416674D02*
X11075939Y-17378579D01*
X11075939Y-17378579D02*
X11085463Y-17359531D01*
X11085463Y-17359531D02*
X11094987Y-17350008D01*
X11094987Y-17350008D02*
X11114034Y-17340484D01*
X11266415Y-17521436D02*
X11275939Y-17530960D01*
X11275939Y-17530960D02*
X11266415Y-17540484D01*
X11266415Y-17540484D02*
X11256891Y-17530960D01*
X11256891Y-17530960D02*
X11266415Y-17521436D01*
X11266415Y-17521436D02*
X11266415Y-17540484D01*
X11399748Y-17340484D02*
X11418796Y-17340484D01*
X11418796Y-17340484D02*
X11437844Y-17350008D01*
X11437844Y-17350008D02*
X11447367Y-17359531D01*
X11447367Y-17359531D02*
X11456891Y-17378579D01*
X11456891Y-17378579D02*
X11466415Y-17416674D01*
X11466415Y-17416674D02*
X11466415Y-17464293D01*
X11466415Y-17464293D02*
X11456891Y-17502389D01*
X11456891Y-17502389D02*
X11447367Y-17521436D01*
X11447367Y-17521436D02*
X11437844Y-17530960D01*
X11437844Y-17530960D02*
X11418796Y-17540484D01*
X11418796Y-17540484D02*
X11399748Y-17540484D01*
X11399748Y-17540484D02*
X11380701Y-17530960D01*
X11380701Y-17530960D02*
X11371177Y-17521436D01*
X11371177Y-17521436D02*
X11361653Y-17502389D01*
X11361653Y-17502389D02*
X11352129Y-17464293D01*
X11352129Y-17464293D02*
X11352129Y-17416674D01*
X11352129Y-17416674D02*
X11361653Y-17378579D01*
X11361653Y-17378579D02*
X11371177Y-17359531D01*
X11371177Y-17359531D02*
X11380701Y-17350008D01*
X11380701Y-17350008D02*
X11399748Y-17340484D01*
X11637844Y-17340484D02*
X11599748Y-17340484D01*
X11599748Y-17340484D02*
X11580701Y-17350008D01*
X11580701Y-17350008D02*
X11571177Y-17359531D01*
X11571177Y-17359531D02*
X11552129Y-17388103D01*
X11552129Y-17388103D02*
X11542606Y-17426198D01*
X11542606Y-17426198D02*
X11542606Y-17502389D01*
X11542606Y-17502389D02*
X11552129Y-17521436D01*
X11552129Y-17521436D02*
X11561653Y-17530960D01*
X11561653Y-17530960D02*
X11580701Y-17540484D01*
X11580701Y-17540484D02*
X11618796Y-17540484D01*
X11618796Y-17540484D02*
X11637844Y-17530960D01*
X11637844Y-17530960D02*
X11647367Y-17521436D01*
X11647367Y-17521436D02*
X11656891Y-17502389D01*
X11656891Y-17502389D02*
X11656891Y-17454770D01*
X11656891Y-17454770D02*
X11647367Y-17435722D01*
X11647367Y-17435722D02*
X11637844Y-17426198D01*
X11637844Y-17426198D02*
X11618796Y-17416674D01*
X11618796Y-17416674D02*
X11580701Y-17416674D01*
X11580701Y-17416674D02*
X11561653Y-17426198D01*
X11561653Y-17426198D02*
X11552129Y-17435722D01*
X11552129Y-17435722D02*
X11542606Y-17454770D01*
X11828320Y-17340484D02*
X11790225Y-17340484D01*
X11790225Y-17340484D02*
X11771177Y-17350008D01*
X11771177Y-17350008D02*
X11761653Y-17359531D01*
X11761653Y-17359531D02*
X11742606Y-17388103D01*
X11742606Y-17388103D02*
X11733082Y-17426198D01*
X11733082Y-17426198D02*
X11733082Y-17502389D01*
X11733082Y-17502389D02*
X11742606Y-17521436D01*
X11742606Y-17521436D02*
X11752129Y-17530960D01*
X11752129Y-17530960D02*
X11771177Y-17540484D01*
X11771177Y-17540484D02*
X11809272Y-17540484D01*
X11809272Y-17540484D02*
X11828320Y-17530960D01*
X11828320Y-17530960D02*
X11837844Y-17521436D01*
X11837844Y-17521436D02*
X11847367Y-17502389D01*
X11847367Y-17502389D02*
X11847367Y-17454770D01*
X11847367Y-17454770D02*
X11837844Y-17435722D01*
X11837844Y-17435722D02*
X11828320Y-17426198D01*
X11828320Y-17426198D02*
X11809272Y-17416674D01*
X11809272Y-17416674D02*
X11771177Y-17416674D01*
X11771177Y-17416674D02*
X11752129Y-17426198D01*
X11752129Y-17426198D02*
X11742606Y-17435722D01*
X11742606Y-17435722D02*
X11733082Y-17454770D01*
X11942606Y-17540484D02*
X11980701Y-17540484D01*
X11980701Y-17540484D02*
X11999748Y-17530960D01*
X11999748Y-17530960D02*
X12009272Y-17521436D01*
X12009272Y-17521436D02*
X12028320Y-17492865D01*
X12028320Y-17492865D02*
X12037844Y-17454770D01*
X12037844Y-17454770D02*
X12037844Y-17378579D01*
X12037844Y-17378579D02*
X12028320Y-17359531D01*
X12028320Y-17359531D02*
X12018796Y-17350008D01*
X12018796Y-17350008D02*
X11999748Y-17340484D01*
X11999748Y-17340484D02*
X11961653Y-17340484D01*
X11961653Y-17340484D02*
X11942606Y-17350008D01*
X11942606Y-17350008D02*
X11933082Y-17359531D01*
X11933082Y-17359531D02*
X11923558Y-17378579D01*
X11923558Y-17378579D02*
X11923558Y-17426198D01*
X11923558Y-17426198D02*
X11933082Y-17445246D01*
X11933082Y-17445246D02*
X11942606Y-17454770D01*
X11942606Y-17454770D02*
X11961653Y-17464293D01*
X11961653Y-17464293D02*
X11999748Y-17464293D01*
X11999748Y-17464293D02*
X12018796Y-17454770D01*
X12018796Y-17454770D02*
X12028320Y-17445246D01*
X12028320Y-17445246D02*
X12037844Y-17426198D01*
X12114034Y-17340484D02*
X12114034Y-17378579D01*
X12190225Y-17340484D02*
X12190225Y-17378579D01*
X12485463Y-17616674D02*
X12475939Y-17607150D01*
X12475939Y-17607150D02*
X12456891Y-17578579D01*
X12456891Y-17578579D02*
X12447368Y-17559531D01*
X12447368Y-17559531D02*
X12437844Y-17530960D01*
X12437844Y-17530960D02*
X12428320Y-17483341D01*
X12428320Y-17483341D02*
X12428320Y-17445246D01*
X12428320Y-17445246D02*
X12437844Y-17397627D01*
X12437844Y-17397627D02*
X12447368Y-17369055D01*
X12447368Y-17369055D02*
X12456891Y-17350008D01*
X12456891Y-17350008D02*
X12475939Y-17321436D01*
X12475939Y-17321436D02*
X12485463Y-17311912D01*
X12666415Y-17540484D02*
X12552129Y-17540484D01*
X12609272Y-17540484D02*
X12609272Y-17340484D01*
X12609272Y-17340484D02*
X12590225Y-17369055D01*
X12590225Y-17369055D02*
X12571177Y-17388103D01*
X12571177Y-17388103D02*
X12552129Y-17397627D01*
X12742606Y-17359531D02*
X12752129Y-17350008D01*
X12752129Y-17350008D02*
X12771177Y-17340484D01*
X12771177Y-17340484D02*
X12818796Y-17340484D01*
X12818796Y-17340484D02*
X12837844Y-17350008D01*
X12837844Y-17350008D02*
X12847368Y-17359531D01*
X12847368Y-17359531D02*
X12856891Y-17378579D01*
X12856891Y-17378579D02*
X12856891Y-17397627D01*
X12856891Y-17397627D02*
X12847368Y-17426198D01*
X12847368Y-17426198D02*
X12733082Y-17540484D01*
X12733082Y-17540484D02*
X12856891Y-17540484D01*
X13094987Y-17540484D02*
X13094987Y-17340484D01*
X13180701Y-17540484D02*
X13180701Y-17435722D01*
X13180701Y-17435722D02*
X13171177Y-17416674D01*
X13171177Y-17416674D02*
X13152130Y-17407150D01*
X13152130Y-17407150D02*
X13123558Y-17407150D01*
X13123558Y-17407150D02*
X13104510Y-17416674D01*
X13104510Y-17416674D02*
X13094987Y-17426198D01*
X13304510Y-17540484D02*
X13285463Y-17530960D01*
X13285463Y-17530960D02*
X13275939Y-17521436D01*
X13275939Y-17521436D02*
X13266415Y-17502389D01*
X13266415Y-17502389D02*
X13266415Y-17445246D01*
X13266415Y-17445246D02*
X13275939Y-17426198D01*
X13275939Y-17426198D02*
X13285463Y-17416674D01*
X13285463Y-17416674D02*
X13304510Y-17407150D01*
X13304510Y-17407150D02*
X13333082Y-17407150D01*
X13333082Y-17407150D02*
X13352130Y-17416674D01*
X13352130Y-17416674D02*
X13361653Y-17426198D01*
X13361653Y-17426198D02*
X13371177Y-17445246D01*
X13371177Y-17445246D02*
X13371177Y-17502389D01*
X13371177Y-17502389D02*
X13361653Y-17521436D01*
X13361653Y-17521436D02*
X13352130Y-17530960D01*
X13352130Y-17530960D02*
X13333082Y-17540484D01*
X13333082Y-17540484D02*
X13304510Y-17540484D01*
X13485463Y-17540484D02*
X13466415Y-17530960D01*
X13466415Y-17530960D02*
X13456891Y-17511912D01*
X13456891Y-17511912D02*
X13456891Y-17340484D01*
X13637844Y-17530960D02*
X13618796Y-17540484D01*
X13618796Y-17540484D02*
X13580701Y-17540484D01*
X13580701Y-17540484D02*
X13561653Y-17530960D01*
X13561653Y-17530960D02*
X13552130Y-17511912D01*
X13552130Y-17511912D02*
X13552130Y-17435722D01*
X13552130Y-17435722D02*
X13561653Y-17416674D01*
X13561653Y-17416674D02*
X13580701Y-17407150D01*
X13580701Y-17407150D02*
X13618796Y-17407150D01*
X13618796Y-17407150D02*
X13637844Y-17416674D01*
X13637844Y-17416674D02*
X13647368Y-17435722D01*
X13647368Y-17435722D02*
X13647368Y-17454770D01*
X13647368Y-17454770D02*
X13552130Y-17473817D01*
X13723558Y-17530960D02*
X13742606Y-17540484D01*
X13742606Y-17540484D02*
X13780701Y-17540484D01*
X13780701Y-17540484D02*
X13799749Y-17530960D01*
X13799749Y-17530960D02*
X13809272Y-17511912D01*
X13809272Y-17511912D02*
X13809272Y-17502389D01*
X13809272Y-17502389D02*
X13799749Y-17483341D01*
X13799749Y-17483341D02*
X13780701Y-17473817D01*
X13780701Y-17473817D02*
X13752130Y-17473817D01*
X13752130Y-17473817D02*
X13733082Y-17464293D01*
X13733082Y-17464293D02*
X13723558Y-17445246D01*
X13723558Y-17445246D02*
X13723558Y-17435722D01*
X13723558Y-17435722D02*
X13733082Y-17416674D01*
X13733082Y-17416674D02*
X13752130Y-17407150D01*
X13752130Y-17407150D02*
X13780701Y-17407150D01*
X13780701Y-17407150D02*
X13799749Y-17416674D01*
X13875939Y-17616674D02*
X13885463Y-17607150D01*
X13885463Y-17607150D02*
X13904511Y-17578579D01*
X13904511Y-17578579D02*
X13914034Y-17559531D01*
X13914034Y-17559531D02*
X13923558Y-17530960D01*
X13923558Y-17530960D02*
X13933082Y-17483341D01*
X13933082Y-17483341D02*
X13933082Y-17445246D01*
X13933082Y-17445246D02*
X13923558Y-17397627D01*
X13923558Y-17397627D02*
X13914034Y-17369055D01*
X13914034Y-17369055D02*
X13904511Y-17350008D01*
X13904511Y-17350008D02*
X13885463Y-17321436D01*
X13885463Y-17321436D02*
X13875939Y-17311912D01*
M02*
