M48
; DRILL file {KiCad 7.0.10} date Fri Mar  8 11:36:05 2024
; FORMAT={-:-/ absolute / metric / decimal}
; #@! TF.CreationDate,2024-03-08T11:36:05-05:00
; #@! TF.GenerationSoftware,Kicad,Pcbnew,7.0.10
; #@! TF.FileFunction,Plated,1,2,PTH
FMAT,2
METRIC
; #@! TA.AperFunction,Plated,PTH,ViaDrill
T1C0.400
; #@! TA.AperFunction,Plated,PTH,ComponentDrill
T2C0.800
; #@! TA.AperFunction,Plated,PTH,ComponentDrill
T3C1.000
; #@! TA.AperFunction,Plated,PTH,ComponentDrill
T4C1.200
; #@! TA.AperFunction,Plated,PTH,ComponentDrill
T5C1.700
%
G90
G05
T1
X100.33Y-143.256
X101.346Y-108.204
X101.346Y-109.601
X101.403Y-104.939
X102.235Y-105.664
X104.648Y-132.842
X104.775Y-122.682
X104.775Y-126.238
X105.156Y-117.729
X105.41Y-133.604
X106.172Y-134.366
X108.966Y-147.574
X108.966Y-148.844
X110.236Y-117.734
X110.299Y-127.698
X110.998Y-151.892
X111.404Y-120.075
X112.433Y-120.066
X112.776Y-151.892
X113.538Y-105.918
X114.808Y-94.234
X114.808Y-151.892
X115.062Y-109.347
X116.205Y-118.999
X116.84Y-96.266
X116.84Y-98.298
X117.094Y-113.284
X118.872Y-127.635
X119.38Y-119.522
X120.713Y-118.173
X121.28Y-132.879
X122.174Y-133.604
X122.301Y-114.935
X122.301Y-150.241
X122.881Y-134.329
X122.936Y-94.742
X123.698Y-111.252
X124.333Y-102.87
X124.714Y-130.556
X126.011Y-145.669
X126.011Y-155.167
X126.873Y-125.73
X127.508Y-110.49
X128.27Y-126.746
X130.106Y-110.421
X130.485Y-114.737
X132.334Y-121.666
X132.588Y-133.604
X132.842Y-116.205
X133.159Y-117.919
X134.112Y-122.936
X134.874Y-120.777
X135.509Y-114.718
X135.89Y-110.744
X137.16Y-97.282
X137.257Y-124.43
X137.257Y-129.002
X138.176Y-114.046
X139.446Y-125.73
X139.446Y-128.397
X139.954Y-114.935
X141.986Y-97.282
X141.986Y-107.823
X143.637Y-103.378
X144.9Y-115.436
X146.939Y-110.236
X146.939Y-111.294
X146.939Y-112.353
X146.939Y-113.919
X146.939Y-115.316
X146.944Y-117.861
X147.701Y-126.746
X149.352Y-104.731
X150.876Y-120.322
X151.13Y-122.682
X151.511Y-112.268
X151.765Y-121.285
X152.908Y-104.731
X154.581Y-104.753
X157.48Y-118.11
X157.607Y-104.731
X162.928Y-104.648
X162.928Y-107.569
X163.703Y-124.132
X164.592Y-124.968
X165.1Y-151.921
X165.314Y-144.682
X165.468Y-104.648
X165.481Y-107.569
X168.783Y-148.463
X169.418Y-143.764
X171.958Y-145.796
X177.292Y-94.234
X182.118Y-95.758
X182.118Y-97.79
X182.118Y-99.822
X182.118Y-102.108
X187.368Y-94.064
X189.484Y-118.671
X190.918Y-119.941
X191.643Y-114.861
X191.643Y-116.131
X191.643Y-117.401
X195.453Y-108.077
X195.716Y-99.822
X195.716Y-102.108
X195.716Y-104.394
T2
X107.188Y-142.28
X107.188Y-144.78
T3
X132.08Y-90.932
X132.08Y-93.472
X134.62Y-90.932
X134.62Y-93.472
X137.16Y-90.932
X137.16Y-93.472
X139.7Y-90.932
X139.7Y-93.472
X142.24Y-90.932
X142.24Y-93.472
X149.306Y-100.764
X152.916Y-100.764
X156.528Y-100.764
X160.134Y-100.764
X184.404Y-132.922
X184.404Y-135.422
X184.404Y-137.922
T4
X147.158Y-139.7
X152.158Y-139.7
X186.817Y-147.32
X186.817Y-152.32
T5
X95.504Y-134.874
X95.504Y-138.834
X95.504Y-142.794
X95.504Y-146.754
X95.504Y-150.714
X95.504Y-154.674
X144.459Y-153.458
X148.419Y-153.458
X152.38Y-153.458
X156.339Y-153.458
X168.784Y-151.921
X172.744Y-151.921
M30
