G04 #@! TF.GenerationSoftware,KiCad,Pcbnew,7.0.10*
G04 #@! TF.CreationDate,2024-03-08T11:35:51-05:00*
G04 #@! TF.ProjectId,swipe-stack-hub,73776970-652d-4737-9461-636b2d687562,rev?*
G04 #@! TF.SameCoordinates,Original*
G04 #@! TF.FileFunction,Soldermask,Bot*
G04 #@! TF.FilePolarity,Negative*
%FSLAX46Y46*%
G04 Gerber Fmt 4.6, Leading zero omitted, Abs format (unit mm)*
G04 Created by KiCad (PCBNEW 7.0.10) date 2024-03-08 11:35:51*
%MOMM*%
%LPD*%
G01*
G04 APERTURE LIST*
G04 Aperture macros list*
%AMRoundRect*
0 Rectangle with rounded corners*
0 $1 Rounding radius*
0 $2 $3 $4 $5 $6 $7 $8 $9 X,Y pos of 4 corners*
0 Add a 4 corners polygon primitive as box body*
4,1,4,$2,$3,$4,$5,$6,$7,$8,$9,$2,$3,0*
0 Add four circle primitives for the rounded corners*
1,1,$1+$1,$2,$3*
1,1,$1+$1,$4,$5*
1,1,$1+$1,$6,$7*
1,1,$1+$1,$8,$9*
0 Add four rect primitives between the rounded corners*
20,1,$1+$1,$2,$3,$4,$5,0*
20,1,$1+$1,$4,$5,$6,$7,0*
20,1,$1+$1,$6,$7,$8,$9,0*
20,1,$1+$1,$8,$9,$2,$3,0*%
G04 Aperture macros list end*
%ADD10R,1.600000X1.600000*%
%ADD11C,1.600000*%
%ADD12RoundRect,0.250001X1.099999X1.099999X-1.099999X1.099999X-1.099999X-1.099999X1.099999X-1.099999X0*%
%ADD13C,2.700000*%
%ADD14RoundRect,0.250001X-1.099999X1.099999X-1.099999X-1.099999X1.099999X-1.099999X1.099999X1.099999X0*%
%ADD15C,1.450000*%
%ADD16C,4.000000*%
%ADD17C,1.800000*%
%ADD18C,3.000000*%
%ADD19RoundRect,0.250000X-0.600000X0.600000X-0.600000X-0.600000X0.600000X-0.600000X0.600000X0.600000X0*%
%ADD20C,1.700000*%
%ADD21R,1.700000X1.700000*%
%ADD22C,2.000000*%
%ADD23R,2.400000X2.400000*%
%ADD24C,2.400000*%
%ADD25RoundRect,0.250000X0.350000X0.450000X-0.350000X0.450000X-0.350000X-0.450000X0.350000X-0.450000X0*%
%ADD26RoundRect,0.250000X0.337500X0.475000X-0.337500X0.475000X-0.337500X-0.475000X0.337500X-0.475000X0*%
%ADD27RoundRect,0.250000X-0.337500X-0.475000X0.337500X-0.475000X0.337500X0.475000X-0.337500X0.475000X0*%
%ADD28RoundRect,0.250000X0.475000X-0.337500X0.475000X0.337500X-0.475000X0.337500X-0.475000X-0.337500X0*%
%ADD29C,0.800000*%
G04 APERTURE END LIST*
D10*
X107188000Y-144780000D03*
D11*
X107188000Y-142280000D03*
D12*
X156339500Y-153458000D03*
D13*
X152379500Y-153458000D03*
X148419500Y-153458000D03*
X144459500Y-153458000D03*
D14*
X95504000Y-134874000D03*
D13*
X95504000Y-138834000D03*
X95504000Y-142794000D03*
X95504000Y-146754000D03*
X95504000Y-150714000D03*
X95504000Y-154674000D03*
D15*
X174244000Y-155321000D03*
D12*
X172744000Y-151921000D03*
D13*
X168784000Y-151921000D03*
D16*
X191404000Y-131022000D03*
X191404000Y-139822000D03*
D17*
X184404000Y-137922000D03*
X184404000Y-135422000D03*
X184404000Y-132922000D03*
D18*
X193675000Y-92583000D03*
D19*
X142240000Y-90932000D03*
D20*
X142240000Y-93472000D03*
X139700000Y-90932000D03*
X139700000Y-93472000D03*
X137160000Y-90932000D03*
X137160000Y-93472000D03*
X134620000Y-90932000D03*
X134620000Y-93472000D03*
X132080000Y-90932000D03*
X132080000Y-93472000D03*
D21*
X149305705Y-100763705D03*
D22*
X132488000Y-154168000D03*
D21*
X152915705Y-100763705D03*
D18*
X176530000Y-136525000D03*
X108839000Y-104394000D03*
D23*
X152157729Y-139700000D03*
D24*
X147157729Y-139700000D03*
D23*
X186817000Y-147320000D03*
D24*
X186817000Y-152320000D03*
D21*
X156527705Y-100763705D03*
X160133705Y-100763705D03*
D25*
X161147000Y-146050000D03*
X159147000Y-146050000D03*
D26*
X127910500Y-128397000D03*
X125835500Y-128397000D03*
D27*
X138154500Y-112776000D03*
X140229500Y-112776000D03*
D26*
X136292500Y-124968000D03*
X134217500Y-124968000D03*
D25*
X129397000Y-114681000D03*
X127397000Y-114681000D03*
D27*
X127740500Y-109093000D03*
X129815500Y-109093000D03*
D28*
X123698000Y-120417500D03*
X123698000Y-118342500D03*
D29*
X116840000Y-96266000D03*
X182118000Y-95758000D03*
X195716000Y-102108000D03*
X177292000Y-94234000D03*
X187368000Y-94064000D03*
X114808000Y-151892000D03*
X112776000Y-151892000D03*
X108966000Y-148844000D03*
X126011000Y-145669000D03*
X104775000Y-126238000D03*
X195716000Y-99822000D03*
X122301000Y-150241000D03*
X122936000Y-94742000D03*
X126873000Y-125730000D03*
X157480000Y-118110000D03*
X151511000Y-112268000D03*
X101346000Y-108204000D03*
X134112000Y-122936000D03*
X110998000Y-151892000D03*
X104775000Y-122682000D03*
X126011000Y-155167000D03*
X195716000Y-104394000D03*
X124333000Y-102870000D03*
X108966000Y-147574000D03*
X139954000Y-114935000D03*
X116840000Y-98298000D03*
X114808000Y-94234000D03*
X130106149Y-110421149D03*
D18*
X195453000Y-108077000D03*
D29*
X101346000Y-109601000D03*
X182118000Y-97790000D03*
X123698000Y-111252000D03*
X162927705Y-107569000D03*
X137257000Y-124430000D03*
X143637000Y-103378000D03*
X113538000Y-105918000D03*
X137257000Y-129002000D03*
X162927705Y-104648000D03*
X138176000Y-114046000D03*
X128270000Y-126746000D03*
X165481000Y-107569000D03*
X127508000Y-110490000D03*
X165467705Y-104648000D03*
X115062000Y-109347000D03*
X122301000Y-114935000D03*
X116205000Y-118999000D03*
X110236000Y-117734375D03*
X105156000Y-117729000D03*
X119380000Y-119522352D03*
X190918000Y-119940705D03*
X164592000Y-124968000D03*
X191643000Y-117400705D03*
X133159500Y-117919500D03*
X191643000Y-116130705D03*
X163703000Y-124131705D03*
X146943653Y-117860653D03*
X191643000Y-114860705D03*
X139446000Y-128397000D03*
X139446000Y-125730000D03*
X151765000Y-121284604D03*
X147701000Y-126746000D03*
X132842000Y-116205000D03*
X150876000Y-120321705D03*
X141986000Y-107823000D03*
X141986000Y-97282000D03*
X137160000Y-97282000D03*
X135890000Y-110744000D03*
X104648000Y-132842000D03*
X121279571Y-132879000D03*
X105410000Y-133604000D03*
X122174000Y-133604000D03*
X122881108Y-134329000D03*
X106172000Y-134366000D03*
X100330000Y-143256000D03*
X135509000Y-114718000D03*
X146939000Y-115316000D03*
X157607000Y-104731205D03*
X154580898Y-104753103D03*
X146939000Y-112352666D03*
X146939000Y-111294333D03*
X152908000Y-104731205D03*
X149352000Y-104731205D03*
X146939000Y-110236000D03*
X102235000Y-105664000D03*
X111403893Y-120075424D03*
X112432605Y-120065954D03*
X101402948Y-104939000D03*
X134874000Y-120777000D03*
X118872000Y-127635000D03*
X171958000Y-145796000D03*
X130485000Y-114737000D03*
X110299500Y-127698500D03*
X117094000Y-113284000D03*
X146939000Y-113919000D03*
X182118000Y-102108000D03*
X144899975Y-115435975D03*
X182118000Y-99822000D03*
X132588000Y-133604000D03*
X124714000Y-130556000D03*
X189484000Y-118670705D03*
X151130000Y-122682000D03*
X169418000Y-143764000D03*
X132334000Y-121666000D03*
X168783000Y-148463000D03*
X120713500Y-118173500D03*
X165100000Y-151921000D03*
X165314000Y-144682000D03*
M02*
