G04 #@! TF.GenerationSoftware,KiCad,Pcbnew,7.0.10*
G04 #@! TF.CreationDate,2024-03-08T11:35:51-05:00*
G04 #@! TF.ProjectId,swipe-stack-hub,73776970-652d-4737-9461-636b2d687562,rev?*
G04 #@! TF.SameCoordinates,Original*
G04 #@! TF.FileFunction,Legend,Bot*
G04 #@! TF.FilePolarity,Positive*
%FSLAX46Y46*%
G04 Gerber Fmt 4.6, Leading zero omitted, Abs format (unit mm)*
G04 Created by KiCad (PCBNEW 7.0.10) date 2024-03-08 11:35:51*
%MOMM*%
%LPD*%
G01*
G04 APERTURE LIST*
G04 Aperture macros list*
%AMRoundRect*
0 Rectangle with rounded corners*
0 $1 Rounding radius*
0 $2 $3 $4 $5 $6 $7 $8 $9 X,Y pos of 4 corners*
0 Add a 4 corners polygon primitive as box body*
4,1,4,$2,$3,$4,$5,$6,$7,$8,$9,$2,$3,0*
0 Add four circle primitives for the rounded corners*
1,1,$1+$1,$2,$3*
1,1,$1+$1,$4,$5*
1,1,$1+$1,$6,$7*
1,1,$1+$1,$8,$9*
0 Add four rect primitives between the rounded corners*
20,1,$1+$1,$2,$3,$4,$5,0*
20,1,$1+$1,$4,$5,$6,$7,0*
20,1,$1+$1,$6,$7,$8,$9,0*
20,1,$1+$1,$8,$9,$2,$3,0*%
G04 Aperture macros list end*
%ADD10C,0.150000*%
%ADD11C,0.120000*%
%ADD12R,1.600000X1.600000*%
%ADD13C,1.600000*%
%ADD14RoundRect,0.250001X1.099999X1.099999X-1.099999X1.099999X-1.099999X-1.099999X1.099999X-1.099999X0*%
%ADD15C,2.700000*%
%ADD16RoundRect,0.250001X-1.099999X1.099999X-1.099999X-1.099999X1.099999X-1.099999X1.099999X1.099999X0*%
%ADD17C,1.450000*%
%ADD18C,4.000000*%
%ADD19C,1.800000*%
%ADD20C,3.000000*%
%ADD21RoundRect,0.250000X-0.600000X0.600000X-0.600000X-0.600000X0.600000X-0.600000X0.600000X0.600000X0*%
%ADD22C,1.700000*%
%ADD23R,1.700000X1.700000*%
%ADD24C,2.000000*%
%ADD25R,2.400000X2.400000*%
%ADD26C,2.400000*%
%ADD27RoundRect,0.250000X0.350000X0.450000X-0.350000X0.450000X-0.350000X-0.450000X0.350000X-0.450000X0*%
%ADD28RoundRect,0.250000X0.337500X0.475000X-0.337500X0.475000X-0.337500X-0.475000X0.337500X-0.475000X0*%
%ADD29RoundRect,0.250000X-0.337500X-0.475000X0.337500X-0.475000X0.337500X0.475000X-0.337500X0.475000X0*%
%ADD30RoundRect,0.250000X0.475000X-0.337500X0.475000X0.337500X-0.475000X0.337500X-0.475000X-0.337500X0*%
%ADD31C,0.800000*%
G04 APERTURE END LIST*
D10*
X160789857Y-144854819D02*
X161123190Y-144378628D01*
X161361285Y-144854819D02*
X161361285Y-143854819D01*
X161361285Y-143854819D02*
X160980333Y-143854819D01*
X160980333Y-143854819D02*
X160885095Y-143902438D01*
X160885095Y-143902438D02*
X160837476Y-143950057D01*
X160837476Y-143950057D02*
X160789857Y-144045295D01*
X160789857Y-144045295D02*
X160789857Y-144188152D01*
X160789857Y-144188152D02*
X160837476Y-144283390D01*
X160837476Y-144283390D02*
X160885095Y-144331009D01*
X160885095Y-144331009D02*
X160980333Y-144378628D01*
X160980333Y-144378628D02*
X161361285Y-144378628D01*
X159837476Y-144854819D02*
X160408904Y-144854819D01*
X160123190Y-144854819D02*
X160123190Y-143854819D01*
X160123190Y-143854819D02*
X160218428Y-143997676D01*
X160218428Y-143997676D02*
X160313666Y-144092914D01*
X160313666Y-144092914D02*
X160408904Y-144140533D01*
X158932714Y-143854819D02*
X159408904Y-143854819D01*
X159408904Y-143854819D02*
X159456523Y-144331009D01*
X159456523Y-144331009D02*
X159408904Y-144283390D01*
X159408904Y-144283390D02*
X159313666Y-144235771D01*
X159313666Y-144235771D02*
X159075571Y-144235771D01*
X159075571Y-144235771D02*
X158980333Y-144283390D01*
X158980333Y-144283390D02*
X158932714Y-144331009D01*
X158932714Y-144331009D02*
X158885095Y-144426247D01*
X158885095Y-144426247D02*
X158885095Y-144664342D01*
X158885095Y-144664342D02*
X158932714Y-144759580D01*
X158932714Y-144759580D02*
X158980333Y-144807200D01*
X158980333Y-144807200D02*
X159075571Y-144854819D01*
X159075571Y-144854819D02*
X159313666Y-144854819D01*
X159313666Y-144854819D02*
X159408904Y-144807200D01*
X159408904Y-144807200D02*
X159456523Y-144759580D01*
X127061166Y-130534580D02*
X127108785Y-130582200D01*
X127108785Y-130582200D02*
X127251642Y-130629819D01*
X127251642Y-130629819D02*
X127346880Y-130629819D01*
X127346880Y-130629819D02*
X127489737Y-130582200D01*
X127489737Y-130582200D02*
X127584975Y-130486961D01*
X127584975Y-130486961D02*
X127632594Y-130391723D01*
X127632594Y-130391723D02*
X127680213Y-130201247D01*
X127680213Y-130201247D02*
X127680213Y-130058390D01*
X127680213Y-130058390D02*
X127632594Y-129867914D01*
X127632594Y-129867914D02*
X127584975Y-129772676D01*
X127584975Y-129772676D02*
X127489737Y-129677438D01*
X127489737Y-129677438D02*
X127346880Y-129629819D01*
X127346880Y-129629819D02*
X127251642Y-129629819D01*
X127251642Y-129629819D02*
X127108785Y-129677438D01*
X127108785Y-129677438D02*
X127061166Y-129725057D01*
X126584975Y-130629819D02*
X126394499Y-130629819D01*
X126394499Y-130629819D02*
X126299261Y-130582200D01*
X126299261Y-130582200D02*
X126251642Y-130534580D01*
X126251642Y-130534580D02*
X126156404Y-130391723D01*
X126156404Y-130391723D02*
X126108785Y-130201247D01*
X126108785Y-130201247D02*
X126108785Y-129820295D01*
X126108785Y-129820295D02*
X126156404Y-129725057D01*
X126156404Y-129725057D02*
X126204023Y-129677438D01*
X126204023Y-129677438D02*
X126299261Y-129629819D01*
X126299261Y-129629819D02*
X126489737Y-129629819D01*
X126489737Y-129629819D02*
X126584975Y-129677438D01*
X126584975Y-129677438D02*
X126632594Y-129725057D01*
X126632594Y-129725057D02*
X126680213Y-129820295D01*
X126680213Y-129820295D02*
X126680213Y-130058390D01*
X126680213Y-130058390D02*
X126632594Y-130153628D01*
X126632594Y-130153628D02*
X126584975Y-130201247D01*
X126584975Y-130201247D02*
X126489737Y-130248866D01*
X126489737Y-130248866D02*
X126299261Y-130248866D01*
X126299261Y-130248866D02*
X126204023Y-130201247D01*
X126204023Y-130201247D02*
X126156404Y-130153628D01*
X126156404Y-130153628D02*
X126108785Y-130058390D01*
X139358666Y-114815580D02*
X139406285Y-114863200D01*
X139406285Y-114863200D02*
X139549142Y-114910819D01*
X139549142Y-114910819D02*
X139644380Y-114910819D01*
X139644380Y-114910819D02*
X139787237Y-114863200D01*
X139787237Y-114863200D02*
X139882475Y-114767961D01*
X139882475Y-114767961D02*
X139930094Y-114672723D01*
X139930094Y-114672723D02*
X139977713Y-114482247D01*
X139977713Y-114482247D02*
X139977713Y-114339390D01*
X139977713Y-114339390D02*
X139930094Y-114148914D01*
X139930094Y-114148914D02*
X139882475Y-114053676D01*
X139882475Y-114053676D02*
X139787237Y-113958438D01*
X139787237Y-113958438D02*
X139644380Y-113910819D01*
X139644380Y-113910819D02*
X139549142Y-113910819D01*
X139549142Y-113910819D02*
X139406285Y-113958438D01*
X139406285Y-113958438D02*
X139358666Y-114006057D01*
X139025332Y-113910819D02*
X138358666Y-113910819D01*
X138358666Y-113910819D02*
X138787237Y-114910819D01*
X135443166Y-126851580D02*
X135490785Y-126899200D01*
X135490785Y-126899200D02*
X135633642Y-126946819D01*
X135633642Y-126946819D02*
X135728880Y-126946819D01*
X135728880Y-126946819D02*
X135871737Y-126899200D01*
X135871737Y-126899200D02*
X135966975Y-126803961D01*
X135966975Y-126803961D02*
X136014594Y-126708723D01*
X136014594Y-126708723D02*
X136062213Y-126518247D01*
X136062213Y-126518247D02*
X136062213Y-126375390D01*
X136062213Y-126375390D02*
X136014594Y-126184914D01*
X136014594Y-126184914D02*
X135966975Y-126089676D01*
X135966975Y-126089676D02*
X135871737Y-125994438D01*
X135871737Y-125994438D02*
X135728880Y-125946819D01*
X135728880Y-125946819D02*
X135633642Y-125946819D01*
X135633642Y-125946819D02*
X135490785Y-125994438D01*
X135490785Y-125994438D02*
X135443166Y-126042057D01*
X134538404Y-125946819D02*
X135014594Y-125946819D01*
X135014594Y-125946819D02*
X135062213Y-126423009D01*
X135062213Y-126423009D02*
X135014594Y-126375390D01*
X135014594Y-126375390D02*
X134919356Y-126327771D01*
X134919356Y-126327771D02*
X134681261Y-126327771D01*
X134681261Y-126327771D02*
X134586023Y-126375390D01*
X134586023Y-126375390D02*
X134538404Y-126423009D01*
X134538404Y-126423009D02*
X134490785Y-126518247D01*
X134490785Y-126518247D02*
X134490785Y-126756342D01*
X134490785Y-126756342D02*
X134538404Y-126851580D01*
X134538404Y-126851580D02*
X134586023Y-126899200D01*
X134586023Y-126899200D02*
X134681261Y-126946819D01*
X134681261Y-126946819D02*
X134919356Y-126946819D01*
X134919356Y-126946819D02*
X135014594Y-126899200D01*
X135014594Y-126899200D02*
X135062213Y-126851580D01*
X128563666Y-113485819D02*
X128896999Y-113009628D01*
X129135094Y-113485819D02*
X129135094Y-112485819D01*
X129135094Y-112485819D02*
X128754142Y-112485819D01*
X128754142Y-112485819D02*
X128658904Y-112533438D01*
X128658904Y-112533438D02*
X128611285Y-112581057D01*
X128611285Y-112581057D02*
X128563666Y-112676295D01*
X128563666Y-112676295D02*
X128563666Y-112819152D01*
X128563666Y-112819152D02*
X128611285Y-112914390D01*
X128611285Y-112914390D02*
X128658904Y-112962009D01*
X128658904Y-112962009D02*
X128754142Y-113009628D01*
X128754142Y-113009628D02*
X129135094Y-113009628D01*
X127992237Y-112914390D02*
X128087475Y-112866771D01*
X128087475Y-112866771D02*
X128135094Y-112819152D01*
X128135094Y-112819152D02*
X128182713Y-112723914D01*
X128182713Y-112723914D02*
X128182713Y-112676295D01*
X128182713Y-112676295D02*
X128135094Y-112581057D01*
X128135094Y-112581057D02*
X128087475Y-112533438D01*
X128087475Y-112533438D02*
X127992237Y-112485819D01*
X127992237Y-112485819D02*
X127801761Y-112485819D01*
X127801761Y-112485819D02*
X127706523Y-112533438D01*
X127706523Y-112533438D02*
X127658904Y-112581057D01*
X127658904Y-112581057D02*
X127611285Y-112676295D01*
X127611285Y-112676295D02*
X127611285Y-112723914D01*
X127611285Y-112723914D02*
X127658904Y-112819152D01*
X127658904Y-112819152D02*
X127706523Y-112866771D01*
X127706523Y-112866771D02*
X127801761Y-112914390D01*
X127801761Y-112914390D02*
X127992237Y-112914390D01*
X127992237Y-112914390D02*
X128087475Y-112962009D01*
X128087475Y-112962009D02*
X128135094Y-113009628D01*
X128135094Y-113009628D02*
X128182713Y-113104866D01*
X128182713Y-113104866D02*
X128182713Y-113295342D01*
X128182713Y-113295342D02*
X128135094Y-113390580D01*
X128135094Y-113390580D02*
X128087475Y-113438200D01*
X128087475Y-113438200D02*
X127992237Y-113485819D01*
X127992237Y-113485819D02*
X127801761Y-113485819D01*
X127801761Y-113485819D02*
X127706523Y-113438200D01*
X127706523Y-113438200D02*
X127658904Y-113390580D01*
X127658904Y-113390580D02*
X127611285Y-113295342D01*
X127611285Y-113295342D02*
X127611285Y-113104866D01*
X127611285Y-113104866D02*
X127658904Y-113009628D01*
X127658904Y-113009628D02*
X127706523Y-112962009D01*
X127706523Y-112962009D02*
X127801761Y-112914390D01*
X128966166Y-107377580D02*
X129013785Y-107425200D01*
X129013785Y-107425200D02*
X129156642Y-107472819D01*
X129156642Y-107472819D02*
X129251880Y-107472819D01*
X129251880Y-107472819D02*
X129394737Y-107425200D01*
X129394737Y-107425200D02*
X129489975Y-107329961D01*
X129489975Y-107329961D02*
X129537594Y-107234723D01*
X129537594Y-107234723D02*
X129585213Y-107044247D01*
X129585213Y-107044247D02*
X129585213Y-106901390D01*
X129585213Y-106901390D02*
X129537594Y-106710914D01*
X129537594Y-106710914D02*
X129489975Y-106615676D01*
X129489975Y-106615676D02*
X129394737Y-106520438D01*
X129394737Y-106520438D02*
X129251880Y-106472819D01*
X129251880Y-106472819D02*
X129156642Y-106472819D01*
X129156642Y-106472819D02*
X129013785Y-106520438D01*
X129013785Y-106520438D02*
X128966166Y-106568057D01*
X128394737Y-106901390D02*
X128489975Y-106853771D01*
X128489975Y-106853771D02*
X128537594Y-106806152D01*
X128537594Y-106806152D02*
X128585213Y-106710914D01*
X128585213Y-106710914D02*
X128585213Y-106663295D01*
X128585213Y-106663295D02*
X128537594Y-106568057D01*
X128537594Y-106568057D02*
X128489975Y-106520438D01*
X128489975Y-106520438D02*
X128394737Y-106472819D01*
X128394737Y-106472819D02*
X128204261Y-106472819D01*
X128204261Y-106472819D02*
X128109023Y-106520438D01*
X128109023Y-106520438D02*
X128061404Y-106568057D01*
X128061404Y-106568057D02*
X128013785Y-106663295D01*
X128013785Y-106663295D02*
X128013785Y-106710914D01*
X128013785Y-106710914D02*
X128061404Y-106806152D01*
X128061404Y-106806152D02*
X128109023Y-106853771D01*
X128109023Y-106853771D02*
X128204261Y-106901390D01*
X128204261Y-106901390D02*
X128394737Y-106901390D01*
X128394737Y-106901390D02*
X128489975Y-106949009D01*
X128489975Y-106949009D02*
X128537594Y-106996628D01*
X128537594Y-106996628D02*
X128585213Y-107091866D01*
X128585213Y-107091866D02*
X128585213Y-107282342D01*
X128585213Y-107282342D02*
X128537594Y-107377580D01*
X128537594Y-107377580D02*
X128489975Y-107425200D01*
X128489975Y-107425200D02*
X128394737Y-107472819D01*
X128394737Y-107472819D02*
X128204261Y-107472819D01*
X128204261Y-107472819D02*
X128109023Y-107425200D01*
X128109023Y-107425200D02*
X128061404Y-107377580D01*
X128061404Y-107377580D02*
X128013785Y-107282342D01*
X128013785Y-107282342D02*
X128013785Y-107091866D01*
X128013785Y-107091866D02*
X128061404Y-106996628D01*
X128061404Y-106996628D02*
X128109023Y-106949009D01*
X128109023Y-106949009D02*
X128204261Y-106901390D01*
X125737580Y-118737142D02*
X125785200Y-118689523D01*
X125785200Y-118689523D02*
X125832819Y-118546666D01*
X125832819Y-118546666D02*
X125832819Y-118451428D01*
X125832819Y-118451428D02*
X125785200Y-118308571D01*
X125785200Y-118308571D02*
X125689961Y-118213333D01*
X125689961Y-118213333D02*
X125594723Y-118165714D01*
X125594723Y-118165714D02*
X125404247Y-118118095D01*
X125404247Y-118118095D02*
X125261390Y-118118095D01*
X125261390Y-118118095D02*
X125070914Y-118165714D01*
X125070914Y-118165714D02*
X124975676Y-118213333D01*
X124975676Y-118213333D02*
X124880438Y-118308571D01*
X124880438Y-118308571D02*
X124832819Y-118451428D01*
X124832819Y-118451428D02*
X124832819Y-118546666D01*
X124832819Y-118546666D02*
X124880438Y-118689523D01*
X124880438Y-118689523D02*
X124928057Y-118737142D01*
X125832819Y-119689523D02*
X125832819Y-119118095D01*
X125832819Y-119403809D02*
X124832819Y-119403809D01*
X124832819Y-119403809D02*
X124975676Y-119308571D01*
X124975676Y-119308571D02*
X125070914Y-119213333D01*
X125070914Y-119213333D02*
X125118533Y-119118095D01*
X124832819Y-120308571D02*
X124832819Y-120403809D01*
X124832819Y-120403809D02*
X124880438Y-120499047D01*
X124880438Y-120499047D02*
X124928057Y-120546666D01*
X124928057Y-120546666D02*
X125023295Y-120594285D01*
X125023295Y-120594285D02*
X125213771Y-120641904D01*
X125213771Y-120641904D02*
X125451866Y-120641904D01*
X125451866Y-120641904D02*
X125642342Y-120594285D01*
X125642342Y-120594285D02*
X125737580Y-120546666D01*
X125737580Y-120546666D02*
X125785200Y-120499047D01*
X125785200Y-120499047D02*
X125832819Y-120403809D01*
X125832819Y-120403809D02*
X125832819Y-120308571D01*
X125832819Y-120308571D02*
X125785200Y-120213333D01*
X125785200Y-120213333D02*
X125737580Y-120165714D01*
X125737580Y-120165714D02*
X125642342Y-120118095D01*
X125642342Y-120118095D02*
X125451866Y-120070476D01*
X125451866Y-120070476D02*
X125213771Y-120070476D01*
X125213771Y-120070476D02*
X125023295Y-120118095D01*
X125023295Y-120118095D02*
X124928057Y-120165714D01*
X124928057Y-120165714D02*
X124880438Y-120213333D01*
X124880438Y-120213333D02*
X124832819Y-120308571D01*
D11*
X160374064Y-146785000D02*
X159919936Y-146785000D01*
X160374064Y-145315000D02*
X159919936Y-145315000D01*
X127134252Y-129132000D02*
X126611748Y-129132000D01*
X127134252Y-127662000D02*
X126611748Y-127662000D01*
X138930748Y-112041000D02*
X139453252Y-112041000D01*
X138930748Y-113511000D02*
X139453252Y-113511000D01*
X135516252Y-125703000D02*
X134993748Y-125703000D01*
X135516252Y-124233000D02*
X134993748Y-124233000D01*
X128624064Y-115416000D02*
X128169936Y-115416000D01*
X128624064Y-113946000D02*
X128169936Y-113946000D01*
X128516748Y-108358000D02*
X129039252Y-108358000D01*
X128516748Y-109828000D02*
X129039252Y-109828000D01*
X122963000Y-119641252D02*
X122963000Y-119118748D01*
X124433000Y-119641252D02*
X124433000Y-119118748D01*
%LPC*%
D12*
X107188000Y-144780000D03*
D13*
X107188000Y-142280000D03*
D14*
X156339500Y-153458000D03*
D15*
X152379500Y-153458000D03*
X148419500Y-153458000D03*
X144459500Y-153458000D03*
D16*
X95504000Y-134874000D03*
D15*
X95504000Y-138834000D03*
X95504000Y-142794000D03*
X95504000Y-146754000D03*
X95504000Y-150714000D03*
X95504000Y-154674000D03*
D17*
X174244000Y-155321000D03*
D14*
X172744000Y-151921000D03*
D15*
X168784000Y-151921000D03*
D18*
X191404000Y-131022000D03*
X191404000Y-139822000D03*
D19*
X184404000Y-137922000D03*
X184404000Y-135422000D03*
X184404000Y-132922000D03*
D20*
X193675000Y-92583000D03*
D21*
X142240000Y-90932000D03*
D22*
X142240000Y-93472000D03*
X139700000Y-90932000D03*
X139700000Y-93472000D03*
X137160000Y-90932000D03*
X137160000Y-93472000D03*
X134620000Y-90932000D03*
X134620000Y-93472000D03*
X132080000Y-90932000D03*
X132080000Y-93472000D03*
D23*
X149305705Y-100763705D03*
D24*
X132488000Y-154168000D03*
D23*
X152915705Y-100763705D03*
D20*
X176530000Y-136525000D03*
X108839000Y-104394000D03*
D25*
X152157729Y-139700000D03*
D26*
X147157729Y-139700000D03*
D25*
X186817000Y-147320000D03*
D26*
X186817000Y-152320000D03*
D23*
X156527705Y-100763705D03*
X160133705Y-100763705D03*
D27*
X161147000Y-146050000D03*
X159147000Y-146050000D03*
D28*
X127910500Y-128397000D03*
X125835500Y-128397000D03*
D29*
X138154500Y-112776000D03*
X140229500Y-112776000D03*
D28*
X136292500Y-124968000D03*
X134217500Y-124968000D03*
D27*
X129397000Y-114681000D03*
X127397000Y-114681000D03*
D29*
X127740500Y-109093000D03*
X129815500Y-109093000D03*
D30*
X123698000Y-120417500D03*
X123698000Y-118342500D03*
D31*
X116840000Y-96266000D03*
X182118000Y-95758000D03*
X195716000Y-102108000D03*
X177292000Y-94234000D03*
X187368000Y-94064000D03*
X114808000Y-151892000D03*
X112776000Y-151892000D03*
X108966000Y-148844000D03*
X126011000Y-145669000D03*
X104775000Y-126238000D03*
X195716000Y-99822000D03*
X122301000Y-150241000D03*
X122936000Y-94742000D03*
X126873000Y-125730000D03*
X157480000Y-118110000D03*
X151511000Y-112268000D03*
X101346000Y-108204000D03*
X134112000Y-122936000D03*
X110998000Y-151892000D03*
X104775000Y-122682000D03*
X126011000Y-155167000D03*
X195716000Y-104394000D03*
X124333000Y-102870000D03*
X108966000Y-147574000D03*
X139954000Y-114935000D03*
X116840000Y-98298000D03*
X114808000Y-94234000D03*
X130106149Y-110421149D03*
D20*
X195453000Y-108077000D03*
D31*
X101346000Y-109601000D03*
X182118000Y-97790000D03*
X123698000Y-111252000D03*
X162927705Y-107569000D03*
X137257000Y-124430000D03*
X143637000Y-103378000D03*
X113538000Y-105918000D03*
X137257000Y-129002000D03*
X162927705Y-104648000D03*
X138176000Y-114046000D03*
X128270000Y-126746000D03*
X165481000Y-107569000D03*
X127508000Y-110490000D03*
X165467705Y-104648000D03*
X115062000Y-109347000D03*
X122301000Y-114935000D03*
X116205000Y-118999000D03*
X110236000Y-117734375D03*
X105156000Y-117729000D03*
X119380000Y-119522352D03*
X190918000Y-119940705D03*
X164592000Y-124968000D03*
X191643000Y-117400705D03*
X133159500Y-117919500D03*
X191643000Y-116130705D03*
X163703000Y-124131705D03*
X146943653Y-117860653D03*
X191643000Y-114860705D03*
X139446000Y-128397000D03*
X139446000Y-125730000D03*
X151765000Y-121284604D03*
X147701000Y-126746000D03*
X132842000Y-116205000D03*
X150876000Y-120321705D03*
X141986000Y-107823000D03*
X141986000Y-97282000D03*
X137160000Y-97282000D03*
X135890000Y-110744000D03*
X104648000Y-132842000D03*
X121279571Y-132879000D03*
X105410000Y-133604000D03*
X122174000Y-133604000D03*
X122881108Y-134329000D03*
X106172000Y-134366000D03*
X100330000Y-143256000D03*
X135509000Y-114718000D03*
X146939000Y-115316000D03*
X157607000Y-104731205D03*
X154580898Y-104753103D03*
X146939000Y-112352666D03*
X146939000Y-111294333D03*
X152908000Y-104731205D03*
X149352000Y-104731205D03*
X146939000Y-110236000D03*
X102235000Y-105664000D03*
X111403893Y-120075424D03*
X112432605Y-120065954D03*
X101402948Y-104939000D03*
X134874000Y-120777000D03*
X118872000Y-127635000D03*
X171958000Y-145796000D03*
X130485000Y-114737000D03*
X110299500Y-127698500D03*
X117094000Y-113284000D03*
X146939000Y-113919000D03*
X182118000Y-102108000D03*
X144899975Y-115435975D03*
X182118000Y-99822000D03*
X132588000Y-133604000D03*
X124714000Y-130556000D03*
X189484000Y-118670705D03*
X151130000Y-122682000D03*
X169418000Y-143764000D03*
X132334000Y-121666000D03*
X168783000Y-148463000D03*
X120713500Y-118173500D03*
X165100000Y-151921000D03*
X165314000Y-144682000D03*
%LPD*%
M02*
