G04 #@! TF.GenerationSoftware,KiCad,Pcbnew,7.0.10*
G04 #@! TF.CreationDate,2024-03-08T11:35:51-05:00*
G04 #@! TF.ProjectId,swipe-stack-hub,73776970-652d-4737-9461-636b2d687562,rev?*
G04 #@! TF.SameCoordinates,Original*
G04 #@! TF.FileFunction,Paste,Top*
G04 #@! TF.FilePolarity,Positive*
%FSLAX46Y46*%
G04 Gerber Fmt 4.6, Leading zero omitted, Abs format (unit mm)*
G04 Created by KiCad (PCBNEW 7.0.10) date 2024-03-08 11:35:51*
%MOMM*%
%LPD*%
G01*
G04 APERTURE LIST*
G04 Aperture macros list*
%AMRoundRect*
0 Rectangle with rounded corners*
0 $1 Rounding radius*
0 $2 $3 $4 $5 $6 $7 $8 $9 X,Y pos of 4 corners*
0 Add a 4 corners polygon primitive as box body*
4,1,4,$2,$3,$4,$5,$6,$7,$8,$9,$2,$3,0*
0 Add four circle primitives for the rounded corners*
1,1,$1+$1,$2,$3*
1,1,$1+$1,$4,$5*
1,1,$1+$1,$6,$7*
1,1,$1+$1,$8,$9*
0 Add four rect primitives between the rounded corners*
20,1,$1+$1,$2,$3,$4,$5,0*
20,1,$1+$1,$4,$5,$6,$7,0*
20,1,$1+$1,$6,$7,$8,$9,0*
20,1,$1+$1,$8,$9,$2,$3,0*%
G04 Aperture macros list end*
%ADD10RoundRect,0.250000X0.325000X0.450000X-0.325000X0.450000X-0.325000X-0.450000X0.325000X-0.450000X0*%
%ADD11RoundRect,0.150000X-0.512500X-0.150000X0.512500X-0.150000X0.512500X0.150000X-0.512500X0.150000X0*%
%ADD12RoundRect,0.250000X0.450000X-0.350000X0.450000X0.350000X-0.450000X0.350000X-0.450000X-0.350000X0*%
%ADD13RoundRect,0.250000X-0.450000X0.350000X-0.450000X-0.350000X0.450000X-0.350000X0.450000X0.350000X0*%
%ADD14RoundRect,0.250000X0.337500X0.475000X-0.337500X0.475000X-0.337500X-0.475000X0.337500X-0.475000X0*%
%ADD15RoundRect,0.250000X-0.337500X-0.475000X0.337500X-0.475000X0.337500X0.475000X-0.337500X0.475000X0*%
%ADD16RoundRect,0.250000X0.350000X0.450000X-0.350000X0.450000X-0.350000X-0.450000X0.350000X-0.450000X0*%
%ADD17RoundRect,0.250000X0.450000X-0.325000X0.450000X0.325000X-0.450000X0.325000X-0.450000X-0.325000X0*%
%ADD18RoundRect,0.255000X2.245000X0.255000X-2.245000X0.255000X-2.245000X-0.255000X2.245000X-0.255000X0*%
%ADD19R,1.550000X1.300000*%
%ADD20RoundRect,0.250000X-0.475000X0.337500X-0.475000X-0.337500X0.475000X-0.337500X0.475000X0.337500X0*%
%ADD21R,2.005000X0.900000*%
%ADD22R,2.005000X0.780000*%
%ADD23R,2.005000X0.955000*%
%ADD24RoundRect,0.230000X0.375000X-0.230000X0.375000X0.230000X-0.375000X0.230000X-0.375000X-0.230000X0*%
%ADD25RoundRect,0.150000X0.150000X-0.825000X0.150000X0.825000X-0.150000X0.825000X-0.150000X-0.825000X0*%
%ADD26R,3.300000X4.400000*%
%ADD27R,3.900000X6.200000*%
%ADD28RoundRect,0.024000X-0.771000X-0.276000X0.771000X-0.276000X0.771000X0.276000X-0.771000X0.276000X0*%
%ADD29RoundRect,0.024000X0.771000X0.276000X-0.771000X0.276000X-0.771000X-0.276000X0.771000X-0.276000X0*%
%ADD30RoundRect,0.250000X0.088388X-0.548008X0.548008X-0.088388X-0.088388X0.548008X-0.548008X0.088388X0*%
%ADD31RoundRect,0.075000X-0.700000X-0.075000X0.700000X-0.075000X0.700000X0.075000X-0.700000X0.075000X0*%
%ADD32RoundRect,0.075000X-0.075000X-0.700000X0.075000X-0.700000X0.075000X0.700000X-0.075000X0.700000X0*%
%ADD33R,1.500000X0.450000*%
%ADD34RoundRect,0.250000X-0.350000X-0.450000X0.350000X-0.450000X0.350000X0.450000X-0.350000X0.450000X0*%
G04 APERTURE END LIST*
D10*
X194065000Y-104394000D03*
X192015000Y-104394000D03*
D11*
X111771000Y-147382000D03*
X111771000Y-148332000D03*
X111771000Y-149282000D03*
X114046000Y-149282000D03*
X114046000Y-148332000D03*
X114046000Y-147382000D03*
D12*
X102616000Y-128238000D03*
X102616000Y-126238000D03*
X103251000Y-116062000D03*
X103251000Y-114062000D03*
D13*
X93980000Y-99584000D03*
X93980000Y-101584000D03*
D14*
X113051500Y-145034000D03*
X110976500Y-145034000D03*
D13*
X112776000Y-88408000D03*
X112776000Y-90408000D03*
D15*
X112754500Y-96266000D03*
X114829500Y-96266000D03*
D16*
X155178000Y-91440000D03*
X153178000Y-91440000D03*
D17*
X112776000Y-94243000D03*
X112776000Y-92193000D03*
X115062000Y-145297000D03*
X115062000Y-143247000D03*
D13*
X91694000Y-99584000D03*
X91694000Y-101584000D03*
D18*
X177385705Y-125655705D03*
X169785705Y-125655705D03*
X177385705Y-123115705D03*
X169785705Y-123115705D03*
X177385705Y-120575705D03*
X169785705Y-120575705D03*
X177385705Y-118035705D03*
X169785705Y-118035705D03*
X177385705Y-115495705D03*
X169785705Y-115495705D03*
X177385705Y-112955705D03*
X169785705Y-112955705D03*
X177385705Y-110415705D03*
X169785705Y-110415705D03*
X177385705Y-107875705D03*
X169785705Y-107875705D03*
D19*
X179408000Y-87793000D03*
X187368000Y-87793000D03*
X179408000Y-92293000D03*
X187368000Y-92293000D03*
X91270000Y-116114000D03*
X99230000Y-116114000D03*
X91270000Y-120614000D03*
X99230000Y-120614000D03*
D20*
X117348000Y-149076500D03*
X117348000Y-151151500D03*
X103251000Y-109071500D03*
X103251000Y-111146500D03*
D21*
X95617500Y-86785000D03*
X95617500Y-88285000D03*
X95617500Y-89785000D03*
X95617500Y-91285000D03*
X95617500Y-92785000D03*
D22*
X95617500Y-94225000D03*
D21*
X95617500Y-95785000D03*
X95617500Y-97285000D03*
D23*
X110122500Y-97312500D03*
D21*
X110122500Y-95785000D03*
X110122500Y-94285000D03*
X110122500Y-92785000D03*
X110122500Y-91285000D03*
X110122500Y-89785000D03*
X110122500Y-88285000D03*
X110122500Y-86785000D03*
D16*
X189475000Y-99822000D03*
X187475000Y-99822000D03*
D13*
X106934000Y-150638000D03*
X106934000Y-152638000D03*
D19*
X115654000Y-88174000D03*
X123614000Y-88174000D03*
X115654000Y-92674000D03*
X123614000Y-92674000D03*
D24*
X162659000Y-140605000D03*
X164159000Y-140605000D03*
X162659000Y-139465000D03*
X164159000Y-139465000D03*
D25*
X161504000Y-142510000D03*
X162774000Y-142510000D03*
X164044000Y-142510000D03*
X165314000Y-142510000D03*
X165314000Y-137560000D03*
X164044000Y-137560000D03*
X162774000Y-137560000D03*
X161504000Y-137560000D03*
D16*
X189475000Y-102108000D03*
X187475000Y-102108000D03*
D17*
X175133000Y-94243000D03*
X175133000Y-92193000D03*
D26*
X133188000Y-141368000D03*
D27*
X126038000Y-150368000D03*
X138938000Y-150368000D03*
D13*
X175133000Y-88408000D03*
X175133000Y-90408000D03*
D10*
X194065000Y-102108000D03*
X192015000Y-102108000D03*
X194065000Y-99822000D03*
X192015000Y-99822000D03*
D15*
X178540500Y-95758000D03*
X180615500Y-95758000D03*
D21*
X157720500Y-86785000D03*
X157720500Y-88285000D03*
X157720500Y-89785000D03*
X157720500Y-91285000D03*
X157720500Y-92785000D03*
D22*
X157720500Y-94225000D03*
D21*
X157720500Y-95785000D03*
X157720500Y-97285000D03*
D23*
X172225500Y-97312500D03*
D21*
X172225500Y-95785000D03*
X172225500Y-94285000D03*
X172225500Y-92785000D03*
X172225500Y-91285000D03*
X172225500Y-89785000D03*
X172225500Y-88285000D03*
X172225500Y-86785000D03*
D28*
X153477000Y-112320705D03*
X153477000Y-113590705D03*
X153477000Y-114860705D03*
X153477000Y-116130705D03*
X153477000Y-117400705D03*
X153477000Y-118670705D03*
X153477000Y-119940705D03*
X153477000Y-121210705D03*
D29*
X160467000Y-121210705D03*
X160467000Y-119940705D03*
X160467000Y-118670705D03*
X160467000Y-117400705D03*
X160467000Y-116130705D03*
X160467000Y-114860705D03*
X160467000Y-113590705D03*
X160467000Y-112320705D03*
D15*
X122279500Y-105156000D03*
X124354500Y-105156000D03*
D20*
X167727000Y-137219500D03*
X167727000Y-139294500D03*
D13*
X104648000Y-147082000D03*
X104648000Y-149082000D03*
D30*
X116914432Y-117056784D03*
X118364000Y-115607216D03*
D31*
X126560000Y-115005000D03*
X126560000Y-115505000D03*
X126560000Y-116005000D03*
X126560000Y-116505000D03*
X126560000Y-117005000D03*
X126560000Y-117505000D03*
X126560000Y-118005000D03*
X126560000Y-118505000D03*
X126560000Y-119005000D03*
X126560000Y-119505000D03*
X126560000Y-120005000D03*
X126560000Y-120505000D03*
X126560000Y-121005000D03*
X126560000Y-121505000D03*
X126560000Y-122005000D03*
X126560000Y-122505000D03*
D32*
X128485000Y-124430000D03*
X128985000Y-124430000D03*
X129485000Y-124430000D03*
X129985000Y-124430000D03*
X130485000Y-124430000D03*
X130985000Y-124430000D03*
X131485000Y-124430000D03*
X131985000Y-124430000D03*
X132485000Y-124430000D03*
X132985000Y-124430000D03*
X133485000Y-124430000D03*
X133985000Y-124430000D03*
X134485000Y-124430000D03*
X134985000Y-124430000D03*
X135485000Y-124430000D03*
X135985000Y-124430000D03*
D31*
X137910000Y-122505000D03*
X137910000Y-122005000D03*
X137910000Y-121505000D03*
X137910000Y-121005000D03*
X137910000Y-120505000D03*
X137910000Y-120005000D03*
X137910000Y-119505000D03*
X137910000Y-119005000D03*
X137910000Y-118505000D03*
X137910000Y-118005000D03*
X137910000Y-117505000D03*
X137910000Y-117005000D03*
X137910000Y-116505000D03*
X137910000Y-116005000D03*
X137910000Y-115505000D03*
X137910000Y-115005000D03*
D32*
X135985000Y-113080000D03*
X135485000Y-113080000D03*
X134985000Y-113080000D03*
X134485000Y-113080000D03*
X133985000Y-113080000D03*
X133485000Y-113080000D03*
X132985000Y-113080000D03*
X132485000Y-113080000D03*
X131985000Y-113080000D03*
X131485000Y-113080000D03*
X130985000Y-113080000D03*
X130485000Y-113080000D03*
X129985000Y-113080000D03*
X129485000Y-113080000D03*
X128985000Y-113080000D03*
X128485000Y-113080000D03*
D15*
X178540500Y-97790000D03*
X180615500Y-97790000D03*
D33*
X122114000Y-106792000D03*
X122114000Y-108092000D03*
X124774000Y-107442000D03*
D12*
X167854000Y-143194000D03*
X167854000Y-141194000D03*
D16*
X155305000Y-88392000D03*
X153305000Y-88392000D03*
D34*
X187475000Y-104394000D03*
X189475000Y-104394000D03*
D15*
X112754500Y-98298000D03*
X114829500Y-98298000D03*
D19*
X91270000Y-108240000D03*
X99230000Y-108240000D03*
X91270000Y-112740000D03*
X99230000Y-112740000D03*
D28*
X186370000Y-112320705D03*
X186370000Y-113590705D03*
X186370000Y-114860705D03*
X186370000Y-116130705D03*
X186370000Y-117400705D03*
X186370000Y-118670705D03*
X186370000Y-119940705D03*
X186370000Y-121210705D03*
D29*
X193360000Y-121210705D03*
X193360000Y-119940705D03*
X193360000Y-118670705D03*
X193360000Y-117400705D03*
X193360000Y-116130705D03*
X193360000Y-114860705D03*
X193360000Y-113590705D03*
X193360000Y-112320705D03*
D12*
X102870000Y-122666000D03*
X102870000Y-120666000D03*
D19*
X91270000Y-123734000D03*
X99230000Y-123734000D03*
X91270000Y-128234000D03*
X99230000Y-128234000D03*
M02*
