G04 #@! TF.GenerationSoftware,KiCad,Pcbnew,7.0.10*
G04 #@! TF.CreationDate,2024-03-08T11:35:51-05:00*
G04 #@! TF.ProjectId,swipe-stack-hub,73776970-652d-4737-9461-636b2d687562,rev?*
G04 #@! TF.SameCoordinates,Original*
G04 #@! TF.FileFunction,Legend,Top*
G04 #@! TF.FilePolarity,Positive*
%FSLAX46Y46*%
G04 Gerber Fmt 4.6, Leading zero omitted, Abs format (unit mm)*
G04 Created by KiCad (PCBNEW 7.0.10) date 2024-03-08 11:35:51*
%MOMM*%
%LPD*%
G01*
G04 APERTURE LIST*
G04 Aperture macros list*
%AMRoundRect*
0 Rectangle with rounded corners*
0 $1 Rounding radius*
0 $2 $3 $4 $5 $6 $7 $8 $9 X,Y pos of 4 corners*
0 Add a 4 corners polygon primitive as box body*
4,1,4,$2,$3,$4,$5,$6,$7,$8,$9,$2,$3,0*
0 Add four circle primitives for the rounded corners*
1,1,$1+$1,$2,$3*
1,1,$1+$1,$4,$5*
1,1,$1+$1,$6,$7*
1,1,$1+$1,$8,$9*
0 Add four rect primitives between the rounded corners*
20,1,$1+$1,$2,$3,$4,$5,0*
20,1,$1+$1,$4,$5,$6,$7,0*
20,1,$1+$1,$6,$7,$8,$9,0*
20,1,$1+$1,$8,$9,$2,$3,0*%
G04 Aperture macros list end*
%ADD10C,0.150000*%
%ADD11C,0.120000*%
%ADD12C,0.127000*%
%ADD13C,0.200000*%
%ADD14RoundRect,0.250000X0.325000X0.450000X-0.325000X0.450000X-0.325000X-0.450000X0.325000X-0.450000X0*%
%ADD15RoundRect,0.150000X-0.512500X-0.150000X0.512500X-0.150000X0.512500X0.150000X-0.512500X0.150000X0*%
%ADD16RoundRect,0.250000X0.450000X-0.350000X0.450000X0.350000X-0.450000X0.350000X-0.450000X-0.350000X0*%
%ADD17R,1.600000X1.600000*%
%ADD18C,1.600000*%
%ADD19RoundRect,0.250001X1.099999X1.099999X-1.099999X1.099999X-1.099999X-1.099999X1.099999X-1.099999X0*%
%ADD20C,2.700000*%
%ADD21RoundRect,0.250001X-1.099999X1.099999X-1.099999X-1.099999X1.099999X-1.099999X1.099999X1.099999X0*%
%ADD22C,1.450000*%
%ADD23C,4.000000*%
%ADD24C,1.800000*%
%ADD25RoundRect,0.250000X-0.450000X0.350000X-0.450000X-0.350000X0.450000X-0.350000X0.450000X0.350000X0*%
%ADD26C,3.000000*%
%ADD27RoundRect,0.250000X0.337500X0.475000X-0.337500X0.475000X-0.337500X-0.475000X0.337500X-0.475000X0*%
%ADD28RoundRect,0.250000X-0.337500X-0.475000X0.337500X-0.475000X0.337500X0.475000X-0.337500X0.475000X0*%
%ADD29RoundRect,0.250000X0.350000X0.450000X-0.350000X0.450000X-0.350000X-0.450000X0.350000X-0.450000X0*%
%ADD30RoundRect,0.250000X0.450000X-0.325000X0.450000X0.325000X-0.450000X0.325000X-0.450000X-0.325000X0*%
%ADD31RoundRect,0.255000X2.245000X0.255000X-2.245000X0.255000X-2.245000X-0.255000X2.245000X-0.255000X0*%
%ADD32R,1.550000X1.300000*%
%ADD33RoundRect,0.250000X-0.475000X0.337500X-0.475000X-0.337500X0.475000X-0.337500X0.475000X0.337500X0*%
%ADD34R,2.005000X0.900000*%
%ADD35R,2.005000X0.780000*%
%ADD36R,2.005000X0.955000*%
%ADD37RoundRect,0.250000X-0.600000X0.600000X-0.600000X-0.600000X0.600000X-0.600000X0.600000X0.600000X0*%
%ADD38C,1.700000*%
%ADD39R,1.700000X1.700000*%
%ADD40RoundRect,0.150000X0.150000X-0.825000X0.150000X0.825000X-0.150000X0.825000X-0.150000X-0.825000X0*%
%ADD41R,3.000000X2.290000*%
%ADD42C,2.000000*%
%ADD43R,3.300000X4.400000*%
%ADD44R,3.900000X6.200000*%
%ADD45R,2.400000X2.400000*%
%ADD46C,2.400000*%
%ADD47RoundRect,0.032160X-0.864840X-0.369840X0.864840X-0.369840X0.864840X0.369840X-0.864840X0.369840X0*%
%ADD48RoundRect,0.032160X0.864840X0.369840X-0.864840X0.369840X-0.864840X-0.369840X0.864840X-0.369840X0*%
%ADD49RoundRect,0.250000X0.088388X-0.548008X0.548008X-0.088388X-0.088388X0.548008X-0.548008X0.088388X0*%
%ADD50RoundRect,0.075000X-0.700000X-0.075000X0.700000X-0.075000X0.700000X0.075000X-0.700000X0.075000X0*%
%ADD51RoundRect,0.075000X-0.075000X-0.700000X0.075000X-0.700000X0.075000X0.700000X-0.075000X0.700000X0*%
%ADD52R,1.500000X0.450000*%
%ADD53RoundRect,0.250000X-0.350000X-0.450000X0.350000X-0.450000X0.350000X0.450000X-0.350000X0.450000X0*%
%ADD54C,0.800000*%
G04 APERTURE END LIST*
D10*
X126082588Y-114169819D02*
X125511160Y-114169819D01*
X125796874Y-114169819D02*
X125796874Y-113169819D01*
X125796874Y-113169819D02*
X125701636Y-113312676D01*
X125701636Y-113312676D02*
X125606398Y-113407914D01*
X125606398Y-113407914D02*
X125511160Y-113455533D01*
X107731160Y-128678200D02*
X107826398Y-128725819D01*
X107826398Y-128725819D02*
X108016874Y-128725819D01*
X108016874Y-128725819D02*
X108112112Y-128678200D01*
X108112112Y-128678200D02*
X108159731Y-128582961D01*
X108159731Y-128582961D02*
X108159731Y-128535342D01*
X108159731Y-128535342D02*
X108112112Y-128440104D01*
X108112112Y-128440104D02*
X108016874Y-128392485D01*
X108016874Y-128392485D02*
X107874017Y-128392485D01*
X107874017Y-128392485D02*
X107778779Y-128344866D01*
X107778779Y-128344866D02*
X107731160Y-128249628D01*
X107731160Y-128249628D02*
X107731160Y-128202009D01*
X107731160Y-128202009D02*
X107778779Y-128106771D01*
X107778779Y-128106771D02*
X107874017Y-128059152D01*
X107874017Y-128059152D02*
X108016874Y-128059152D01*
X108016874Y-128059152D02*
X108112112Y-128106771D01*
X108493065Y-128059152D02*
X108683541Y-128725819D01*
X108683541Y-128725819D02*
X108874017Y-128249628D01*
X108874017Y-128249628D02*
X109064493Y-128725819D01*
X109064493Y-128725819D02*
X109254969Y-128059152D01*
X109635922Y-128725819D02*
X109635922Y-128059152D01*
X109635922Y-127725819D02*
X109588303Y-127773438D01*
X109588303Y-127773438D02*
X109635922Y-127821057D01*
X109635922Y-127821057D02*
X109683541Y-127773438D01*
X109683541Y-127773438D02*
X109635922Y-127725819D01*
X109635922Y-127725819D02*
X109635922Y-127821057D01*
X110112112Y-128059152D02*
X110112112Y-129059152D01*
X110112112Y-128106771D02*
X110207350Y-128059152D01*
X110207350Y-128059152D02*
X110397826Y-128059152D01*
X110397826Y-128059152D02*
X110493064Y-128106771D01*
X110493064Y-128106771D02*
X110540683Y-128154390D01*
X110540683Y-128154390D02*
X110588302Y-128249628D01*
X110588302Y-128249628D02*
X110588302Y-128535342D01*
X110588302Y-128535342D02*
X110540683Y-128630580D01*
X110540683Y-128630580D02*
X110493064Y-128678200D01*
X110493064Y-128678200D02*
X110397826Y-128725819D01*
X110397826Y-128725819D02*
X110207350Y-128725819D01*
X110207350Y-128725819D02*
X110112112Y-128678200D01*
X111397826Y-128678200D02*
X111302588Y-128725819D01*
X111302588Y-128725819D02*
X111112112Y-128725819D01*
X111112112Y-128725819D02*
X111016874Y-128678200D01*
X111016874Y-128678200D02*
X110969255Y-128582961D01*
X110969255Y-128582961D02*
X110969255Y-128202009D01*
X110969255Y-128202009D02*
X111016874Y-128106771D01*
X111016874Y-128106771D02*
X111112112Y-128059152D01*
X111112112Y-128059152D02*
X111302588Y-128059152D01*
X111302588Y-128059152D02*
X111397826Y-128106771D01*
X111397826Y-128106771D02*
X111445445Y-128202009D01*
X111445445Y-128202009D02*
X111445445Y-128297247D01*
X111445445Y-128297247D02*
X110969255Y-128392485D01*
X111874017Y-128344866D02*
X112635922Y-128344866D01*
X113064493Y-128678200D02*
X113159731Y-128725819D01*
X113159731Y-128725819D02*
X113350207Y-128725819D01*
X113350207Y-128725819D02*
X113445445Y-128678200D01*
X113445445Y-128678200D02*
X113493064Y-128582961D01*
X113493064Y-128582961D02*
X113493064Y-128535342D01*
X113493064Y-128535342D02*
X113445445Y-128440104D01*
X113445445Y-128440104D02*
X113350207Y-128392485D01*
X113350207Y-128392485D02*
X113207350Y-128392485D01*
X113207350Y-128392485D02*
X113112112Y-128344866D01*
X113112112Y-128344866D02*
X113064493Y-128249628D01*
X113064493Y-128249628D02*
X113064493Y-128202009D01*
X113064493Y-128202009D02*
X113112112Y-128106771D01*
X113112112Y-128106771D02*
X113207350Y-128059152D01*
X113207350Y-128059152D02*
X113350207Y-128059152D01*
X113350207Y-128059152D02*
X113445445Y-128106771D01*
X113778779Y-128059152D02*
X114159731Y-128059152D01*
X113921636Y-127725819D02*
X113921636Y-128582961D01*
X113921636Y-128582961D02*
X113969255Y-128678200D01*
X113969255Y-128678200D02*
X114064493Y-128725819D01*
X114064493Y-128725819D02*
X114159731Y-128725819D01*
X114921636Y-128725819D02*
X114921636Y-128202009D01*
X114921636Y-128202009D02*
X114874017Y-128106771D01*
X114874017Y-128106771D02*
X114778779Y-128059152D01*
X114778779Y-128059152D02*
X114588303Y-128059152D01*
X114588303Y-128059152D02*
X114493065Y-128106771D01*
X114921636Y-128678200D02*
X114826398Y-128725819D01*
X114826398Y-128725819D02*
X114588303Y-128725819D01*
X114588303Y-128725819D02*
X114493065Y-128678200D01*
X114493065Y-128678200D02*
X114445446Y-128582961D01*
X114445446Y-128582961D02*
X114445446Y-128487723D01*
X114445446Y-128487723D02*
X114493065Y-128392485D01*
X114493065Y-128392485D02*
X114588303Y-128344866D01*
X114588303Y-128344866D02*
X114826398Y-128344866D01*
X114826398Y-128344866D02*
X114921636Y-128297247D01*
X115826398Y-128678200D02*
X115731160Y-128725819D01*
X115731160Y-128725819D02*
X115540684Y-128725819D01*
X115540684Y-128725819D02*
X115445446Y-128678200D01*
X115445446Y-128678200D02*
X115397827Y-128630580D01*
X115397827Y-128630580D02*
X115350208Y-128535342D01*
X115350208Y-128535342D02*
X115350208Y-128249628D01*
X115350208Y-128249628D02*
X115397827Y-128154390D01*
X115397827Y-128154390D02*
X115445446Y-128106771D01*
X115445446Y-128106771D02*
X115540684Y-128059152D01*
X115540684Y-128059152D02*
X115731160Y-128059152D01*
X115731160Y-128059152D02*
X115826398Y-128106771D01*
X116254970Y-128725819D02*
X116254970Y-127725819D01*
X116350208Y-128344866D02*
X116635922Y-128725819D01*
X116635922Y-128059152D02*
X116254970Y-128440104D01*
X117826399Y-128725819D02*
X117826399Y-127725819D01*
X117826399Y-128202009D02*
X118397827Y-128202009D01*
X118397827Y-128725819D02*
X118397827Y-127725819D01*
X118874018Y-127725819D02*
X118874018Y-128535342D01*
X118874018Y-128535342D02*
X118921637Y-128630580D01*
X118921637Y-128630580D02*
X118969256Y-128678200D01*
X118969256Y-128678200D02*
X119064494Y-128725819D01*
X119064494Y-128725819D02*
X119254970Y-128725819D01*
X119254970Y-128725819D02*
X119350208Y-128678200D01*
X119350208Y-128678200D02*
X119397827Y-128630580D01*
X119397827Y-128630580D02*
X119445446Y-128535342D01*
X119445446Y-128535342D02*
X119445446Y-127725819D01*
X120254970Y-128202009D02*
X120397827Y-128249628D01*
X120397827Y-128249628D02*
X120445446Y-128297247D01*
X120445446Y-128297247D02*
X120493065Y-128392485D01*
X120493065Y-128392485D02*
X120493065Y-128535342D01*
X120493065Y-128535342D02*
X120445446Y-128630580D01*
X120445446Y-128630580D02*
X120397827Y-128678200D01*
X120397827Y-128678200D02*
X120302589Y-128725819D01*
X120302589Y-128725819D02*
X119921637Y-128725819D01*
X119921637Y-128725819D02*
X119921637Y-127725819D01*
X119921637Y-127725819D02*
X120254970Y-127725819D01*
X120254970Y-127725819D02*
X120350208Y-127773438D01*
X120350208Y-127773438D02*
X120397827Y-127821057D01*
X120397827Y-127821057D02*
X120445446Y-127916295D01*
X120445446Y-127916295D02*
X120445446Y-128011533D01*
X120445446Y-128011533D02*
X120397827Y-128106771D01*
X120397827Y-128106771D02*
X120350208Y-128154390D01*
X120350208Y-128154390D02*
X120254970Y-128202009D01*
X120254970Y-128202009D02*
X119921637Y-128202009D01*
X121540685Y-127725819D02*
X121874018Y-128725819D01*
X121874018Y-128725819D02*
X122207351Y-127725819D01*
X123064494Y-128725819D02*
X122493066Y-128725819D01*
X122778780Y-128725819D02*
X122778780Y-127725819D01*
X122778780Y-127725819D02*
X122683542Y-127868676D01*
X122683542Y-127868676D02*
X122588304Y-127963914D01*
X122588304Y-127963914D02*
X122493066Y-128011533D01*
X123493066Y-128630580D02*
X123540685Y-128678200D01*
X123540685Y-128678200D02*
X123493066Y-128725819D01*
X123493066Y-128725819D02*
X123445447Y-128678200D01*
X123445447Y-128678200D02*
X123493066Y-128630580D01*
X123493066Y-128630580D02*
X123493066Y-128725819D01*
X124159732Y-127725819D02*
X124254970Y-127725819D01*
X124254970Y-127725819D02*
X124350208Y-127773438D01*
X124350208Y-127773438D02*
X124397827Y-127821057D01*
X124397827Y-127821057D02*
X124445446Y-127916295D01*
X124445446Y-127916295D02*
X124493065Y-128106771D01*
X124493065Y-128106771D02*
X124493065Y-128344866D01*
X124493065Y-128344866D02*
X124445446Y-128535342D01*
X124445446Y-128535342D02*
X124397827Y-128630580D01*
X124397827Y-128630580D02*
X124350208Y-128678200D01*
X124350208Y-128678200D02*
X124254970Y-128725819D01*
X124254970Y-128725819D02*
X124159732Y-128725819D01*
X124159732Y-128725819D02*
X124064494Y-128678200D01*
X124064494Y-128678200D02*
X124016875Y-128630580D01*
X124016875Y-128630580D02*
X123969256Y-128535342D01*
X123969256Y-128535342D02*
X123921637Y-128344866D01*
X123921637Y-128344866D02*
X123921637Y-128106771D01*
X123921637Y-128106771D02*
X123969256Y-127916295D01*
X123969256Y-127916295D02*
X124016875Y-127821057D01*
X124016875Y-127821057D02*
X124064494Y-127773438D01*
X124064494Y-127773438D02*
X124159732Y-127725819D01*
X107635922Y-129335819D02*
X108207350Y-129335819D01*
X107921636Y-130335819D02*
X107921636Y-129335819D01*
X108921636Y-130288200D02*
X108826398Y-130335819D01*
X108826398Y-130335819D02*
X108635922Y-130335819D01*
X108635922Y-130335819D02*
X108540684Y-130288200D01*
X108540684Y-130288200D02*
X108493065Y-130192961D01*
X108493065Y-130192961D02*
X108493065Y-129812009D01*
X108493065Y-129812009D02*
X108540684Y-129716771D01*
X108540684Y-129716771D02*
X108635922Y-129669152D01*
X108635922Y-129669152D02*
X108826398Y-129669152D01*
X108826398Y-129669152D02*
X108921636Y-129716771D01*
X108921636Y-129716771D02*
X108969255Y-129812009D01*
X108969255Y-129812009D02*
X108969255Y-129907247D01*
X108969255Y-129907247D02*
X108493065Y-130002485D01*
X109826398Y-130335819D02*
X109826398Y-129812009D01*
X109826398Y-129812009D02*
X109778779Y-129716771D01*
X109778779Y-129716771D02*
X109683541Y-129669152D01*
X109683541Y-129669152D02*
X109493065Y-129669152D01*
X109493065Y-129669152D02*
X109397827Y-129716771D01*
X109826398Y-130288200D02*
X109731160Y-130335819D01*
X109731160Y-130335819D02*
X109493065Y-130335819D01*
X109493065Y-130335819D02*
X109397827Y-130288200D01*
X109397827Y-130288200D02*
X109350208Y-130192961D01*
X109350208Y-130192961D02*
X109350208Y-130097723D01*
X109350208Y-130097723D02*
X109397827Y-130002485D01*
X109397827Y-130002485D02*
X109493065Y-129954866D01*
X109493065Y-129954866D02*
X109731160Y-129954866D01*
X109731160Y-129954866D02*
X109826398Y-129907247D01*
X110302589Y-130335819D02*
X110302589Y-129669152D01*
X110302589Y-129764390D02*
X110350208Y-129716771D01*
X110350208Y-129716771D02*
X110445446Y-129669152D01*
X110445446Y-129669152D02*
X110588303Y-129669152D01*
X110588303Y-129669152D02*
X110683541Y-129716771D01*
X110683541Y-129716771D02*
X110731160Y-129812009D01*
X110731160Y-129812009D02*
X110731160Y-130335819D01*
X110731160Y-129812009D02*
X110778779Y-129716771D01*
X110778779Y-129716771D02*
X110874017Y-129669152D01*
X110874017Y-129669152D02*
X111016874Y-129669152D01*
X111016874Y-129669152D02*
X111112113Y-129716771D01*
X111112113Y-129716771D02*
X111159732Y-129812009D01*
X111159732Y-129812009D02*
X111159732Y-130335819D01*
X112921636Y-130335819D02*
X112350208Y-130335819D01*
X112635922Y-130335819D02*
X112635922Y-129335819D01*
X112635922Y-129335819D02*
X112540684Y-129478676D01*
X112540684Y-129478676D02*
X112445446Y-129573914D01*
X112445446Y-129573914D02*
X112350208Y-129621533D01*
X113254970Y-129335819D02*
X113874017Y-129335819D01*
X113874017Y-129335819D02*
X113540684Y-129716771D01*
X113540684Y-129716771D02*
X113683541Y-129716771D01*
X113683541Y-129716771D02*
X113778779Y-129764390D01*
X113778779Y-129764390D02*
X113826398Y-129812009D01*
X113826398Y-129812009D02*
X113874017Y-129907247D01*
X113874017Y-129907247D02*
X113874017Y-130145342D01*
X113874017Y-130145342D02*
X113826398Y-130240580D01*
X113826398Y-130240580D02*
X113778779Y-130288200D01*
X113778779Y-130288200D02*
X113683541Y-130335819D01*
X113683541Y-130335819D02*
X113397827Y-130335819D01*
X113397827Y-130335819D02*
X113302589Y-130288200D01*
X113302589Y-130288200D02*
X113254970Y-130240580D01*
X114302589Y-130240580D02*
X114350208Y-130288200D01*
X114350208Y-130288200D02*
X114302589Y-130335819D01*
X114302589Y-130335819D02*
X114254970Y-130288200D01*
X114254970Y-130288200D02*
X114302589Y-130240580D01*
X114302589Y-130240580D02*
X114302589Y-130335819D01*
X114302589Y-129716771D02*
X114350208Y-129764390D01*
X114350208Y-129764390D02*
X114302589Y-129812009D01*
X114302589Y-129812009D02*
X114254970Y-129764390D01*
X114254970Y-129764390D02*
X114302589Y-129716771D01*
X114302589Y-129716771D02*
X114302589Y-129812009D01*
X108064493Y-130945819D02*
X108064493Y-131660104D01*
X108064493Y-131660104D02*
X108016874Y-131802961D01*
X108016874Y-131802961D02*
X107921636Y-131898200D01*
X107921636Y-131898200D02*
X107778779Y-131945819D01*
X107778779Y-131945819D02*
X107683541Y-131945819D01*
X108969255Y-131279152D02*
X108969255Y-131945819D01*
X108540684Y-131279152D02*
X108540684Y-131802961D01*
X108540684Y-131802961D02*
X108588303Y-131898200D01*
X108588303Y-131898200D02*
X108683541Y-131945819D01*
X108683541Y-131945819D02*
X108826398Y-131945819D01*
X108826398Y-131945819D02*
X108921636Y-131898200D01*
X108921636Y-131898200D02*
X108969255Y-131850580D01*
X109397827Y-131898200D02*
X109493065Y-131945819D01*
X109493065Y-131945819D02*
X109683541Y-131945819D01*
X109683541Y-131945819D02*
X109778779Y-131898200D01*
X109778779Y-131898200D02*
X109826398Y-131802961D01*
X109826398Y-131802961D02*
X109826398Y-131755342D01*
X109826398Y-131755342D02*
X109778779Y-131660104D01*
X109778779Y-131660104D02*
X109683541Y-131612485D01*
X109683541Y-131612485D02*
X109540684Y-131612485D01*
X109540684Y-131612485D02*
X109445446Y-131564866D01*
X109445446Y-131564866D02*
X109397827Y-131469628D01*
X109397827Y-131469628D02*
X109397827Y-131422009D01*
X109397827Y-131422009D02*
X109445446Y-131326771D01*
X109445446Y-131326771D02*
X109540684Y-131279152D01*
X109540684Y-131279152D02*
X109683541Y-131279152D01*
X109683541Y-131279152D02*
X109778779Y-131326771D01*
X110112113Y-131279152D02*
X110493065Y-131279152D01*
X110254970Y-130945819D02*
X110254970Y-131802961D01*
X110254970Y-131802961D02*
X110302589Y-131898200D01*
X110302589Y-131898200D02*
X110397827Y-131945819D01*
X110397827Y-131945819D02*
X110493065Y-131945819D01*
X110826399Y-131945819D02*
X110826399Y-131279152D01*
X110826399Y-130945819D02*
X110778780Y-130993438D01*
X110778780Y-130993438D02*
X110826399Y-131041057D01*
X110826399Y-131041057D02*
X110874018Y-130993438D01*
X110874018Y-130993438D02*
X110826399Y-130945819D01*
X110826399Y-130945819D02*
X110826399Y-131041057D01*
X111302589Y-131279152D02*
X111302589Y-131945819D01*
X111302589Y-131374390D02*
X111350208Y-131326771D01*
X111350208Y-131326771D02*
X111445446Y-131279152D01*
X111445446Y-131279152D02*
X111588303Y-131279152D01*
X111588303Y-131279152D02*
X111683541Y-131326771D01*
X111683541Y-131326771D02*
X111731160Y-131422009D01*
X111731160Y-131422009D02*
X111731160Y-131945819D01*
X113540684Y-131850580D02*
X113493065Y-131898200D01*
X113493065Y-131898200D02*
X113350208Y-131945819D01*
X113350208Y-131945819D02*
X113254970Y-131945819D01*
X113254970Y-131945819D02*
X113112113Y-131898200D01*
X113112113Y-131898200D02*
X113016875Y-131802961D01*
X113016875Y-131802961D02*
X112969256Y-131707723D01*
X112969256Y-131707723D02*
X112921637Y-131517247D01*
X112921637Y-131517247D02*
X112921637Y-131374390D01*
X112921637Y-131374390D02*
X112969256Y-131183914D01*
X112969256Y-131183914D02*
X113016875Y-131088676D01*
X113016875Y-131088676D02*
X113112113Y-130993438D01*
X113112113Y-130993438D02*
X113254970Y-130945819D01*
X113254970Y-130945819D02*
X113350208Y-130945819D01*
X113350208Y-130945819D02*
X113493065Y-130993438D01*
X113493065Y-130993438D02*
X113540684Y-131041057D01*
X114397827Y-131945819D02*
X114397827Y-131422009D01*
X114397827Y-131422009D02*
X114350208Y-131326771D01*
X114350208Y-131326771D02*
X114254970Y-131279152D01*
X114254970Y-131279152D02*
X114064494Y-131279152D01*
X114064494Y-131279152D02*
X113969256Y-131326771D01*
X114397827Y-131898200D02*
X114302589Y-131945819D01*
X114302589Y-131945819D02*
X114064494Y-131945819D01*
X114064494Y-131945819D02*
X113969256Y-131898200D01*
X113969256Y-131898200D02*
X113921637Y-131802961D01*
X113921637Y-131802961D02*
X113921637Y-131707723D01*
X113921637Y-131707723D02*
X113969256Y-131612485D01*
X113969256Y-131612485D02*
X114064494Y-131564866D01*
X114064494Y-131564866D02*
X114302589Y-131564866D01*
X114302589Y-131564866D02*
X114397827Y-131517247D01*
X114874018Y-131945819D02*
X114874018Y-131279152D01*
X114874018Y-131374390D02*
X114921637Y-131326771D01*
X114921637Y-131326771D02*
X115016875Y-131279152D01*
X115016875Y-131279152D02*
X115159732Y-131279152D01*
X115159732Y-131279152D02*
X115254970Y-131326771D01*
X115254970Y-131326771D02*
X115302589Y-131422009D01*
X115302589Y-131422009D02*
X115302589Y-131945819D01*
X115302589Y-131422009D02*
X115350208Y-131326771D01*
X115350208Y-131326771D02*
X115445446Y-131279152D01*
X115445446Y-131279152D02*
X115588303Y-131279152D01*
X115588303Y-131279152D02*
X115683542Y-131326771D01*
X115683542Y-131326771D02*
X115731161Y-131422009D01*
X115731161Y-131422009D02*
X115731161Y-131945819D01*
X116207351Y-131945819D02*
X116207351Y-130945819D01*
X116207351Y-131326771D02*
X116302589Y-131279152D01*
X116302589Y-131279152D02*
X116493065Y-131279152D01*
X116493065Y-131279152D02*
X116588303Y-131326771D01*
X116588303Y-131326771D02*
X116635922Y-131374390D01*
X116635922Y-131374390D02*
X116683541Y-131469628D01*
X116683541Y-131469628D02*
X116683541Y-131755342D01*
X116683541Y-131755342D02*
X116635922Y-131850580D01*
X116635922Y-131850580D02*
X116588303Y-131898200D01*
X116588303Y-131898200D02*
X116493065Y-131945819D01*
X116493065Y-131945819D02*
X116302589Y-131945819D01*
X116302589Y-131945819D02*
X116207351Y-131898200D01*
X117112113Y-131945819D02*
X117112113Y-131279152D01*
X117112113Y-131469628D02*
X117159732Y-131374390D01*
X117159732Y-131374390D02*
X117207351Y-131326771D01*
X117207351Y-131326771D02*
X117302589Y-131279152D01*
X117302589Y-131279152D02*
X117397827Y-131279152D01*
X117731161Y-131945819D02*
X117731161Y-131279152D01*
X117731161Y-130945819D02*
X117683542Y-130993438D01*
X117683542Y-130993438D02*
X117731161Y-131041057D01*
X117731161Y-131041057D02*
X117778780Y-130993438D01*
X117778780Y-130993438D02*
X117731161Y-130945819D01*
X117731161Y-130945819D02*
X117731161Y-131041057D01*
X118635922Y-131945819D02*
X118635922Y-130945819D01*
X118635922Y-131898200D02*
X118540684Y-131945819D01*
X118540684Y-131945819D02*
X118350208Y-131945819D01*
X118350208Y-131945819D02*
X118254970Y-131898200D01*
X118254970Y-131898200D02*
X118207351Y-131850580D01*
X118207351Y-131850580D02*
X118159732Y-131755342D01*
X118159732Y-131755342D02*
X118159732Y-131469628D01*
X118159732Y-131469628D02*
X118207351Y-131374390D01*
X118207351Y-131374390D02*
X118254970Y-131326771D01*
X118254970Y-131326771D02*
X118350208Y-131279152D01*
X118350208Y-131279152D02*
X118540684Y-131279152D01*
X118540684Y-131279152D02*
X118635922Y-131326771D01*
X119540684Y-131279152D02*
X119540684Y-132088676D01*
X119540684Y-132088676D02*
X119493065Y-132183914D01*
X119493065Y-132183914D02*
X119445446Y-132231533D01*
X119445446Y-132231533D02*
X119350208Y-132279152D01*
X119350208Y-132279152D02*
X119207351Y-132279152D01*
X119207351Y-132279152D02*
X119112113Y-132231533D01*
X119540684Y-131898200D02*
X119445446Y-131945819D01*
X119445446Y-131945819D02*
X119254970Y-131945819D01*
X119254970Y-131945819D02*
X119159732Y-131898200D01*
X119159732Y-131898200D02*
X119112113Y-131850580D01*
X119112113Y-131850580D02*
X119064494Y-131755342D01*
X119064494Y-131755342D02*
X119064494Y-131469628D01*
X119064494Y-131469628D02*
X119112113Y-131374390D01*
X119112113Y-131374390D02*
X119159732Y-131326771D01*
X119159732Y-131326771D02*
X119254970Y-131279152D01*
X119254970Y-131279152D02*
X119445446Y-131279152D01*
X119445446Y-131279152D02*
X119540684Y-131326771D01*
X120397827Y-131898200D02*
X120302589Y-131945819D01*
X120302589Y-131945819D02*
X120112113Y-131945819D01*
X120112113Y-131945819D02*
X120016875Y-131898200D01*
X120016875Y-131898200D02*
X119969256Y-131802961D01*
X119969256Y-131802961D02*
X119969256Y-131422009D01*
X119969256Y-131422009D02*
X120016875Y-131326771D01*
X120016875Y-131326771D02*
X120112113Y-131279152D01*
X120112113Y-131279152D02*
X120302589Y-131279152D01*
X120302589Y-131279152D02*
X120397827Y-131326771D01*
X120397827Y-131326771D02*
X120445446Y-131422009D01*
X120445446Y-131422009D02*
X120445446Y-131517247D01*
X120445446Y-131517247D02*
X119969256Y-131612485D01*
X120921637Y-131898200D02*
X120921637Y-131945819D01*
X120921637Y-131945819D02*
X120874018Y-132041057D01*
X120874018Y-132041057D02*
X120826399Y-132088676D01*
X107635922Y-132555819D02*
X107969255Y-133555819D01*
X107969255Y-133555819D02*
X108302588Y-132555819D01*
X108635922Y-133555819D02*
X108635922Y-132889152D01*
X108635922Y-132555819D02*
X108588303Y-132603438D01*
X108588303Y-132603438D02*
X108635922Y-132651057D01*
X108635922Y-132651057D02*
X108683541Y-132603438D01*
X108683541Y-132603438D02*
X108635922Y-132555819D01*
X108635922Y-132555819D02*
X108635922Y-132651057D01*
X109064493Y-133508200D02*
X109159731Y-133555819D01*
X109159731Y-133555819D02*
X109350207Y-133555819D01*
X109350207Y-133555819D02*
X109445445Y-133508200D01*
X109445445Y-133508200D02*
X109493064Y-133412961D01*
X109493064Y-133412961D02*
X109493064Y-133365342D01*
X109493064Y-133365342D02*
X109445445Y-133270104D01*
X109445445Y-133270104D02*
X109350207Y-133222485D01*
X109350207Y-133222485D02*
X109207350Y-133222485D01*
X109207350Y-133222485D02*
X109112112Y-133174866D01*
X109112112Y-133174866D02*
X109064493Y-133079628D01*
X109064493Y-133079628D02*
X109064493Y-133032009D01*
X109064493Y-133032009D02*
X109112112Y-132936771D01*
X109112112Y-132936771D02*
X109207350Y-132889152D01*
X109207350Y-132889152D02*
X109350207Y-132889152D01*
X109350207Y-132889152D02*
X109445445Y-132936771D01*
X109921636Y-133555819D02*
X109921636Y-132555819D01*
X110350207Y-133555819D02*
X110350207Y-133032009D01*
X110350207Y-133032009D02*
X110302588Y-132936771D01*
X110302588Y-132936771D02*
X110207350Y-132889152D01*
X110207350Y-132889152D02*
X110064493Y-132889152D01*
X110064493Y-132889152D02*
X109969255Y-132936771D01*
X109969255Y-132936771D02*
X109921636Y-132984390D01*
X110826398Y-132889152D02*
X110826398Y-133555819D01*
X110826398Y-132984390D02*
X110874017Y-132936771D01*
X110874017Y-132936771D02*
X110969255Y-132889152D01*
X110969255Y-132889152D02*
X111112112Y-132889152D01*
X111112112Y-132889152D02*
X111207350Y-132936771D01*
X111207350Y-132936771D02*
X111254969Y-133032009D01*
X111254969Y-133032009D02*
X111254969Y-133555819D01*
X112159731Y-132889152D02*
X112159731Y-133555819D01*
X111731160Y-132889152D02*
X111731160Y-133412961D01*
X111731160Y-133412961D02*
X111778779Y-133508200D01*
X111778779Y-133508200D02*
X111874017Y-133555819D01*
X111874017Y-133555819D02*
X112016874Y-133555819D01*
X112016874Y-133555819D02*
X112112112Y-133508200D01*
X112112112Y-133508200D02*
X112159731Y-133460580D01*
X113874017Y-133555819D02*
X113397827Y-133555819D01*
X113397827Y-133555819D02*
X113397827Y-132555819D01*
X114635922Y-133555819D02*
X114635922Y-133032009D01*
X114635922Y-133032009D02*
X114588303Y-132936771D01*
X114588303Y-132936771D02*
X114493065Y-132889152D01*
X114493065Y-132889152D02*
X114302589Y-132889152D01*
X114302589Y-132889152D02*
X114207351Y-132936771D01*
X114635922Y-133508200D02*
X114540684Y-133555819D01*
X114540684Y-133555819D02*
X114302589Y-133555819D01*
X114302589Y-133555819D02*
X114207351Y-133508200D01*
X114207351Y-133508200D02*
X114159732Y-133412961D01*
X114159732Y-133412961D02*
X114159732Y-133317723D01*
X114159732Y-133317723D02*
X114207351Y-133222485D01*
X114207351Y-133222485D02*
X114302589Y-133174866D01*
X114302589Y-133174866D02*
X114540684Y-133174866D01*
X114540684Y-133174866D02*
X114635922Y-133127247D01*
X115540684Y-132889152D02*
X115540684Y-133698676D01*
X115540684Y-133698676D02*
X115493065Y-133793914D01*
X115493065Y-133793914D02*
X115445446Y-133841533D01*
X115445446Y-133841533D02*
X115350208Y-133889152D01*
X115350208Y-133889152D02*
X115207351Y-133889152D01*
X115207351Y-133889152D02*
X115112113Y-133841533D01*
X115540684Y-133508200D02*
X115445446Y-133555819D01*
X115445446Y-133555819D02*
X115254970Y-133555819D01*
X115254970Y-133555819D02*
X115159732Y-133508200D01*
X115159732Y-133508200D02*
X115112113Y-133460580D01*
X115112113Y-133460580D02*
X115064494Y-133365342D01*
X115064494Y-133365342D02*
X115064494Y-133079628D01*
X115064494Y-133079628D02*
X115112113Y-132984390D01*
X115112113Y-132984390D02*
X115159732Y-132936771D01*
X115159732Y-132936771D02*
X115254970Y-132889152D01*
X115254970Y-132889152D02*
X115445446Y-132889152D01*
X115445446Y-132889152D02*
X115540684Y-132936771D01*
X116445446Y-132889152D02*
X116445446Y-133555819D01*
X116016875Y-132889152D02*
X116016875Y-133412961D01*
X116016875Y-133412961D02*
X116064494Y-133508200D01*
X116064494Y-133508200D02*
X116159732Y-133555819D01*
X116159732Y-133555819D02*
X116302589Y-133555819D01*
X116302589Y-133555819D02*
X116397827Y-133508200D01*
X116397827Y-133508200D02*
X116445446Y-133460580D01*
X117350208Y-133555819D02*
X117350208Y-132555819D01*
X117350208Y-133508200D02*
X117254970Y-133555819D01*
X117254970Y-133555819D02*
X117064494Y-133555819D01*
X117064494Y-133555819D02*
X116969256Y-133508200D01*
X116969256Y-133508200D02*
X116921637Y-133460580D01*
X116921637Y-133460580D02*
X116874018Y-133365342D01*
X116874018Y-133365342D02*
X116874018Y-133079628D01*
X116874018Y-133079628D02*
X116921637Y-132984390D01*
X116921637Y-132984390D02*
X116969256Y-132936771D01*
X116969256Y-132936771D02*
X117064494Y-132889152D01*
X117064494Y-132889152D02*
X117254970Y-132889152D01*
X117254970Y-132889152D02*
X117350208Y-132936771D01*
X118254970Y-132889152D02*
X118254970Y-133555819D01*
X117826399Y-132889152D02*
X117826399Y-133412961D01*
X117826399Y-133412961D02*
X117874018Y-133508200D01*
X117874018Y-133508200D02*
X117969256Y-133555819D01*
X117969256Y-133555819D02*
X118112113Y-133555819D01*
X118112113Y-133555819D02*
X118207351Y-133508200D01*
X118207351Y-133508200D02*
X118254970Y-133460580D01*
X118778780Y-133508200D02*
X118778780Y-133555819D01*
X118778780Y-133555819D02*
X118731161Y-133651057D01*
X118731161Y-133651057D02*
X118683542Y-133698676D01*
X107731160Y-134880104D02*
X108207350Y-134880104D01*
X107635922Y-135165819D02*
X107969255Y-134165819D01*
X107969255Y-134165819D02*
X108302588Y-135165819D01*
X108778779Y-135165819D02*
X108683541Y-135118200D01*
X108683541Y-135118200D02*
X108635922Y-135022961D01*
X108635922Y-135022961D02*
X108635922Y-134165819D01*
X109540684Y-135118200D02*
X109445446Y-135165819D01*
X109445446Y-135165819D02*
X109254970Y-135165819D01*
X109254970Y-135165819D02*
X109159732Y-135118200D01*
X109159732Y-135118200D02*
X109112113Y-135022961D01*
X109112113Y-135022961D02*
X109112113Y-134642009D01*
X109112113Y-134642009D02*
X109159732Y-134546771D01*
X109159732Y-134546771D02*
X109254970Y-134499152D01*
X109254970Y-134499152D02*
X109445446Y-134499152D01*
X109445446Y-134499152D02*
X109540684Y-134546771D01*
X109540684Y-134546771D02*
X109588303Y-134642009D01*
X109588303Y-134642009D02*
X109588303Y-134737247D01*
X109588303Y-134737247D02*
X109112113Y-134832485D01*
X109921637Y-135165819D02*
X110445446Y-134499152D01*
X109921637Y-134499152D02*
X110445446Y-135165819D01*
X112159732Y-135070580D02*
X112112113Y-135118200D01*
X112112113Y-135118200D02*
X111969256Y-135165819D01*
X111969256Y-135165819D02*
X111874018Y-135165819D01*
X111874018Y-135165819D02*
X111731161Y-135118200D01*
X111731161Y-135118200D02*
X111635923Y-135022961D01*
X111635923Y-135022961D02*
X111588304Y-134927723D01*
X111588304Y-134927723D02*
X111540685Y-134737247D01*
X111540685Y-134737247D02*
X111540685Y-134594390D01*
X111540685Y-134594390D02*
X111588304Y-134403914D01*
X111588304Y-134403914D02*
X111635923Y-134308676D01*
X111635923Y-134308676D02*
X111731161Y-134213438D01*
X111731161Y-134213438D02*
X111874018Y-134165819D01*
X111874018Y-134165819D02*
X111969256Y-134165819D01*
X111969256Y-134165819D02*
X112112113Y-134213438D01*
X112112113Y-134213438D02*
X112159732Y-134261057D01*
X112588304Y-135165819D02*
X112588304Y-134165819D01*
X113016875Y-135165819D02*
X113016875Y-134642009D01*
X113016875Y-134642009D02*
X112969256Y-134546771D01*
X112969256Y-134546771D02*
X112874018Y-134499152D01*
X112874018Y-134499152D02*
X112731161Y-134499152D01*
X112731161Y-134499152D02*
X112635923Y-134546771D01*
X112635923Y-134546771D02*
X112588304Y-134594390D01*
X113493066Y-135165819D02*
X113493066Y-134499152D01*
X113493066Y-134165819D02*
X113445447Y-134213438D01*
X113445447Y-134213438D02*
X113493066Y-134261057D01*
X113493066Y-134261057D02*
X113540685Y-134213438D01*
X113540685Y-134213438D02*
X113493066Y-134165819D01*
X113493066Y-134165819D02*
X113493066Y-134261057D01*
X113826399Y-134499152D02*
X114207351Y-134499152D01*
X113969256Y-134165819D02*
X113969256Y-135022961D01*
X113969256Y-135022961D02*
X114016875Y-135118200D01*
X114016875Y-135118200D02*
X114112113Y-135165819D01*
X114112113Y-135165819D02*
X114207351Y-135165819D01*
X114493066Y-135118200D02*
X114588304Y-135165819D01*
X114588304Y-135165819D02*
X114778780Y-135165819D01*
X114778780Y-135165819D02*
X114874018Y-135118200D01*
X114874018Y-135118200D02*
X114921637Y-135022961D01*
X114921637Y-135022961D02*
X114921637Y-134975342D01*
X114921637Y-134975342D02*
X114874018Y-134880104D01*
X114874018Y-134880104D02*
X114778780Y-134832485D01*
X114778780Y-134832485D02*
X114635923Y-134832485D01*
X114635923Y-134832485D02*
X114540685Y-134784866D01*
X114540685Y-134784866D02*
X114493066Y-134689628D01*
X114493066Y-134689628D02*
X114493066Y-134642009D01*
X114493066Y-134642009D02*
X114540685Y-134546771D01*
X114540685Y-134546771D02*
X114635923Y-134499152D01*
X114635923Y-134499152D02*
X114778780Y-134499152D01*
X114778780Y-134499152D02*
X114874018Y-134546771D01*
X115778780Y-135165819D02*
X115778780Y-134642009D01*
X115778780Y-134642009D02*
X115731161Y-134546771D01*
X115731161Y-134546771D02*
X115635923Y-134499152D01*
X115635923Y-134499152D02*
X115445447Y-134499152D01*
X115445447Y-134499152D02*
X115350209Y-134546771D01*
X115778780Y-135118200D02*
X115683542Y-135165819D01*
X115683542Y-135165819D02*
X115445447Y-135165819D01*
X115445447Y-135165819D02*
X115350209Y-135118200D01*
X115350209Y-135118200D02*
X115302590Y-135022961D01*
X115302590Y-135022961D02*
X115302590Y-134927723D01*
X115302590Y-134927723D02*
X115350209Y-134832485D01*
X115350209Y-134832485D02*
X115445447Y-134784866D01*
X115445447Y-134784866D02*
X115683542Y-134784866D01*
X115683542Y-134784866D02*
X115778780Y-134737247D01*
X116159733Y-134499152D02*
X116683542Y-134499152D01*
X116683542Y-134499152D02*
X116159733Y-135165819D01*
X116159733Y-135165819D02*
X116683542Y-135165819D01*
X116969257Y-134499152D02*
X117493066Y-134499152D01*
X117493066Y-134499152D02*
X116969257Y-135165819D01*
X116969257Y-135165819D02*
X117493066Y-135165819D01*
X118302590Y-135165819D02*
X118302590Y-134642009D01*
X118302590Y-134642009D02*
X118254971Y-134546771D01*
X118254971Y-134546771D02*
X118159733Y-134499152D01*
X118159733Y-134499152D02*
X117969257Y-134499152D01*
X117969257Y-134499152D02*
X117874019Y-134546771D01*
X118302590Y-135118200D02*
X118207352Y-135165819D01*
X118207352Y-135165819D02*
X117969257Y-135165819D01*
X117969257Y-135165819D02*
X117874019Y-135118200D01*
X117874019Y-135118200D02*
X117826400Y-135022961D01*
X117826400Y-135022961D02*
X117826400Y-134927723D01*
X117826400Y-134927723D02*
X117874019Y-134832485D01*
X117874019Y-134832485D02*
X117969257Y-134784866D01*
X117969257Y-134784866D02*
X118207352Y-134784866D01*
X118207352Y-134784866D02*
X118302590Y-134737247D01*
X119207352Y-135165819D02*
X119207352Y-134165819D01*
X119207352Y-135118200D02*
X119112114Y-135165819D01*
X119112114Y-135165819D02*
X118921638Y-135165819D01*
X118921638Y-135165819D02*
X118826400Y-135118200D01*
X118826400Y-135118200D02*
X118778781Y-135070580D01*
X118778781Y-135070580D02*
X118731162Y-134975342D01*
X118731162Y-134975342D02*
X118731162Y-134689628D01*
X118731162Y-134689628D02*
X118778781Y-134594390D01*
X118778781Y-134594390D02*
X118826400Y-134546771D01*
X118826400Y-134546771D02*
X118921638Y-134499152D01*
X118921638Y-134499152D02*
X119112114Y-134499152D01*
X119112114Y-134499152D02*
X119207352Y-134546771D01*
X120064495Y-135118200D02*
X119969257Y-135165819D01*
X119969257Y-135165819D02*
X119778781Y-135165819D01*
X119778781Y-135165819D02*
X119683543Y-135118200D01*
X119683543Y-135118200D02*
X119635924Y-135022961D01*
X119635924Y-135022961D02*
X119635924Y-134642009D01*
X119635924Y-134642009D02*
X119683543Y-134546771D01*
X119683543Y-134546771D02*
X119778781Y-134499152D01*
X119778781Y-134499152D02*
X119969257Y-134499152D01*
X119969257Y-134499152D02*
X120064495Y-134546771D01*
X120064495Y-134546771D02*
X120112114Y-134642009D01*
X120112114Y-134642009D02*
X120112114Y-134737247D01*
X120112114Y-134737247D02*
X119635924Y-134832485D01*
X120540686Y-135165819D02*
X120540686Y-134165819D01*
X120969257Y-135165819D02*
X120969257Y-134642009D01*
X120969257Y-134642009D02*
X120921638Y-134546771D01*
X120921638Y-134546771D02*
X120826400Y-134499152D01*
X120826400Y-134499152D02*
X120683543Y-134499152D01*
X120683543Y-134499152D02*
X120588305Y-134546771D01*
X120588305Y-134546771D02*
X120540686Y-134594390D01*
X121493067Y-135118200D02*
X121493067Y-135165819D01*
X121493067Y-135165819D02*
X121445448Y-135261057D01*
X121445448Y-135261057D02*
X121397829Y-135308676D01*
X107731160Y-136490104D02*
X108207350Y-136490104D01*
X107635922Y-136775819D02*
X107969255Y-135775819D01*
X107969255Y-135775819D02*
X108302588Y-136775819D01*
X109064493Y-136775819D02*
X109064493Y-135775819D01*
X109064493Y-136728200D02*
X108969255Y-136775819D01*
X108969255Y-136775819D02*
X108778779Y-136775819D01*
X108778779Y-136775819D02*
X108683541Y-136728200D01*
X108683541Y-136728200D02*
X108635922Y-136680580D01*
X108635922Y-136680580D02*
X108588303Y-136585342D01*
X108588303Y-136585342D02*
X108588303Y-136299628D01*
X108588303Y-136299628D02*
X108635922Y-136204390D01*
X108635922Y-136204390D02*
X108683541Y-136156771D01*
X108683541Y-136156771D02*
X108778779Y-136109152D01*
X108778779Y-136109152D02*
X108969255Y-136109152D01*
X108969255Y-136109152D02*
X109064493Y-136156771D01*
X109540684Y-136775819D02*
X109540684Y-136109152D01*
X109540684Y-135775819D02*
X109493065Y-135823438D01*
X109493065Y-135823438D02*
X109540684Y-135871057D01*
X109540684Y-135871057D02*
X109588303Y-135823438D01*
X109588303Y-135823438D02*
X109540684Y-135775819D01*
X109540684Y-135775819D02*
X109540684Y-135871057D01*
X109874017Y-136109152D02*
X110254969Y-136109152D01*
X110016874Y-135775819D02*
X110016874Y-136632961D01*
X110016874Y-136632961D02*
X110064493Y-136728200D01*
X110064493Y-136728200D02*
X110159731Y-136775819D01*
X110159731Y-136775819D02*
X110254969Y-136775819D01*
X110493065Y-136109152D02*
X110731160Y-136775819D01*
X110969255Y-136109152D02*
X110731160Y-136775819D01*
X110731160Y-136775819D02*
X110635922Y-137013914D01*
X110635922Y-137013914D02*
X110588303Y-137061533D01*
X110588303Y-137061533D02*
X110493065Y-137109152D01*
X111778779Y-136775819D02*
X111778779Y-136252009D01*
X111778779Y-136252009D02*
X111731160Y-136156771D01*
X111731160Y-136156771D02*
X111635922Y-136109152D01*
X111635922Y-136109152D02*
X111445446Y-136109152D01*
X111445446Y-136109152D02*
X111350208Y-136156771D01*
X111778779Y-136728200D02*
X111683541Y-136775819D01*
X111683541Y-136775819D02*
X111445446Y-136775819D01*
X111445446Y-136775819D02*
X111350208Y-136728200D01*
X111350208Y-136728200D02*
X111302589Y-136632961D01*
X111302589Y-136632961D02*
X111302589Y-136537723D01*
X111302589Y-136537723D02*
X111350208Y-136442485D01*
X111350208Y-136442485D02*
X111445446Y-136394866D01*
X111445446Y-136394866D02*
X111683541Y-136394866D01*
X111683541Y-136394866D02*
X111778779Y-136347247D01*
X112969256Y-136728200D02*
X113112113Y-136775819D01*
X113112113Y-136775819D02*
X113350208Y-136775819D01*
X113350208Y-136775819D02*
X113445446Y-136728200D01*
X113445446Y-136728200D02*
X113493065Y-136680580D01*
X113493065Y-136680580D02*
X113540684Y-136585342D01*
X113540684Y-136585342D02*
X113540684Y-136490104D01*
X113540684Y-136490104D02*
X113493065Y-136394866D01*
X113493065Y-136394866D02*
X113445446Y-136347247D01*
X113445446Y-136347247D02*
X113350208Y-136299628D01*
X113350208Y-136299628D02*
X113159732Y-136252009D01*
X113159732Y-136252009D02*
X113064494Y-136204390D01*
X113064494Y-136204390D02*
X113016875Y-136156771D01*
X113016875Y-136156771D02*
X112969256Y-136061533D01*
X112969256Y-136061533D02*
X112969256Y-135966295D01*
X112969256Y-135966295D02*
X113016875Y-135871057D01*
X113016875Y-135871057D02*
X113064494Y-135823438D01*
X113064494Y-135823438D02*
X113159732Y-135775819D01*
X113159732Y-135775819D02*
X113397827Y-135775819D01*
X113397827Y-135775819D02*
X113540684Y-135823438D01*
X114112113Y-136775819D02*
X114016875Y-136728200D01*
X114016875Y-136728200D02*
X113969256Y-136680580D01*
X113969256Y-136680580D02*
X113921637Y-136585342D01*
X113921637Y-136585342D02*
X113921637Y-136299628D01*
X113921637Y-136299628D02*
X113969256Y-136204390D01*
X113969256Y-136204390D02*
X114016875Y-136156771D01*
X114016875Y-136156771D02*
X114112113Y-136109152D01*
X114112113Y-136109152D02*
X114254970Y-136109152D01*
X114254970Y-136109152D02*
X114350208Y-136156771D01*
X114350208Y-136156771D02*
X114397827Y-136204390D01*
X114397827Y-136204390D02*
X114445446Y-136299628D01*
X114445446Y-136299628D02*
X114445446Y-136585342D01*
X114445446Y-136585342D02*
X114397827Y-136680580D01*
X114397827Y-136680580D02*
X114350208Y-136728200D01*
X114350208Y-136728200D02*
X114254970Y-136775819D01*
X114254970Y-136775819D02*
X114112113Y-136775819D01*
X115016875Y-136775819D02*
X114921637Y-136728200D01*
X114921637Y-136728200D02*
X114874018Y-136680580D01*
X114874018Y-136680580D02*
X114826399Y-136585342D01*
X114826399Y-136585342D02*
X114826399Y-136299628D01*
X114826399Y-136299628D02*
X114874018Y-136204390D01*
X114874018Y-136204390D02*
X114921637Y-136156771D01*
X114921637Y-136156771D02*
X115016875Y-136109152D01*
X115016875Y-136109152D02*
X115159732Y-136109152D01*
X115159732Y-136109152D02*
X115254970Y-136156771D01*
X115254970Y-136156771D02*
X115302589Y-136204390D01*
X115302589Y-136204390D02*
X115350208Y-136299628D01*
X115350208Y-136299628D02*
X115350208Y-136585342D01*
X115350208Y-136585342D02*
X115302589Y-136680580D01*
X115302589Y-136680580D02*
X115254970Y-136728200D01*
X115254970Y-136728200D02*
X115159732Y-136775819D01*
X115159732Y-136775819D02*
X115016875Y-136775819D01*
X116207351Y-136775819D02*
X116207351Y-135775819D01*
X116207351Y-136728200D02*
X116112113Y-136775819D01*
X116112113Y-136775819D02*
X115921637Y-136775819D01*
X115921637Y-136775819D02*
X115826399Y-136728200D01*
X115826399Y-136728200D02*
X115778780Y-136680580D01*
X115778780Y-136680580D02*
X115731161Y-136585342D01*
X115731161Y-136585342D02*
X115731161Y-136299628D01*
X115731161Y-136299628D02*
X115778780Y-136204390D01*
X115778780Y-136204390D02*
X115826399Y-136156771D01*
X115826399Y-136156771D02*
X115921637Y-136109152D01*
X115921637Y-136109152D02*
X116112113Y-136109152D01*
X116112113Y-136109152D02*
X116207351Y-136156771D01*
X195938333Y-104848819D02*
X195462143Y-104848819D01*
X195462143Y-104848819D02*
X195462143Y-103848819D01*
X196271667Y-104848819D02*
X196271667Y-103848819D01*
X196271667Y-103848819D02*
X196509762Y-103848819D01*
X196509762Y-103848819D02*
X196652619Y-103896438D01*
X196652619Y-103896438D02*
X196747857Y-103991676D01*
X196747857Y-103991676D02*
X196795476Y-104086914D01*
X196795476Y-104086914D02*
X196843095Y-104277390D01*
X196843095Y-104277390D02*
X196843095Y-104420247D01*
X196843095Y-104420247D02*
X196795476Y-104610723D01*
X196795476Y-104610723D02*
X196747857Y-104705961D01*
X196747857Y-104705961D02*
X196652619Y-104801200D01*
X196652619Y-104801200D02*
X196509762Y-104848819D01*
X196509762Y-104848819D02*
X196271667Y-104848819D01*
X197176429Y-103848819D02*
X197795476Y-103848819D01*
X197795476Y-103848819D02*
X197462143Y-104229771D01*
X197462143Y-104229771D02*
X197605000Y-104229771D01*
X197605000Y-104229771D02*
X197700238Y-104277390D01*
X197700238Y-104277390D02*
X197747857Y-104325009D01*
X197747857Y-104325009D02*
X197795476Y-104420247D01*
X197795476Y-104420247D02*
X197795476Y-104658342D01*
X197795476Y-104658342D02*
X197747857Y-104753580D01*
X197747857Y-104753580D02*
X197700238Y-104801200D01*
X197700238Y-104801200D02*
X197605000Y-104848819D01*
X197605000Y-104848819D02*
X197319286Y-104848819D01*
X197319286Y-104848819D02*
X197224048Y-104801200D01*
X197224048Y-104801200D02*
X197176429Y-104753580D01*
X112084095Y-150076819D02*
X112084095Y-150886342D01*
X112084095Y-150886342D02*
X112131714Y-150981580D01*
X112131714Y-150981580D02*
X112179333Y-151029200D01*
X112179333Y-151029200D02*
X112274571Y-151076819D01*
X112274571Y-151076819D02*
X112465047Y-151076819D01*
X112465047Y-151076819D02*
X112560285Y-151029200D01*
X112560285Y-151029200D02*
X112607904Y-150981580D01*
X112607904Y-150981580D02*
X112655523Y-150886342D01*
X112655523Y-150886342D02*
X112655523Y-150076819D01*
X113084095Y-150172057D02*
X113131714Y-150124438D01*
X113131714Y-150124438D02*
X113226952Y-150076819D01*
X113226952Y-150076819D02*
X113465047Y-150076819D01*
X113465047Y-150076819D02*
X113560285Y-150124438D01*
X113560285Y-150124438D02*
X113607904Y-150172057D01*
X113607904Y-150172057D02*
X113655523Y-150267295D01*
X113655523Y-150267295D02*
X113655523Y-150362533D01*
X113655523Y-150362533D02*
X113607904Y-150505390D01*
X113607904Y-150505390D02*
X113036476Y-151076819D01*
X113036476Y-151076819D02*
X113655523Y-151076819D01*
X101420819Y-127880857D02*
X100944628Y-128214190D01*
X101420819Y-128452285D02*
X100420819Y-128452285D01*
X100420819Y-128452285D02*
X100420819Y-128071333D01*
X100420819Y-128071333D02*
X100468438Y-127976095D01*
X100468438Y-127976095D02*
X100516057Y-127928476D01*
X100516057Y-127928476D02*
X100611295Y-127880857D01*
X100611295Y-127880857D02*
X100754152Y-127880857D01*
X100754152Y-127880857D02*
X100849390Y-127928476D01*
X100849390Y-127928476D02*
X100897009Y-127976095D01*
X100897009Y-127976095D02*
X100944628Y-128071333D01*
X100944628Y-128071333D02*
X100944628Y-128452285D01*
X101420819Y-126928476D02*
X101420819Y-127499904D01*
X101420819Y-127214190D02*
X100420819Y-127214190D01*
X100420819Y-127214190D02*
X100563676Y-127309428D01*
X100563676Y-127309428D02*
X100658914Y-127404666D01*
X100658914Y-127404666D02*
X100706533Y-127499904D01*
X100420819Y-126309428D02*
X100420819Y-126214190D01*
X100420819Y-126214190D02*
X100468438Y-126118952D01*
X100468438Y-126118952D02*
X100516057Y-126071333D01*
X100516057Y-126071333D02*
X100611295Y-126023714D01*
X100611295Y-126023714D02*
X100801771Y-125976095D01*
X100801771Y-125976095D02*
X101039866Y-125976095D01*
X101039866Y-125976095D02*
X101230342Y-126023714D01*
X101230342Y-126023714D02*
X101325580Y-126071333D01*
X101325580Y-126071333D02*
X101373200Y-126118952D01*
X101373200Y-126118952D02*
X101420819Y-126214190D01*
X101420819Y-126214190D02*
X101420819Y-126309428D01*
X101420819Y-126309428D02*
X101373200Y-126404666D01*
X101373200Y-126404666D02*
X101325580Y-126452285D01*
X101325580Y-126452285D02*
X101230342Y-126499904D01*
X101230342Y-126499904D02*
X101039866Y-126547523D01*
X101039866Y-126547523D02*
X100801771Y-126547523D01*
X100801771Y-126547523D02*
X100611295Y-126499904D01*
X100611295Y-126499904D02*
X100516057Y-126452285D01*
X100516057Y-126452285D02*
X100468438Y-126404666D01*
X100468438Y-126404666D02*
X100420819Y-126309428D01*
X103797580Y-144887143D02*
X103845200Y-144934762D01*
X103845200Y-144934762D02*
X103892819Y-145077619D01*
X103892819Y-145077619D02*
X103892819Y-145172857D01*
X103892819Y-145172857D02*
X103845200Y-145315714D01*
X103845200Y-145315714D02*
X103749961Y-145410952D01*
X103749961Y-145410952D02*
X103654723Y-145458571D01*
X103654723Y-145458571D02*
X103464247Y-145506190D01*
X103464247Y-145506190D02*
X103321390Y-145506190D01*
X103321390Y-145506190D02*
X103130914Y-145458571D01*
X103130914Y-145458571D02*
X103035676Y-145410952D01*
X103035676Y-145410952D02*
X102940438Y-145315714D01*
X102940438Y-145315714D02*
X102892819Y-145172857D01*
X102892819Y-145172857D02*
X102892819Y-145077619D01*
X102892819Y-145077619D02*
X102940438Y-144934762D01*
X102940438Y-144934762D02*
X102988057Y-144887143D01*
X103892819Y-144315714D02*
X103845200Y-144410952D01*
X103845200Y-144410952D02*
X103797580Y-144458571D01*
X103797580Y-144458571D02*
X103702342Y-144506190D01*
X103702342Y-144506190D02*
X103416628Y-144506190D01*
X103416628Y-144506190D02*
X103321390Y-144458571D01*
X103321390Y-144458571D02*
X103273771Y-144410952D01*
X103273771Y-144410952D02*
X103226152Y-144315714D01*
X103226152Y-144315714D02*
X103226152Y-144172857D01*
X103226152Y-144172857D02*
X103273771Y-144077619D01*
X103273771Y-144077619D02*
X103321390Y-144030000D01*
X103321390Y-144030000D02*
X103416628Y-143982381D01*
X103416628Y-143982381D02*
X103702342Y-143982381D01*
X103702342Y-143982381D02*
X103797580Y-144030000D01*
X103797580Y-144030000D02*
X103845200Y-144077619D01*
X103845200Y-144077619D02*
X103892819Y-144172857D01*
X103892819Y-144172857D02*
X103892819Y-144315714D01*
X103226152Y-143125238D02*
X103892819Y-143125238D01*
X103226152Y-143553809D02*
X103749961Y-143553809D01*
X103749961Y-143553809D02*
X103845200Y-143506190D01*
X103845200Y-143506190D02*
X103892819Y-143410952D01*
X103892819Y-143410952D02*
X103892819Y-143268095D01*
X103892819Y-143268095D02*
X103845200Y-143172857D01*
X103845200Y-143172857D02*
X103797580Y-143125238D01*
X103226152Y-142791904D02*
X103226152Y-142410952D01*
X102892819Y-142649047D02*
X103749961Y-142649047D01*
X103749961Y-142649047D02*
X103845200Y-142601428D01*
X103845200Y-142601428D02*
X103892819Y-142506190D01*
X103892819Y-142506190D02*
X103892819Y-142410952D01*
X103892819Y-141553809D02*
X103892819Y-142125237D01*
X103892819Y-141839523D02*
X102892819Y-141839523D01*
X102892819Y-141839523D02*
X103035676Y-141934761D01*
X103035676Y-141934761D02*
X103130914Y-142029999D01*
X103130914Y-142029999D02*
X103178533Y-142125237D01*
X150161666Y-150076819D02*
X150161666Y-150791104D01*
X150161666Y-150791104D02*
X150114047Y-150933961D01*
X150114047Y-150933961D02*
X150018809Y-151029200D01*
X150018809Y-151029200D02*
X149875952Y-151076819D01*
X149875952Y-151076819D02*
X149780714Y-151076819D01*
X151114047Y-150076819D02*
X150637857Y-150076819D01*
X150637857Y-150076819D02*
X150590238Y-150553009D01*
X150590238Y-150553009D02*
X150637857Y-150505390D01*
X150637857Y-150505390D02*
X150733095Y-150457771D01*
X150733095Y-150457771D02*
X150971190Y-150457771D01*
X150971190Y-150457771D02*
X151066428Y-150505390D01*
X151066428Y-150505390D02*
X151114047Y-150553009D01*
X151114047Y-150553009D02*
X151161666Y-150648247D01*
X151161666Y-150648247D02*
X151161666Y-150886342D01*
X151161666Y-150886342D02*
X151114047Y-150981580D01*
X151114047Y-150981580D02*
X151066428Y-151029200D01*
X151066428Y-151029200D02*
X150971190Y-151076819D01*
X150971190Y-151076819D02*
X150733095Y-151076819D01*
X150733095Y-151076819D02*
X150637857Y-151029200D01*
X150637857Y-151029200D02*
X150590238Y-150981580D01*
X102055819Y-115228666D02*
X101579628Y-115561999D01*
X102055819Y-115800094D02*
X101055819Y-115800094D01*
X101055819Y-115800094D02*
X101055819Y-115419142D01*
X101055819Y-115419142D02*
X101103438Y-115323904D01*
X101103438Y-115323904D02*
X101151057Y-115276285D01*
X101151057Y-115276285D02*
X101246295Y-115228666D01*
X101246295Y-115228666D02*
X101389152Y-115228666D01*
X101389152Y-115228666D02*
X101484390Y-115276285D01*
X101484390Y-115276285D02*
X101532009Y-115323904D01*
X101532009Y-115323904D02*
X101579628Y-115419142D01*
X101579628Y-115419142D02*
X101579628Y-115800094D01*
X102055819Y-114752475D02*
X102055819Y-114561999D01*
X102055819Y-114561999D02*
X102008200Y-114466761D01*
X102008200Y-114466761D02*
X101960580Y-114419142D01*
X101960580Y-114419142D02*
X101817723Y-114323904D01*
X101817723Y-114323904D02*
X101627247Y-114276285D01*
X101627247Y-114276285D02*
X101246295Y-114276285D01*
X101246295Y-114276285D02*
X101151057Y-114323904D01*
X101151057Y-114323904D02*
X101103438Y-114371523D01*
X101103438Y-114371523D02*
X101055819Y-114466761D01*
X101055819Y-114466761D02*
X101055819Y-114657237D01*
X101055819Y-114657237D02*
X101103438Y-114752475D01*
X101103438Y-114752475D02*
X101151057Y-114800094D01*
X101151057Y-114800094D02*
X101246295Y-114847713D01*
X101246295Y-114847713D02*
X101484390Y-114847713D01*
X101484390Y-114847713D02*
X101579628Y-114800094D01*
X101579628Y-114800094D02*
X101627247Y-114752475D01*
X101627247Y-114752475D02*
X101674866Y-114657237D01*
X101674866Y-114657237D02*
X101674866Y-114466761D01*
X101674866Y-114466761D02*
X101627247Y-114371523D01*
X101627247Y-114371523D02*
X101579628Y-114323904D01*
X101579628Y-114323904D02*
X101484390Y-114276285D01*
X99858819Y-145107333D02*
X100573104Y-145107333D01*
X100573104Y-145107333D02*
X100715961Y-145154952D01*
X100715961Y-145154952D02*
X100811200Y-145250190D01*
X100811200Y-145250190D02*
X100858819Y-145393047D01*
X100858819Y-145393047D02*
X100858819Y-145488285D01*
X100192152Y-144202571D02*
X100858819Y-144202571D01*
X99811200Y-144440666D02*
X100525485Y-144678761D01*
X100525485Y-144678761D02*
X100525485Y-144059714D01*
X163314142Y-155902819D02*
X162837952Y-155902819D01*
X162837952Y-155902819D02*
X162837952Y-154902819D01*
X163599857Y-155855200D02*
X163742714Y-155902819D01*
X163742714Y-155902819D02*
X163980809Y-155902819D01*
X163980809Y-155902819D02*
X164076047Y-155855200D01*
X164076047Y-155855200D02*
X164123666Y-155807580D01*
X164123666Y-155807580D02*
X164171285Y-155712342D01*
X164171285Y-155712342D02*
X164171285Y-155617104D01*
X164171285Y-155617104D02*
X164123666Y-155521866D01*
X164123666Y-155521866D02*
X164076047Y-155474247D01*
X164076047Y-155474247D02*
X163980809Y-155426628D01*
X163980809Y-155426628D02*
X163790333Y-155379009D01*
X163790333Y-155379009D02*
X163695095Y-155331390D01*
X163695095Y-155331390D02*
X163647476Y-155283771D01*
X163647476Y-155283771D02*
X163599857Y-155188533D01*
X163599857Y-155188533D02*
X163599857Y-155093295D01*
X163599857Y-155093295D02*
X163647476Y-154998057D01*
X163647476Y-154998057D02*
X163695095Y-154950438D01*
X163695095Y-154950438D02*
X163790333Y-154902819D01*
X163790333Y-154902819D02*
X164028428Y-154902819D01*
X164028428Y-154902819D02*
X164171285Y-154950438D01*
X165123666Y-155902819D02*
X164552238Y-155902819D01*
X164837952Y-155902819D02*
X164837952Y-154902819D01*
X164837952Y-154902819D02*
X164742714Y-155045676D01*
X164742714Y-155045676D02*
X164647476Y-155140914D01*
X164647476Y-155140914D02*
X164552238Y-155188533D01*
X191970819Y-136405809D02*
X191494628Y-136739142D01*
X191970819Y-136977237D02*
X190970819Y-136977237D01*
X190970819Y-136977237D02*
X190970819Y-136596285D01*
X190970819Y-136596285D02*
X191018438Y-136501047D01*
X191018438Y-136501047D02*
X191066057Y-136453428D01*
X191066057Y-136453428D02*
X191161295Y-136405809D01*
X191161295Y-136405809D02*
X191304152Y-136405809D01*
X191304152Y-136405809D02*
X191399390Y-136453428D01*
X191399390Y-136453428D02*
X191447009Y-136501047D01*
X191447009Y-136501047D02*
X191494628Y-136596285D01*
X191494628Y-136596285D02*
X191494628Y-136977237D01*
X190970819Y-136120094D02*
X191970819Y-135786761D01*
X191970819Y-135786761D02*
X190970819Y-135453428D01*
X191923200Y-134739142D02*
X191970819Y-134834380D01*
X191970819Y-134834380D02*
X191970819Y-135024856D01*
X191970819Y-135024856D02*
X191923200Y-135120094D01*
X191923200Y-135120094D02*
X191827961Y-135167713D01*
X191827961Y-135167713D02*
X191447009Y-135167713D01*
X191447009Y-135167713D02*
X191351771Y-135120094D01*
X191351771Y-135120094D02*
X191304152Y-135024856D01*
X191304152Y-135024856D02*
X191304152Y-134834380D01*
X191304152Y-134834380D02*
X191351771Y-134739142D01*
X191351771Y-134739142D02*
X191447009Y-134691523D01*
X191447009Y-134691523D02*
X191542247Y-134691523D01*
X191542247Y-134691523D02*
X191637485Y-135167713D01*
X191970819Y-133739142D02*
X191970819Y-134310570D01*
X191970819Y-134024856D02*
X190970819Y-134024856D01*
X190970819Y-134024856D02*
X191113676Y-134120094D01*
X191113676Y-134120094D02*
X191208914Y-134215332D01*
X191208914Y-134215332D02*
X191256533Y-134310570D01*
X96084819Y-100750666D02*
X95608628Y-101083999D01*
X96084819Y-101322094D02*
X95084819Y-101322094D01*
X95084819Y-101322094D02*
X95084819Y-100941142D01*
X95084819Y-100941142D02*
X95132438Y-100845904D01*
X95132438Y-100845904D02*
X95180057Y-100798285D01*
X95180057Y-100798285D02*
X95275295Y-100750666D01*
X95275295Y-100750666D02*
X95418152Y-100750666D01*
X95418152Y-100750666D02*
X95513390Y-100798285D01*
X95513390Y-100798285D02*
X95561009Y-100845904D01*
X95561009Y-100845904D02*
X95608628Y-100941142D01*
X95608628Y-100941142D02*
X95608628Y-101322094D01*
X95180057Y-100369713D02*
X95132438Y-100322094D01*
X95132438Y-100322094D02*
X95084819Y-100226856D01*
X95084819Y-100226856D02*
X95084819Y-99988761D01*
X95084819Y-99988761D02*
X95132438Y-99893523D01*
X95132438Y-99893523D02*
X95180057Y-99845904D01*
X95180057Y-99845904D02*
X95275295Y-99798285D01*
X95275295Y-99798285D02*
X95370533Y-99798285D01*
X95370533Y-99798285D02*
X95513390Y-99845904D01*
X95513390Y-99845904D02*
X96084819Y-100417332D01*
X96084819Y-100417332D02*
X96084819Y-99798285D01*
X112119580Y-143287524D02*
X112167200Y-143335143D01*
X112167200Y-143335143D02*
X112214819Y-143478000D01*
X112214819Y-143478000D02*
X112214819Y-143573238D01*
X112214819Y-143573238D02*
X112167200Y-143716095D01*
X112167200Y-143716095D02*
X112071961Y-143811333D01*
X112071961Y-143811333D02*
X111976723Y-143858952D01*
X111976723Y-143858952D02*
X111786247Y-143906571D01*
X111786247Y-143906571D02*
X111643390Y-143906571D01*
X111643390Y-143906571D02*
X111452914Y-143858952D01*
X111452914Y-143858952D02*
X111357676Y-143811333D01*
X111357676Y-143811333D02*
X111262438Y-143716095D01*
X111262438Y-143716095D02*
X111214819Y-143573238D01*
X111214819Y-143573238D02*
X111214819Y-143478000D01*
X111214819Y-143478000D02*
X111262438Y-143335143D01*
X111262438Y-143335143D02*
X111310057Y-143287524D01*
X112214819Y-142858952D02*
X111214819Y-142858952D01*
X111595771Y-142858952D02*
X111548152Y-142763714D01*
X111548152Y-142763714D02*
X111548152Y-142573238D01*
X111548152Y-142573238D02*
X111595771Y-142478000D01*
X111595771Y-142478000D02*
X111643390Y-142430381D01*
X111643390Y-142430381D02*
X111738628Y-142382762D01*
X111738628Y-142382762D02*
X112024342Y-142382762D01*
X112024342Y-142382762D02*
X112119580Y-142430381D01*
X112119580Y-142430381D02*
X112167200Y-142478000D01*
X112167200Y-142478000D02*
X112214819Y-142573238D01*
X112214819Y-142573238D02*
X112214819Y-142763714D01*
X112214819Y-142763714D02*
X112167200Y-142858952D01*
X112214819Y-141811333D02*
X112167200Y-141906571D01*
X112167200Y-141906571D02*
X112119580Y-141954190D01*
X112119580Y-141954190D02*
X112024342Y-142001809D01*
X112024342Y-142001809D02*
X111738628Y-142001809D01*
X111738628Y-142001809D02*
X111643390Y-141954190D01*
X111643390Y-141954190D02*
X111595771Y-141906571D01*
X111595771Y-141906571D02*
X111548152Y-141811333D01*
X111548152Y-141811333D02*
X111548152Y-141668476D01*
X111548152Y-141668476D02*
X111595771Y-141573238D01*
X111595771Y-141573238D02*
X111643390Y-141525619D01*
X111643390Y-141525619D02*
X111738628Y-141478000D01*
X111738628Y-141478000D02*
X112024342Y-141478000D01*
X112024342Y-141478000D02*
X112119580Y-141525619D01*
X112119580Y-141525619D02*
X112167200Y-141573238D01*
X112167200Y-141573238D02*
X112214819Y-141668476D01*
X112214819Y-141668476D02*
X112214819Y-141811333D01*
X112214819Y-140906571D02*
X112167200Y-141001809D01*
X112167200Y-141001809D02*
X112119580Y-141049428D01*
X112119580Y-141049428D02*
X112024342Y-141097047D01*
X112024342Y-141097047D02*
X111738628Y-141097047D01*
X111738628Y-141097047D02*
X111643390Y-141049428D01*
X111643390Y-141049428D02*
X111595771Y-141001809D01*
X111595771Y-141001809D02*
X111548152Y-140906571D01*
X111548152Y-140906571D02*
X111548152Y-140763714D01*
X111548152Y-140763714D02*
X111595771Y-140668476D01*
X111595771Y-140668476D02*
X111643390Y-140620857D01*
X111643390Y-140620857D02*
X111738628Y-140573238D01*
X111738628Y-140573238D02*
X112024342Y-140573238D01*
X112024342Y-140573238D02*
X112119580Y-140620857D01*
X112119580Y-140620857D02*
X112167200Y-140668476D01*
X112167200Y-140668476D02*
X112214819Y-140763714D01*
X112214819Y-140763714D02*
X112214819Y-140906571D01*
X111548152Y-140287523D02*
X111548152Y-139906571D01*
X111214819Y-140144666D02*
X112071961Y-140144666D01*
X112071961Y-140144666D02*
X112167200Y-140097047D01*
X112167200Y-140097047D02*
X112214819Y-140001809D01*
X112214819Y-140001809D02*
X112214819Y-139906571D01*
X112214819Y-139049428D02*
X112214819Y-139620856D01*
X112214819Y-139335142D02*
X111214819Y-139335142D01*
X111214819Y-139335142D02*
X111357676Y-139430380D01*
X111357676Y-139430380D02*
X111452914Y-139525618D01*
X111452914Y-139525618D02*
X111500533Y-139620856D01*
X112609333Y-87322819D02*
X112276000Y-86846628D01*
X112037905Y-87322819D02*
X112037905Y-86322819D01*
X112037905Y-86322819D02*
X112418857Y-86322819D01*
X112418857Y-86322819D02*
X112514095Y-86370438D01*
X112514095Y-86370438D02*
X112561714Y-86418057D01*
X112561714Y-86418057D02*
X112609333Y-86513295D01*
X112609333Y-86513295D02*
X112609333Y-86656152D01*
X112609333Y-86656152D02*
X112561714Y-86751390D01*
X112561714Y-86751390D02*
X112514095Y-86799009D01*
X112514095Y-86799009D02*
X112418857Y-86846628D01*
X112418857Y-86846628D02*
X112037905Y-86846628D01*
X112942667Y-86322819D02*
X113561714Y-86322819D01*
X113561714Y-86322819D02*
X113228381Y-86703771D01*
X113228381Y-86703771D02*
X113371238Y-86703771D01*
X113371238Y-86703771D02*
X113466476Y-86751390D01*
X113466476Y-86751390D02*
X113514095Y-86799009D01*
X113514095Y-86799009D02*
X113561714Y-86894247D01*
X113561714Y-86894247D02*
X113561714Y-87132342D01*
X113561714Y-87132342D02*
X113514095Y-87227580D01*
X113514095Y-87227580D02*
X113466476Y-87275200D01*
X113466476Y-87275200D02*
X113371238Y-87322819D01*
X113371238Y-87322819D02*
X113085524Y-87322819D01*
X113085524Y-87322819D02*
X112990286Y-87275200D01*
X112990286Y-87275200D02*
X112942667Y-87227580D01*
X118197333Y-96752580D02*
X118149714Y-96800200D01*
X118149714Y-96800200D02*
X118006857Y-96847819D01*
X118006857Y-96847819D02*
X117911619Y-96847819D01*
X117911619Y-96847819D02*
X117768762Y-96800200D01*
X117768762Y-96800200D02*
X117673524Y-96704961D01*
X117673524Y-96704961D02*
X117625905Y-96609723D01*
X117625905Y-96609723D02*
X117578286Y-96419247D01*
X117578286Y-96419247D02*
X117578286Y-96276390D01*
X117578286Y-96276390D02*
X117625905Y-96085914D01*
X117625905Y-96085914D02*
X117673524Y-95990676D01*
X117673524Y-95990676D02*
X117768762Y-95895438D01*
X117768762Y-95895438D02*
X117911619Y-95847819D01*
X117911619Y-95847819D02*
X118006857Y-95847819D01*
X118006857Y-95847819D02*
X118149714Y-95895438D01*
X118149714Y-95895438D02*
X118197333Y-95943057D01*
X119149714Y-96847819D02*
X118578286Y-96847819D01*
X118864000Y-96847819D02*
X118864000Y-95847819D01*
X118864000Y-95847819D02*
X118768762Y-95990676D01*
X118768762Y-95990676D02*
X118673524Y-96085914D01*
X118673524Y-96085914D02*
X118578286Y-96133533D01*
X154011333Y-93799819D02*
X153678000Y-93323628D01*
X153439905Y-93799819D02*
X153439905Y-92799819D01*
X153439905Y-92799819D02*
X153820857Y-92799819D01*
X153820857Y-92799819D02*
X153916095Y-92847438D01*
X153916095Y-92847438D02*
X153963714Y-92895057D01*
X153963714Y-92895057D02*
X154011333Y-92990295D01*
X154011333Y-92990295D02*
X154011333Y-93133152D01*
X154011333Y-93133152D02*
X153963714Y-93228390D01*
X153963714Y-93228390D02*
X153916095Y-93276009D01*
X153916095Y-93276009D02*
X153820857Y-93323628D01*
X153820857Y-93323628D02*
X153439905Y-93323628D01*
X154916095Y-92799819D02*
X154439905Y-92799819D01*
X154439905Y-92799819D02*
X154392286Y-93276009D01*
X154392286Y-93276009D02*
X154439905Y-93228390D01*
X154439905Y-93228390D02*
X154535143Y-93180771D01*
X154535143Y-93180771D02*
X154773238Y-93180771D01*
X154773238Y-93180771D02*
X154868476Y-93228390D01*
X154868476Y-93228390D02*
X154916095Y-93276009D01*
X154916095Y-93276009D02*
X154963714Y-93371247D01*
X154963714Y-93371247D02*
X154963714Y-93609342D01*
X154963714Y-93609342D02*
X154916095Y-93704580D01*
X154916095Y-93704580D02*
X154868476Y-93752200D01*
X154868476Y-93752200D02*
X154773238Y-93799819D01*
X154773238Y-93799819D02*
X154535143Y-93799819D01*
X154535143Y-93799819D02*
X154439905Y-93752200D01*
X154439905Y-93752200D02*
X154392286Y-93704580D01*
X114069905Y-94942819D02*
X114069905Y-93942819D01*
X114069905Y-93942819D02*
X114308000Y-93942819D01*
X114308000Y-93942819D02*
X114450857Y-93990438D01*
X114450857Y-93990438D02*
X114546095Y-94085676D01*
X114546095Y-94085676D02*
X114593714Y-94180914D01*
X114593714Y-94180914D02*
X114641333Y-94371390D01*
X114641333Y-94371390D02*
X114641333Y-94514247D01*
X114641333Y-94514247D02*
X114593714Y-94704723D01*
X114593714Y-94704723D02*
X114546095Y-94799961D01*
X114546095Y-94799961D02*
X114450857Y-94895200D01*
X114450857Y-94895200D02*
X114308000Y-94942819D01*
X114308000Y-94942819D02*
X114069905Y-94942819D01*
X115593714Y-94942819D02*
X115022286Y-94942819D01*
X115308000Y-94942819D02*
X115308000Y-93942819D01*
X115308000Y-93942819D02*
X115212762Y-94085676D01*
X115212762Y-94085676D02*
X115117524Y-94180914D01*
X115117524Y-94180914D02*
X115022286Y-94228533D01*
X117548819Y-144430166D02*
X117548819Y-144906356D01*
X117548819Y-144906356D02*
X116548819Y-144906356D01*
X117548819Y-143573023D02*
X117548819Y-144144451D01*
X117548819Y-143858737D02*
X116548819Y-143858737D01*
X116548819Y-143858737D02*
X116691676Y-143953975D01*
X116691676Y-143953975D02*
X116786914Y-144049213D01*
X116786914Y-144049213D02*
X116834533Y-144144451D01*
X90370819Y-100750666D02*
X89894628Y-101083999D01*
X90370819Y-101322094D02*
X89370819Y-101322094D01*
X89370819Y-101322094D02*
X89370819Y-100941142D01*
X89370819Y-100941142D02*
X89418438Y-100845904D01*
X89418438Y-100845904D02*
X89466057Y-100798285D01*
X89466057Y-100798285D02*
X89561295Y-100750666D01*
X89561295Y-100750666D02*
X89704152Y-100750666D01*
X89704152Y-100750666D02*
X89799390Y-100798285D01*
X89799390Y-100798285D02*
X89847009Y-100845904D01*
X89847009Y-100845904D02*
X89894628Y-100941142D01*
X89894628Y-100941142D02*
X89894628Y-101322094D01*
X90370819Y-99798285D02*
X90370819Y-100369713D01*
X90370819Y-100083999D02*
X89370819Y-100083999D01*
X89370819Y-100083999D02*
X89513676Y-100179237D01*
X89513676Y-100179237D02*
X89608914Y-100274475D01*
X89608914Y-100274475D02*
X89656533Y-100369713D01*
X181624371Y-116220524D02*
X181624371Y-116934809D01*
X181624371Y-116934809D02*
X181576752Y-117077666D01*
X181576752Y-117077666D02*
X181481514Y-117172905D01*
X181481514Y-117172905D02*
X181338657Y-117220524D01*
X181338657Y-117220524D02*
X181243419Y-117220524D01*
X182052943Y-116315762D02*
X182100562Y-116268143D01*
X182100562Y-116268143D02*
X182195800Y-116220524D01*
X182195800Y-116220524D02*
X182433895Y-116220524D01*
X182433895Y-116220524D02*
X182529133Y-116268143D01*
X182529133Y-116268143D02*
X182576752Y-116315762D01*
X182576752Y-116315762D02*
X182624371Y-116411000D01*
X182624371Y-116411000D02*
X182624371Y-116506238D01*
X182624371Y-116506238D02*
X182576752Y-116649095D01*
X182576752Y-116649095D02*
X182005324Y-117220524D01*
X182005324Y-117220524D02*
X182624371Y-117220524D01*
X182054667Y-94768200D02*
X182197524Y-94815819D01*
X182197524Y-94815819D02*
X182435619Y-94815819D01*
X182435619Y-94815819D02*
X182530857Y-94768200D01*
X182530857Y-94768200D02*
X182578476Y-94720580D01*
X182578476Y-94720580D02*
X182626095Y-94625342D01*
X182626095Y-94625342D02*
X182626095Y-94530104D01*
X182626095Y-94530104D02*
X182578476Y-94434866D01*
X182578476Y-94434866D02*
X182530857Y-94387247D01*
X182530857Y-94387247D02*
X182435619Y-94339628D01*
X182435619Y-94339628D02*
X182245143Y-94292009D01*
X182245143Y-94292009D02*
X182149905Y-94244390D01*
X182149905Y-94244390D02*
X182102286Y-94196771D01*
X182102286Y-94196771D02*
X182054667Y-94101533D01*
X182054667Y-94101533D02*
X182054667Y-94006295D01*
X182054667Y-94006295D02*
X182102286Y-93911057D01*
X182102286Y-93911057D02*
X182149905Y-93863438D01*
X182149905Y-93863438D02*
X182245143Y-93815819D01*
X182245143Y-93815819D02*
X182483238Y-93815819D01*
X182483238Y-93815819D02*
X182626095Y-93863438D01*
X182959429Y-93815819D02*
X183197524Y-94815819D01*
X183197524Y-94815819D02*
X183388000Y-94101533D01*
X183388000Y-94101533D02*
X183578476Y-94815819D01*
X183578476Y-94815819D02*
X183816572Y-93815819D01*
X184102286Y-93815819D02*
X184721333Y-93815819D01*
X184721333Y-93815819D02*
X184388000Y-94196771D01*
X184388000Y-94196771D02*
X184530857Y-94196771D01*
X184530857Y-94196771D02*
X184626095Y-94244390D01*
X184626095Y-94244390D02*
X184673714Y-94292009D01*
X184673714Y-94292009D02*
X184721333Y-94387247D01*
X184721333Y-94387247D02*
X184721333Y-94625342D01*
X184721333Y-94625342D02*
X184673714Y-94720580D01*
X184673714Y-94720580D02*
X184626095Y-94768200D01*
X184626095Y-94768200D02*
X184530857Y-94815819D01*
X184530857Y-94815819D02*
X184245143Y-94815819D01*
X184245143Y-94815819D02*
X184149905Y-94768200D01*
X184149905Y-94768200D02*
X184102286Y-94720580D01*
X100774667Y-119025200D02*
X100917524Y-119072819D01*
X100917524Y-119072819D02*
X101155619Y-119072819D01*
X101155619Y-119072819D02*
X101250857Y-119025200D01*
X101250857Y-119025200D02*
X101298476Y-118977580D01*
X101298476Y-118977580D02*
X101346095Y-118882342D01*
X101346095Y-118882342D02*
X101346095Y-118787104D01*
X101346095Y-118787104D02*
X101298476Y-118691866D01*
X101298476Y-118691866D02*
X101250857Y-118644247D01*
X101250857Y-118644247D02*
X101155619Y-118596628D01*
X101155619Y-118596628D02*
X100965143Y-118549009D01*
X100965143Y-118549009D02*
X100869905Y-118501390D01*
X100869905Y-118501390D02*
X100822286Y-118453771D01*
X100822286Y-118453771D02*
X100774667Y-118358533D01*
X100774667Y-118358533D02*
X100774667Y-118263295D01*
X100774667Y-118263295D02*
X100822286Y-118168057D01*
X100822286Y-118168057D02*
X100869905Y-118120438D01*
X100869905Y-118120438D02*
X100965143Y-118072819D01*
X100965143Y-118072819D02*
X101203238Y-118072819D01*
X101203238Y-118072819D02*
X101346095Y-118120438D01*
X101679429Y-118072819D02*
X101917524Y-119072819D01*
X101917524Y-119072819D02*
X102108000Y-118358533D01*
X102108000Y-118358533D02*
X102298476Y-119072819D01*
X102298476Y-119072819D02*
X102536572Y-118072819D01*
X103346095Y-118406152D02*
X103346095Y-119072819D01*
X103108000Y-118025200D02*
X102869905Y-118739485D01*
X102869905Y-118739485D02*
X103488952Y-118739485D01*
X119387580Y-150971142D02*
X119435200Y-151018761D01*
X119435200Y-151018761D02*
X119482819Y-151161618D01*
X119482819Y-151161618D02*
X119482819Y-151256856D01*
X119482819Y-151256856D02*
X119435200Y-151399713D01*
X119435200Y-151399713D02*
X119339961Y-151494951D01*
X119339961Y-151494951D02*
X119244723Y-151542570D01*
X119244723Y-151542570D02*
X119054247Y-151590189D01*
X119054247Y-151590189D02*
X118911390Y-151590189D01*
X118911390Y-151590189D02*
X118720914Y-151542570D01*
X118720914Y-151542570D02*
X118625676Y-151494951D01*
X118625676Y-151494951D02*
X118530438Y-151399713D01*
X118530438Y-151399713D02*
X118482819Y-151256856D01*
X118482819Y-151256856D02*
X118482819Y-151161618D01*
X118482819Y-151161618D02*
X118530438Y-151018761D01*
X118530438Y-151018761D02*
X118578057Y-150971142D01*
X119482819Y-150542570D02*
X118816152Y-150542570D01*
X118482819Y-150542570D02*
X118530438Y-150590189D01*
X118530438Y-150590189D02*
X118578057Y-150542570D01*
X118578057Y-150542570D02*
X118530438Y-150494951D01*
X118530438Y-150494951D02*
X118482819Y-150542570D01*
X118482819Y-150542570D02*
X118578057Y-150542570D01*
X118816152Y-150066380D02*
X119482819Y-150066380D01*
X118911390Y-150066380D02*
X118863771Y-150018761D01*
X118863771Y-150018761D02*
X118816152Y-149923523D01*
X118816152Y-149923523D02*
X118816152Y-149780666D01*
X118816152Y-149780666D02*
X118863771Y-149685428D01*
X118863771Y-149685428D02*
X118959009Y-149637809D01*
X118959009Y-149637809D02*
X119482819Y-149637809D01*
X119482819Y-148637809D02*
X119482819Y-149209237D01*
X119482819Y-148923523D02*
X118482819Y-148923523D01*
X118482819Y-148923523D02*
X118625676Y-149018761D01*
X118625676Y-149018761D02*
X118720914Y-149113999D01*
X118720914Y-149113999D02*
X118768533Y-149209237D01*
X105388580Y-110275666D02*
X105436200Y-110323285D01*
X105436200Y-110323285D02*
X105483819Y-110466142D01*
X105483819Y-110466142D02*
X105483819Y-110561380D01*
X105483819Y-110561380D02*
X105436200Y-110704237D01*
X105436200Y-110704237D02*
X105340961Y-110799475D01*
X105340961Y-110799475D02*
X105245723Y-110847094D01*
X105245723Y-110847094D02*
X105055247Y-110894713D01*
X105055247Y-110894713D02*
X104912390Y-110894713D01*
X104912390Y-110894713D02*
X104721914Y-110847094D01*
X104721914Y-110847094D02*
X104626676Y-110799475D01*
X104626676Y-110799475D02*
X104531438Y-110704237D01*
X104531438Y-110704237D02*
X104483819Y-110561380D01*
X104483819Y-110561380D02*
X104483819Y-110466142D01*
X104483819Y-110466142D02*
X104531438Y-110323285D01*
X104531438Y-110323285D02*
X104579057Y-110275666D01*
X104483819Y-109418523D02*
X104483819Y-109608999D01*
X104483819Y-109608999D02*
X104531438Y-109704237D01*
X104531438Y-109704237D02*
X104579057Y-109751856D01*
X104579057Y-109751856D02*
X104721914Y-109847094D01*
X104721914Y-109847094D02*
X104912390Y-109894713D01*
X104912390Y-109894713D02*
X105293342Y-109894713D01*
X105293342Y-109894713D02*
X105388580Y-109847094D01*
X105388580Y-109847094D02*
X105436200Y-109799475D01*
X105436200Y-109799475D02*
X105483819Y-109704237D01*
X105483819Y-109704237D02*
X105483819Y-109513761D01*
X105483819Y-109513761D02*
X105436200Y-109418523D01*
X105436200Y-109418523D02*
X105388580Y-109370904D01*
X105388580Y-109370904D02*
X105293342Y-109323285D01*
X105293342Y-109323285D02*
X105055247Y-109323285D01*
X105055247Y-109323285D02*
X104960009Y-109370904D01*
X104960009Y-109370904D02*
X104912390Y-109418523D01*
X104912390Y-109418523D02*
X104864771Y-109513761D01*
X104864771Y-109513761D02*
X104864771Y-109704237D01*
X104864771Y-109704237D02*
X104912390Y-109799475D01*
X104912390Y-109799475D02*
X104960009Y-109847094D01*
X104960009Y-109847094D02*
X105055247Y-109894713D01*
X101477142Y-80971128D02*
X101477142Y-82185414D01*
X101477142Y-82185414D02*
X101548571Y-82328271D01*
X101548571Y-82328271D02*
X101620000Y-82399700D01*
X101620000Y-82399700D02*
X101762857Y-82471128D01*
X101762857Y-82471128D02*
X102048571Y-82471128D01*
X102048571Y-82471128D02*
X102191428Y-82399700D01*
X102191428Y-82399700D02*
X102262857Y-82328271D01*
X102262857Y-82328271D02*
X102334285Y-82185414D01*
X102334285Y-82185414D02*
X102334285Y-80971128D01*
X102905714Y-80971128D02*
X103834286Y-80971128D01*
X103834286Y-80971128D02*
X103334286Y-81542557D01*
X103334286Y-81542557D02*
X103548571Y-81542557D01*
X103548571Y-81542557D02*
X103691429Y-81613985D01*
X103691429Y-81613985D02*
X103762857Y-81685414D01*
X103762857Y-81685414D02*
X103834286Y-81828271D01*
X103834286Y-81828271D02*
X103834286Y-82185414D01*
X103834286Y-82185414D02*
X103762857Y-82328271D01*
X103762857Y-82328271D02*
X103691429Y-82399700D01*
X103691429Y-82399700D02*
X103548571Y-82471128D01*
X103548571Y-82471128D02*
X103120000Y-82471128D01*
X103120000Y-82471128D02*
X102977143Y-82399700D01*
X102977143Y-82399700D02*
X102905714Y-82328271D01*
X184532142Y-100276819D02*
X184198809Y-99800628D01*
X183960714Y-100276819D02*
X183960714Y-99276819D01*
X183960714Y-99276819D02*
X184341666Y-99276819D01*
X184341666Y-99276819D02*
X184436904Y-99324438D01*
X184436904Y-99324438D02*
X184484523Y-99372057D01*
X184484523Y-99372057D02*
X184532142Y-99467295D01*
X184532142Y-99467295D02*
X184532142Y-99610152D01*
X184532142Y-99610152D02*
X184484523Y-99705390D01*
X184484523Y-99705390D02*
X184436904Y-99753009D01*
X184436904Y-99753009D02*
X184341666Y-99800628D01*
X184341666Y-99800628D02*
X183960714Y-99800628D01*
X185484523Y-100276819D02*
X184913095Y-100276819D01*
X185198809Y-100276819D02*
X185198809Y-99276819D01*
X185198809Y-99276819D02*
X185103571Y-99419676D01*
X185103571Y-99419676D02*
X185008333Y-99514914D01*
X185008333Y-99514914D02*
X184913095Y-99562533D01*
X185865476Y-99372057D02*
X185913095Y-99324438D01*
X185913095Y-99324438D02*
X186008333Y-99276819D01*
X186008333Y-99276819D02*
X186246428Y-99276819D01*
X186246428Y-99276819D02*
X186341666Y-99324438D01*
X186341666Y-99324438D02*
X186389285Y-99372057D01*
X186389285Y-99372057D02*
X186436904Y-99467295D01*
X186436904Y-99467295D02*
X186436904Y-99562533D01*
X186436904Y-99562533D02*
X186389285Y-99705390D01*
X186389285Y-99705390D02*
X185817857Y-100276819D01*
X185817857Y-100276819D02*
X186436904Y-100276819D01*
X105610819Y-153503143D02*
X105134628Y-153836476D01*
X105610819Y-154074571D02*
X104610819Y-154074571D01*
X104610819Y-154074571D02*
X104610819Y-153693619D01*
X104610819Y-153693619D02*
X104658438Y-153598381D01*
X104658438Y-153598381D02*
X104706057Y-153550762D01*
X104706057Y-153550762D02*
X104801295Y-153503143D01*
X104801295Y-153503143D02*
X104944152Y-153503143D01*
X104944152Y-153503143D02*
X105039390Y-153550762D01*
X105039390Y-153550762D02*
X105087009Y-153598381D01*
X105087009Y-153598381D02*
X105134628Y-153693619D01*
X105134628Y-153693619D02*
X105134628Y-154074571D01*
X104944152Y-153217428D02*
X104944152Y-152836476D01*
X105610819Y-153074571D02*
X104753676Y-153074571D01*
X104753676Y-153074571D02*
X104658438Y-153026952D01*
X104658438Y-153026952D02*
X104610819Y-152931714D01*
X104610819Y-152931714D02*
X104610819Y-152836476D01*
X105610819Y-152503142D02*
X104610819Y-152503142D01*
X104991771Y-152503142D02*
X104944152Y-152407904D01*
X104944152Y-152407904D02*
X104944152Y-152217428D01*
X104944152Y-152217428D02*
X104991771Y-152122190D01*
X104991771Y-152122190D02*
X105039390Y-152074571D01*
X105039390Y-152074571D02*
X105134628Y-152026952D01*
X105134628Y-152026952D02*
X105420342Y-152026952D01*
X105420342Y-152026952D02*
X105515580Y-152074571D01*
X105515580Y-152074571D02*
X105563200Y-152122190D01*
X105563200Y-152122190D02*
X105610819Y-152217428D01*
X105610819Y-152217428D02*
X105610819Y-152407904D01*
X105610819Y-152407904D02*
X105563200Y-152503142D01*
X105610819Y-151598380D02*
X104610819Y-151598380D01*
X104991771Y-151598380D02*
X104944152Y-151503142D01*
X104944152Y-151503142D02*
X104944152Y-151312666D01*
X104944152Y-151312666D02*
X104991771Y-151217428D01*
X104991771Y-151217428D02*
X105039390Y-151169809D01*
X105039390Y-151169809D02*
X105134628Y-151122190D01*
X105134628Y-151122190D02*
X105420342Y-151122190D01*
X105420342Y-151122190D02*
X105515580Y-151169809D01*
X105515580Y-151169809D02*
X105563200Y-151217428D01*
X105563200Y-151217428D02*
X105610819Y-151312666D01*
X105610819Y-151312666D02*
X105610819Y-151503142D01*
X105610819Y-151503142D02*
X105563200Y-151598380D01*
X105610819Y-150169809D02*
X105610819Y-150741237D01*
X105610819Y-150455523D02*
X104610819Y-150455523D01*
X104610819Y-150455523D02*
X104753676Y-150550761D01*
X104753676Y-150550761D02*
X104848914Y-150645999D01*
X104848914Y-150645999D02*
X104896533Y-150741237D01*
X147794819Y-92535333D02*
X148509104Y-92535333D01*
X148509104Y-92535333D02*
X148651961Y-92582952D01*
X148651961Y-92582952D02*
X148747200Y-92678190D01*
X148747200Y-92678190D02*
X148794819Y-92821047D01*
X148794819Y-92821047D02*
X148794819Y-92916285D01*
X147794819Y-92154380D02*
X147794819Y-91535333D01*
X147794819Y-91535333D02*
X148175771Y-91868666D01*
X148175771Y-91868666D02*
X148175771Y-91725809D01*
X148175771Y-91725809D02*
X148223390Y-91630571D01*
X148223390Y-91630571D02*
X148271009Y-91582952D01*
X148271009Y-91582952D02*
X148366247Y-91535333D01*
X148366247Y-91535333D02*
X148604342Y-91535333D01*
X148604342Y-91535333D02*
X148699580Y-91582952D01*
X148699580Y-91582952D02*
X148747200Y-91630571D01*
X148747200Y-91630571D02*
X148794819Y-91725809D01*
X148794819Y-91725809D02*
X148794819Y-92011523D01*
X148794819Y-92011523D02*
X148747200Y-92106761D01*
X148747200Y-92106761D02*
X148699580Y-92154380D01*
X118300667Y-94895200D02*
X118443524Y-94942819D01*
X118443524Y-94942819D02*
X118681619Y-94942819D01*
X118681619Y-94942819D02*
X118776857Y-94895200D01*
X118776857Y-94895200D02*
X118824476Y-94847580D01*
X118824476Y-94847580D02*
X118872095Y-94752342D01*
X118872095Y-94752342D02*
X118872095Y-94657104D01*
X118872095Y-94657104D02*
X118824476Y-94561866D01*
X118824476Y-94561866D02*
X118776857Y-94514247D01*
X118776857Y-94514247D02*
X118681619Y-94466628D01*
X118681619Y-94466628D02*
X118491143Y-94419009D01*
X118491143Y-94419009D02*
X118395905Y-94371390D01*
X118395905Y-94371390D02*
X118348286Y-94323771D01*
X118348286Y-94323771D02*
X118300667Y-94228533D01*
X118300667Y-94228533D02*
X118300667Y-94133295D01*
X118300667Y-94133295D02*
X118348286Y-94038057D01*
X118348286Y-94038057D02*
X118395905Y-93990438D01*
X118395905Y-93990438D02*
X118491143Y-93942819D01*
X118491143Y-93942819D02*
X118729238Y-93942819D01*
X118729238Y-93942819D02*
X118872095Y-93990438D01*
X119205429Y-93942819D02*
X119443524Y-94942819D01*
X119443524Y-94942819D02*
X119634000Y-94228533D01*
X119634000Y-94228533D02*
X119824476Y-94942819D01*
X119824476Y-94942819D02*
X120062572Y-93942819D01*
X120967333Y-94942819D02*
X120395905Y-94942819D01*
X120681619Y-94942819D02*
X120681619Y-93942819D01*
X120681619Y-93942819D02*
X120586381Y-94085676D01*
X120586381Y-94085676D02*
X120491143Y-94180914D01*
X120491143Y-94180914D02*
X120395905Y-94228533D01*
X149018666Y-97752819D02*
X149018666Y-98467104D01*
X149018666Y-98467104D02*
X148971047Y-98609961D01*
X148971047Y-98609961D02*
X148875809Y-98705200D01*
X148875809Y-98705200D02*
X148732952Y-98752819D01*
X148732952Y-98752819D02*
X148637714Y-98752819D01*
X149542476Y-98752819D02*
X149732952Y-98752819D01*
X149732952Y-98752819D02*
X149828190Y-98705200D01*
X149828190Y-98705200D02*
X149875809Y-98657580D01*
X149875809Y-98657580D02*
X149971047Y-98514723D01*
X149971047Y-98514723D02*
X150018666Y-98324247D01*
X150018666Y-98324247D02*
X150018666Y-97943295D01*
X150018666Y-97943295D02*
X149971047Y-97848057D01*
X149971047Y-97848057D02*
X149923428Y-97800438D01*
X149923428Y-97800438D02*
X149828190Y-97752819D01*
X149828190Y-97752819D02*
X149637714Y-97752819D01*
X149637714Y-97752819D02*
X149542476Y-97800438D01*
X149542476Y-97800438D02*
X149494857Y-97848057D01*
X149494857Y-97848057D02*
X149447238Y-97943295D01*
X149447238Y-97943295D02*
X149447238Y-98181390D01*
X149447238Y-98181390D02*
X149494857Y-98276628D01*
X149494857Y-98276628D02*
X149542476Y-98324247D01*
X149542476Y-98324247D02*
X149637714Y-98371866D01*
X149637714Y-98371866D02*
X149828190Y-98371866D01*
X149828190Y-98371866D02*
X149923428Y-98324247D01*
X149923428Y-98324247D02*
X149971047Y-98276628D01*
X149971047Y-98276628D02*
X150018666Y-98181390D01*
X159463819Y-140796904D02*
X160273342Y-140796904D01*
X160273342Y-140796904D02*
X160368580Y-140749285D01*
X160368580Y-140749285D02*
X160416200Y-140701666D01*
X160416200Y-140701666D02*
X160463819Y-140606428D01*
X160463819Y-140606428D02*
X160463819Y-140415952D01*
X160463819Y-140415952D02*
X160416200Y-140320714D01*
X160416200Y-140320714D02*
X160368580Y-140273095D01*
X160368580Y-140273095D02*
X160273342Y-140225476D01*
X160273342Y-140225476D02*
X159463819Y-140225476D01*
X159463819Y-139320714D02*
X159463819Y-139511190D01*
X159463819Y-139511190D02*
X159511438Y-139606428D01*
X159511438Y-139606428D02*
X159559057Y-139654047D01*
X159559057Y-139654047D02*
X159701914Y-139749285D01*
X159701914Y-139749285D02*
X159892390Y-139796904D01*
X159892390Y-139796904D02*
X160273342Y-139796904D01*
X160273342Y-139796904D02*
X160368580Y-139749285D01*
X160368580Y-139749285D02*
X160416200Y-139701666D01*
X160416200Y-139701666D02*
X160463819Y-139606428D01*
X160463819Y-139606428D02*
X160463819Y-139415952D01*
X160463819Y-139415952D02*
X160416200Y-139320714D01*
X160416200Y-139320714D02*
X160368580Y-139273095D01*
X160368580Y-139273095D02*
X160273342Y-139225476D01*
X160273342Y-139225476D02*
X160035247Y-139225476D01*
X160035247Y-139225476D02*
X159940009Y-139273095D01*
X159940009Y-139273095D02*
X159892390Y-139320714D01*
X159892390Y-139320714D02*
X159844771Y-139415952D01*
X159844771Y-139415952D02*
X159844771Y-139606428D01*
X159844771Y-139606428D02*
X159892390Y-139701666D01*
X159892390Y-139701666D02*
X159940009Y-139749285D01*
X159940009Y-139749285D02*
X160035247Y-139796904D01*
X189725847Y-102234524D02*
X189392514Y-101758333D01*
X189154419Y-102234524D02*
X189154419Y-101234524D01*
X189154419Y-101234524D02*
X189535371Y-101234524D01*
X189535371Y-101234524D02*
X189630609Y-101282143D01*
X189630609Y-101282143D02*
X189678228Y-101329762D01*
X189678228Y-101329762D02*
X189725847Y-101425000D01*
X189725847Y-101425000D02*
X189725847Y-101567857D01*
X189725847Y-101567857D02*
X189678228Y-101663095D01*
X189678228Y-101663095D02*
X189630609Y-101710714D01*
X189630609Y-101710714D02*
X189535371Y-101758333D01*
X189535371Y-101758333D02*
X189154419Y-101758333D01*
X190678228Y-102234524D02*
X190106800Y-102234524D01*
X190392514Y-102234524D02*
X190392514Y-101234524D01*
X190392514Y-101234524D02*
X190297276Y-101377381D01*
X190297276Y-101377381D02*
X190202038Y-101472619D01*
X190202038Y-101472619D02*
X190106800Y-101520238D01*
X191630609Y-102234524D02*
X191059181Y-102234524D01*
X191344895Y-102234524D02*
X191344895Y-101234524D01*
X191344895Y-101234524D02*
X191249657Y-101377381D01*
X191249657Y-101377381D02*
X191154419Y-101472619D01*
X191154419Y-101472619D02*
X191059181Y-101520238D01*
X177365819Y-93575094D02*
X176365819Y-93575094D01*
X176365819Y-93575094D02*
X176365819Y-93336999D01*
X176365819Y-93336999D02*
X176413438Y-93194142D01*
X176413438Y-93194142D02*
X176508676Y-93098904D01*
X176508676Y-93098904D02*
X176603914Y-93051285D01*
X176603914Y-93051285D02*
X176794390Y-93003666D01*
X176794390Y-93003666D02*
X176937247Y-93003666D01*
X176937247Y-93003666D02*
X177127723Y-93051285D01*
X177127723Y-93051285D02*
X177222961Y-93098904D01*
X177222961Y-93098904D02*
X177318200Y-93194142D01*
X177318200Y-93194142D02*
X177365819Y-93336999D01*
X177365819Y-93336999D02*
X177365819Y-93575094D01*
X176461057Y-92622713D02*
X176413438Y-92575094D01*
X176413438Y-92575094D02*
X176365819Y-92479856D01*
X176365819Y-92479856D02*
X176365819Y-92241761D01*
X176365819Y-92241761D02*
X176413438Y-92146523D01*
X176413438Y-92146523D02*
X176461057Y-92098904D01*
X176461057Y-92098904D02*
X176556295Y-92051285D01*
X176556295Y-92051285D02*
X176651533Y-92051285D01*
X176651533Y-92051285D02*
X176794390Y-92098904D01*
X176794390Y-92098904D02*
X177365819Y-92670332D01*
X177365819Y-92670332D02*
X177365819Y-92051285D01*
X127654666Y-140872819D02*
X127654666Y-141587104D01*
X127654666Y-141587104D02*
X127607047Y-141729961D01*
X127607047Y-141729961D02*
X127511809Y-141825200D01*
X127511809Y-141825200D02*
X127368952Y-141872819D01*
X127368952Y-141872819D02*
X127273714Y-141872819D01*
X128654666Y-141872819D02*
X128083238Y-141872819D01*
X128368952Y-141872819D02*
X128368952Y-140872819D01*
X128368952Y-140872819D02*
X128273714Y-141015676D01*
X128273714Y-141015676D02*
X128178476Y-141110914D01*
X128178476Y-141110914D02*
X128083238Y-141158533D01*
X176871333Y-89862819D02*
X176538000Y-89386628D01*
X176299905Y-89862819D02*
X176299905Y-88862819D01*
X176299905Y-88862819D02*
X176680857Y-88862819D01*
X176680857Y-88862819D02*
X176776095Y-88910438D01*
X176776095Y-88910438D02*
X176823714Y-88958057D01*
X176823714Y-88958057D02*
X176871333Y-89053295D01*
X176871333Y-89053295D02*
X176871333Y-89196152D01*
X176871333Y-89196152D02*
X176823714Y-89291390D01*
X176823714Y-89291390D02*
X176776095Y-89339009D01*
X176776095Y-89339009D02*
X176680857Y-89386628D01*
X176680857Y-89386628D02*
X176299905Y-89386628D01*
X177728476Y-88862819D02*
X177538000Y-88862819D01*
X177538000Y-88862819D02*
X177442762Y-88910438D01*
X177442762Y-88910438D02*
X177395143Y-88958057D01*
X177395143Y-88958057D02*
X177299905Y-89100914D01*
X177299905Y-89100914D02*
X177252286Y-89291390D01*
X177252286Y-89291390D02*
X177252286Y-89672342D01*
X177252286Y-89672342D02*
X177299905Y-89767580D01*
X177299905Y-89767580D02*
X177347524Y-89815200D01*
X177347524Y-89815200D02*
X177442762Y-89862819D01*
X177442762Y-89862819D02*
X177633238Y-89862819D01*
X177633238Y-89862819D02*
X177728476Y-89815200D01*
X177728476Y-89815200D02*
X177776095Y-89767580D01*
X177776095Y-89767580D02*
X177823714Y-89672342D01*
X177823714Y-89672342D02*
X177823714Y-89434247D01*
X177823714Y-89434247D02*
X177776095Y-89339009D01*
X177776095Y-89339009D02*
X177728476Y-89291390D01*
X177728476Y-89291390D02*
X177633238Y-89243771D01*
X177633238Y-89243771D02*
X177442762Y-89243771D01*
X177442762Y-89243771D02*
X177347524Y-89291390D01*
X177347524Y-89291390D02*
X177299905Y-89339009D01*
X177299905Y-89339009D02*
X177252286Y-89434247D01*
X152638371Y-97752819D02*
X152638371Y-98467104D01*
X152638371Y-98467104D02*
X152590752Y-98609961D01*
X152590752Y-98609961D02*
X152495514Y-98705200D01*
X152495514Y-98705200D02*
X152352657Y-98752819D01*
X152352657Y-98752819D02*
X152257419Y-98752819D01*
X153257419Y-98181390D02*
X153162181Y-98133771D01*
X153162181Y-98133771D02*
X153114562Y-98086152D01*
X153114562Y-98086152D02*
X153066943Y-97990914D01*
X153066943Y-97990914D02*
X153066943Y-97943295D01*
X153066943Y-97943295D02*
X153114562Y-97848057D01*
X153114562Y-97848057D02*
X153162181Y-97800438D01*
X153162181Y-97800438D02*
X153257419Y-97752819D01*
X153257419Y-97752819D02*
X153447895Y-97752819D01*
X153447895Y-97752819D02*
X153543133Y-97800438D01*
X153543133Y-97800438D02*
X153590752Y-97848057D01*
X153590752Y-97848057D02*
X153638371Y-97943295D01*
X153638371Y-97943295D02*
X153638371Y-97990914D01*
X153638371Y-97990914D02*
X153590752Y-98086152D01*
X153590752Y-98086152D02*
X153543133Y-98133771D01*
X153543133Y-98133771D02*
X153447895Y-98181390D01*
X153447895Y-98181390D02*
X153257419Y-98181390D01*
X153257419Y-98181390D02*
X153162181Y-98229009D01*
X153162181Y-98229009D02*
X153114562Y-98276628D01*
X153114562Y-98276628D02*
X153066943Y-98371866D01*
X153066943Y-98371866D02*
X153066943Y-98562342D01*
X153066943Y-98562342D02*
X153114562Y-98657580D01*
X153114562Y-98657580D02*
X153162181Y-98705200D01*
X153162181Y-98705200D02*
X153257419Y-98752819D01*
X153257419Y-98752819D02*
X153447895Y-98752819D01*
X153447895Y-98752819D02*
X153543133Y-98705200D01*
X153543133Y-98705200D02*
X153590752Y-98657580D01*
X153590752Y-98657580D02*
X153638371Y-98562342D01*
X153638371Y-98562342D02*
X153638371Y-98371866D01*
X153638371Y-98371866D02*
X153590752Y-98276628D01*
X153590752Y-98276628D02*
X153543133Y-98229009D01*
X153543133Y-98229009D02*
X153447895Y-98181390D01*
X195938333Y-102562819D02*
X195462143Y-102562819D01*
X195462143Y-102562819D02*
X195462143Y-101562819D01*
X196271667Y-102562819D02*
X196271667Y-101562819D01*
X196271667Y-101562819D02*
X196509762Y-101562819D01*
X196509762Y-101562819D02*
X196652619Y-101610438D01*
X196652619Y-101610438D02*
X196747857Y-101705676D01*
X196747857Y-101705676D02*
X196795476Y-101800914D01*
X196795476Y-101800914D02*
X196843095Y-101991390D01*
X196843095Y-101991390D02*
X196843095Y-102134247D01*
X196843095Y-102134247D02*
X196795476Y-102324723D01*
X196795476Y-102324723D02*
X196747857Y-102419961D01*
X196747857Y-102419961D02*
X196652619Y-102515200D01*
X196652619Y-102515200D02*
X196509762Y-102562819D01*
X196509762Y-102562819D02*
X196271667Y-102562819D01*
X197795476Y-102562819D02*
X197224048Y-102562819D01*
X197509762Y-102562819D02*
X197509762Y-101562819D01*
X197509762Y-101562819D02*
X197414524Y-101705676D01*
X197414524Y-101705676D02*
X197319286Y-101800914D01*
X197319286Y-101800914D02*
X197224048Y-101848533D01*
X195684333Y-100276819D02*
X195208143Y-100276819D01*
X195208143Y-100276819D02*
X195208143Y-99276819D01*
X196017667Y-100276819D02*
X196017667Y-99276819D01*
X196017667Y-99276819D02*
X196255762Y-99276819D01*
X196255762Y-99276819D02*
X196398619Y-99324438D01*
X196398619Y-99324438D02*
X196493857Y-99419676D01*
X196493857Y-99419676D02*
X196541476Y-99514914D01*
X196541476Y-99514914D02*
X196589095Y-99705390D01*
X196589095Y-99705390D02*
X196589095Y-99848247D01*
X196589095Y-99848247D02*
X196541476Y-100038723D01*
X196541476Y-100038723D02*
X196493857Y-100133961D01*
X196493857Y-100133961D02*
X196398619Y-100229200D01*
X196398619Y-100229200D02*
X196255762Y-100276819D01*
X196255762Y-100276819D02*
X196017667Y-100276819D01*
X196970048Y-99372057D02*
X197017667Y-99324438D01*
X197017667Y-99324438D02*
X197112905Y-99276819D01*
X197112905Y-99276819D02*
X197351000Y-99276819D01*
X197351000Y-99276819D02*
X197446238Y-99324438D01*
X197446238Y-99324438D02*
X197493857Y-99372057D01*
X197493857Y-99372057D02*
X197541476Y-99467295D01*
X197541476Y-99467295D02*
X197541476Y-99562533D01*
X197541476Y-99562533D02*
X197493857Y-99705390D01*
X197493857Y-99705390D02*
X196922429Y-100276819D01*
X196922429Y-100276819D02*
X197541476Y-100276819D01*
X183475333Y-96117580D02*
X183427714Y-96165200D01*
X183427714Y-96165200D02*
X183284857Y-96212819D01*
X183284857Y-96212819D02*
X183189619Y-96212819D01*
X183189619Y-96212819D02*
X183046762Y-96165200D01*
X183046762Y-96165200D02*
X182951524Y-96069961D01*
X182951524Y-96069961D02*
X182903905Y-95974723D01*
X182903905Y-95974723D02*
X182856286Y-95784247D01*
X182856286Y-95784247D02*
X182856286Y-95641390D01*
X182856286Y-95641390D02*
X182903905Y-95450914D01*
X182903905Y-95450914D02*
X182951524Y-95355676D01*
X182951524Y-95355676D02*
X183046762Y-95260438D01*
X183046762Y-95260438D02*
X183189619Y-95212819D01*
X183189619Y-95212819D02*
X183284857Y-95212819D01*
X183284857Y-95212819D02*
X183427714Y-95260438D01*
X183427714Y-95260438D02*
X183475333Y-95308057D01*
X183808667Y-95212819D02*
X184427714Y-95212819D01*
X184427714Y-95212819D02*
X184094381Y-95593771D01*
X184094381Y-95593771D02*
X184237238Y-95593771D01*
X184237238Y-95593771D02*
X184332476Y-95641390D01*
X184332476Y-95641390D02*
X184380095Y-95689009D01*
X184380095Y-95689009D02*
X184427714Y-95784247D01*
X184427714Y-95784247D02*
X184427714Y-96022342D01*
X184427714Y-96022342D02*
X184380095Y-96117580D01*
X184380095Y-96117580D02*
X184332476Y-96165200D01*
X184332476Y-96165200D02*
X184237238Y-96212819D01*
X184237238Y-96212819D02*
X183951524Y-96212819D01*
X183951524Y-96212819D02*
X183856286Y-96165200D01*
X183856286Y-96165200D02*
X183808667Y-96117580D01*
X163580142Y-80971128D02*
X163580142Y-82185414D01*
X163580142Y-82185414D02*
X163651571Y-82328271D01*
X163651571Y-82328271D02*
X163723000Y-82399700D01*
X163723000Y-82399700D02*
X163865857Y-82471128D01*
X163865857Y-82471128D02*
X164151571Y-82471128D01*
X164151571Y-82471128D02*
X164294428Y-82399700D01*
X164294428Y-82399700D02*
X164365857Y-82328271D01*
X164365857Y-82328271D02*
X164437285Y-82185414D01*
X164437285Y-82185414D02*
X164437285Y-80971128D01*
X165794429Y-81471128D02*
X165794429Y-82471128D01*
X165437286Y-80899700D02*
X165080143Y-81971128D01*
X165080143Y-81971128D02*
X166008714Y-81971128D01*
X158105309Y-140342857D02*
X158152929Y-140390476D01*
X158152929Y-140390476D02*
X158200548Y-140533333D01*
X158200548Y-140533333D02*
X158200548Y-140628571D01*
X158200548Y-140628571D02*
X158152929Y-140771428D01*
X158152929Y-140771428D02*
X158057690Y-140866666D01*
X158057690Y-140866666D02*
X157962452Y-140914285D01*
X157962452Y-140914285D02*
X157771976Y-140961904D01*
X157771976Y-140961904D02*
X157629119Y-140961904D01*
X157629119Y-140961904D02*
X157438643Y-140914285D01*
X157438643Y-140914285D02*
X157343405Y-140866666D01*
X157343405Y-140866666D02*
X157248167Y-140771428D01*
X157248167Y-140771428D02*
X157200548Y-140628571D01*
X157200548Y-140628571D02*
X157200548Y-140533333D01*
X157200548Y-140533333D02*
X157248167Y-140390476D01*
X157248167Y-140390476D02*
X157295786Y-140342857D01*
X158200548Y-139390476D02*
X158200548Y-139961904D01*
X158200548Y-139676190D02*
X157200548Y-139676190D01*
X157200548Y-139676190D02*
X157343405Y-139771428D01*
X157343405Y-139771428D02*
X157438643Y-139866666D01*
X157438643Y-139866666D02*
X157486262Y-139961904D01*
X157200548Y-139057142D02*
X157200548Y-138438095D01*
X157200548Y-138438095D02*
X157581500Y-138771428D01*
X157581500Y-138771428D02*
X157581500Y-138628571D01*
X157581500Y-138628571D02*
X157629119Y-138533333D01*
X157629119Y-138533333D02*
X157676738Y-138485714D01*
X157676738Y-138485714D02*
X157771976Y-138438095D01*
X157771976Y-138438095D02*
X158010071Y-138438095D01*
X158010071Y-138438095D02*
X158105309Y-138485714D01*
X158105309Y-138485714D02*
X158152929Y-138533333D01*
X158152929Y-138533333D02*
X158200548Y-138628571D01*
X158200548Y-138628571D02*
X158200548Y-138914285D01*
X158200548Y-138914285D02*
X158152929Y-139009523D01*
X158152929Y-139009523D02*
X158105309Y-139057142D01*
X156456523Y-109835524D02*
X156123190Y-109359333D01*
X155885095Y-109835524D02*
X155885095Y-108835524D01*
X155885095Y-108835524D02*
X156266047Y-108835524D01*
X156266047Y-108835524D02*
X156361285Y-108883143D01*
X156361285Y-108883143D02*
X156408904Y-108930762D01*
X156408904Y-108930762D02*
X156456523Y-109026000D01*
X156456523Y-109026000D02*
X156456523Y-109168857D01*
X156456523Y-109168857D02*
X156408904Y-109264095D01*
X156408904Y-109264095D02*
X156361285Y-109311714D01*
X156361285Y-109311714D02*
X156266047Y-109359333D01*
X156266047Y-109359333D02*
X155885095Y-109359333D01*
X156885095Y-109835524D02*
X156885095Y-108835524D01*
X156885095Y-108835524D02*
X157456523Y-109835524D01*
X157456523Y-109835524D02*
X157456523Y-108835524D01*
X157885095Y-108930762D02*
X157932714Y-108883143D01*
X157932714Y-108883143D02*
X158027952Y-108835524D01*
X158027952Y-108835524D02*
X158266047Y-108835524D01*
X158266047Y-108835524D02*
X158361285Y-108883143D01*
X158361285Y-108883143D02*
X158408904Y-108930762D01*
X158408904Y-108930762D02*
X158456523Y-109026000D01*
X158456523Y-109026000D02*
X158456523Y-109121238D01*
X158456523Y-109121238D02*
X158408904Y-109264095D01*
X158408904Y-109264095D02*
X157837476Y-109835524D01*
X157837476Y-109835524D02*
X158456523Y-109835524D01*
X195445142Y-150219580D02*
X195397523Y-150267200D01*
X195397523Y-150267200D02*
X195254666Y-150314819D01*
X195254666Y-150314819D02*
X195159428Y-150314819D01*
X195159428Y-150314819D02*
X195016571Y-150267200D01*
X195016571Y-150267200D02*
X194921333Y-150171961D01*
X194921333Y-150171961D02*
X194873714Y-150076723D01*
X194873714Y-150076723D02*
X194826095Y-149886247D01*
X194826095Y-149886247D02*
X194826095Y-149743390D01*
X194826095Y-149743390D02*
X194873714Y-149552914D01*
X194873714Y-149552914D02*
X194921333Y-149457676D01*
X194921333Y-149457676D02*
X195016571Y-149362438D01*
X195016571Y-149362438D02*
X195159428Y-149314819D01*
X195159428Y-149314819D02*
X195254666Y-149314819D01*
X195254666Y-149314819D02*
X195397523Y-149362438D01*
X195397523Y-149362438D02*
X195445142Y-149410057D01*
X196397523Y-150314819D02*
X195826095Y-150314819D01*
X196111809Y-150314819D02*
X196111809Y-149314819D01*
X196111809Y-149314819D02*
X196016571Y-149457676D01*
X196016571Y-149457676D02*
X195921333Y-149552914D01*
X195921333Y-149552914D02*
X195826095Y-149600533D01*
X197349904Y-150314819D02*
X196778476Y-150314819D01*
X197064190Y-150314819D02*
X197064190Y-149314819D01*
X197064190Y-149314819D02*
X196968952Y-149457676D01*
X196968952Y-149457676D02*
X196873714Y-149552914D01*
X196873714Y-149552914D02*
X196778476Y-149600533D01*
X122459857Y-103835580D02*
X122412238Y-103883200D01*
X122412238Y-103883200D02*
X122269381Y-103930819D01*
X122269381Y-103930819D02*
X122174143Y-103930819D01*
X122174143Y-103930819D02*
X122031286Y-103883200D01*
X122031286Y-103883200D02*
X121936048Y-103787961D01*
X121936048Y-103787961D02*
X121888429Y-103692723D01*
X121888429Y-103692723D02*
X121840810Y-103502247D01*
X121840810Y-103502247D02*
X121840810Y-103359390D01*
X121840810Y-103359390D02*
X121888429Y-103168914D01*
X121888429Y-103168914D02*
X121936048Y-103073676D01*
X121936048Y-103073676D02*
X122031286Y-102978438D01*
X122031286Y-102978438D02*
X122174143Y-102930819D01*
X122174143Y-102930819D02*
X122269381Y-102930819D01*
X122269381Y-102930819D02*
X122412238Y-102978438D01*
X122412238Y-102978438D02*
X122459857Y-103026057D01*
X122888429Y-103930819D02*
X122888429Y-103264152D01*
X122888429Y-102930819D02*
X122840810Y-102978438D01*
X122840810Y-102978438D02*
X122888429Y-103026057D01*
X122888429Y-103026057D02*
X122936048Y-102978438D01*
X122936048Y-102978438D02*
X122888429Y-102930819D01*
X122888429Y-102930819D02*
X122888429Y-103026057D01*
X123364619Y-103264152D02*
X123364619Y-103930819D01*
X123364619Y-103359390D02*
X123412238Y-103311771D01*
X123412238Y-103311771D02*
X123507476Y-103264152D01*
X123507476Y-103264152D02*
X123650333Y-103264152D01*
X123650333Y-103264152D02*
X123745571Y-103311771D01*
X123745571Y-103311771D02*
X123793190Y-103407009D01*
X123793190Y-103407009D02*
X123793190Y-103930819D01*
X124221762Y-103026057D02*
X124269381Y-102978438D01*
X124269381Y-102978438D02*
X124364619Y-102930819D01*
X124364619Y-102930819D02*
X124602714Y-102930819D01*
X124602714Y-102930819D02*
X124697952Y-102978438D01*
X124697952Y-102978438D02*
X124745571Y-103026057D01*
X124745571Y-103026057D02*
X124793190Y-103121295D01*
X124793190Y-103121295D02*
X124793190Y-103216533D01*
X124793190Y-103216533D02*
X124745571Y-103359390D01*
X124745571Y-103359390D02*
X124174143Y-103930819D01*
X124174143Y-103930819D02*
X124793190Y-103930819D01*
X169864580Y-138899857D02*
X169912200Y-138947476D01*
X169912200Y-138947476D02*
X169959819Y-139090333D01*
X169959819Y-139090333D02*
X169959819Y-139185571D01*
X169959819Y-139185571D02*
X169912200Y-139328428D01*
X169912200Y-139328428D02*
X169816961Y-139423666D01*
X169816961Y-139423666D02*
X169721723Y-139471285D01*
X169721723Y-139471285D02*
X169531247Y-139518904D01*
X169531247Y-139518904D02*
X169388390Y-139518904D01*
X169388390Y-139518904D02*
X169197914Y-139471285D01*
X169197914Y-139471285D02*
X169102676Y-139423666D01*
X169102676Y-139423666D02*
X169007438Y-139328428D01*
X169007438Y-139328428D02*
X168959819Y-139185571D01*
X168959819Y-139185571D02*
X168959819Y-139090333D01*
X168959819Y-139090333D02*
X169007438Y-138947476D01*
X169007438Y-138947476D02*
X169055057Y-138899857D01*
X169959819Y-137947476D02*
X169959819Y-138518904D01*
X169959819Y-138233190D02*
X168959819Y-138233190D01*
X168959819Y-138233190D02*
X169102676Y-138328428D01*
X169102676Y-138328428D02*
X169197914Y-138423666D01*
X169197914Y-138423666D02*
X169245533Y-138518904D01*
X169055057Y-137566523D02*
X169007438Y-137518904D01*
X169007438Y-137518904D02*
X168959819Y-137423666D01*
X168959819Y-137423666D02*
X168959819Y-137185571D01*
X168959819Y-137185571D02*
X169007438Y-137090333D01*
X169007438Y-137090333D02*
X169055057Y-137042714D01*
X169055057Y-137042714D02*
X169150295Y-136995095D01*
X169150295Y-136995095D02*
X169245533Y-136995095D01*
X169245533Y-136995095D02*
X169388390Y-137042714D01*
X169388390Y-137042714D02*
X169959819Y-137614142D01*
X169959819Y-137614142D02*
X169959819Y-136995095D01*
X103324819Y-149272476D02*
X102848628Y-149605809D01*
X103324819Y-149843904D02*
X102324819Y-149843904D01*
X102324819Y-149843904D02*
X102324819Y-149462952D01*
X102324819Y-149462952D02*
X102372438Y-149367714D01*
X102372438Y-149367714D02*
X102420057Y-149320095D01*
X102420057Y-149320095D02*
X102515295Y-149272476D01*
X102515295Y-149272476D02*
X102658152Y-149272476D01*
X102658152Y-149272476D02*
X102753390Y-149320095D01*
X102753390Y-149320095D02*
X102801009Y-149367714D01*
X102801009Y-149367714D02*
X102848628Y-149462952D01*
X102848628Y-149462952D02*
X102848628Y-149843904D01*
X102658152Y-148986761D02*
X102658152Y-148605809D01*
X103324819Y-148843904D02*
X102467676Y-148843904D01*
X102467676Y-148843904D02*
X102372438Y-148796285D01*
X102372438Y-148796285D02*
X102324819Y-148701047D01*
X102324819Y-148701047D02*
X102324819Y-148605809D01*
X103324819Y-148272475D02*
X102324819Y-148272475D01*
X102705771Y-148272475D02*
X102658152Y-148177237D01*
X102658152Y-148177237D02*
X102658152Y-147986761D01*
X102658152Y-147986761D02*
X102705771Y-147891523D01*
X102705771Y-147891523D02*
X102753390Y-147843904D01*
X102753390Y-147843904D02*
X102848628Y-147796285D01*
X102848628Y-147796285D02*
X103134342Y-147796285D01*
X103134342Y-147796285D02*
X103229580Y-147843904D01*
X103229580Y-147843904D02*
X103277200Y-147891523D01*
X103277200Y-147891523D02*
X103324819Y-147986761D01*
X103324819Y-147986761D02*
X103324819Y-148177237D01*
X103324819Y-148177237D02*
X103277200Y-148272475D01*
X102658152Y-147510570D02*
X102658152Y-147129618D01*
X102324819Y-147367713D02*
X103181961Y-147367713D01*
X103181961Y-147367713D02*
X103277200Y-147320094D01*
X103277200Y-147320094D02*
X103324819Y-147224856D01*
X103324819Y-147224856D02*
X103324819Y-147129618D01*
X103324819Y-146272475D02*
X103324819Y-146843903D01*
X103324819Y-146558189D02*
X102324819Y-146558189D01*
X102324819Y-146558189D02*
X102467676Y-146653427D01*
X102467676Y-146653427D02*
X102562914Y-146748665D01*
X102562914Y-146748665D02*
X102610533Y-146843903D01*
X156257666Y-97752819D02*
X156257666Y-98467104D01*
X156257666Y-98467104D02*
X156210047Y-98609961D01*
X156210047Y-98609961D02*
X156114809Y-98705200D01*
X156114809Y-98705200D02*
X155971952Y-98752819D01*
X155971952Y-98752819D02*
X155876714Y-98752819D01*
X156638619Y-97752819D02*
X157305285Y-97752819D01*
X157305285Y-97752819D02*
X156876714Y-98752819D01*
X115834450Y-115705746D02*
X115598748Y-115941448D01*
X115969137Y-116311837D02*
X115262030Y-115604730D01*
X115262030Y-115604730D02*
X115598748Y-115268013D01*
X116440542Y-115099654D02*
X116575229Y-115032310D01*
X116575229Y-115032310D02*
X116642572Y-115032310D01*
X116642572Y-115032310D02*
X116743588Y-115065982D01*
X116743588Y-115065982D02*
X116844603Y-115166997D01*
X116844603Y-115166997D02*
X116878275Y-115268013D01*
X116878275Y-115268013D02*
X116878275Y-115335356D01*
X116878275Y-115335356D02*
X116844603Y-115436371D01*
X116844603Y-115436371D02*
X116575229Y-115705745D01*
X116575229Y-115705745D02*
X115868122Y-114998639D01*
X115868122Y-114998639D02*
X116103824Y-114762936D01*
X116103824Y-114762936D02*
X116204840Y-114729265D01*
X116204840Y-114729265D02*
X116272183Y-114729265D01*
X116272183Y-114729265D02*
X116373198Y-114762936D01*
X116373198Y-114762936D02*
X116440542Y-114830280D01*
X116440542Y-114830280D02*
X116474214Y-114931295D01*
X116474214Y-114931295D02*
X116474214Y-114998639D01*
X116474214Y-114998639D02*
X116440542Y-115099654D01*
X116440542Y-115099654D02*
X116204840Y-115335356D01*
X117652725Y-114628249D02*
X117248664Y-115032310D01*
X117450694Y-114830280D02*
X116743588Y-114123173D01*
X116743588Y-114123173D02*
X116777259Y-114291532D01*
X116777259Y-114291532D02*
X116777259Y-114426219D01*
X116777259Y-114426219D02*
X116743588Y-114527234D01*
X133604095Y-114770819D02*
X133604095Y-115580342D01*
X133604095Y-115580342D02*
X133651714Y-115675580D01*
X133651714Y-115675580D02*
X133699333Y-115723200D01*
X133699333Y-115723200D02*
X133794571Y-115770819D01*
X133794571Y-115770819D02*
X133985047Y-115770819D01*
X133985047Y-115770819D02*
X134080285Y-115723200D01*
X134080285Y-115723200D02*
X134127904Y-115675580D01*
X134127904Y-115675580D02*
X134175523Y-115580342D01*
X134175523Y-115580342D02*
X134175523Y-114770819D01*
X135175523Y-115770819D02*
X134604095Y-115770819D01*
X134889809Y-115770819D02*
X134889809Y-114770819D01*
X134889809Y-114770819D02*
X134794571Y-114913676D01*
X134794571Y-114913676D02*
X134699333Y-115008914D01*
X134699333Y-115008914D02*
X134604095Y-115056533D01*
X183475333Y-98187580D02*
X183427714Y-98235200D01*
X183427714Y-98235200D02*
X183284857Y-98282819D01*
X183284857Y-98282819D02*
X183189619Y-98282819D01*
X183189619Y-98282819D02*
X183046762Y-98235200D01*
X183046762Y-98235200D02*
X182951524Y-98139961D01*
X182951524Y-98139961D02*
X182903905Y-98044723D01*
X182903905Y-98044723D02*
X182856286Y-97854247D01*
X182856286Y-97854247D02*
X182856286Y-97711390D01*
X182856286Y-97711390D02*
X182903905Y-97520914D01*
X182903905Y-97520914D02*
X182951524Y-97425676D01*
X182951524Y-97425676D02*
X183046762Y-97330438D01*
X183046762Y-97330438D02*
X183189619Y-97282819D01*
X183189619Y-97282819D02*
X183284857Y-97282819D01*
X183284857Y-97282819D02*
X183427714Y-97330438D01*
X183427714Y-97330438D02*
X183475333Y-97378057D01*
X184332476Y-97616152D02*
X184332476Y-98282819D01*
X184094381Y-97235200D02*
X183856286Y-97949485D01*
X183856286Y-97949485D02*
X184475333Y-97949485D01*
X122428095Y-108928819D02*
X122428095Y-109738342D01*
X122428095Y-109738342D02*
X122475714Y-109833580D01*
X122475714Y-109833580D02*
X122523333Y-109881200D01*
X122523333Y-109881200D02*
X122618571Y-109928819D01*
X122618571Y-109928819D02*
X122809047Y-109928819D01*
X122809047Y-109928819D02*
X122904285Y-109881200D01*
X122904285Y-109881200D02*
X122951904Y-109833580D01*
X122951904Y-109833580D02*
X122999523Y-109738342D01*
X122999523Y-109738342D02*
X122999523Y-108928819D01*
X123951904Y-108928819D02*
X123475714Y-108928819D01*
X123475714Y-108928819D02*
X123428095Y-109405009D01*
X123428095Y-109405009D02*
X123475714Y-109357390D01*
X123475714Y-109357390D02*
X123570952Y-109309771D01*
X123570952Y-109309771D02*
X123809047Y-109309771D01*
X123809047Y-109309771D02*
X123904285Y-109357390D01*
X123904285Y-109357390D02*
X123951904Y-109405009D01*
X123951904Y-109405009D02*
X123999523Y-109500247D01*
X123999523Y-109500247D02*
X123999523Y-109738342D01*
X123999523Y-109738342D02*
X123951904Y-109833580D01*
X123951904Y-109833580D02*
X123904285Y-109881200D01*
X123904285Y-109881200D02*
X123809047Y-109928819D01*
X123809047Y-109928819D02*
X123570952Y-109928819D01*
X123570952Y-109928819D02*
X123475714Y-109881200D01*
X123475714Y-109881200D02*
X123428095Y-109833580D01*
X169980319Y-142598857D02*
X169504128Y-142932190D01*
X169980319Y-143170285D02*
X168980319Y-143170285D01*
X168980319Y-143170285D02*
X168980319Y-142789333D01*
X168980319Y-142789333D02*
X169027938Y-142694095D01*
X169027938Y-142694095D02*
X169075557Y-142646476D01*
X169075557Y-142646476D02*
X169170795Y-142598857D01*
X169170795Y-142598857D02*
X169313652Y-142598857D01*
X169313652Y-142598857D02*
X169408890Y-142646476D01*
X169408890Y-142646476D02*
X169456509Y-142694095D01*
X169456509Y-142694095D02*
X169504128Y-142789333D01*
X169504128Y-142789333D02*
X169504128Y-143170285D01*
X169980319Y-141646476D02*
X169980319Y-142217904D01*
X169980319Y-141932190D02*
X168980319Y-141932190D01*
X168980319Y-141932190D02*
X169123176Y-142027428D01*
X169123176Y-142027428D02*
X169218414Y-142122666D01*
X169218414Y-142122666D02*
X169266033Y-142217904D01*
X169313652Y-140789333D02*
X169980319Y-140789333D01*
X168932700Y-141027428D02*
X169646985Y-141265523D01*
X169646985Y-141265523D02*
X169646985Y-140646476D01*
X162480666Y-100165819D02*
X162480666Y-100880104D01*
X162480666Y-100880104D02*
X162433047Y-101022961D01*
X162433047Y-101022961D02*
X162337809Y-101118200D01*
X162337809Y-101118200D02*
X162194952Y-101165819D01*
X162194952Y-101165819D02*
X162099714Y-101165819D01*
X163385428Y-100165819D02*
X163194952Y-100165819D01*
X163194952Y-100165819D02*
X163099714Y-100213438D01*
X163099714Y-100213438D02*
X163052095Y-100261057D01*
X163052095Y-100261057D02*
X162956857Y-100403914D01*
X162956857Y-100403914D02*
X162909238Y-100594390D01*
X162909238Y-100594390D02*
X162909238Y-100975342D01*
X162909238Y-100975342D02*
X162956857Y-101070580D01*
X162956857Y-101070580D02*
X163004476Y-101118200D01*
X163004476Y-101118200D02*
X163099714Y-101165819D01*
X163099714Y-101165819D02*
X163290190Y-101165819D01*
X163290190Y-101165819D02*
X163385428Y-101118200D01*
X163385428Y-101118200D02*
X163433047Y-101070580D01*
X163433047Y-101070580D02*
X163480666Y-100975342D01*
X163480666Y-100975342D02*
X163480666Y-100737247D01*
X163480666Y-100737247D02*
X163433047Y-100642009D01*
X163433047Y-100642009D02*
X163385428Y-100594390D01*
X163385428Y-100594390D02*
X163290190Y-100546771D01*
X163290190Y-100546771D02*
X163099714Y-100546771D01*
X163099714Y-100546771D02*
X163004476Y-100594390D01*
X163004476Y-100594390D02*
X162956857Y-100642009D01*
X162956857Y-100642009D02*
X162909238Y-100737247D01*
X150836333Y-88846819D02*
X150503000Y-88370628D01*
X150264905Y-88846819D02*
X150264905Y-87846819D01*
X150264905Y-87846819D02*
X150645857Y-87846819D01*
X150645857Y-87846819D02*
X150741095Y-87894438D01*
X150741095Y-87894438D02*
X150788714Y-87942057D01*
X150788714Y-87942057D02*
X150836333Y-88037295D01*
X150836333Y-88037295D02*
X150836333Y-88180152D01*
X150836333Y-88180152D02*
X150788714Y-88275390D01*
X150788714Y-88275390D02*
X150741095Y-88323009D01*
X150741095Y-88323009D02*
X150645857Y-88370628D01*
X150645857Y-88370628D02*
X150264905Y-88370628D01*
X151693476Y-88180152D02*
X151693476Y-88846819D01*
X151455381Y-87799200D02*
X151217286Y-88513485D01*
X151217286Y-88513485D02*
X151836333Y-88513485D01*
X184532142Y-102308819D02*
X184198809Y-101832628D01*
X183960714Y-102308819D02*
X183960714Y-101308819D01*
X183960714Y-101308819D02*
X184341666Y-101308819D01*
X184341666Y-101308819D02*
X184436904Y-101356438D01*
X184436904Y-101356438D02*
X184484523Y-101404057D01*
X184484523Y-101404057D02*
X184532142Y-101499295D01*
X184532142Y-101499295D02*
X184532142Y-101642152D01*
X184532142Y-101642152D02*
X184484523Y-101737390D01*
X184484523Y-101737390D02*
X184436904Y-101785009D01*
X184436904Y-101785009D02*
X184341666Y-101832628D01*
X184341666Y-101832628D02*
X183960714Y-101832628D01*
X185484523Y-102308819D02*
X184913095Y-102308819D01*
X185198809Y-102308819D02*
X185198809Y-101308819D01*
X185198809Y-101308819D02*
X185103571Y-101451676D01*
X185103571Y-101451676D02*
X185008333Y-101546914D01*
X185008333Y-101546914D02*
X184913095Y-101594533D01*
X185817857Y-101308819D02*
X186436904Y-101308819D01*
X186436904Y-101308819D02*
X186103571Y-101689771D01*
X186103571Y-101689771D02*
X186246428Y-101689771D01*
X186246428Y-101689771D02*
X186341666Y-101737390D01*
X186341666Y-101737390D02*
X186389285Y-101785009D01*
X186389285Y-101785009D02*
X186436904Y-101880247D01*
X186436904Y-101880247D02*
X186436904Y-102118342D01*
X186436904Y-102118342D02*
X186389285Y-102213580D01*
X186389285Y-102213580D02*
X186341666Y-102261200D01*
X186341666Y-102261200D02*
X186246428Y-102308819D01*
X186246428Y-102308819D02*
X185960714Y-102308819D01*
X185960714Y-102308819D02*
X185865476Y-102261200D01*
X185865476Y-102261200D02*
X185817857Y-102213580D01*
X118070333Y-98784580D02*
X118022714Y-98832200D01*
X118022714Y-98832200D02*
X117879857Y-98879819D01*
X117879857Y-98879819D02*
X117784619Y-98879819D01*
X117784619Y-98879819D02*
X117641762Y-98832200D01*
X117641762Y-98832200D02*
X117546524Y-98736961D01*
X117546524Y-98736961D02*
X117498905Y-98641723D01*
X117498905Y-98641723D02*
X117451286Y-98451247D01*
X117451286Y-98451247D02*
X117451286Y-98308390D01*
X117451286Y-98308390D02*
X117498905Y-98117914D01*
X117498905Y-98117914D02*
X117546524Y-98022676D01*
X117546524Y-98022676D02*
X117641762Y-97927438D01*
X117641762Y-97927438D02*
X117784619Y-97879819D01*
X117784619Y-97879819D02*
X117879857Y-97879819D01*
X117879857Y-97879819D02*
X118022714Y-97927438D01*
X118022714Y-97927438D02*
X118070333Y-97975057D01*
X118451286Y-97975057D02*
X118498905Y-97927438D01*
X118498905Y-97927438D02*
X118594143Y-97879819D01*
X118594143Y-97879819D02*
X118832238Y-97879819D01*
X118832238Y-97879819D02*
X118927476Y-97927438D01*
X118927476Y-97927438D02*
X118975095Y-97975057D01*
X118975095Y-97975057D02*
X119022714Y-98070295D01*
X119022714Y-98070295D02*
X119022714Y-98165533D01*
X119022714Y-98165533D02*
X118975095Y-98308390D01*
X118975095Y-98308390D02*
X118403667Y-98879819D01*
X118403667Y-98879819D02*
X119022714Y-98879819D01*
X93916667Y-106579200D02*
X94059524Y-106626819D01*
X94059524Y-106626819D02*
X94297619Y-106626819D01*
X94297619Y-106626819D02*
X94392857Y-106579200D01*
X94392857Y-106579200D02*
X94440476Y-106531580D01*
X94440476Y-106531580D02*
X94488095Y-106436342D01*
X94488095Y-106436342D02*
X94488095Y-106341104D01*
X94488095Y-106341104D02*
X94440476Y-106245866D01*
X94440476Y-106245866D02*
X94392857Y-106198247D01*
X94392857Y-106198247D02*
X94297619Y-106150628D01*
X94297619Y-106150628D02*
X94107143Y-106103009D01*
X94107143Y-106103009D02*
X94011905Y-106055390D01*
X94011905Y-106055390D02*
X93964286Y-106007771D01*
X93964286Y-106007771D02*
X93916667Y-105912533D01*
X93916667Y-105912533D02*
X93916667Y-105817295D01*
X93916667Y-105817295D02*
X93964286Y-105722057D01*
X93964286Y-105722057D02*
X94011905Y-105674438D01*
X94011905Y-105674438D02*
X94107143Y-105626819D01*
X94107143Y-105626819D02*
X94345238Y-105626819D01*
X94345238Y-105626819D02*
X94488095Y-105674438D01*
X94821429Y-105626819D02*
X95059524Y-106626819D01*
X95059524Y-106626819D02*
X95250000Y-105912533D01*
X95250000Y-105912533D02*
X95440476Y-106626819D01*
X95440476Y-106626819D02*
X95678572Y-105626819D01*
X96011905Y-105722057D02*
X96059524Y-105674438D01*
X96059524Y-105674438D02*
X96154762Y-105626819D01*
X96154762Y-105626819D02*
X96392857Y-105626819D01*
X96392857Y-105626819D02*
X96488095Y-105674438D01*
X96488095Y-105674438D02*
X96535714Y-105722057D01*
X96535714Y-105722057D02*
X96583333Y-105817295D01*
X96583333Y-105817295D02*
X96583333Y-105912533D01*
X96583333Y-105912533D02*
X96535714Y-106055390D01*
X96535714Y-106055390D02*
X95964286Y-106626819D01*
X95964286Y-106626819D02*
X96583333Y-106626819D01*
X189349523Y-109835524D02*
X189016190Y-109359333D01*
X188778095Y-109835524D02*
X188778095Y-108835524D01*
X188778095Y-108835524D02*
X189159047Y-108835524D01*
X189159047Y-108835524D02*
X189254285Y-108883143D01*
X189254285Y-108883143D02*
X189301904Y-108930762D01*
X189301904Y-108930762D02*
X189349523Y-109026000D01*
X189349523Y-109026000D02*
X189349523Y-109168857D01*
X189349523Y-109168857D02*
X189301904Y-109264095D01*
X189301904Y-109264095D02*
X189254285Y-109311714D01*
X189254285Y-109311714D02*
X189159047Y-109359333D01*
X189159047Y-109359333D02*
X188778095Y-109359333D01*
X189778095Y-109835524D02*
X189778095Y-108835524D01*
X189778095Y-108835524D02*
X190349523Y-109835524D01*
X190349523Y-109835524D02*
X190349523Y-108835524D01*
X191349523Y-109835524D02*
X190778095Y-109835524D01*
X191063809Y-109835524D02*
X191063809Y-108835524D01*
X191063809Y-108835524D02*
X190968571Y-108978381D01*
X190968571Y-108978381D02*
X190873333Y-109073619D01*
X190873333Y-109073619D02*
X190778095Y-109121238D01*
X101674819Y-121832666D02*
X101198628Y-122165999D01*
X101674819Y-122404094D02*
X100674819Y-122404094D01*
X100674819Y-122404094D02*
X100674819Y-122023142D01*
X100674819Y-122023142D02*
X100722438Y-121927904D01*
X100722438Y-121927904D02*
X100770057Y-121880285D01*
X100770057Y-121880285D02*
X100865295Y-121832666D01*
X100865295Y-121832666D02*
X101008152Y-121832666D01*
X101008152Y-121832666D02*
X101103390Y-121880285D01*
X101103390Y-121880285D02*
X101151009Y-121927904D01*
X101151009Y-121927904D02*
X101198628Y-122023142D01*
X101198628Y-122023142D02*
X101198628Y-122404094D01*
X100674819Y-121499332D02*
X100674819Y-120832666D01*
X100674819Y-120832666D02*
X101674819Y-121261237D01*
X101282667Y-124951200D02*
X101425524Y-124998819D01*
X101425524Y-124998819D02*
X101663619Y-124998819D01*
X101663619Y-124998819D02*
X101758857Y-124951200D01*
X101758857Y-124951200D02*
X101806476Y-124903580D01*
X101806476Y-124903580D02*
X101854095Y-124808342D01*
X101854095Y-124808342D02*
X101854095Y-124713104D01*
X101854095Y-124713104D02*
X101806476Y-124617866D01*
X101806476Y-124617866D02*
X101758857Y-124570247D01*
X101758857Y-124570247D02*
X101663619Y-124522628D01*
X101663619Y-124522628D02*
X101473143Y-124475009D01*
X101473143Y-124475009D02*
X101377905Y-124427390D01*
X101377905Y-124427390D02*
X101330286Y-124379771D01*
X101330286Y-124379771D02*
X101282667Y-124284533D01*
X101282667Y-124284533D02*
X101282667Y-124189295D01*
X101282667Y-124189295D02*
X101330286Y-124094057D01*
X101330286Y-124094057D02*
X101377905Y-124046438D01*
X101377905Y-124046438D02*
X101473143Y-123998819D01*
X101473143Y-123998819D02*
X101711238Y-123998819D01*
X101711238Y-123998819D02*
X101854095Y-124046438D01*
X102187429Y-123998819D02*
X102425524Y-124998819D01*
X102425524Y-124998819D02*
X102616000Y-124284533D01*
X102616000Y-124284533D02*
X102806476Y-124998819D01*
X102806476Y-124998819D02*
X103044572Y-123998819D01*
X103901714Y-123998819D02*
X103425524Y-123998819D01*
X103425524Y-123998819D02*
X103377905Y-124475009D01*
X103377905Y-124475009D02*
X103425524Y-124427390D01*
X103425524Y-124427390D02*
X103520762Y-124379771D01*
X103520762Y-124379771D02*
X103758857Y-124379771D01*
X103758857Y-124379771D02*
X103854095Y-124427390D01*
X103854095Y-124427390D02*
X103901714Y-124475009D01*
X103901714Y-124475009D02*
X103949333Y-124570247D01*
X103949333Y-124570247D02*
X103949333Y-124808342D01*
X103949333Y-124808342D02*
X103901714Y-124903580D01*
X103901714Y-124903580D02*
X103854095Y-124951200D01*
X103854095Y-124951200D02*
X103758857Y-124998819D01*
X103758857Y-124998819D02*
X103520762Y-124998819D01*
X103520762Y-124998819D02*
X103425524Y-124951200D01*
X103425524Y-124951200D02*
X103377905Y-124903580D01*
D11*
X194900000Y-105354000D02*
X194900000Y-103434000D01*
X194900000Y-103434000D02*
X192040000Y-103434000D01*
X192040000Y-105354000D02*
X194900000Y-105354000D01*
X112908500Y-146772000D02*
X111108500Y-146772000D01*
X112908500Y-146772000D02*
X113708500Y-146772000D01*
X112908500Y-149892000D02*
X112108500Y-149892000D01*
X112908500Y-149892000D02*
X113708500Y-149892000D01*
X101881000Y-127465064D02*
X101881000Y-127010936D01*
X103351000Y-127465064D02*
X103351000Y-127010936D01*
X105713000Y-146334775D02*
X105713000Y-145834775D01*
X105463000Y-146084775D02*
X105963000Y-146084775D01*
X104608000Y-143530000D02*
X109768000Y-143530000D01*
X104608000Y-143490000D02*
X109768000Y-143490000D01*
X104609000Y-143450000D02*
X109767000Y-143450000D01*
X104610000Y-143410000D02*
X109766000Y-143410000D01*
X104612000Y-143370000D02*
X109764000Y-143370000D01*
X104615000Y-143330000D02*
X109761000Y-143330000D01*
X104619000Y-143290000D02*
X106148000Y-143290000D01*
X108228000Y-143290000D02*
X109757000Y-143290000D01*
X104623000Y-143250000D02*
X106148000Y-143250000D01*
X108228000Y-143250000D02*
X109753000Y-143250000D01*
X104627000Y-143210000D02*
X106148000Y-143210000D01*
X108228000Y-143210000D02*
X109749000Y-143210000D01*
X104632000Y-143170000D02*
X106148000Y-143170000D01*
X108228000Y-143170000D02*
X109744000Y-143170000D01*
X104638000Y-143130000D02*
X106148000Y-143130000D01*
X108228000Y-143130000D02*
X109738000Y-143130000D01*
X104645000Y-143090000D02*
X106148000Y-143090000D01*
X108228000Y-143090000D02*
X109731000Y-143090000D01*
X104652000Y-143050000D02*
X106148000Y-143050000D01*
X108228000Y-143050000D02*
X109724000Y-143050000D01*
X104660000Y-143010000D02*
X106148000Y-143010000D01*
X108228000Y-143010000D02*
X109716000Y-143010000D01*
X104668000Y-142970000D02*
X106148000Y-142970000D01*
X108228000Y-142970000D02*
X109708000Y-142970000D01*
X104677000Y-142930000D02*
X106148000Y-142930000D01*
X108228000Y-142930000D02*
X109699000Y-142930000D01*
X104687000Y-142890000D02*
X106148000Y-142890000D01*
X108228000Y-142890000D02*
X109689000Y-142890000D01*
X104697000Y-142850000D02*
X106148000Y-142850000D01*
X108228000Y-142850000D02*
X109679000Y-142850000D01*
X104708000Y-142809000D02*
X106148000Y-142809000D01*
X108228000Y-142809000D02*
X109668000Y-142809000D01*
X104720000Y-142769000D02*
X106148000Y-142769000D01*
X108228000Y-142769000D02*
X109656000Y-142769000D01*
X104733000Y-142729000D02*
X106148000Y-142729000D01*
X108228000Y-142729000D02*
X109643000Y-142729000D01*
X104746000Y-142689000D02*
X106148000Y-142689000D01*
X108228000Y-142689000D02*
X109630000Y-142689000D01*
X104760000Y-142649000D02*
X106148000Y-142649000D01*
X108228000Y-142649000D02*
X109616000Y-142649000D01*
X104774000Y-142609000D02*
X106148000Y-142609000D01*
X108228000Y-142609000D02*
X109602000Y-142609000D01*
X104790000Y-142569000D02*
X106148000Y-142569000D01*
X108228000Y-142569000D02*
X109586000Y-142569000D01*
X104806000Y-142529000D02*
X106148000Y-142529000D01*
X108228000Y-142529000D02*
X109570000Y-142529000D01*
X104823000Y-142489000D02*
X106148000Y-142489000D01*
X108228000Y-142489000D02*
X109553000Y-142489000D01*
X104840000Y-142449000D02*
X106148000Y-142449000D01*
X108228000Y-142449000D02*
X109536000Y-142449000D01*
X104859000Y-142409000D02*
X106148000Y-142409000D01*
X108228000Y-142409000D02*
X109517000Y-142409000D01*
X104878000Y-142369000D02*
X106148000Y-142369000D01*
X108228000Y-142369000D02*
X109498000Y-142369000D01*
X104898000Y-142329000D02*
X106148000Y-142329000D01*
X108228000Y-142329000D02*
X109478000Y-142329000D01*
X104920000Y-142289000D02*
X106148000Y-142289000D01*
X108228000Y-142289000D02*
X109456000Y-142289000D01*
X104941000Y-142249000D02*
X106148000Y-142249000D01*
X108228000Y-142249000D02*
X109435000Y-142249000D01*
X104964000Y-142209000D02*
X106148000Y-142209000D01*
X108228000Y-142209000D02*
X109412000Y-142209000D01*
X104988000Y-142169000D02*
X106148000Y-142169000D01*
X108228000Y-142169000D02*
X109388000Y-142169000D01*
X105013000Y-142129000D02*
X106148000Y-142129000D01*
X108228000Y-142129000D02*
X109363000Y-142129000D01*
X105039000Y-142089000D02*
X106148000Y-142089000D01*
X108228000Y-142089000D02*
X109337000Y-142089000D01*
X105066000Y-142049000D02*
X106148000Y-142049000D01*
X108228000Y-142049000D02*
X109310000Y-142049000D01*
X105093000Y-142009000D02*
X106148000Y-142009000D01*
X108228000Y-142009000D02*
X109283000Y-142009000D01*
X105123000Y-141969000D02*
X106148000Y-141969000D01*
X108228000Y-141969000D02*
X109253000Y-141969000D01*
X105153000Y-141929000D02*
X106148000Y-141929000D01*
X108228000Y-141929000D02*
X109223000Y-141929000D01*
X105184000Y-141889000D02*
X106148000Y-141889000D01*
X108228000Y-141889000D02*
X109192000Y-141889000D01*
X105217000Y-141849000D02*
X106148000Y-141849000D01*
X108228000Y-141849000D02*
X109159000Y-141849000D01*
X105251000Y-141809000D02*
X106148000Y-141809000D01*
X108228000Y-141809000D02*
X109125000Y-141809000D01*
X105287000Y-141769000D02*
X106148000Y-141769000D01*
X108228000Y-141769000D02*
X109089000Y-141769000D01*
X105324000Y-141729000D02*
X106148000Y-141729000D01*
X108228000Y-141729000D02*
X109052000Y-141729000D01*
X105362000Y-141689000D02*
X106148000Y-141689000D01*
X108228000Y-141689000D02*
X109014000Y-141689000D01*
X105403000Y-141649000D02*
X106148000Y-141649000D01*
X108228000Y-141649000D02*
X108973000Y-141649000D01*
X105445000Y-141609000D02*
X106148000Y-141609000D01*
X108228000Y-141609000D02*
X108931000Y-141609000D01*
X105489000Y-141569000D02*
X106148000Y-141569000D01*
X108228000Y-141569000D02*
X108887000Y-141569000D01*
X105535000Y-141529000D02*
X106148000Y-141529000D01*
X108228000Y-141529000D02*
X108841000Y-141529000D01*
X105583000Y-141489000D02*
X106148000Y-141489000D01*
X108228000Y-141489000D02*
X108793000Y-141489000D01*
X105634000Y-141449000D02*
X106148000Y-141449000D01*
X108228000Y-141449000D02*
X108742000Y-141449000D01*
X105688000Y-141409000D02*
X106148000Y-141409000D01*
X108228000Y-141409000D02*
X108688000Y-141409000D01*
X105745000Y-141369000D02*
X106148000Y-141369000D01*
X108228000Y-141369000D02*
X108631000Y-141369000D01*
X105805000Y-141329000D02*
X106148000Y-141329000D01*
X108228000Y-141329000D02*
X108571000Y-141329000D01*
X105869000Y-141289000D02*
X106148000Y-141289000D01*
X108228000Y-141289000D02*
X108507000Y-141289000D01*
X105937000Y-141249000D02*
X106148000Y-141249000D01*
X108228000Y-141249000D02*
X108439000Y-141249000D01*
X106010000Y-141209000D02*
X108366000Y-141209000D01*
X106090000Y-141169000D02*
X108286000Y-141169000D01*
X106177000Y-141129000D02*
X108199000Y-141129000D01*
X106273000Y-141089000D02*
X108103000Y-141089000D01*
X106383000Y-141049000D02*
X107993000Y-141049000D01*
X106511000Y-141009000D02*
X107865000Y-141009000D01*
X106670000Y-140969000D02*
X107706000Y-140969000D01*
X106904000Y-140929000D02*
X107472000Y-140929000D01*
X109808000Y-143530000D02*
G75*
G03*
X104568000Y-143530000I-2620000J0D01*
G01*
X104568000Y-143530000D02*
G75*
G03*
X109808000Y-143530000I2620000J0D01*
G01*
X159199500Y-153758000D02*
X158599500Y-153458000D01*
X159199500Y-153158000D02*
X159199500Y-153758000D01*
X158599500Y-153458000D02*
X159199500Y-153158000D01*
X158399500Y-155568000D02*
X157199500Y-155568000D01*
X158399500Y-148548000D02*
X158399500Y-155568000D01*
X157199500Y-157268000D02*
X143599500Y-157268000D01*
X157199500Y-155568000D02*
X157199500Y-157268000D01*
X143599500Y-157268000D02*
X143599500Y-155568000D01*
X143599500Y-155568000D02*
X142399500Y-155568000D01*
X142399500Y-155568000D02*
X142399500Y-148548000D01*
X142399500Y-148548000D02*
X158399500Y-148548000D01*
X102516000Y-115289064D02*
X102516000Y-114834936D01*
X103986000Y-115289064D02*
X103986000Y-114834936D01*
X95804000Y-132014000D02*
X95504000Y-132614000D01*
X95204000Y-132014000D02*
X95804000Y-132014000D01*
X95504000Y-132614000D02*
X95204000Y-132014000D01*
X97614000Y-132814000D02*
X97614000Y-134014000D01*
X90594000Y-132814000D02*
X97614000Y-132814000D01*
X99314000Y-134014000D02*
X99314000Y-155534000D01*
X97614000Y-134014000D02*
X99314000Y-134014000D01*
X99314000Y-155534000D02*
X97614000Y-155534000D01*
X97614000Y-155534000D02*
X97614000Y-156734000D01*
X97614000Y-156734000D02*
X90594000Y-156734000D01*
X90594000Y-156734000D02*
X90594000Y-132814000D01*
X176574000Y-152221000D02*
X175974000Y-151921000D01*
X176574000Y-151621000D02*
X176574000Y-152221000D01*
X175974000Y-151921000D02*
X176574000Y-151621000D01*
X175774000Y-156531000D02*
X172654000Y-156531000D01*
X175774000Y-146611000D02*
X175774000Y-156531000D01*
X172654000Y-156531000D02*
X172654000Y-155331000D01*
X172654000Y-155331000D02*
X168874000Y-155331000D01*
X168874000Y-156531000D02*
X165754000Y-156531000D01*
X168874000Y-155331000D02*
X168874000Y-156531000D01*
X165754000Y-156531000D02*
X165754000Y-146611000D01*
X165754000Y-146611000D02*
X175774000Y-146611000D01*
X185284000Y-130452000D02*
X185284000Y-132051000D01*
X185284000Y-130452000D02*
X189149000Y-130452000D01*
X185284000Y-133793000D02*
X185284000Y-134552000D01*
X185284000Y-136293000D02*
X185284000Y-137052000D01*
X185284000Y-138792000D02*
X185284000Y-140392000D01*
X185284000Y-140392000D02*
X189149000Y-140392000D01*
X193659000Y-130452000D02*
X197524000Y-130452000D01*
X193659000Y-140392000D02*
X197524000Y-140392000D01*
X197524000Y-130452000D02*
X197524000Y-140392000D01*
X94715000Y-100356936D02*
X94715000Y-100811064D01*
X93245000Y-100356936D02*
X93245000Y-100811064D01*
X112275252Y-145769000D02*
X111752748Y-145769000D01*
X112275252Y-144299000D02*
X111752748Y-144299000D01*
X113511000Y-89180936D02*
X113511000Y-89635064D01*
X112041000Y-89180936D02*
X112041000Y-89635064D01*
X113530748Y-95531000D02*
X114053252Y-95531000D01*
X113530748Y-97001000D02*
X114053252Y-97001000D01*
X154405064Y-92175000D02*
X153950936Y-92175000D01*
X154405064Y-90705000D02*
X153950936Y-90705000D01*
X111816000Y-95078000D02*
X113736000Y-95078000D01*
X113736000Y-95078000D02*
X113736000Y-92218000D01*
X111816000Y-92218000D02*
X111816000Y-95078000D01*
X114352000Y-144533252D02*
X114352000Y-144010748D01*
X115772000Y-144533252D02*
X115772000Y-144010748D01*
X92429000Y-100356936D02*
X92429000Y-100811064D01*
X90959000Y-100356936D02*
X90959000Y-100811064D01*
X178170705Y-130845705D02*
X169000705Y-130845705D01*
X178170705Y-126665705D02*
X179670705Y-126665705D01*
X178170705Y-126665705D02*
X178170705Y-130845705D01*
X178170705Y-106865705D02*
X178170705Y-102685705D01*
X178170705Y-102685705D02*
X169000705Y-102685705D01*
X169000705Y-130845705D02*
X169000705Y-126665705D01*
X169000705Y-102685705D02*
X169000705Y-106865705D01*
X180158000Y-86813000D02*
X186618000Y-86813000D01*
X180158000Y-86843000D02*
X180158000Y-86813000D01*
X180158000Y-88743000D02*
X180158000Y-91343000D01*
X180158000Y-93273000D02*
X180158000Y-93243000D01*
X180158000Y-93273000D02*
X186618000Y-93273000D01*
X186618000Y-86813000D02*
X186618000Y-86843000D01*
X186618000Y-88743000D02*
X186618000Y-91343000D01*
X186618000Y-93273000D02*
X186618000Y-93243000D01*
X92020000Y-115134000D02*
X98480000Y-115134000D01*
X92020000Y-115164000D02*
X92020000Y-115134000D01*
X92020000Y-117064000D02*
X92020000Y-119664000D01*
X92020000Y-121594000D02*
X92020000Y-121564000D01*
X92020000Y-121594000D02*
X98480000Y-121594000D01*
X98480000Y-115134000D02*
X98480000Y-115164000D01*
X98480000Y-117064000D02*
X98480000Y-119664000D01*
X98480000Y-121594000D02*
X98480000Y-121564000D01*
X118083000Y-149852748D02*
X118083000Y-150375252D01*
X116613000Y-149852748D02*
X116613000Y-150375252D01*
X103986000Y-109847748D02*
X103986000Y-110370252D01*
X102516000Y-109847748D02*
X102516000Y-110370252D01*
D10*
X96120000Y-79785000D02*
X109620000Y-79785000D01*
X96120000Y-98285000D02*
X96120000Y-79785000D01*
X109620000Y-79785000D02*
X109620000Y-98285000D01*
X109620000Y-98285000D02*
X96120000Y-98285000D01*
D11*
X188702064Y-100557000D02*
X188247936Y-100557000D01*
X188702064Y-99087000D02*
X188247936Y-99087000D01*
X107669000Y-151410936D02*
X107669000Y-151865064D01*
X106199000Y-151410936D02*
X106199000Y-151865064D01*
X142740000Y-86252000D02*
X141740000Y-86252000D01*
X141740000Y-86252000D02*
X142240000Y-87252000D01*
X142240000Y-87252000D02*
X142740000Y-86252000D01*
X147450000Y-87642000D02*
X147450000Y-96762000D01*
X139210000Y-87642000D02*
X139210000Y-88952000D01*
X126870000Y-87642000D02*
X147450000Y-87642000D01*
X146150000Y-88952000D02*
X146150000Y-95452000D01*
X139210000Y-88952000D02*
X146150000Y-88952000D01*
X135110000Y-88952000D02*
X135110000Y-87642000D01*
X135110000Y-88952000D02*
X135110000Y-88952000D01*
X128170000Y-88952000D02*
X135110000Y-88952000D01*
X146150000Y-95452000D02*
X128170000Y-95452000D01*
X128170000Y-95452000D02*
X128170000Y-88952000D01*
X147450000Y-96762000D02*
X126870000Y-96762000D01*
X126870000Y-96762000D02*
X126870000Y-87642000D01*
X116404000Y-87194000D02*
X122864000Y-87194000D01*
X116404000Y-87224000D02*
X116404000Y-87194000D01*
X116404000Y-89124000D02*
X116404000Y-91724000D01*
X116404000Y-93654000D02*
X116404000Y-93624000D01*
X116404000Y-93654000D02*
X122864000Y-93654000D01*
X122864000Y-87194000D02*
X122864000Y-87224000D01*
X122864000Y-89124000D02*
X122864000Y-91724000D01*
X122864000Y-93654000D02*
X122864000Y-93624000D01*
X148095705Y-99433705D02*
X147975705Y-99433705D01*
X147975705Y-99433705D02*
X147975705Y-102093705D01*
X150635705Y-100763705D02*
X150635705Y-102093705D01*
X150635705Y-102093705D02*
X149305705Y-102093705D01*
X148095705Y-102093705D02*
X147975705Y-102093705D01*
X160849000Y-140035000D02*
X160849000Y-143485000D01*
X160849000Y-140035000D02*
X160849000Y-138085000D01*
X165969000Y-140035000D02*
X165969000Y-141985000D01*
X165969000Y-140035000D02*
X165969000Y-138085000D01*
X188702064Y-102843000D02*
X188247936Y-102843000D01*
X188702064Y-101373000D02*
X188247936Y-101373000D01*
X174173000Y-95078000D02*
X176093000Y-95078000D01*
X176093000Y-95078000D02*
X176093000Y-92218000D01*
X174173000Y-92218000D02*
X174173000Y-95078000D01*
X127888000Y-144568000D02*
X128288000Y-144568000D01*
X127888000Y-147018000D02*
X127888000Y-144568000D01*
X127888000Y-157268000D02*
X127888000Y-153718000D01*
X128288000Y-142568000D02*
X131288000Y-142568000D01*
X128288000Y-144568000D02*
X128288000Y-142568000D01*
X131298000Y-138928000D02*
X133038000Y-138928000D01*
X131298000Y-140668000D02*
X131298000Y-138928000D01*
X135088000Y-142568000D02*
X136688000Y-142568000D01*
X136688000Y-142568000D02*
X136688000Y-144568000D01*
X136688000Y-144568000D02*
X137088000Y-144568000D01*
X137088000Y-144568000D02*
X137088000Y-147018000D01*
X137088000Y-153718000D02*
X137088000Y-157268000D01*
X137088000Y-157268000D02*
X127888000Y-157268000D01*
X175868000Y-89180936D02*
X175868000Y-89635064D01*
X174398000Y-89180936D02*
X174398000Y-89635064D01*
X151705705Y-99433705D02*
X151585705Y-99433705D01*
X151585705Y-99433705D02*
X151585705Y-102093705D01*
X154245705Y-100763705D02*
X154245705Y-102093705D01*
X154245705Y-102093705D02*
X152915705Y-102093705D01*
X151705705Y-102093705D02*
X151585705Y-102093705D01*
X194900000Y-103068000D02*
X194900000Y-101148000D01*
X194900000Y-101148000D02*
X192040000Y-101148000D01*
X192040000Y-103068000D02*
X194900000Y-103068000D01*
X194900000Y-100782000D02*
X194900000Y-98862000D01*
X194900000Y-98862000D02*
X192040000Y-98862000D01*
X192040000Y-100782000D02*
X194900000Y-100782000D01*
X179316748Y-95023000D02*
X179839252Y-95023000D01*
X179316748Y-96493000D02*
X179839252Y-96493000D01*
D10*
X158223000Y-79785000D02*
X171723000Y-79785000D01*
X158223000Y-98285000D02*
X158223000Y-79785000D01*
X171723000Y-79785000D02*
X171723000Y-98285000D01*
X171723000Y-98285000D02*
X158223000Y-98285000D01*
D11*
X157277272Y-143695000D02*
X155877272Y-143695000D01*
X156577272Y-144395000D02*
X156577272Y-142995000D01*
X149657729Y-146780000D02*
X149657729Y-132620000D01*
X149617729Y-146780000D02*
X149617729Y-132620000D01*
X149577729Y-146780000D02*
X149577729Y-132620000D01*
X149537729Y-146779000D02*
X149537729Y-132621000D01*
X149497729Y-146779000D02*
X149497729Y-132621000D01*
X149457729Y-146778000D02*
X149457729Y-132622000D01*
X149417729Y-146776000D02*
X149417729Y-132624000D01*
X149377729Y-146775000D02*
X149377729Y-132625000D01*
X149337729Y-146773000D02*
X149337729Y-132627000D01*
X149297729Y-146771000D02*
X149297729Y-132629000D01*
X149257729Y-146769000D02*
X149257729Y-132631000D01*
X149217729Y-146767000D02*
X149217729Y-132633000D01*
X149177729Y-146764000D02*
X149177729Y-132636000D01*
X149137729Y-146761000D02*
X149137729Y-132639000D01*
X149097729Y-146758000D02*
X149097729Y-132642000D01*
X149057729Y-146755000D02*
X149057729Y-132645000D01*
X149017729Y-146752000D02*
X149017729Y-132648000D01*
X148977729Y-146748000D02*
X148977729Y-132652000D01*
X148936729Y-146744000D02*
X148936729Y-132656000D01*
X148896729Y-146740000D02*
X148896729Y-132660000D01*
X148856729Y-146735000D02*
X148856729Y-132665000D01*
X148816729Y-146731000D02*
X148816729Y-132669000D01*
X148776729Y-146726000D02*
X148776729Y-132674000D01*
X148736729Y-146721000D02*
X148736729Y-132679000D01*
X148696729Y-146715000D02*
X148696729Y-132685000D01*
X148656729Y-146710000D02*
X148656729Y-132690000D01*
X148616729Y-146704000D02*
X148616729Y-132696000D01*
X148576729Y-146698000D02*
X148576729Y-141140000D01*
X148576729Y-138260000D02*
X148576729Y-132702000D01*
X148536729Y-146692000D02*
X148536729Y-141140000D01*
X148536729Y-138260000D02*
X148536729Y-132708000D01*
X148496729Y-146685000D02*
X148496729Y-141140000D01*
X148496729Y-138260000D02*
X148496729Y-132715000D01*
X148456729Y-146679000D02*
X148456729Y-141140000D01*
X148456729Y-138260000D02*
X148456729Y-132721000D01*
X148416729Y-146672000D02*
X148416729Y-141140000D01*
X148416729Y-138260000D02*
X148416729Y-132728000D01*
X148376729Y-146664000D02*
X148376729Y-141140000D01*
X148376729Y-138260000D02*
X148376729Y-132736000D01*
X148336729Y-146657000D02*
X148336729Y-141140000D01*
X148336729Y-138260000D02*
X148336729Y-132743000D01*
X148296729Y-146649000D02*
X148296729Y-141140000D01*
X148296729Y-138260000D02*
X148296729Y-132751000D01*
X148256729Y-146642000D02*
X148256729Y-141140000D01*
X148256729Y-138260000D02*
X148256729Y-132758000D01*
X148216729Y-146633000D02*
X148216729Y-141140000D01*
X148216729Y-138260000D02*
X148216729Y-132767000D01*
X148176729Y-146625000D02*
X148176729Y-141140000D01*
X148176729Y-138260000D02*
X148176729Y-132775000D01*
X148136729Y-146616000D02*
X148136729Y-141140000D01*
X148136729Y-138260000D02*
X148136729Y-132784000D01*
X148096729Y-146607000D02*
X148096729Y-141140000D01*
X148096729Y-138260000D02*
X148096729Y-132793000D01*
X148056729Y-146598000D02*
X148056729Y-141140000D01*
X148056729Y-138260000D02*
X148056729Y-132802000D01*
X148016729Y-146589000D02*
X148016729Y-141140000D01*
X148016729Y-138260000D02*
X148016729Y-132811000D01*
X147976729Y-146579000D02*
X147976729Y-141140000D01*
X147976729Y-138260000D02*
X147976729Y-132821000D01*
X147936729Y-146570000D02*
X147936729Y-141140000D01*
X147936729Y-138260000D02*
X147936729Y-132830000D01*
X147896729Y-146560000D02*
X147896729Y-141140000D01*
X147896729Y-138260000D02*
X147896729Y-132840000D01*
X147856729Y-146549000D02*
X147856729Y-141140000D01*
X147856729Y-138260000D02*
X147856729Y-132851000D01*
X147816729Y-146539000D02*
X147816729Y-141140000D01*
X147816729Y-138260000D02*
X147816729Y-132861000D01*
X147776729Y-146528000D02*
X147776729Y-141140000D01*
X147776729Y-138260000D02*
X147776729Y-132872000D01*
X147736729Y-146517000D02*
X147736729Y-141140000D01*
X147736729Y-138260000D02*
X147736729Y-132883000D01*
X147696729Y-146505000D02*
X147696729Y-141140000D01*
X147696729Y-138260000D02*
X147696729Y-132895000D01*
X147656729Y-146494000D02*
X147656729Y-141140000D01*
X147656729Y-138260000D02*
X147656729Y-132906000D01*
X147616729Y-146482000D02*
X147616729Y-141140000D01*
X147616729Y-138260000D02*
X147616729Y-132918000D01*
X147576729Y-146470000D02*
X147576729Y-141140000D01*
X147576729Y-138260000D02*
X147576729Y-132930000D01*
X147536729Y-146458000D02*
X147536729Y-141140000D01*
X147536729Y-138260000D02*
X147536729Y-132942000D01*
X147496729Y-146445000D02*
X147496729Y-141140000D01*
X147496729Y-138260000D02*
X147496729Y-132955000D01*
X147456729Y-146432000D02*
X147456729Y-141140000D01*
X147456729Y-138260000D02*
X147456729Y-132968000D01*
X147416729Y-146419000D02*
X147416729Y-141140000D01*
X147416729Y-138260000D02*
X147416729Y-132981000D01*
X147376729Y-146406000D02*
X147376729Y-141140000D01*
X147376729Y-138260000D02*
X147376729Y-132994000D01*
X147336729Y-146392000D02*
X147336729Y-141140000D01*
X147336729Y-138260000D02*
X147336729Y-133008000D01*
X147296729Y-146378000D02*
X147296729Y-141140000D01*
X147296729Y-138260000D02*
X147296729Y-133022000D01*
X147256729Y-146364000D02*
X147256729Y-141140000D01*
X147256729Y-138260000D02*
X147256729Y-133036000D01*
X147216729Y-146349000D02*
X147216729Y-141140000D01*
X147216729Y-138260000D02*
X147216729Y-133051000D01*
X147176729Y-146335000D02*
X147176729Y-141140000D01*
X147176729Y-138260000D02*
X147176729Y-133065000D01*
X147136729Y-146320000D02*
X147136729Y-141140000D01*
X147136729Y-138260000D02*
X147136729Y-133080000D01*
X147096729Y-146304000D02*
X147096729Y-141140000D01*
X147096729Y-138260000D02*
X147096729Y-133096000D01*
X147056729Y-146289000D02*
X147056729Y-141140000D01*
X147056729Y-138260000D02*
X147056729Y-133111000D01*
X147016729Y-146273000D02*
X147016729Y-141140000D01*
X147016729Y-138260000D02*
X147016729Y-133127000D01*
X146976729Y-146257000D02*
X146976729Y-141140000D01*
X146976729Y-138260000D02*
X146976729Y-133143000D01*
X146936729Y-146240000D02*
X146936729Y-141140000D01*
X146936729Y-138260000D02*
X146936729Y-133160000D01*
X146896729Y-146224000D02*
X146896729Y-141140000D01*
X146896729Y-138260000D02*
X146896729Y-133176000D01*
X146856729Y-146207000D02*
X146856729Y-141140000D01*
X146856729Y-138260000D02*
X146856729Y-133193000D01*
X146816729Y-146190000D02*
X146816729Y-141140000D01*
X146816729Y-138260000D02*
X146816729Y-133210000D01*
X146776729Y-146172000D02*
X146776729Y-141140000D01*
X146776729Y-138260000D02*
X146776729Y-133228000D01*
X146736729Y-146154000D02*
X146736729Y-141140000D01*
X146736729Y-138260000D02*
X146736729Y-133246000D01*
X146696729Y-146136000D02*
X146696729Y-141140000D01*
X146696729Y-138260000D02*
X146696729Y-133264000D01*
X146656729Y-146118000D02*
X146656729Y-141140000D01*
X146656729Y-138260000D02*
X146656729Y-133282000D01*
X146616729Y-146099000D02*
X146616729Y-141140000D01*
X146616729Y-138260000D02*
X146616729Y-133301000D01*
X146576729Y-146080000D02*
X146576729Y-141140000D01*
X146576729Y-138260000D02*
X146576729Y-133320000D01*
X146536729Y-146060000D02*
X146536729Y-141140000D01*
X146536729Y-138260000D02*
X146536729Y-133340000D01*
X146496729Y-146041000D02*
X146496729Y-141140000D01*
X146496729Y-138260000D02*
X146496729Y-133359000D01*
X146456729Y-146021000D02*
X146456729Y-141140000D01*
X146456729Y-138260000D02*
X146456729Y-133379000D01*
X146416729Y-146001000D02*
X146416729Y-141140000D01*
X146416729Y-138260000D02*
X146416729Y-133399000D01*
X146376729Y-145980000D02*
X146376729Y-141140000D01*
X146376729Y-138260000D02*
X146376729Y-133420000D01*
X146336729Y-145959000D02*
X146336729Y-141140000D01*
X146336729Y-138260000D02*
X146336729Y-133441000D01*
X146296729Y-145938000D02*
X146296729Y-141140000D01*
X146296729Y-138260000D02*
X146296729Y-133462000D01*
X146256729Y-145916000D02*
X146256729Y-141140000D01*
X146256729Y-138260000D02*
X146256729Y-133484000D01*
X146216729Y-145894000D02*
X146216729Y-141140000D01*
X146216729Y-138260000D02*
X146216729Y-133506000D01*
X146176729Y-145872000D02*
X146176729Y-141140000D01*
X146176729Y-138260000D02*
X146176729Y-133528000D01*
X146136729Y-145850000D02*
X146136729Y-141140000D01*
X146136729Y-138260000D02*
X146136729Y-133550000D01*
X146096729Y-145827000D02*
X146096729Y-141140000D01*
X146096729Y-138260000D02*
X146096729Y-133573000D01*
X146056729Y-145803000D02*
X146056729Y-141140000D01*
X146056729Y-138260000D02*
X146056729Y-133597000D01*
X146016729Y-145780000D02*
X146016729Y-141140000D01*
X146016729Y-138260000D02*
X146016729Y-133620000D01*
X145976729Y-145756000D02*
X145976729Y-141140000D01*
X145976729Y-138260000D02*
X145976729Y-133644000D01*
X145936729Y-145731000D02*
X145936729Y-141140000D01*
X145936729Y-138260000D02*
X145936729Y-133669000D01*
X145896729Y-145707000D02*
X145896729Y-141140000D01*
X145896729Y-138260000D02*
X145896729Y-133693000D01*
X145856729Y-145682000D02*
X145856729Y-141140000D01*
X145856729Y-138260000D02*
X145856729Y-133718000D01*
X145816729Y-145656000D02*
X145816729Y-141140000D01*
X145816729Y-138260000D02*
X145816729Y-133744000D01*
X145776729Y-145630000D02*
X145776729Y-141140000D01*
X145776729Y-138260000D02*
X145776729Y-133770000D01*
X145736729Y-145604000D02*
X145736729Y-141140000D01*
X145736729Y-138260000D02*
X145736729Y-133796000D01*
X145696729Y-145578000D02*
X145696729Y-133822000D01*
X145656729Y-145551000D02*
X145656729Y-133849000D01*
X145616729Y-145523000D02*
X145616729Y-133877000D01*
X145576729Y-145496000D02*
X145576729Y-133904000D01*
X145536729Y-145467000D02*
X145536729Y-133933000D01*
X145496729Y-145439000D02*
X145496729Y-133961000D01*
X145456729Y-145410000D02*
X145456729Y-133990000D01*
X145416729Y-145380000D02*
X145416729Y-134020000D01*
X145376729Y-145350000D02*
X145376729Y-134050000D01*
X145336729Y-145320000D02*
X145336729Y-134080000D01*
X145296729Y-145289000D02*
X145296729Y-134111000D01*
X145256729Y-145258000D02*
X145256729Y-134142000D01*
X145216729Y-145227000D02*
X145216729Y-134173000D01*
X145176729Y-145194000D02*
X145176729Y-134206000D01*
X145136729Y-145162000D02*
X145136729Y-134238000D01*
X145096729Y-145129000D02*
X145096729Y-134271000D01*
X145056729Y-145095000D02*
X145056729Y-134305000D01*
X145016729Y-145061000D02*
X145016729Y-134339000D01*
X144976729Y-145026000D02*
X144976729Y-134374000D01*
X144936729Y-144991000D02*
X144936729Y-134409000D01*
X144896729Y-144955000D02*
X144896729Y-134445000D01*
X144856729Y-144919000D02*
X144856729Y-134481000D01*
X144816729Y-144882000D02*
X144816729Y-134518000D01*
X144776729Y-144845000D02*
X144776729Y-134555000D01*
X144736729Y-144807000D02*
X144736729Y-134593000D01*
X144696729Y-144769000D02*
X144696729Y-134631000D01*
X144656729Y-144729000D02*
X144656729Y-134671000D01*
X144616729Y-144690000D02*
X144616729Y-134710000D01*
X144576729Y-144649000D02*
X144576729Y-134751000D01*
X144536729Y-144608000D02*
X144536729Y-134792000D01*
X144496729Y-144566000D02*
X144496729Y-134834000D01*
X144456729Y-144524000D02*
X144456729Y-134876000D01*
X144416729Y-144481000D02*
X144416729Y-134919000D01*
X144376729Y-144437000D02*
X144376729Y-134963000D01*
X144336729Y-144393000D02*
X144336729Y-135007000D01*
X144296729Y-144347000D02*
X144296729Y-135053000D01*
X144256729Y-144301000D02*
X144256729Y-135099000D01*
X144216729Y-144254000D02*
X144216729Y-135146000D01*
X144176729Y-144206000D02*
X144176729Y-135194000D01*
X144136729Y-144158000D02*
X144136729Y-135242000D01*
X144096729Y-144108000D02*
X144096729Y-135292000D01*
X144056729Y-144058000D02*
X144056729Y-135342000D01*
X144016729Y-144006000D02*
X144016729Y-135394000D01*
X143976729Y-143954000D02*
X143976729Y-135446000D01*
X143936729Y-143900000D02*
X143936729Y-135500000D01*
X143896729Y-143846000D02*
X143896729Y-135554000D01*
X143856729Y-143790000D02*
X143856729Y-135610000D01*
X143816729Y-143733000D02*
X143816729Y-135667000D01*
X143776729Y-143675000D02*
X143776729Y-135725000D01*
X143736729Y-143616000D02*
X143736729Y-135784000D01*
X143696729Y-143556000D02*
X143696729Y-135844000D01*
X143656729Y-143494000D02*
X143656729Y-135906000D01*
X143616729Y-143430000D02*
X143616729Y-135970000D01*
X143576729Y-143366000D02*
X143576729Y-136034000D01*
X143536729Y-143299000D02*
X143536729Y-136101000D01*
X143496729Y-143231000D02*
X143496729Y-136169000D01*
X143456729Y-143161000D02*
X143456729Y-136239000D01*
X143416729Y-143089000D02*
X143416729Y-136311000D01*
X143376729Y-143015000D02*
X143376729Y-136385000D01*
X143336729Y-142940000D02*
X143336729Y-136460000D01*
X143296729Y-142861000D02*
X143296729Y-136539000D01*
X143256729Y-142780000D02*
X143256729Y-136620000D01*
X143216729Y-142697000D02*
X143216729Y-136703000D01*
X143176729Y-142611000D02*
X143176729Y-136789000D01*
X143136729Y-142521000D02*
X143136729Y-136879000D01*
X143096729Y-142428000D02*
X143096729Y-136972000D01*
X143056729Y-142332000D02*
X143056729Y-137068000D01*
X143016729Y-142230000D02*
X143016729Y-137170000D01*
X142976729Y-142125000D02*
X142976729Y-137275000D01*
X142936729Y-142013000D02*
X142936729Y-137387000D01*
X142896729Y-141896000D02*
X142896729Y-137504000D01*
X142856729Y-141771000D02*
X142856729Y-137629000D01*
X142816729Y-141638000D02*
X142816729Y-137762000D01*
X142776729Y-141494000D02*
X142776729Y-137906000D01*
X142736729Y-141336000D02*
X142736729Y-138064000D01*
X142696729Y-141161000D02*
X142696729Y-138239000D01*
X142656729Y-140962000D02*
X142656729Y-138438000D01*
X142616729Y-140725000D02*
X142616729Y-138675000D01*
X142576729Y-140414000D02*
X142576729Y-138986000D01*
X156777729Y-139700000D02*
G75*
G03*
X142537729Y-139700000I-7120000J0D01*
G01*
X142537729Y-139700000D02*
G75*
G03*
X156777729Y-139700000I7120000J0D01*
G01*
D12*
X154112000Y-111115705D02*
X154112000Y-111702205D01*
X154112000Y-111115705D02*
X159832000Y-111115705D01*
X154112000Y-122415705D02*
X154112000Y-121829205D01*
X159832000Y-111115705D02*
X159832000Y-111702205D01*
X159832000Y-122415705D02*
X154112000Y-122415705D01*
X159832000Y-122415705D02*
X159832000Y-121829205D01*
D13*
X152132000Y-112320705D02*
G75*
G03*
X151932000Y-112320705I-100000J0D01*
G01*
X151932000Y-112320705D02*
G75*
G03*
X152132000Y-112320705I100000J0D01*
G01*
D11*
X190812000Y-142200457D02*
X190812000Y-143600457D01*
X191512000Y-142900457D02*
X190112000Y-142900457D01*
X193897000Y-149820000D02*
X179737000Y-149820000D01*
X193897000Y-149860000D02*
X179737000Y-149860000D01*
X193897000Y-149900000D02*
X179737000Y-149900000D01*
X193896000Y-149940000D02*
X179738000Y-149940000D01*
X193896000Y-149980000D02*
X179738000Y-149980000D01*
X193895000Y-150020000D02*
X179739000Y-150020000D01*
X193893000Y-150060000D02*
X179741000Y-150060000D01*
X193892000Y-150100000D02*
X179742000Y-150100000D01*
X193890000Y-150140000D02*
X179744000Y-150140000D01*
X193888000Y-150180000D02*
X179746000Y-150180000D01*
X193886000Y-150220000D02*
X179748000Y-150220000D01*
X193884000Y-150260000D02*
X179750000Y-150260000D01*
X193881000Y-150300000D02*
X179753000Y-150300000D01*
X193878000Y-150340000D02*
X179756000Y-150340000D01*
X193875000Y-150380000D02*
X179759000Y-150380000D01*
X193872000Y-150420000D02*
X179762000Y-150420000D01*
X193869000Y-150460000D02*
X179765000Y-150460000D01*
X193865000Y-150500000D02*
X179769000Y-150500000D01*
X193861000Y-150541000D02*
X179773000Y-150541000D01*
X193857000Y-150581000D02*
X179777000Y-150581000D01*
X193852000Y-150621000D02*
X179782000Y-150621000D01*
X193848000Y-150661000D02*
X179786000Y-150661000D01*
X193843000Y-150701000D02*
X179791000Y-150701000D01*
X193838000Y-150741000D02*
X179796000Y-150741000D01*
X193832000Y-150781000D02*
X179802000Y-150781000D01*
X193827000Y-150821000D02*
X179807000Y-150821000D01*
X193821000Y-150861000D02*
X179813000Y-150861000D01*
X193815000Y-150901000D02*
X188257000Y-150901000D01*
X185377000Y-150901000D02*
X179819000Y-150901000D01*
X193809000Y-150941000D02*
X188257000Y-150941000D01*
X185377000Y-150941000D02*
X179825000Y-150941000D01*
X193802000Y-150981000D02*
X188257000Y-150981000D01*
X185377000Y-150981000D02*
X179832000Y-150981000D01*
X193796000Y-151021000D02*
X188257000Y-151021000D01*
X185377000Y-151021000D02*
X179838000Y-151021000D01*
X193789000Y-151061000D02*
X188257000Y-151061000D01*
X185377000Y-151061000D02*
X179845000Y-151061000D01*
X193781000Y-151101000D02*
X188257000Y-151101000D01*
X185377000Y-151101000D02*
X179853000Y-151101000D01*
X193774000Y-151141000D02*
X188257000Y-151141000D01*
X185377000Y-151141000D02*
X179860000Y-151141000D01*
X193766000Y-151181000D02*
X188257000Y-151181000D01*
X185377000Y-151181000D02*
X179868000Y-151181000D01*
X193759000Y-151221000D02*
X188257000Y-151221000D01*
X185377000Y-151221000D02*
X179875000Y-151221000D01*
X193750000Y-151261000D02*
X188257000Y-151261000D01*
X185377000Y-151261000D02*
X179884000Y-151261000D01*
X193742000Y-151301000D02*
X188257000Y-151301000D01*
X185377000Y-151301000D02*
X179892000Y-151301000D01*
X193733000Y-151341000D02*
X188257000Y-151341000D01*
X185377000Y-151341000D02*
X179901000Y-151341000D01*
X193724000Y-151381000D02*
X188257000Y-151381000D01*
X185377000Y-151381000D02*
X179910000Y-151381000D01*
X193715000Y-151421000D02*
X188257000Y-151421000D01*
X185377000Y-151421000D02*
X179919000Y-151421000D01*
X193706000Y-151461000D02*
X188257000Y-151461000D01*
X185377000Y-151461000D02*
X179928000Y-151461000D01*
X193696000Y-151501000D02*
X188257000Y-151501000D01*
X185377000Y-151501000D02*
X179938000Y-151501000D01*
X193687000Y-151541000D02*
X188257000Y-151541000D01*
X185377000Y-151541000D02*
X179947000Y-151541000D01*
X193677000Y-151581000D02*
X188257000Y-151581000D01*
X185377000Y-151581000D02*
X179957000Y-151581000D01*
X193666000Y-151621000D02*
X188257000Y-151621000D01*
X185377000Y-151621000D02*
X179968000Y-151621000D01*
X193656000Y-151661000D02*
X188257000Y-151661000D01*
X185377000Y-151661000D02*
X179978000Y-151661000D01*
X193645000Y-151701000D02*
X188257000Y-151701000D01*
X185377000Y-151701000D02*
X179989000Y-151701000D01*
X193634000Y-151741000D02*
X188257000Y-151741000D01*
X185377000Y-151741000D02*
X180000000Y-151741000D01*
X193622000Y-151781000D02*
X188257000Y-151781000D01*
X185377000Y-151781000D02*
X180012000Y-151781000D01*
X193611000Y-151821000D02*
X188257000Y-151821000D01*
X185377000Y-151821000D02*
X180023000Y-151821000D01*
X193599000Y-151861000D02*
X188257000Y-151861000D01*
X185377000Y-151861000D02*
X180035000Y-151861000D01*
X193587000Y-151901000D02*
X188257000Y-151901000D01*
X185377000Y-151901000D02*
X180047000Y-151901000D01*
X193575000Y-151941000D02*
X188257000Y-151941000D01*
X185377000Y-151941000D02*
X180059000Y-151941000D01*
X193562000Y-151981000D02*
X188257000Y-151981000D01*
X185377000Y-151981000D02*
X180072000Y-151981000D01*
X193549000Y-152021000D02*
X188257000Y-152021000D01*
X185377000Y-152021000D02*
X180085000Y-152021000D01*
X193536000Y-152061000D02*
X188257000Y-152061000D01*
X185377000Y-152061000D02*
X180098000Y-152061000D01*
X193523000Y-152101000D02*
X188257000Y-152101000D01*
X185377000Y-152101000D02*
X180111000Y-152101000D01*
X193509000Y-152141000D02*
X188257000Y-152141000D01*
X185377000Y-152141000D02*
X180125000Y-152141000D01*
X193495000Y-152181000D02*
X188257000Y-152181000D01*
X185377000Y-152181000D02*
X180139000Y-152181000D01*
X193481000Y-152221000D02*
X188257000Y-152221000D01*
X185377000Y-152221000D02*
X180153000Y-152221000D01*
X193466000Y-152261000D02*
X188257000Y-152261000D01*
X185377000Y-152261000D02*
X180168000Y-152261000D01*
X193452000Y-152301000D02*
X188257000Y-152301000D01*
X185377000Y-152301000D02*
X180182000Y-152301000D01*
X193437000Y-152341000D02*
X188257000Y-152341000D01*
X185377000Y-152341000D02*
X180197000Y-152341000D01*
X193421000Y-152381000D02*
X188257000Y-152381000D01*
X185377000Y-152381000D02*
X180213000Y-152381000D01*
X193406000Y-152421000D02*
X188257000Y-152421000D01*
X185377000Y-152421000D02*
X180228000Y-152421000D01*
X193390000Y-152461000D02*
X188257000Y-152461000D01*
X185377000Y-152461000D02*
X180244000Y-152461000D01*
X193374000Y-152501000D02*
X188257000Y-152501000D01*
X185377000Y-152501000D02*
X180260000Y-152501000D01*
X193357000Y-152541000D02*
X188257000Y-152541000D01*
X185377000Y-152541000D02*
X180277000Y-152541000D01*
X193341000Y-152581000D02*
X188257000Y-152581000D01*
X185377000Y-152581000D02*
X180293000Y-152581000D01*
X193324000Y-152621000D02*
X188257000Y-152621000D01*
X185377000Y-152621000D02*
X180310000Y-152621000D01*
X193307000Y-152661000D02*
X188257000Y-152661000D01*
X185377000Y-152661000D02*
X180327000Y-152661000D01*
X193289000Y-152701000D02*
X188257000Y-152701000D01*
X185377000Y-152701000D02*
X180345000Y-152701000D01*
X193271000Y-152741000D02*
X188257000Y-152741000D01*
X185377000Y-152741000D02*
X180363000Y-152741000D01*
X193253000Y-152781000D02*
X188257000Y-152781000D01*
X185377000Y-152781000D02*
X180381000Y-152781000D01*
X193235000Y-152821000D02*
X188257000Y-152821000D01*
X185377000Y-152821000D02*
X180399000Y-152821000D01*
X193216000Y-152861000D02*
X188257000Y-152861000D01*
X185377000Y-152861000D02*
X180418000Y-152861000D01*
X193197000Y-152901000D02*
X188257000Y-152901000D01*
X185377000Y-152901000D02*
X180437000Y-152901000D01*
X193177000Y-152941000D02*
X188257000Y-152941000D01*
X185377000Y-152941000D02*
X180457000Y-152941000D01*
X193158000Y-152981000D02*
X188257000Y-152981000D01*
X185377000Y-152981000D02*
X180476000Y-152981000D01*
X193138000Y-153021000D02*
X188257000Y-153021000D01*
X185377000Y-153021000D02*
X180496000Y-153021000D01*
X193118000Y-153061000D02*
X188257000Y-153061000D01*
X185377000Y-153061000D02*
X180516000Y-153061000D01*
X193097000Y-153101000D02*
X188257000Y-153101000D01*
X185377000Y-153101000D02*
X180537000Y-153101000D01*
X193076000Y-153141000D02*
X188257000Y-153141000D01*
X185377000Y-153141000D02*
X180558000Y-153141000D01*
X193055000Y-153181000D02*
X188257000Y-153181000D01*
X185377000Y-153181000D02*
X180579000Y-153181000D01*
X193033000Y-153221000D02*
X188257000Y-153221000D01*
X185377000Y-153221000D02*
X180601000Y-153221000D01*
X193011000Y-153261000D02*
X188257000Y-153261000D01*
X185377000Y-153261000D02*
X180623000Y-153261000D01*
X192989000Y-153301000D02*
X188257000Y-153301000D01*
X185377000Y-153301000D02*
X180645000Y-153301000D01*
X192967000Y-153341000D02*
X188257000Y-153341000D01*
X185377000Y-153341000D02*
X180667000Y-153341000D01*
X192944000Y-153381000D02*
X188257000Y-153381000D01*
X185377000Y-153381000D02*
X180690000Y-153381000D01*
X192920000Y-153421000D02*
X188257000Y-153421000D01*
X185377000Y-153421000D02*
X180714000Y-153421000D01*
X192897000Y-153461000D02*
X188257000Y-153461000D01*
X185377000Y-153461000D02*
X180737000Y-153461000D01*
X192873000Y-153501000D02*
X188257000Y-153501000D01*
X185377000Y-153501000D02*
X180761000Y-153501000D01*
X192848000Y-153541000D02*
X188257000Y-153541000D01*
X185377000Y-153541000D02*
X180786000Y-153541000D01*
X192824000Y-153581000D02*
X188257000Y-153581000D01*
X185377000Y-153581000D02*
X180810000Y-153581000D01*
X192799000Y-153621000D02*
X188257000Y-153621000D01*
X185377000Y-153621000D02*
X180835000Y-153621000D01*
X192773000Y-153661000D02*
X188257000Y-153661000D01*
X185377000Y-153661000D02*
X180861000Y-153661000D01*
X192747000Y-153701000D02*
X188257000Y-153701000D01*
X185377000Y-153701000D02*
X180887000Y-153701000D01*
X192721000Y-153741000D02*
X188257000Y-153741000D01*
X185377000Y-153741000D02*
X180913000Y-153741000D01*
X192695000Y-153781000D02*
X180939000Y-153781000D01*
X192668000Y-153821000D02*
X180966000Y-153821000D01*
X192640000Y-153861000D02*
X180994000Y-153861000D01*
X192613000Y-153901000D02*
X181021000Y-153901000D01*
X192584000Y-153941000D02*
X181050000Y-153941000D01*
X192556000Y-153981000D02*
X181078000Y-153981000D01*
X192527000Y-154021000D02*
X181107000Y-154021000D01*
X192497000Y-154061000D02*
X181137000Y-154061000D01*
X192467000Y-154101000D02*
X181167000Y-154101000D01*
X192437000Y-154141000D02*
X181197000Y-154141000D01*
X192406000Y-154181000D02*
X181228000Y-154181000D01*
X192375000Y-154221000D02*
X181259000Y-154221000D01*
X192344000Y-154261000D02*
X181290000Y-154261000D01*
X192311000Y-154301000D02*
X181323000Y-154301000D01*
X192279000Y-154341000D02*
X181355000Y-154341000D01*
X192246000Y-154381000D02*
X181388000Y-154381000D01*
X192212000Y-154421000D02*
X181422000Y-154421000D01*
X192178000Y-154461000D02*
X181456000Y-154461000D01*
X192143000Y-154501000D02*
X181491000Y-154501000D01*
X192108000Y-154541000D02*
X181526000Y-154541000D01*
X192072000Y-154581000D02*
X181562000Y-154581000D01*
X192036000Y-154621000D02*
X181598000Y-154621000D01*
X191999000Y-154661000D02*
X181635000Y-154661000D01*
X191962000Y-154701000D02*
X181672000Y-154701000D01*
X191924000Y-154741000D02*
X181710000Y-154741000D01*
X191886000Y-154781000D02*
X181748000Y-154781000D01*
X191846000Y-154821000D02*
X181788000Y-154821000D01*
X191807000Y-154861000D02*
X181827000Y-154861000D01*
X191766000Y-154901000D02*
X181868000Y-154901000D01*
X191725000Y-154941000D02*
X181909000Y-154941000D01*
X191683000Y-154981000D02*
X181951000Y-154981000D01*
X191641000Y-155021000D02*
X181993000Y-155021000D01*
X191598000Y-155061000D02*
X182036000Y-155061000D01*
X191554000Y-155101000D02*
X182080000Y-155101000D01*
X191510000Y-155141000D02*
X182124000Y-155141000D01*
X191464000Y-155181000D02*
X182170000Y-155181000D01*
X191418000Y-155221000D02*
X182216000Y-155221000D01*
X191371000Y-155261000D02*
X182263000Y-155261000D01*
X191323000Y-155301000D02*
X182311000Y-155301000D01*
X191275000Y-155341000D02*
X182359000Y-155341000D01*
X191225000Y-155381000D02*
X182409000Y-155381000D01*
X191175000Y-155421000D02*
X182459000Y-155421000D01*
X191123000Y-155461000D02*
X182511000Y-155461000D01*
X191071000Y-155501000D02*
X182563000Y-155501000D01*
X191017000Y-155541000D02*
X182617000Y-155541000D01*
X190963000Y-155581000D02*
X182671000Y-155581000D01*
X190907000Y-155621000D02*
X182727000Y-155621000D01*
X190850000Y-155661000D02*
X182784000Y-155661000D01*
X190792000Y-155701000D02*
X182842000Y-155701000D01*
X190733000Y-155741000D02*
X182901000Y-155741000D01*
X190673000Y-155781000D02*
X182961000Y-155781000D01*
X190611000Y-155821000D02*
X183023000Y-155821000D01*
X190547000Y-155861000D02*
X183087000Y-155861000D01*
X190483000Y-155901000D02*
X183151000Y-155901000D01*
X190416000Y-155941000D02*
X183218000Y-155941000D01*
X190348000Y-155981000D02*
X183286000Y-155981000D01*
X190278000Y-156021000D02*
X183356000Y-156021000D01*
X190206000Y-156061000D02*
X183428000Y-156061000D01*
X190132000Y-156101000D02*
X183502000Y-156101000D01*
X190057000Y-156141000D02*
X183577000Y-156141000D01*
X189978000Y-156181000D02*
X183656000Y-156181000D01*
X189897000Y-156221000D02*
X183737000Y-156221000D01*
X189814000Y-156261000D02*
X183820000Y-156261000D01*
X189728000Y-156301000D02*
X183906000Y-156301000D01*
X189638000Y-156341000D02*
X183996000Y-156341000D01*
X189545000Y-156381000D02*
X184089000Y-156381000D01*
X189449000Y-156421000D02*
X184185000Y-156421000D01*
X189347000Y-156461000D02*
X184287000Y-156461000D01*
X189242000Y-156501000D02*
X184392000Y-156501000D01*
X189130000Y-156541000D02*
X184504000Y-156541000D01*
X189013000Y-156581000D02*
X184621000Y-156581000D01*
X188888000Y-156621000D02*
X184746000Y-156621000D01*
X188755000Y-156661000D02*
X184879000Y-156661000D01*
X188611000Y-156701000D02*
X185023000Y-156701000D01*
X188453000Y-156741000D02*
X185181000Y-156741000D01*
X188278000Y-156781000D02*
X185356000Y-156781000D01*
X188079000Y-156821000D02*
X185555000Y-156821000D01*
X187842000Y-156861000D02*
X185792000Y-156861000D01*
X187531000Y-156901000D02*
X186103000Y-156901000D01*
X193937000Y-149820000D02*
G75*
G03*
X179697000Y-149820000I-7120000J0D01*
G01*
X179697000Y-149820000D02*
G75*
G03*
X193937000Y-149820000I7120000J0D01*
G01*
X123055748Y-104421000D02*
X123578252Y-104421000D01*
X123055748Y-105891000D02*
X123578252Y-105891000D01*
X168462000Y-137995748D02*
X168462000Y-138518252D01*
X166992000Y-137995748D02*
X166992000Y-138518252D01*
X105383000Y-147854936D02*
X105383000Y-148309064D01*
X103913000Y-147854936D02*
X103913000Y-148309064D01*
X155317705Y-99433705D02*
X155197705Y-99433705D01*
X155197705Y-99433705D02*
X155197705Y-102093705D01*
X157857705Y-100763705D02*
X157857705Y-102093705D01*
X157857705Y-102093705D02*
X156527705Y-102093705D01*
X155317705Y-102093705D02*
X155197705Y-102093705D01*
X116952437Y-116014687D02*
X117321903Y-115645221D01*
X117956529Y-117018779D02*
X118325995Y-116649313D01*
X127125000Y-113645000D02*
X127125000Y-114595000D01*
X127125000Y-114595000D02*
X125785000Y-114595000D01*
X127125000Y-123865000D02*
X127125000Y-122915000D01*
X128075000Y-113645000D02*
X127125000Y-113645000D01*
X128075000Y-123865000D02*
X127125000Y-123865000D01*
X136395000Y-113645000D02*
X137345000Y-113645000D01*
X136395000Y-123865000D02*
X137345000Y-123865000D01*
X137345000Y-113645000D02*
X137345000Y-114595000D01*
X137345000Y-123865000D02*
X137345000Y-122915000D01*
X179316748Y-97055000D02*
X179839252Y-97055000D01*
X179316748Y-98525000D02*
X179839252Y-98525000D01*
X122769000Y-108602000D02*
X124179000Y-108602000D01*
X124179000Y-106272000D02*
X124179000Y-106942000D01*
X124179000Y-106282000D02*
X121444000Y-106282000D01*
X124179000Y-107942000D02*
X124179000Y-108602000D01*
X167119000Y-142421064D02*
X167119000Y-141966936D01*
X168589000Y-142421064D02*
X168589000Y-141966936D01*
X158923705Y-99433705D02*
X158803705Y-99433705D01*
X158803705Y-99433705D02*
X158803705Y-102093705D01*
X161463705Y-100763705D02*
X161463705Y-102093705D01*
X161463705Y-102093705D02*
X160133705Y-102093705D01*
X158923705Y-102093705D02*
X158803705Y-102093705D01*
X154532064Y-89127000D02*
X154077936Y-89127000D01*
X154532064Y-87657000D02*
X154077936Y-87657000D01*
X188247936Y-103659000D02*
X188702064Y-103659000D01*
X188247936Y-105129000D02*
X188702064Y-105129000D01*
X113530748Y-97563000D02*
X114053252Y-97563000D01*
X113530748Y-99033000D02*
X114053252Y-99033000D01*
X92020000Y-107260000D02*
X98480000Y-107260000D01*
X92020000Y-107290000D02*
X92020000Y-107260000D01*
X92020000Y-109190000D02*
X92020000Y-111790000D01*
X92020000Y-113720000D02*
X92020000Y-113690000D01*
X92020000Y-113720000D02*
X98480000Y-113720000D01*
X98480000Y-107260000D02*
X98480000Y-107290000D01*
X98480000Y-109190000D02*
X98480000Y-111790000D01*
X98480000Y-113720000D02*
X98480000Y-113690000D01*
D12*
X187005000Y-111115705D02*
X187005000Y-111702205D01*
X187005000Y-111115705D02*
X192725000Y-111115705D01*
X187005000Y-122415705D02*
X187005000Y-121829205D01*
X192725000Y-111115705D02*
X192725000Y-111702205D01*
X192725000Y-122415705D02*
X187005000Y-122415705D01*
X192725000Y-122415705D02*
X192725000Y-121829205D01*
D13*
X185025000Y-112320705D02*
G75*
G03*
X184825000Y-112320705I-100000J0D01*
G01*
X184825000Y-112320705D02*
G75*
G03*
X185025000Y-112320705I100000J0D01*
G01*
D11*
X102135000Y-121893064D02*
X102135000Y-121438936D01*
X103605000Y-121893064D02*
X103605000Y-121438936D01*
X92020000Y-122754000D02*
X98480000Y-122754000D01*
X92020000Y-122784000D02*
X92020000Y-122754000D01*
X92020000Y-124684000D02*
X92020000Y-127284000D01*
X92020000Y-129214000D02*
X92020000Y-129184000D01*
X92020000Y-129214000D02*
X98480000Y-129214000D01*
X98480000Y-122754000D02*
X98480000Y-122784000D01*
X98480000Y-124684000D02*
X98480000Y-127284000D01*
X98480000Y-129214000D02*
X98480000Y-129184000D01*
%LPC*%
D14*
X194065000Y-104394000D03*
X192015000Y-104394000D03*
D15*
X111771000Y-147382000D03*
X111771000Y-148332000D03*
X111771000Y-149282000D03*
X114046000Y-149282000D03*
X114046000Y-148332000D03*
X114046000Y-147382000D03*
D16*
X102616000Y-128238000D03*
X102616000Y-126238000D03*
D17*
X107188000Y-144780000D03*
D18*
X107188000Y-142280000D03*
D19*
X156339500Y-153458000D03*
D20*
X152379500Y-153458000D03*
X148419500Y-153458000D03*
X144459500Y-153458000D03*
D16*
X103251000Y-116062000D03*
X103251000Y-114062000D03*
D21*
X95504000Y-134874000D03*
D20*
X95504000Y-138834000D03*
X95504000Y-142794000D03*
X95504000Y-146754000D03*
X95504000Y-150714000D03*
X95504000Y-154674000D03*
D22*
X174244000Y-155321000D03*
D19*
X172744000Y-151921000D03*
D20*
X168784000Y-151921000D03*
D23*
X191404000Y-131022000D03*
X191404000Y-139822000D03*
D24*
X184404000Y-137922000D03*
X184404000Y-135422000D03*
X184404000Y-132922000D03*
D25*
X93980000Y-99584000D03*
X93980000Y-101584000D03*
D26*
X193675000Y-92583000D03*
D27*
X113051500Y-145034000D03*
X110976500Y-145034000D03*
D25*
X112776000Y-88408000D03*
X112776000Y-90408000D03*
D28*
X112754500Y-96266000D03*
X114829500Y-96266000D03*
D29*
X155178000Y-91440000D03*
X153178000Y-91440000D03*
D30*
X112776000Y-94243000D03*
X112776000Y-92193000D03*
X115062000Y-145297000D03*
X115062000Y-143247000D03*
D25*
X91694000Y-99584000D03*
X91694000Y-101584000D03*
D31*
X177385705Y-125655705D03*
X169785705Y-125655705D03*
X177385705Y-123115705D03*
X169785705Y-123115705D03*
X177385705Y-120575705D03*
X169785705Y-120575705D03*
X177385705Y-118035705D03*
X169785705Y-118035705D03*
X177385705Y-115495705D03*
X169785705Y-115495705D03*
X177385705Y-112955705D03*
X169785705Y-112955705D03*
X177385705Y-110415705D03*
X169785705Y-110415705D03*
X177385705Y-107875705D03*
X169785705Y-107875705D03*
D32*
X179408000Y-87793000D03*
X187368000Y-87793000D03*
X179408000Y-92293000D03*
X187368000Y-92293000D03*
X91270000Y-116114000D03*
X99230000Y-116114000D03*
X91270000Y-120614000D03*
X99230000Y-120614000D03*
D33*
X117348000Y-149076500D03*
X117348000Y-151151500D03*
X103251000Y-109071500D03*
X103251000Y-111146500D03*
D34*
X95617500Y-86785000D03*
X95617500Y-88285000D03*
X95617500Y-89785000D03*
X95617500Y-91285000D03*
X95617500Y-92785000D03*
D35*
X95617500Y-94225000D03*
D34*
X95617500Y-95785000D03*
X95617500Y-97285000D03*
D36*
X110122500Y-97312500D03*
D34*
X110122500Y-95785000D03*
X110122500Y-94285000D03*
X110122500Y-92785000D03*
X110122500Y-91285000D03*
X110122500Y-89785000D03*
X110122500Y-88285000D03*
X110122500Y-86785000D03*
D29*
X189475000Y-99822000D03*
X187475000Y-99822000D03*
D25*
X106934000Y-150638000D03*
X106934000Y-152638000D03*
D37*
X142240000Y-90932000D03*
D38*
X142240000Y-93472000D03*
X139700000Y-90932000D03*
X139700000Y-93472000D03*
X137160000Y-90932000D03*
X137160000Y-93472000D03*
X134620000Y-90932000D03*
X134620000Y-93472000D03*
X132080000Y-90932000D03*
X132080000Y-93472000D03*
D32*
X115654000Y-88174000D03*
X123614000Y-88174000D03*
X115654000Y-92674000D03*
X123614000Y-92674000D03*
D39*
X149305705Y-100763705D03*
D40*
X161504000Y-142510000D03*
X162774000Y-142510000D03*
X164044000Y-142510000D03*
X165314000Y-142510000D03*
X165314000Y-137560000D03*
X164044000Y-137560000D03*
X162774000Y-137560000D03*
X161504000Y-137560000D03*
D41*
X163409000Y-140035000D03*
D29*
X189475000Y-102108000D03*
X187475000Y-102108000D03*
D30*
X175133000Y-94243000D03*
X175133000Y-92193000D03*
D42*
X132488000Y-154168000D03*
D43*
X133188000Y-141368000D03*
D44*
X126038000Y-150368000D03*
X138938000Y-150368000D03*
D25*
X175133000Y-88408000D03*
X175133000Y-90408000D03*
D39*
X152915705Y-100763705D03*
D26*
X176530000Y-136525000D03*
D14*
X194065000Y-102108000D03*
X192015000Y-102108000D03*
D26*
X108839000Y-104394000D03*
D14*
X194065000Y-99822000D03*
X192015000Y-99822000D03*
D28*
X178540500Y-95758000D03*
X180615500Y-95758000D03*
D34*
X157720500Y-86785000D03*
X157720500Y-88285000D03*
X157720500Y-89785000D03*
X157720500Y-91285000D03*
X157720500Y-92785000D03*
D35*
X157720500Y-94225000D03*
D34*
X157720500Y-95785000D03*
X157720500Y-97285000D03*
D36*
X172225500Y-97312500D03*
D34*
X172225500Y-95785000D03*
X172225500Y-94285000D03*
X172225500Y-92785000D03*
X172225500Y-91285000D03*
X172225500Y-89785000D03*
X172225500Y-88285000D03*
X172225500Y-86785000D03*
D45*
X152157729Y-139700000D03*
D46*
X147157729Y-139700000D03*
D47*
X153477000Y-112320705D03*
X153477000Y-113590705D03*
X153477000Y-114860705D03*
X153477000Y-116130705D03*
X153477000Y-117400705D03*
X153477000Y-118670705D03*
X153477000Y-119940705D03*
X153477000Y-121210705D03*
D48*
X160467000Y-121210705D03*
X160467000Y-119940705D03*
X160467000Y-118670705D03*
X160467000Y-117400705D03*
X160467000Y-116130705D03*
X160467000Y-114860705D03*
X160467000Y-113590705D03*
X160467000Y-112320705D03*
D45*
X186817000Y-147320000D03*
D46*
X186817000Y-152320000D03*
D28*
X122279500Y-105156000D03*
X124354500Y-105156000D03*
D33*
X167727000Y-137219500D03*
X167727000Y-139294500D03*
D25*
X104648000Y-147082000D03*
X104648000Y-149082000D03*
D39*
X156527705Y-100763705D03*
D49*
X116914432Y-117056784D03*
X118364000Y-115607216D03*
D50*
X126560000Y-115005000D03*
X126560000Y-115505000D03*
X126560000Y-116005000D03*
X126560000Y-116505000D03*
X126560000Y-117005000D03*
X126560000Y-117505000D03*
X126560000Y-118005000D03*
X126560000Y-118505000D03*
X126560000Y-119005000D03*
X126560000Y-119505000D03*
X126560000Y-120005000D03*
X126560000Y-120505000D03*
X126560000Y-121005000D03*
X126560000Y-121505000D03*
X126560000Y-122005000D03*
X126560000Y-122505000D03*
D51*
X128485000Y-124430000D03*
X128985000Y-124430000D03*
X129485000Y-124430000D03*
X129985000Y-124430000D03*
X130485000Y-124430000D03*
X130985000Y-124430000D03*
X131485000Y-124430000D03*
X131985000Y-124430000D03*
X132485000Y-124430000D03*
X132985000Y-124430000D03*
X133485000Y-124430000D03*
X133985000Y-124430000D03*
X134485000Y-124430000D03*
X134985000Y-124430000D03*
X135485000Y-124430000D03*
X135985000Y-124430000D03*
D50*
X137910000Y-122505000D03*
X137910000Y-122005000D03*
X137910000Y-121505000D03*
X137910000Y-121005000D03*
X137910000Y-120505000D03*
X137910000Y-120005000D03*
X137910000Y-119505000D03*
X137910000Y-119005000D03*
X137910000Y-118505000D03*
X137910000Y-118005000D03*
X137910000Y-117505000D03*
X137910000Y-117005000D03*
X137910000Y-116505000D03*
X137910000Y-116005000D03*
X137910000Y-115505000D03*
X137910000Y-115005000D03*
D51*
X135985000Y-113080000D03*
X135485000Y-113080000D03*
X134985000Y-113080000D03*
X134485000Y-113080000D03*
X133985000Y-113080000D03*
X133485000Y-113080000D03*
X132985000Y-113080000D03*
X132485000Y-113080000D03*
X131985000Y-113080000D03*
X131485000Y-113080000D03*
X130985000Y-113080000D03*
X130485000Y-113080000D03*
X129985000Y-113080000D03*
X129485000Y-113080000D03*
X128985000Y-113080000D03*
X128485000Y-113080000D03*
D28*
X178540500Y-97790000D03*
X180615500Y-97790000D03*
D52*
X122114000Y-106792000D03*
X122114000Y-108092000D03*
X124774000Y-107442000D03*
D16*
X167854000Y-143194000D03*
X167854000Y-141194000D03*
D39*
X160133705Y-100763705D03*
D29*
X155305000Y-88392000D03*
X153305000Y-88392000D03*
D53*
X187475000Y-104394000D03*
X189475000Y-104394000D03*
D28*
X112754500Y-98298000D03*
X114829500Y-98298000D03*
D32*
X91270000Y-108240000D03*
X99230000Y-108240000D03*
X91270000Y-112740000D03*
X99230000Y-112740000D03*
D47*
X186370000Y-112320705D03*
X186370000Y-113590705D03*
X186370000Y-114860705D03*
X186370000Y-116130705D03*
X186370000Y-117400705D03*
X186370000Y-118670705D03*
X186370000Y-119940705D03*
X186370000Y-121210705D03*
D48*
X193360000Y-121210705D03*
X193360000Y-119940705D03*
X193360000Y-118670705D03*
X193360000Y-117400705D03*
X193360000Y-116130705D03*
X193360000Y-114860705D03*
X193360000Y-113590705D03*
X193360000Y-112320705D03*
D16*
X102870000Y-122666000D03*
X102870000Y-120666000D03*
D32*
X91270000Y-123734000D03*
X99230000Y-123734000D03*
X91270000Y-128234000D03*
X99230000Y-128234000D03*
D54*
X116840000Y-96266000D03*
X182118000Y-95758000D03*
X195716000Y-102108000D03*
X177292000Y-94234000D03*
X187368000Y-94064000D03*
X114808000Y-151892000D03*
X112776000Y-151892000D03*
X108966000Y-148844000D03*
X126011000Y-145669000D03*
X104775000Y-126238000D03*
X195716000Y-99822000D03*
X122301000Y-150241000D03*
X122936000Y-94742000D03*
X126873000Y-125730000D03*
X157480000Y-118110000D03*
X151511000Y-112268000D03*
X101346000Y-108204000D03*
X134112000Y-122936000D03*
X110998000Y-151892000D03*
X104775000Y-122682000D03*
X126011000Y-155167000D03*
X195716000Y-104394000D03*
X124333000Y-102870000D03*
X108966000Y-147574000D03*
X139954000Y-114935000D03*
X116840000Y-98298000D03*
X114808000Y-94234000D03*
X130106149Y-110421149D03*
D26*
X195453000Y-108077000D03*
D54*
X101346000Y-109601000D03*
X182118000Y-97790000D03*
X123698000Y-111252000D03*
X162927705Y-107569000D03*
X137257000Y-124430000D03*
X143637000Y-103378000D03*
X113538000Y-105918000D03*
X137257000Y-129002000D03*
X162927705Y-104648000D03*
X138176000Y-114046000D03*
X128270000Y-126746000D03*
X165481000Y-107569000D03*
X127508000Y-110490000D03*
X165467705Y-104648000D03*
X115062000Y-109347000D03*
X122301000Y-114935000D03*
X116205000Y-118999000D03*
X110236000Y-117734375D03*
X105156000Y-117729000D03*
X119380000Y-119522352D03*
X190918000Y-119940705D03*
X164592000Y-124968000D03*
X191643000Y-117400705D03*
X133159500Y-117919500D03*
X191643000Y-116130705D03*
X163703000Y-124131705D03*
X146943653Y-117860653D03*
X191643000Y-114860705D03*
X139446000Y-128397000D03*
X139446000Y-125730000D03*
X151765000Y-121284604D03*
X147701000Y-126746000D03*
X132842000Y-116205000D03*
X150876000Y-120321705D03*
X141986000Y-107823000D03*
X141986000Y-97282000D03*
X137160000Y-97282000D03*
X135890000Y-110744000D03*
X104648000Y-132842000D03*
X121279571Y-132879000D03*
X105410000Y-133604000D03*
X122174000Y-133604000D03*
X122881108Y-134329000D03*
X106172000Y-134366000D03*
X100330000Y-143256000D03*
X135509000Y-114718000D03*
X146939000Y-115316000D03*
X157607000Y-104731205D03*
X154580898Y-104753103D03*
X146939000Y-112352666D03*
X146939000Y-111294333D03*
X152908000Y-104731205D03*
X149352000Y-104731205D03*
X146939000Y-110236000D03*
X102235000Y-105664000D03*
X111403893Y-120075424D03*
X112432605Y-120065954D03*
X101402948Y-104939000D03*
X134874000Y-120777000D03*
X118872000Y-127635000D03*
X171958000Y-145796000D03*
X130485000Y-114737000D03*
X110299500Y-127698500D03*
X117094000Y-113284000D03*
X146939000Y-113919000D03*
X182118000Y-102108000D03*
X144899975Y-115435975D03*
X182118000Y-99822000D03*
X132588000Y-133604000D03*
X124714000Y-130556000D03*
X189484000Y-118670705D03*
X151130000Y-122682000D03*
X169418000Y-143764000D03*
X132334000Y-121666000D03*
X168783000Y-148463000D03*
X120713500Y-118173500D03*
X165100000Y-151921000D03*
X165314000Y-144682000D03*
%LPD*%
M02*
