G04 #@! TF.GenerationSoftware,KiCad,Pcbnew,7.0.10*
G04 #@! TF.CreationDate,2024-03-08T11:33:54-05:00*
G04 #@! TF.ProjectId,swipe-stack-glove,73776970-652d-4737-9461-636b2d676c6f,1*
G04 #@! TF.SameCoordinates,Original*
G04 #@! TF.FileFunction,Soldermask,Bot*
G04 #@! TF.FilePolarity,Negative*
%FSLAX46Y46*%
G04 Gerber Fmt 4.6, Leading zero omitted, Abs format (unit mm)*
G04 Created by KiCad (PCBNEW 7.0.10) date 2024-03-08 11:33:54*
%MOMM*%
%LPD*%
G01*
G04 APERTURE LIST*
G04 Aperture macros list*
%AMRoundRect*
0 Rectangle with rounded corners*
0 $1 Rounding radius*
0 $2 $3 $4 $5 $6 $7 $8 $9 X,Y pos of 4 corners*
0 Add a 4 corners polygon primitive as box body*
4,1,4,$2,$3,$4,$5,$6,$7,$8,$9,$2,$3,0*
0 Add four circle primitives for the rounded corners*
1,1,$1+$1,$2,$3*
1,1,$1+$1,$4,$5*
1,1,$1+$1,$6,$7*
1,1,$1+$1,$8,$9*
0 Add four rect primitives between the rounded corners*
20,1,$1+$1,$2,$3,$4,$5,0*
20,1,$1+$1,$4,$5,$6,$7,0*
20,1,$1+$1,$6,$7,$8,$9,0*
20,1,$1+$1,$8,$9,$2,$3,0*%
G04 Aperture macros list end*
%ADD10R,1.700000X1.700000*%
%ADD11C,2.500000*%
%ADD12O,1.700000X1.700000*%
%ADD13RoundRect,0.250000X-0.325000X-0.450000X0.325000X-0.450000X0.325000X0.450000X-0.325000X0.450000X0*%
%ADD14R,1.600000X1.400000*%
%ADD15RoundRect,0.250000X0.450000X-0.350000X0.450000X0.350000X-0.450000X0.350000X-0.450000X-0.350000X0*%
%ADD16RoundRect,0.250000X-0.450000X0.350000X-0.450000X-0.350000X0.450000X-0.350000X0.450000X0.350000X0*%
%ADD17RoundRect,0.250000X0.450000X-0.325000X0.450000X0.325000X-0.450000X0.325000X-0.450000X-0.325000X0*%
%ADD18RoundRect,0.250000X0.350000X0.450000X-0.350000X0.450000X-0.350000X-0.450000X0.350000X-0.450000X0*%
%ADD19C,0.800000*%
G04 APERTURE END LIST*
D10*
X135650000Y-112620000D03*
X167730000Y-117750000D03*
D11*
X136400000Y-75910000D03*
X167880000Y-122660000D03*
X167850000Y-75920000D03*
X136410000Y-122670000D03*
D10*
X135450000Y-81040000D03*
X151830000Y-123940000D03*
D12*
X149290000Y-123940000D03*
X146750000Y-123940000D03*
X144210000Y-123940000D03*
X141670000Y-123940000D03*
D13*
X154650000Y-118500000D03*
X156700000Y-118500000D03*
D14*
X156392500Y-110030000D03*
X164392500Y-110030000D03*
X156392500Y-105530000D03*
X164392500Y-105530000D03*
D15*
X140970000Y-88630000D03*
X140970000Y-86630000D03*
D16*
X168790000Y-104470000D03*
X168790000Y-106470000D03*
D15*
X143510000Y-88630000D03*
X143510000Y-86630000D03*
D17*
X168780000Y-112162500D03*
X168780000Y-110112500D03*
D10*
X135430000Y-86020000D03*
D12*
X135430000Y-88560000D03*
X135430000Y-91100000D03*
X135430000Y-93640000D03*
D18*
X161300000Y-118480000D03*
X159300000Y-118480000D03*
D19*
X143354506Y-101837657D03*
X139470000Y-88700000D03*
X139446000Y-96774000D03*
X139450000Y-92460000D03*
X163310000Y-90410000D03*
X169920000Y-89320000D03*
X151590000Y-119040000D03*
X168800000Y-114320000D03*
X166700000Y-114740000D03*
X137980000Y-96950000D03*
X160022347Y-93777653D03*
X138640000Y-119080000D03*
X151410000Y-114850000D03*
X163420000Y-124260000D03*
X163710000Y-87090000D03*
X137990000Y-104980000D03*
X159560000Y-112650000D03*
X146190000Y-97120000D03*
X141030000Y-97780000D03*
X169180000Y-84250000D03*
X142260000Y-110250000D03*
X165100000Y-89270000D03*
X167160000Y-89570000D03*
X160138202Y-102540000D03*
X137820000Y-95520000D03*
X155525000Y-94565000D03*
X152288000Y-93539624D03*
X141580000Y-76240000D03*
X152686724Y-92623276D03*
X142220000Y-77970000D03*
X163576000Y-76962000D03*
X163576000Y-74422000D03*
X143748597Y-104124597D03*
X154069009Y-92781395D03*
X152880000Y-114730000D03*
X164375000Y-116355000D03*
X154250000Y-89510000D03*
X154220000Y-91720000D03*
M02*
