G04 #@! TF.GenerationSoftware,KiCad,Pcbnew,7.0.10*
G04 #@! TF.CreationDate,2024-03-08T11:33:54-05:00*
G04 #@! TF.ProjectId,swipe-stack-glove,73776970-652d-4737-9461-636b2d676c6f,1*
G04 #@! TF.SameCoordinates,Original*
G04 #@! TF.FileFunction,Legend,Top*
G04 #@! TF.FilePolarity,Positive*
%FSLAX46Y46*%
G04 Gerber Fmt 4.6, Leading zero omitted, Abs format (unit mm)*
G04 Created by KiCad (PCBNEW 7.0.10) date 2024-03-08 11:33:54*
%MOMM*%
%LPD*%
G01*
G04 APERTURE LIST*
G04 Aperture macros list*
%AMRoundRect*
0 Rectangle with rounded corners*
0 $1 Rounding radius*
0 $2 $3 $4 $5 $6 $7 $8 $9 X,Y pos of 4 corners*
0 Add a 4 corners polygon primitive as box body*
4,1,4,$2,$3,$4,$5,$6,$7,$8,$9,$2,$3,0*
0 Add four circle primitives for the rounded corners*
1,1,$1+$1,$2,$3*
1,1,$1+$1,$4,$5*
1,1,$1+$1,$6,$7*
1,1,$1+$1,$8,$9*
0 Add four rect primitives between the rounded corners*
20,1,$1+$1,$2,$3,$4,$5,0*
20,1,$1+$1,$4,$5,$6,$7,0*
20,1,$1+$1,$6,$7,$8,$9,0*
20,1,$1+$1,$8,$9,$2,$3,0*%
G04 Aperture macros list end*
%ADD10C,0.100000*%
%ADD11C,0.120000*%
%ADD12C,0.127000*%
%ADD13C,0.300000*%
%ADD14C,0.150000*%
%ADD15RoundRect,0.250000X-0.475000X0.337500X-0.475000X-0.337500X0.475000X-0.337500X0.475000X0.337500X0*%
%ADD16R,1.600000X1.400000*%
%ADD17RoundRect,0.250000X0.350000X0.450000X-0.350000X0.450000X-0.350000X-0.450000X0.350000X-0.450000X0*%
%ADD18RoundRect,0.250000X0.475000X-0.337500X0.475000X0.337500X-0.475000X0.337500X-0.475000X-0.337500X0*%
%ADD19R,1.700000X1.700000*%
%ADD20RoundRect,0.250000X0.337500X0.475000X-0.337500X0.475000X-0.337500X-0.475000X0.337500X-0.475000X0*%
%ADD21R,1.500000X0.450000*%
%ADD22C,2.500000*%
%ADD23RoundRect,0.102000X-0.950000X0.550000X-0.950000X-0.550000X0.950000X-0.550000X0.950000X0.550000X0*%
%ADD24RoundRect,0.250000X0.450000X-0.325000X0.450000X0.325000X-0.450000X0.325000X-0.450000X-0.325000X0*%
%ADD25RoundRect,0.250000X-0.337500X-0.475000X0.337500X-0.475000X0.337500X0.475000X-0.337500X0.475000X0*%
%ADD26RoundRect,0.250000X-0.450000X0.325000X-0.450000X-0.325000X0.450000X-0.325000X0.450000X0.325000X0*%
%ADD27R,0.257000X1.085000*%
%ADD28R,1.040000X0.257000*%
%ADD29R,1.400000X1.600000*%
%ADD30RoundRect,0.075000X-0.700000X-0.075000X0.700000X-0.075000X0.700000X0.075000X-0.700000X0.075000X0*%
%ADD31RoundRect,0.075000X-0.075000X-0.700000X0.075000X-0.700000X0.075000X0.700000X-0.075000X0.700000X0*%
%ADD32R,2.000000X0.900000*%
%ADD33RoundRect,0.250000X-0.450000X0.350000X-0.450000X-0.350000X0.450000X-0.350000X0.450000X0.350000X0*%
%ADD34O,1.700000X1.700000*%
%ADD35C,0.800000*%
G04 APERTURE END LIST*
D10*
X169563333Y-100809466D02*
X169530000Y-100842800D01*
X169530000Y-100842800D02*
X169430000Y-100876133D01*
X169430000Y-100876133D02*
X169363333Y-100876133D01*
X169363333Y-100876133D02*
X169263333Y-100842800D01*
X169263333Y-100842800D02*
X169196667Y-100776133D01*
X169196667Y-100776133D02*
X169163333Y-100709466D01*
X169163333Y-100709466D02*
X169130000Y-100576133D01*
X169130000Y-100576133D02*
X169130000Y-100476133D01*
X169130000Y-100476133D02*
X169163333Y-100342800D01*
X169163333Y-100342800D02*
X169196667Y-100276133D01*
X169196667Y-100276133D02*
X169263333Y-100209466D01*
X169263333Y-100209466D02*
X169363333Y-100176133D01*
X169363333Y-100176133D02*
X169430000Y-100176133D01*
X169430000Y-100176133D02*
X169530000Y-100209466D01*
X169530000Y-100209466D02*
X169563333Y-100242800D01*
X170196667Y-100176133D02*
X169863333Y-100176133D01*
X169863333Y-100176133D02*
X169830000Y-100509466D01*
X169830000Y-100509466D02*
X169863333Y-100476133D01*
X169863333Y-100476133D02*
X169930000Y-100442800D01*
X169930000Y-100442800D02*
X170096667Y-100442800D01*
X170096667Y-100442800D02*
X170163333Y-100476133D01*
X170163333Y-100476133D02*
X170196667Y-100509466D01*
X170196667Y-100509466D02*
X170230000Y-100576133D01*
X170230000Y-100576133D02*
X170230000Y-100742800D01*
X170230000Y-100742800D02*
X170196667Y-100809466D01*
X170196667Y-100809466D02*
X170163333Y-100842800D01*
X170163333Y-100842800D02*
X170096667Y-100876133D01*
X170096667Y-100876133D02*
X169930000Y-100876133D01*
X169930000Y-100876133D02*
X169863333Y-100842800D01*
X169863333Y-100842800D02*
X169830000Y-100809466D01*
X144608666Y-119157300D02*
X144708666Y-119190633D01*
X144708666Y-119190633D02*
X144875333Y-119190633D01*
X144875333Y-119190633D02*
X144941999Y-119157300D01*
X144941999Y-119157300D02*
X144975333Y-119123966D01*
X144975333Y-119123966D02*
X145008666Y-119057300D01*
X145008666Y-119057300D02*
X145008666Y-118990633D01*
X145008666Y-118990633D02*
X144975333Y-118923966D01*
X144975333Y-118923966D02*
X144941999Y-118890633D01*
X144941999Y-118890633D02*
X144875333Y-118857300D01*
X144875333Y-118857300D02*
X144741999Y-118823966D01*
X144741999Y-118823966D02*
X144675333Y-118790633D01*
X144675333Y-118790633D02*
X144641999Y-118757300D01*
X144641999Y-118757300D02*
X144608666Y-118690633D01*
X144608666Y-118690633D02*
X144608666Y-118623966D01*
X144608666Y-118623966D02*
X144641999Y-118557300D01*
X144641999Y-118557300D02*
X144675333Y-118523966D01*
X144675333Y-118523966D02*
X144741999Y-118490633D01*
X144741999Y-118490633D02*
X144908666Y-118490633D01*
X144908666Y-118490633D02*
X145008666Y-118523966D01*
X145242000Y-118490633D02*
X145408666Y-119190633D01*
X145408666Y-119190633D02*
X145542000Y-118690633D01*
X145542000Y-118690633D02*
X145675333Y-119190633D01*
X145675333Y-119190633D02*
X145842000Y-118490633D01*
X146042000Y-118490633D02*
X146475333Y-118490633D01*
X146475333Y-118490633D02*
X146242000Y-118757300D01*
X146242000Y-118757300D02*
X146342000Y-118757300D01*
X146342000Y-118757300D02*
X146408666Y-118790633D01*
X146408666Y-118790633D02*
X146442000Y-118823966D01*
X146442000Y-118823966D02*
X146475333Y-118890633D01*
X146475333Y-118890633D02*
X146475333Y-119057300D01*
X146475333Y-119057300D02*
X146442000Y-119123966D01*
X146442000Y-119123966D02*
X146408666Y-119157300D01*
X146408666Y-119157300D02*
X146342000Y-119190633D01*
X146342000Y-119190633D02*
X146142000Y-119190633D01*
X146142000Y-119190633D02*
X146075333Y-119157300D01*
X146075333Y-119157300D02*
X146042000Y-119123966D01*
X151073333Y-86648633D02*
X150840000Y-86315300D01*
X150673333Y-86648633D02*
X150673333Y-85948633D01*
X150673333Y-85948633D02*
X150940000Y-85948633D01*
X150940000Y-85948633D02*
X151006667Y-85981966D01*
X151006667Y-85981966D02*
X151040000Y-86015300D01*
X151040000Y-86015300D02*
X151073333Y-86081966D01*
X151073333Y-86081966D02*
X151073333Y-86181966D01*
X151073333Y-86181966D02*
X151040000Y-86248633D01*
X151040000Y-86248633D02*
X151006667Y-86281966D01*
X151006667Y-86281966D02*
X150940000Y-86315300D01*
X150940000Y-86315300D02*
X150673333Y-86315300D01*
X151673333Y-85948633D02*
X151540000Y-85948633D01*
X151540000Y-85948633D02*
X151473333Y-85981966D01*
X151473333Y-85981966D02*
X151440000Y-86015300D01*
X151440000Y-86015300D02*
X151373333Y-86115300D01*
X151373333Y-86115300D02*
X151340000Y-86248633D01*
X151340000Y-86248633D02*
X151340000Y-86515300D01*
X151340000Y-86515300D02*
X151373333Y-86581966D01*
X151373333Y-86581966D02*
X151406667Y-86615300D01*
X151406667Y-86615300D02*
X151473333Y-86648633D01*
X151473333Y-86648633D02*
X151606667Y-86648633D01*
X151606667Y-86648633D02*
X151673333Y-86615300D01*
X151673333Y-86615300D02*
X151706667Y-86581966D01*
X151706667Y-86581966D02*
X151740000Y-86515300D01*
X151740000Y-86515300D02*
X151740000Y-86348633D01*
X151740000Y-86348633D02*
X151706667Y-86281966D01*
X151706667Y-86281966D02*
X151673333Y-86248633D01*
X151673333Y-86248633D02*
X151606667Y-86215300D01*
X151606667Y-86215300D02*
X151473333Y-86215300D01*
X151473333Y-86215300D02*
X151406667Y-86248633D01*
X151406667Y-86248633D02*
X151373333Y-86281966D01*
X151373333Y-86281966D02*
X151340000Y-86348633D01*
X162613333Y-79861966D02*
X162580000Y-79895300D01*
X162580000Y-79895300D02*
X162480000Y-79928633D01*
X162480000Y-79928633D02*
X162413333Y-79928633D01*
X162413333Y-79928633D02*
X162313333Y-79895300D01*
X162313333Y-79895300D02*
X162246667Y-79828633D01*
X162246667Y-79828633D02*
X162213333Y-79761966D01*
X162213333Y-79761966D02*
X162180000Y-79628633D01*
X162180000Y-79628633D02*
X162180000Y-79528633D01*
X162180000Y-79528633D02*
X162213333Y-79395300D01*
X162213333Y-79395300D02*
X162246667Y-79328633D01*
X162246667Y-79328633D02*
X162313333Y-79261966D01*
X162313333Y-79261966D02*
X162413333Y-79228633D01*
X162413333Y-79228633D02*
X162480000Y-79228633D01*
X162480000Y-79228633D02*
X162580000Y-79261966D01*
X162580000Y-79261966D02*
X162613333Y-79295300D01*
X163213333Y-79228633D02*
X163080000Y-79228633D01*
X163080000Y-79228633D02*
X163013333Y-79261966D01*
X163013333Y-79261966D02*
X162980000Y-79295300D01*
X162980000Y-79295300D02*
X162913333Y-79395300D01*
X162913333Y-79395300D02*
X162880000Y-79528633D01*
X162880000Y-79528633D02*
X162880000Y-79795300D01*
X162880000Y-79795300D02*
X162913333Y-79861966D01*
X162913333Y-79861966D02*
X162946667Y-79895300D01*
X162946667Y-79895300D02*
X163013333Y-79928633D01*
X163013333Y-79928633D02*
X163146667Y-79928633D01*
X163146667Y-79928633D02*
X163213333Y-79895300D01*
X163213333Y-79895300D02*
X163246667Y-79861966D01*
X163246667Y-79861966D02*
X163280000Y-79795300D01*
X163280000Y-79795300D02*
X163280000Y-79628633D01*
X163280000Y-79628633D02*
X163246667Y-79561966D01*
X163246667Y-79561966D02*
X163213333Y-79528633D01*
X163213333Y-79528633D02*
X163146667Y-79495300D01*
X163146667Y-79495300D02*
X163013333Y-79495300D01*
X163013333Y-79495300D02*
X162946667Y-79528633D01*
X162946667Y-79528633D02*
X162913333Y-79561966D01*
X162913333Y-79561966D02*
X162880000Y-79628633D01*
X135386666Y-115028633D02*
X135386666Y-115528633D01*
X135386666Y-115528633D02*
X135353333Y-115628633D01*
X135353333Y-115628633D02*
X135286666Y-115695300D01*
X135286666Y-115695300D02*
X135186666Y-115728633D01*
X135186666Y-115728633D02*
X135120000Y-115728633D01*
X135653333Y-115028633D02*
X136086666Y-115028633D01*
X136086666Y-115028633D02*
X135853333Y-115295300D01*
X135853333Y-115295300D02*
X135953333Y-115295300D01*
X135953333Y-115295300D02*
X136019999Y-115328633D01*
X136019999Y-115328633D02*
X136053333Y-115361966D01*
X136053333Y-115361966D02*
X136086666Y-115428633D01*
X136086666Y-115428633D02*
X136086666Y-115595300D01*
X136086666Y-115595300D02*
X136053333Y-115661966D01*
X136053333Y-115661966D02*
X136019999Y-115695300D01*
X136019999Y-115695300D02*
X135953333Y-115728633D01*
X135953333Y-115728633D02*
X135753333Y-115728633D01*
X135753333Y-115728633D02*
X135686666Y-115695300D01*
X135686666Y-115695300D02*
X135653333Y-115661966D01*
X159229999Y-108871966D02*
X159196666Y-108905300D01*
X159196666Y-108905300D02*
X159096666Y-108938633D01*
X159096666Y-108938633D02*
X159029999Y-108938633D01*
X159029999Y-108938633D02*
X158929999Y-108905300D01*
X158929999Y-108905300D02*
X158863333Y-108838633D01*
X158863333Y-108838633D02*
X158829999Y-108771966D01*
X158829999Y-108771966D02*
X158796666Y-108638633D01*
X158796666Y-108638633D02*
X158796666Y-108538633D01*
X158796666Y-108538633D02*
X158829999Y-108405300D01*
X158829999Y-108405300D02*
X158863333Y-108338633D01*
X158863333Y-108338633D02*
X158929999Y-108271966D01*
X158929999Y-108271966D02*
X159029999Y-108238633D01*
X159029999Y-108238633D02*
X159096666Y-108238633D01*
X159096666Y-108238633D02*
X159196666Y-108271966D01*
X159196666Y-108271966D02*
X159229999Y-108305300D01*
X159896666Y-108938633D02*
X159496666Y-108938633D01*
X159696666Y-108938633D02*
X159696666Y-108238633D01*
X159696666Y-108238633D02*
X159629999Y-108338633D01*
X159629999Y-108338633D02*
X159563333Y-108405300D01*
X159563333Y-108405300D02*
X159496666Y-108438633D01*
X160563333Y-108938633D02*
X160163333Y-108938633D01*
X160363333Y-108938633D02*
X160363333Y-108238633D01*
X160363333Y-108238633D02*
X160296666Y-108338633D01*
X160296666Y-108338633D02*
X160230000Y-108405300D01*
X160230000Y-108405300D02*
X160163333Y-108438633D01*
X140136666Y-99338633D02*
X140136666Y-99905300D01*
X140136666Y-99905300D02*
X140170000Y-99971966D01*
X140170000Y-99971966D02*
X140203333Y-100005300D01*
X140203333Y-100005300D02*
X140270000Y-100038633D01*
X140270000Y-100038633D02*
X140403333Y-100038633D01*
X140403333Y-100038633D02*
X140470000Y-100005300D01*
X140470000Y-100005300D02*
X140503333Y-99971966D01*
X140503333Y-99971966D02*
X140536666Y-99905300D01*
X140536666Y-99905300D02*
X140536666Y-99338633D01*
X140803333Y-99338633D02*
X141236666Y-99338633D01*
X141236666Y-99338633D02*
X141003333Y-99605300D01*
X141003333Y-99605300D02*
X141103333Y-99605300D01*
X141103333Y-99605300D02*
X141169999Y-99638633D01*
X141169999Y-99638633D02*
X141203333Y-99671966D01*
X141203333Y-99671966D02*
X141236666Y-99738633D01*
X141236666Y-99738633D02*
X141236666Y-99905300D01*
X141236666Y-99905300D02*
X141203333Y-99971966D01*
X141203333Y-99971966D02*
X141169999Y-100005300D01*
X141169999Y-100005300D02*
X141103333Y-100038633D01*
X141103333Y-100038633D02*
X140903333Y-100038633D01*
X140903333Y-100038633D02*
X140836666Y-100005300D01*
X140836666Y-100005300D02*
X140803333Y-99971966D01*
X170226666Y-117378633D02*
X170226666Y-117878633D01*
X170226666Y-117878633D02*
X170193333Y-117978633D01*
X170193333Y-117978633D02*
X170126666Y-118045300D01*
X170126666Y-118045300D02*
X170026666Y-118078633D01*
X170026666Y-118078633D02*
X169960000Y-118078633D01*
X170893333Y-117378633D02*
X170559999Y-117378633D01*
X170559999Y-117378633D02*
X170526666Y-117711966D01*
X170526666Y-117711966D02*
X170559999Y-117678633D01*
X170559999Y-117678633D02*
X170626666Y-117645300D01*
X170626666Y-117645300D02*
X170793333Y-117645300D01*
X170793333Y-117645300D02*
X170859999Y-117678633D01*
X170859999Y-117678633D02*
X170893333Y-117711966D01*
X170893333Y-117711966D02*
X170926666Y-117778633D01*
X170926666Y-117778633D02*
X170926666Y-117945300D01*
X170926666Y-117945300D02*
X170893333Y-118011966D01*
X170893333Y-118011966D02*
X170859999Y-118045300D01*
X170859999Y-118045300D02*
X170793333Y-118078633D01*
X170793333Y-118078633D02*
X170626666Y-118078633D01*
X170626666Y-118078633D02*
X170559999Y-118045300D01*
X170559999Y-118045300D02*
X170526666Y-118011966D01*
X156546666Y-119157300D02*
X156646666Y-119190633D01*
X156646666Y-119190633D02*
X156813333Y-119190633D01*
X156813333Y-119190633D02*
X156879999Y-119157300D01*
X156879999Y-119157300D02*
X156913333Y-119123966D01*
X156913333Y-119123966D02*
X156946666Y-119057300D01*
X156946666Y-119057300D02*
X156946666Y-118990633D01*
X156946666Y-118990633D02*
X156913333Y-118923966D01*
X156913333Y-118923966D02*
X156879999Y-118890633D01*
X156879999Y-118890633D02*
X156813333Y-118857300D01*
X156813333Y-118857300D02*
X156679999Y-118823966D01*
X156679999Y-118823966D02*
X156613333Y-118790633D01*
X156613333Y-118790633D02*
X156579999Y-118757300D01*
X156579999Y-118757300D02*
X156546666Y-118690633D01*
X156546666Y-118690633D02*
X156546666Y-118623966D01*
X156546666Y-118623966D02*
X156579999Y-118557300D01*
X156579999Y-118557300D02*
X156613333Y-118523966D01*
X156613333Y-118523966D02*
X156679999Y-118490633D01*
X156679999Y-118490633D02*
X156846666Y-118490633D01*
X156846666Y-118490633D02*
X156946666Y-118523966D01*
X157180000Y-118490633D02*
X157346666Y-119190633D01*
X157346666Y-119190633D02*
X157480000Y-118690633D01*
X157480000Y-118690633D02*
X157613333Y-119190633D01*
X157613333Y-119190633D02*
X157780000Y-118490633D01*
X158346666Y-118723966D02*
X158346666Y-119190633D01*
X158180000Y-118457300D02*
X158013333Y-118957300D01*
X158013333Y-118957300D02*
X158446666Y-118957300D01*
X134105960Y-74364937D02*
X134105960Y-73664937D01*
X134105960Y-73998270D02*
X134505960Y-73998270D01*
X134505960Y-74364937D02*
X134505960Y-73664937D01*
X135205960Y-74364937D02*
X134805960Y-74364937D01*
X135005960Y-74364937D02*
X135005960Y-73664937D01*
X135005960Y-73664937D02*
X134939293Y-73764937D01*
X134939293Y-73764937D02*
X134872627Y-73831604D01*
X134872627Y-73831604D02*
X134805960Y-73864937D01*
X163283333Y-100516133D02*
X163749999Y-101216133D01*
X163749999Y-100516133D02*
X163283333Y-101216133D01*
X163916666Y-100516133D02*
X164316666Y-100516133D01*
X164116666Y-101216133D02*
X164116666Y-100516133D01*
X164516666Y-101016133D02*
X164849999Y-101016133D01*
X164449999Y-101216133D02*
X164683333Y-100516133D01*
X164683333Y-100516133D02*
X164916666Y-101216133D01*
X165483333Y-101216133D02*
X165149999Y-101216133D01*
X165149999Y-101216133D02*
X165149999Y-100516133D01*
X166083333Y-101216133D02*
X165683333Y-101216133D01*
X165883333Y-101216133D02*
X165883333Y-100516133D01*
X165883333Y-100516133D02*
X165816666Y-100616133D01*
X165816666Y-100616133D02*
X165750000Y-100682800D01*
X165750000Y-100682800D02*
X165683333Y-100716133D01*
X169403333Y-92031966D02*
X169370000Y-92065300D01*
X169370000Y-92065300D02*
X169270000Y-92098633D01*
X169270000Y-92098633D02*
X169203333Y-92098633D01*
X169203333Y-92098633D02*
X169103333Y-92065300D01*
X169103333Y-92065300D02*
X169036667Y-91998633D01*
X169036667Y-91998633D02*
X169003333Y-91931966D01*
X169003333Y-91931966D02*
X168970000Y-91798633D01*
X168970000Y-91798633D02*
X168970000Y-91698633D01*
X168970000Y-91698633D02*
X169003333Y-91565300D01*
X169003333Y-91565300D02*
X169036667Y-91498633D01*
X169036667Y-91498633D02*
X169103333Y-91431966D01*
X169103333Y-91431966D02*
X169203333Y-91398633D01*
X169203333Y-91398633D02*
X169270000Y-91398633D01*
X169270000Y-91398633D02*
X169370000Y-91431966D01*
X169370000Y-91431966D02*
X169403333Y-91465300D01*
X169670000Y-91465300D02*
X169703333Y-91431966D01*
X169703333Y-91431966D02*
X169770000Y-91398633D01*
X169770000Y-91398633D02*
X169936667Y-91398633D01*
X169936667Y-91398633D02*
X170003333Y-91431966D01*
X170003333Y-91431966D02*
X170036667Y-91465300D01*
X170036667Y-91465300D02*
X170070000Y-91531966D01*
X170070000Y-91531966D02*
X170070000Y-91598633D01*
X170070000Y-91598633D02*
X170036667Y-91698633D01*
X170036667Y-91698633D02*
X169636667Y-92098633D01*
X169636667Y-92098633D02*
X170070000Y-92098633D01*
X165042633Y-107286588D02*
X164709300Y-107519921D01*
X165042633Y-107686588D02*
X164342633Y-107686588D01*
X164342633Y-107686588D02*
X164342633Y-107419921D01*
X164342633Y-107419921D02*
X164375966Y-107353255D01*
X164375966Y-107353255D02*
X164409300Y-107319921D01*
X164409300Y-107319921D02*
X164475966Y-107286588D01*
X164475966Y-107286588D02*
X164575966Y-107286588D01*
X164575966Y-107286588D02*
X164642633Y-107319921D01*
X164642633Y-107319921D02*
X164675966Y-107353255D01*
X164675966Y-107353255D02*
X164709300Y-107419921D01*
X164709300Y-107419921D02*
X164709300Y-107686588D01*
X165042633Y-106953255D02*
X165042633Y-106819921D01*
X165042633Y-106819921D02*
X165009300Y-106753255D01*
X165009300Y-106753255D02*
X164975966Y-106719921D01*
X164975966Y-106719921D02*
X164875966Y-106653255D01*
X164875966Y-106653255D02*
X164742633Y-106619921D01*
X164742633Y-106619921D02*
X164475966Y-106619921D01*
X164475966Y-106619921D02*
X164409300Y-106653255D01*
X164409300Y-106653255D02*
X164375966Y-106686588D01*
X164375966Y-106686588D02*
X164342633Y-106753255D01*
X164342633Y-106753255D02*
X164342633Y-106886588D01*
X164342633Y-106886588D02*
X164375966Y-106953255D01*
X164375966Y-106953255D02*
X164409300Y-106986588D01*
X164409300Y-106986588D02*
X164475966Y-107019921D01*
X164475966Y-107019921D02*
X164642633Y-107019921D01*
X164642633Y-107019921D02*
X164709300Y-106986588D01*
X164709300Y-106986588D02*
X164742633Y-106953255D01*
X164742633Y-106953255D02*
X164775966Y-106886588D01*
X164775966Y-106886588D02*
X164775966Y-106753255D01*
X164775966Y-106753255D02*
X164742633Y-106686588D01*
X164742633Y-106686588D02*
X164709300Y-106653255D01*
X164709300Y-106653255D02*
X164642633Y-106619921D01*
X148129999Y-113261966D02*
X148096666Y-113295300D01*
X148096666Y-113295300D02*
X147996666Y-113328633D01*
X147996666Y-113328633D02*
X147929999Y-113328633D01*
X147929999Y-113328633D02*
X147829999Y-113295300D01*
X147829999Y-113295300D02*
X147763333Y-113228633D01*
X147763333Y-113228633D02*
X147729999Y-113161966D01*
X147729999Y-113161966D02*
X147696666Y-113028633D01*
X147696666Y-113028633D02*
X147696666Y-112928633D01*
X147696666Y-112928633D02*
X147729999Y-112795300D01*
X147729999Y-112795300D02*
X147763333Y-112728633D01*
X147763333Y-112728633D02*
X147829999Y-112661966D01*
X147829999Y-112661966D02*
X147929999Y-112628633D01*
X147929999Y-112628633D02*
X147996666Y-112628633D01*
X147996666Y-112628633D02*
X148096666Y-112661966D01*
X148096666Y-112661966D02*
X148129999Y-112695300D01*
X148796666Y-113328633D02*
X148396666Y-113328633D01*
X148596666Y-113328633D02*
X148596666Y-112628633D01*
X148596666Y-112628633D02*
X148529999Y-112728633D01*
X148529999Y-112728633D02*
X148463333Y-112795300D01*
X148463333Y-112795300D02*
X148396666Y-112828633D01*
X149230000Y-112628633D02*
X149296666Y-112628633D01*
X149296666Y-112628633D02*
X149363333Y-112661966D01*
X149363333Y-112661966D02*
X149396666Y-112695300D01*
X149396666Y-112695300D02*
X149430000Y-112761966D01*
X149430000Y-112761966D02*
X149463333Y-112895300D01*
X149463333Y-112895300D02*
X149463333Y-113061966D01*
X149463333Y-113061966D02*
X149430000Y-113195300D01*
X149430000Y-113195300D02*
X149396666Y-113261966D01*
X149396666Y-113261966D02*
X149363333Y-113295300D01*
X149363333Y-113295300D02*
X149296666Y-113328633D01*
X149296666Y-113328633D02*
X149230000Y-113328633D01*
X149230000Y-113328633D02*
X149163333Y-113295300D01*
X149163333Y-113295300D02*
X149130000Y-113261966D01*
X149130000Y-113261966D02*
X149096666Y-113195300D01*
X149096666Y-113195300D02*
X149063333Y-113061966D01*
X149063333Y-113061966D02*
X149063333Y-112895300D01*
X149063333Y-112895300D02*
X149096666Y-112761966D01*
X149096666Y-112761966D02*
X149130000Y-112695300D01*
X149130000Y-112695300D02*
X149163333Y-112661966D01*
X149163333Y-112661966D02*
X149230000Y-112628633D01*
X169593333Y-86431966D02*
X169560000Y-86465300D01*
X169560000Y-86465300D02*
X169460000Y-86498633D01*
X169460000Y-86498633D02*
X169393333Y-86498633D01*
X169393333Y-86498633D02*
X169293333Y-86465300D01*
X169293333Y-86465300D02*
X169226667Y-86398633D01*
X169226667Y-86398633D02*
X169193333Y-86331966D01*
X169193333Y-86331966D02*
X169160000Y-86198633D01*
X169160000Y-86198633D02*
X169160000Y-86098633D01*
X169160000Y-86098633D02*
X169193333Y-85965300D01*
X169193333Y-85965300D02*
X169226667Y-85898633D01*
X169226667Y-85898633D02*
X169293333Y-85831966D01*
X169293333Y-85831966D02*
X169393333Y-85798633D01*
X169393333Y-85798633D02*
X169460000Y-85798633D01*
X169460000Y-85798633D02*
X169560000Y-85831966D01*
X169560000Y-85831966D02*
X169593333Y-85865300D01*
X169826667Y-85798633D02*
X170260000Y-85798633D01*
X170260000Y-85798633D02*
X170026667Y-86065300D01*
X170026667Y-86065300D02*
X170126667Y-86065300D01*
X170126667Y-86065300D02*
X170193333Y-86098633D01*
X170193333Y-86098633D02*
X170226667Y-86131966D01*
X170226667Y-86131966D02*
X170260000Y-86198633D01*
X170260000Y-86198633D02*
X170260000Y-86365300D01*
X170260000Y-86365300D02*
X170226667Y-86431966D01*
X170226667Y-86431966D02*
X170193333Y-86465300D01*
X170193333Y-86465300D02*
X170126667Y-86498633D01*
X170126667Y-86498633D02*
X169926667Y-86498633D01*
X169926667Y-86498633D02*
X169860000Y-86465300D01*
X169860000Y-86465300D02*
X169826667Y-86431966D01*
X169124667Y-125112079D02*
X169124667Y-124412079D01*
X169124667Y-124745412D02*
X169524667Y-124745412D01*
X169524667Y-125112079D02*
X169524667Y-124412079D01*
X170158000Y-124645412D02*
X170158000Y-125112079D01*
X169991334Y-124378746D02*
X169824667Y-124878746D01*
X169824667Y-124878746D02*
X170258000Y-124878746D01*
X165032633Y-112351588D02*
X164332633Y-112351588D01*
X164332633Y-112351588D02*
X164332633Y-112184921D01*
X164332633Y-112184921D02*
X164365966Y-112084921D01*
X164365966Y-112084921D02*
X164432633Y-112018255D01*
X164432633Y-112018255D02*
X164499300Y-111984921D01*
X164499300Y-111984921D02*
X164632633Y-111951588D01*
X164632633Y-111951588D02*
X164732633Y-111951588D01*
X164732633Y-111951588D02*
X164865966Y-111984921D01*
X164865966Y-111984921D02*
X164932633Y-112018255D01*
X164932633Y-112018255D02*
X164999300Y-112084921D01*
X164999300Y-112084921D02*
X165032633Y-112184921D01*
X165032633Y-112184921D02*
X165032633Y-112351588D01*
X164332633Y-111718255D02*
X164332633Y-111284921D01*
X164332633Y-111284921D02*
X164599300Y-111518255D01*
X164599300Y-111518255D02*
X164599300Y-111418255D01*
X164599300Y-111418255D02*
X164632633Y-111351588D01*
X164632633Y-111351588D02*
X164665966Y-111318255D01*
X164665966Y-111318255D02*
X164732633Y-111284921D01*
X164732633Y-111284921D02*
X164899300Y-111284921D01*
X164899300Y-111284921D02*
X164965966Y-111318255D01*
X164965966Y-111318255D02*
X164999300Y-111351588D01*
X164999300Y-111351588D02*
X165032633Y-111418255D01*
X165032633Y-111418255D02*
X165032633Y-111618255D01*
X165032633Y-111618255D02*
X164999300Y-111684921D01*
X164999300Y-111684921D02*
X164965966Y-111718255D01*
X134183333Y-108231966D02*
X134150000Y-108265300D01*
X134150000Y-108265300D02*
X134050000Y-108298633D01*
X134050000Y-108298633D02*
X133983333Y-108298633D01*
X133983333Y-108298633D02*
X133883333Y-108265300D01*
X133883333Y-108265300D02*
X133816667Y-108198633D01*
X133816667Y-108198633D02*
X133783333Y-108131966D01*
X133783333Y-108131966D02*
X133750000Y-107998633D01*
X133750000Y-107998633D02*
X133750000Y-107898633D01*
X133750000Y-107898633D02*
X133783333Y-107765300D01*
X133783333Y-107765300D02*
X133816667Y-107698633D01*
X133816667Y-107698633D02*
X133883333Y-107631966D01*
X133883333Y-107631966D02*
X133983333Y-107598633D01*
X133983333Y-107598633D02*
X134050000Y-107598633D01*
X134050000Y-107598633D02*
X134150000Y-107631966D01*
X134150000Y-107631966D02*
X134183333Y-107665300D01*
X134583333Y-107898633D02*
X134516667Y-107865300D01*
X134516667Y-107865300D02*
X134483333Y-107831966D01*
X134483333Y-107831966D02*
X134450000Y-107765300D01*
X134450000Y-107765300D02*
X134450000Y-107731966D01*
X134450000Y-107731966D02*
X134483333Y-107665300D01*
X134483333Y-107665300D02*
X134516667Y-107631966D01*
X134516667Y-107631966D02*
X134583333Y-107598633D01*
X134583333Y-107598633D02*
X134716667Y-107598633D01*
X134716667Y-107598633D02*
X134783333Y-107631966D01*
X134783333Y-107631966D02*
X134816667Y-107665300D01*
X134816667Y-107665300D02*
X134850000Y-107731966D01*
X134850000Y-107731966D02*
X134850000Y-107765300D01*
X134850000Y-107765300D02*
X134816667Y-107831966D01*
X134816667Y-107831966D02*
X134783333Y-107865300D01*
X134783333Y-107865300D02*
X134716667Y-107898633D01*
X134716667Y-107898633D02*
X134583333Y-107898633D01*
X134583333Y-107898633D02*
X134516667Y-107931966D01*
X134516667Y-107931966D02*
X134483333Y-107965300D01*
X134483333Y-107965300D02*
X134450000Y-108031966D01*
X134450000Y-108031966D02*
X134450000Y-108165300D01*
X134450000Y-108165300D02*
X134483333Y-108231966D01*
X134483333Y-108231966D02*
X134516667Y-108265300D01*
X134516667Y-108265300D02*
X134583333Y-108298633D01*
X134583333Y-108298633D02*
X134716667Y-108298633D01*
X134716667Y-108298633D02*
X134783333Y-108265300D01*
X134783333Y-108265300D02*
X134816667Y-108231966D01*
X134816667Y-108231966D02*
X134850000Y-108165300D01*
X134850000Y-108165300D02*
X134850000Y-108031966D01*
X134850000Y-108031966D02*
X134816667Y-107965300D01*
X134816667Y-107965300D02*
X134783333Y-107931966D01*
X134783333Y-107931966D02*
X134716667Y-107898633D01*
X169643333Y-96189466D02*
X169610000Y-96222800D01*
X169610000Y-96222800D02*
X169510000Y-96256133D01*
X169510000Y-96256133D02*
X169443333Y-96256133D01*
X169443333Y-96256133D02*
X169343333Y-96222800D01*
X169343333Y-96222800D02*
X169276667Y-96156133D01*
X169276667Y-96156133D02*
X169243333Y-96089466D01*
X169243333Y-96089466D02*
X169210000Y-95956133D01*
X169210000Y-95956133D02*
X169210000Y-95856133D01*
X169210000Y-95856133D02*
X169243333Y-95722800D01*
X169243333Y-95722800D02*
X169276667Y-95656133D01*
X169276667Y-95656133D02*
X169343333Y-95589466D01*
X169343333Y-95589466D02*
X169443333Y-95556133D01*
X169443333Y-95556133D02*
X169510000Y-95556133D01*
X169510000Y-95556133D02*
X169610000Y-95589466D01*
X169610000Y-95589466D02*
X169643333Y-95622800D01*
X170243333Y-95789466D02*
X170243333Y-96256133D01*
X170076667Y-95522800D02*
X169910000Y-96022800D01*
X169910000Y-96022800D02*
X170343333Y-96022800D01*
X156267999Y-113856633D02*
X156034666Y-113523300D01*
X155867999Y-113856633D02*
X155867999Y-113156633D01*
X155867999Y-113156633D02*
X156134666Y-113156633D01*
X156134666Y-113156633D02*
X156201333Y-113189966D01*
X156201333Y-113189966D02*
X156234666Y-113223300D01*
X156234666Y-113223300D02*
X156267999Y-113289966D01*
X156267999Y-113289966D02*
X156267999Y-113389966D01*
X156267999Y-113389966D02*
X156234666Y-113456633D01*
X156234666Y-113456633D02*
X156201333Y-113489966D01*
X156201333Y-113489966D02*
X156134666Y-113523300D01*
X156134666Y-113523300D02*
X155867999Y-113523300D01*
X156934666Y-113856633D02*
X156534666Y-113856633D01*
X156734666Y-113856633D02*
X156734666Y-113156633D01*
X156734666Y-113156633D02*
X156667999Y-113256633D01*
X156667999Y-113256633D02*
X156601333Y-113323300D01*
X156601333Y-113323300D02*
X156534666Y-113356633D01*
X157201333Y-113223300D02*
X157234666Y-113189966D01*
X157234666Y-113189966D02*
X157301333Y-113156633D01*
X157301333Y-113156633D02*
X157468000Y-113156633D01*
X157468000Y-113156633D02*
X157534666Y-113189966D01*
X157534666Y-113189966D02*
X157568000Y-113223300D01*
X157568000Y-113223300D02*
X157601333Y-113289966D01*
X157601333Y-113289966D02*
X157601333Y-113356633D01*
X157601333Y-113356633D02*
X157568000Y-113456633D01*
X157568000Y-113456633D02*
X157168000Y-113856633D01*
X157168000Y-113856633D02*
X157601333Y-113856633D01*
X157329999Y-93841966D02*
X157296666Y-93875300D01*
X157296666Y-93875300D02*
X157196666Y-93908633D01*
X157196666Y-93908633D02*
X157129999Y-93908633D01*
X157129999Y-93908633D02*
X157029999Y-93875300D01*
X157029999Y-93875300D02*
X156963333Y-93808633D01*
X156963333Y-93808633D02*
X156929999Y-93741966D01*
X156929999Y-93741966D02*
X156896666Y-93608633D01*
X156896666Y-93608633D02*
X156896666Y-93508633D01*
X156896666Y-93508633D02*
X156929999Y-93375300D01*
X156929999Y-93375300D02*
X156963333Y-93308633D01*
X156963333Y-93308633D02*
X157029999Y-93241966D01*
X157029999Y-93241966D02*
X157129999Y-93208633D01*
X157129999Y-93208633D02*
X157196666Y-93208633D01*
X157196666Y-93208633D02*
X157296666Y-93241966D01*
X157296666Y-93241966D02*
X157329999Y-93275300D01*
X157996666Y-93908633D02*
X157596666Y-93908633D01*
X157796666Y-93908633D02*
X157796666Y-93208633D01*
X157796666Y-93208633D02*
X157729999Y-93308633D01*
X157729999Y-93308633D02*
X157663333Y-93375300D01*
X157663333Y-93375300D02*
X157596666Y-93408633D01*
X158263333Y-93275300D02*
X158296666Y-93241966D01*
X158296666Y-93241966D02*
X158363333Y-93208633D01*
X158363333Y-93208633D02*
X158530000Y-93208633D01*
X158530000Y-93208633D02*
X158596666Y-93241966D01*
X158596666Y-93241966D02*
X158630000Y-93275300D01*
X158630000Y-93275300D02*
X158663333Y-93341966D01*
X158663333Y-93341966D02*
X158663333Y-93408633D01*
X158663333Y-93408633D02*
X158630000Y-93508633D01*
X158630000Y-93508633D02*
X158230000Y-93908633D01*
X158230000Y-93908633D02*
X158663333Y-93908633D01*
X154736666Y-86158633D02*
X154736666Y-86725300D01*
X154736666Y-86725300D02*
X154770000Y-86791966D01*
X154770000Y-86791966D02*
X154803333Y-86825300D01*
X154803333Y-86825300D02*
X154870000Y-86858633D01*
X154870000Y-86858633D02*
X155003333Y-86858633D01*
X155003333Y-86858633D02*
X155070000Y-86825300D01*
X155070000Y-86825300D02*
X155103333Y-86791966D01*
X155103333Y-86791966D02*
X155136666Y-86725300D01*
X155136666Y-86725300D02*
X155136666Y-86158633D01*
X155436666Y-86225300D02*
X155469999Y-86191966D01*
X155469999Y-86191966D02*
X155536666Y-86158633D01*
X155536666Y-86158633D02*
X155703333Y-86158633D01*
X155703333Y-86158633D02*
X155769999Y-86191966D01*
X155769999Y-86191966D02*
X155803333Y-86225300D01*
X155803333Y-86225300D02*
X155836666Y-86291966D01*
X155836666Y-86291966D02*
X155836666Y-86358633D01*
X155836666Y-86358633D02*
X155803333Y-86458633D01*
X155803333Y-86458633D02*
X155403333Y-86858633D01*
X155403333Y-86858633D02*
X155836666Y-86858633D01*
X140746666Y-91185300D02*
X140846666Y-91218633D01*
X140846666Y-91218633D02*
X141013333Y-91218633D01*
X141013333Y-91218633D02*
X141079999Y-91185300D01*
X141079999Y-91185300D02*
X141113333Y-91151966D01*
X141113333Y-91151966D02*
X141146666Y-91085300D01*
X141146666Y-91085300D02*
X141146666Y-91018633D01*
X141146666Y-91018633D02*
X141113333Y-90951966D01*
X141113333Y-90951966D02*
X141079999Y-90918633D01*
X141079999Y-90918633D02*
X141013333Y-90885300D01*
X141013333Y-90885300D02*
X140879999Y-90851966D01*
X140879999Y-90851966D02*
X140813333Y-90818633D01*
X140813333Y-90818633D02*
X140779999Y-90785300D01*
X140779999Y-90785300D02*
X140746666Y-90718633D01*
X140746666Y-90718633D02*
X140746666Y-90651966D01*
X140746666Y-90651966D02*
X140779999Y-90585300D01*
X140779999Y-90585300D02*
X140813333Y-90551966D01*
X140813333Y-90551966D02*
X140879999Y-90518633D01*
X140879999Y-90518633D02*
X141046666Y-90518633D01*
X141046666Y-90518633D02*
X141146666Y-90551966D01*
X141380000Y-90518633D02*
X141546666Y-91218633D01*
X141546666Y-91218633D02*
X141680000Y-90718633D01*
X141680000Y-90718633D02*
X141813333Y-91218633D01*
X141813333Y-91218633D02*
X141980000Y-90518633D01*
X142613333Y-91218633D02*
X142213333Y-91218633D01*
X142413333Y-91218633D02*
X142413333Y-90518633D01*
X142413333Y-90518633D02*
X142346666Y-90618633D01*
X142346666Y-90618633D02*
X142280000Y-90685300D01*
X142280000Y-90685300D02*
X142213333Y-90718633D01*
X169094666Y-74334942D02*
X169094666Y-73634942D01*
X169094666Y-73968275D02*
X169494666Y-73968275D01*
X169494666Y-74334942D02*
X169494666Y-73634942D01*
X169794666Y-73701609D02*
X169827999Y-73668275D01*
X169827999Y-73668275D02*
X169894666Y-73634942D01*
X169894666Y-73634942D02*
X170061333Y-73634942D01*
X170061333Y-73634942D02*
X170127999Y-73668275D01*
X170127999Y-73668275D02*
X170161333Y-73701609D01*
X170161333Y-73701609D02*
X170194666Y-73768275D01*
X170194666Y-73768275D02*
X170194666Y-73834942D01*
X170194666Y-73834942D02*
X170161333Y-73934942D01*
X170161333Y-73934942D02*
X169761333Y-74334942D01*
X169761333Y-74334942D02*
X170194666Y-74334942D01*
X141409999Y-96911966D02*
X141376666Y-96945300D01*
X141376666Y-96945300D02*
X141276666Y-96978633D01*
X141276666Y-96978633D02*
X141209999Y-96978633D01*
X141209999Y-96978633D02*
X141109999Y-96945300D01*
X141109999Y-96945300D02*
X141043333Y-96878633D01*
X141043333Y-96878633D02*
X141009999Y-96811966D01*
X141009999Y-96811966D02*
X140976666Y-96678633D01*
X140976666Y-96678633D02*
X140976666Y-96578633D01*
X140976666Y-96578633D02*
X141009999Y-96445300D01*
X141009999Y-96445300D02*
X141043333Y-96378633D01*
X141043333Y-96378633D02*
X141109999Y-96311966D01*
X141109999Y-96311966D02*
X141209999Y-96278633D01*
X141209999Y-96278633D02*
X141276666Y-96278633D01*
X141276666Y-96278633D02*
X141376666Y-96311966D01*
X141376666Y-96311966D02*
X141409999Y-96345300D01*
X142076666Y-96978633D02*
X141676666Y-96978633D01*
X141876666Y-96978633D02*
X141876666Y-96278633D01*
X141876666Y-96278633D02*
X141809999Y-96378633D01*
X141809999Y-96378633D02*
X141743333Y-96445300D01*
X141743333Y-96445300D02*
X141676666Y-96478633D01*
X142310000Y-96278633D02*
X142743333Y-96278633D01*
X142743333Y-96278633D02*
X142510000Y-96545300D01*
X142510000Y-96545300D02*
X142610000Y-96545300D01*
X142610000Y-96545300D02*
X142676666Y-96578633D01*
X142676666Y-96578633D02*
X142710000Y-96611966D01*
X142710000Y-96611966D02*
X142743333Y-96678633D01*
X142743333Y-96678633D02*
X142743333Y-96845300D01*
X142743333Y-96845300D02*
X142710000Y-96911966D01*
X142710000Y-96911966D02*
X142676666Y-96945300D01*
X142676666Y-96945300D02*
X142610000Y-96978633D01*
X142610000Y-96978633D02*
X142410000Y-96978633D01*
X142410000Y-96978633D02*
X142343333Y-96945300D01*
X142343333Y-96945300D02*
X142310000Y-96911966D01*
X151716666Y-102278633D02*
X151716666Y-102845300D01*
X151716666Y-102845300D02*
X151750000Y-102911966D01*
X151750000Y-102911966D02*
X151783333Y-102945300D01*
X151783333Y-102945300D02*
X151850000Y-102978633D01*
X151850000Y-102978633D02*
X151983333Y-102978633D01*
X151983333Y-102978633D02*
X152050000Y-102945300D01*
X152050000Y-102945300D02*
X152083333Y-102911966D01*
X152083333Y-102911966D02*
X152116666Y-102845300D01*
X152116666Y-102845300D02*
X152116666Y-102278633D01*
X152816666Y-102978633D02*
X152416666Y-102978633D01*
X152616666Y-102978633D02*
X152616666Y-102278633D01*
X152616666Y-102278633D02*
X152549999Y-102378633D01*
X152549999Y-102378633D02*
X152483333Y-102445300D01*
X152483333Y-102445300D02*
X152416666Y-102478633D01*
X151346666Y-68108633D02*
X151346666Y-68675300D01*
X151346666Y-68675300D02*
X151380000Y-68741966D01*
X151380000Y-68741966D02*
X151413333Y-68775300D01*
X151413333Y-68775300D02*
X151480000Y-68808633D01*
X151480000Y-68808633D02*
X151613333Y-68808633D01*
X151613333Y-68808633D02*
X151680000Y-68775300D01*
X151680000Y-68775300D02*
X151713333Y-68741966D01*
X151713333Y-68741966D02*
X151746666Y-68675300D01*
X151746666Y-68675300D02*
X151746666Y-68108633D01*
X152379999Y-68341966D02*
X152379999Y-68808633D01*
X152213333Y-68075300D02*
X152046666Y-68575300D01*
X152046666Y-68575300D02*
X152479999Y-68575300D01*
X146949333Y-91437966D02*
X146916000Y-91471300D01*
X146916000Y-91471300D02*
X146816000Y-91504633D01*
X146816000Y-91504633D02*
X146749333Y-91504633D01*
X146749333Y-91504633D02*
X146649333Y-91471300D01*
X146649333Y-91471300D02*
X146582667Y-91404633D01*
X146582667Y-91404633D02*
X146549333Y-91337966D01*
X146549333Y-91337966D02*
X146516000Y-91204633D01*
X146516000Y-91204633D02*
X146516000Y-91104633D01*
X146516000Y-91104633D02*
X146549333Y-90971300D01*
X146549333Y-90971300D02*
X146582667Y-90904633D01*
X146582667Y-90904633D02*
X146649333Y-90837966D01*
X146649333Y-90837966D02*
X146749333Y-90804633D01*
X146749333Y-90804633D02*
X146816000Y-90804633D01*
X146816000Y-90804633D02*
X146916000Y-90837966D01*
X146916000Y-90837966D02*
X146949333Y-90871300D01*
X147282667Y-91504633D02*
X147416000Y-91504633D01*
X147416000Y-91504633D02*
X147482667Y-91471300D01*
X147482667Y-91471300D02*
X147516000Y-91437966D01*
X147516000Y-91437966D02*
X147582667Y-91337966D01*
X147582667Y-91337966D02*
X147616000Y-91204633D01*
X147616000Y-91204633D02*
X147616000Y-90937966D01*
X147616000Y-90937966D02*
X147582667Y-90871300D01*
X147582667Y-90871300D02*
X147549333Y-90837966D01*
X147549333Y-90837966D02*
X147482667Y-90804633D01*
X147482667Y-90804633D02*
X147349333Y-90804633D01*
X147349333Y-90804633D02*
X147282667Y-90837966D01*
X147282667Y-90837966D02*
X147249333Y-90871300D01*
X147249333Y-90871300D02*
X147216000Y-90937966D01*
X147216000Y-90937966D02*
X147216000Y-91104633D01*
X147216000Y-91104633D02*
X147249333Y-91171300D01*
X147249333Y-91171300D02*
X147282667Y-91204633D01*
X147282667Y-91204633D02*
X147349333Y-91237966D01*
X147349333Y-91237966D02*
X147482667Y-91237966D01*
X147482667Y-91237966D02*
X147549333Y-91204633D01*
X147549333Y-91204633D02*
X147582667Y-91171300D01*
X147582667Y-91171300D02*
X147616000Y-91104633D01*
X168742633Y-107614922D02*
X168409300Y-107848255D01*
X168742633Y-108014922D02*
X168042633Y-108014922D01*
X168042633Y-108014922D02*
X168042633Y-107748255D01*
X168042633Y-107748255D02*
X168075966Y-107681589D01*
X168075966Y-107681589D02*
X168109300Y-107648255D01*
X168109300Y-107648255D02*
X168175966Y-107614922D01*
X168175966Y-107614922D02*
X168275966Y-107614922D01*
X168275966Y-107614922D02*
X168342633Y-107648255D01*
X168342633Y-107648255D02*
X168375966Y-107681589D01*
X168375966Y-107681589D02*
X168409300Y-107748255D01*
X168409300Y-107748255D02*
X168409300Y-108014922D01*
X168742633Y-106948255D02*
X168742633Y-107348255D01*
X168742633Y-107148255D02*
X168042633Y-107148255D01*
X168042633Y-107148255D02*
X168142633Y-107214922D01*
X168142633Y-107214922D02*
X168209300Y-107281589D01*
X168209300Y-107281589D02*
X168242633Y-107348255D01*
X168042633Y-106514922D02*
X168042633Y-106448255D01*
X168042633Y-106448255D02*
X168075966Y-106381588D01*
X168075966Y-106381588D02*
X168109300Y-106348255D01*
X168109300Y-106348255D02*
X168175966Y-106314922D01*
X168175966Y-106314922D02*
X168309300Y-106281588D01*
X168309300Y-106281588D02*
X168475966Y-106281588D01*
X168475966Y-106281588D02*
X168609300Y-106314922D01*
X168609300Y-106314922D02*
X168675966Y-106348255D01*
X168675966Y-106348255D02*
X168709300Y-106381588D01*
X168709300Y-106381588D02*
X168742633Y-106448255D01*
X168742633Y-106448255D02*
X168742633Y-106514922D01*
X168742633Y-106514922D02*
X168709300Y-106581588D01*
X168709300Y-106581588D02*
X168675966Y-106614922D01*
X168675966Y-106614922D02*
X168609300Y-106648255D01*
X168609300Y-106648255D02*
X168475966Y-106681588D01*
X168475966Y-106681588D02*
X168309300Y-106681588D01*
X168309300Y-106681588D02*
X168175966Y-106648255D01*
X168175966Y-106648255D02*
X168109300Y-106614922D01*
X168109300Y-106614922D02*
X168075966Y-106581588D01*
X168075966Y-106581588D02*
X168042633Y-106514922D01*
X167043333Y-79911966D02*
X167010000Y-79945300D01*
X167010000Y-79945300D02*
X166910000Y-79978633D01*
X166910000Y-79978633D02*
X166843333Y-79978633D01*
X166843333Y-79978633D02*
X166743333Y-79945300D01*
X166743333Y-79945300D02*
X166676667Y-79878633D01*
X166676667Y-79878633D02*
X166643333Y-79811966D01*
X166643333Y-79811966D02*
X166610000Y-79678633D01*
X166610000Y-79678633D02*
X166610000Y-79578633D01*
X166610000Y-79578633D02*
X166643333Y-79445300D01*
X166643333Y-79445300D02*
X166676667Y-79378633D01*
X166676667Y-79378633D02*
X166743333Y-79311966D01*
X166743333Y-79311966D02*
X166843333Y-79278633D01*
X166843333Y-79278633D02*
X166910000Y-79278633D01*
X166910000Y-79278633D02*
X167010000Y-79311966D01*
X167010000Y-79311966D02*
X167043333Y-79345300D01*
X167276667Y-79278633D02*
X167743333Y-79278633D01*
X167743333Y-79278633D02*
X167443333Y-79978633D01*
X141027999Y-109217966D02*
X140994666Y-109251300D01*
X140994666Y-109251300D02*
X140894666Y-109284633D01*
X140894666Y-109284633D02*
X140827999Y-109284633D01*
X140827999Y-109284633D02*
X140727999Y-109251300D01*
X140727999Y-109251300D02*
X140661333Y-109184633D01*
X140661333Y-109184633D02*
X140627999Y-109117966D01*
X140627999Y-109117966D02*
X140594666Y-108984633D01*
X140594666Y-108984633D02*
X140594666Y-108884633D01*
X140594666Y-108884633D02*
X140627999Y-108751300D01*
X140627999Y-108751300D02*
X140661333Y-108684633D01*
X140661333Y-108684633D02*
X140727999Y-108617966D01*
X140727999Y-108617966D02*
X140827999Y-108584633D01*
X140827999Y-108584633D02*
X140894666Y-108584633D01*
X140894666Y-108584633D02*
X140994666Y-108617966D01*
X140994666Y-108617966D02*
X141027999Y-108651300D01*
X141694666Y-109284633D02*
X141294666Y-109284633D01*
X141494666Y-109284633D02*
X141494666Y-108584633D01*
X141494666Y-108584633D02*
X141427999Y-108684633D01*
X141427999Y-108684633D02*
X141361333Y-108751300D01*
X141361333Y-108751300D02*
X141294666Y-108784633D01*
X142294666Y-108817966D02*
X142294666Y-109284633D01*
X142128000Y-108551300D02*
X141961333Y-109051300D01*
X141961333Y-109051300D02*
X142394666Y-109051300D01*
X134100598Y-125087105D02*
X134100598Y-124387105D01*
X134100598Y-124720438D02*
X134500598Y-124720438D01*
X134500598Y-125087105D02*
X134500598Y-124387105D01*
X134767265Y-124387105D02*
X135200598Y-124387105D01*
X135200598Y-124387105D02*
X134967265Y-124653772D01*
X134967265Y-124653772D02*
X135067265Y-124653772D01*
X135067265Y-124653772D02*
X135133931Y-124687105D01*
X135133931Y-124687105D02*
X135167265Y-124720438D01*
X135167265Y-124720438D02*
X135200598Y-124787105D01*
X135200598Y-124787105D02*
X135200598Y-124953772D01*
X135200598Y-124953772D02*
X135167265Y-125020438D01*
X135167265Y-125020438D02*
X135133931Y-125053772D01*
X135133931Y-125053772D02*
X135067265Y-125087105D01*
X135067265Y-125087105D02*
X134867265Y-125087105D01*
X134867265Y-125087105D02*
X134800598Y-125053772D01*
X134800598Y-125053772D02*
X134767265Y-125020438D01*
X142059999Y-112348633D02*
X141826666Y-112015300D01*
X141659999Y-112348633D02*
X141659999Y-111648633D01*
X141659999Y-111648633D02*
X141926666Y-111648633D01*
X141926666Y-111648633D02*
X141993333Y-111681966D01*
X141993333Y-111681966D02*
X142026666Y-111715300D01*
X142026666Y-111715300D02*
X142059999Y-111781966D01*
X142059999Y-111781966D02*
X142059999Y-111881966D01*
X142059999Y-111881966D02*
X142026666Y-111948633D01*
X142026666Y-111948633D02*
X141993333Y-111981966D01*
X141993333Y-111981966D02*
X141926666Y-112015300D01*
X141926666Y-112015300D02*
X141659999Y-112015300D01*
X142726666Y-112348633D02*
X142326666Y-112348633D01*
X142526666Y-112348633D02*
X142526666Y-111648633D01*
X142526666Y-111648633D02*
X142459999Y-111748633D01*
X142459999Y-111748633D02*
X142393333Y-111815300D01*
X142393333Y-111815300D02*
X142326666Y-111848633D01*
X143393333Y-112348633D02*
X142993333Y-112348633D01*
X143193333Y-112348633D02*
X143193333Y-111648633D01*
X143193333Y-111648633D02*
X143126666Y-111748633D01*
X143126666Y-111748633D02*
X143060000Y-111815300D01*
X143060000Y-111815300D02*
X142993333Y-111848633D01*
X133966666Y-78338633D02*
X133966666Y-78838633D01*
X133966666Y-78838633D02*
X133933333Y-78938633D01*
X133933333Y-78938633D02*
X133866666Y-79005300D01*
X133866666Y-79005300D02*
X133766666Y-79038633D01*
X133766666Y-79038633D02*
X133700000Y-79038633D01*
X134599999Y-78571966D02*
X134599999Y-79038633D01*
X134433333Y-78305300D02*
X134266666Y-78805300D01*
X134266666Y-78805300D02*
X134699999Y-78805300D01*
X134053333Y-103041966D02*
X134020000Y-103075300D01*
X134020000Y-103075300D02*
X133920000Y-103108633D01*
X133920000Y-103108633D02*
X133853333Y-103108633D01*
X133853333Y-103108633D02*
X133753333Y-103075300D01*
X133753333Y-103075300D02*
X133686667Y-103008633D01*
X133686667Y-103008633D02*
X133653333Y-102941966D01*
X133653333Y-102941966D02*
X133620000Y-102808633D01*
X133620000Y-102808633D02*
X133620000Y-102708633D01*
X133620000Y-102708633D02*
X133653333Y-102575300D01*
X133653333Y-102575300D02*
X133686667Y-102508633D01*
X133686667Y-102508633D02*
X133753333Y-102441966D01*
X133753333Y-102441966D02*
X133853333Y-102408633D01*
X133853333Y-102408633D02*
X133920000Y-102408633D01*
X133920000Y-102408633D02*
X134020000Y-102441966D01*
X134020000Y-102441966D02*
X134053333Y-102475300D01*
X134720000Y-103108633D02*
X134320000Y-103108633D01*
X134520000Y-103108633D02*
X134520000Y-102408633D01*
X134520000Y-102408633D02*
X134453333Y-102508633D01*
X134453333Y-102508633D02*
X134386667Y-102575300D01*
X134386667Y-102575300D02*
X134320000Y-102608633D01*
X168732633Y-112346588D02*
X168032633Y-112346588D01*
X168032633Y-112346588D02*
X168032633Y-112179921D01*
X168032633Y-112179921D02*
X168065966Y-112079921D01*
X168065966Y-112079921D02*
X168132633Y-112013255D01*
X168132633Y-112013255D02*
X168199300Y-111979921D01*
X168199300Y-111979921D02*
X168332633Y-111946588D01*
X168332633Y-111946588D02*
X168432633Y-111946588D01*
X168432633Y-111946588D02*
X168565966Y-111979921D01*
X168565966Y-111979921D02*
X168632633Y-112013255D01*
X168632633Y-112013255D02*
X168699300Y-112079921D01*
X168699300Y-112079921D02*
X168732633Y-112179921D01*
X168732633Y-112179921D02*
X168732633Y-112346588D01*
X168265966Y-111346588D02*
X168732633Y-111346588D01*
X167999300Y-111513255D02*
X168499300Y-111679921D01*
X168499300Y-111679921D02*
X168499300Y-111246588D01*
X135813333Y-96628633D02*
X135580000Y-96295300D01*
X135413333Y-96628633D02*
X135413333Y-95928633D01*
X135413333Y-95928633D02*
X135680000Y-95928633D01*
X135680000Y-95928633D02*
X135746667Y-95961966D01*
X135746667Y-95961966D02*
X135780000Y-95995300D01*
X135780000Y-95995300D02*
X135813333Y-96061966D01*
X135813333Y-96061966D02*
X135813333Y-96161966D01*
X135813333Y-96161966D02*
X135780000Y-96228633D01*
X135780000Y-96228633D02*
X135746667Y-96261966D01*
X135746667Y-96261966D02*
X135680000Y-96295300D01*
X135680000Y-96295300D02*
X135413333Y-96295300D01*
X136480000Y-96628633D02*
X136080000Y-96628633D01*
X136280000Y-96628633D02*
X136280000Y-95928633D01*
X136280000Y-95928633D02*
X136213333Y-96028633D01*
X136213333Y-96028633D02*
X136146667Y-96095300D01*
X136146667Y-96095300D02*
X136080000Y-96128633D01*
D11*
X168625000Y-100276248D02*
X168625000Y-100798752D01*
X167155000Y-100276248D02*
X167155000Y-100798752D01*
X150810000Y-122180000D02*
X149810000Y-122180000D01*
X150810000Y-121180000D02*
X150810000Y-122180000D01*
X148810000Y-120180000D02*
X148810000Y-117580000D01*
X142810000Y-122130000D02*
X148610000Y-122130000D01*
X142710000Y-115630000D02*
X148710000Y-115630000D01*
X142610000Y-120180000D02*
X142610000Y-117580000D01*
X151447064Y-88765000D02*
X150992936Y-88765000D01*
X151447064Y-87295000D02*
X150992936Y-87295000D01*
X164235000Y-81721252D02*
X164235000Y-81198748D01*
X165705000Y-81721252D02*
X165705000Y-81198748D01*
X134320000Y-111290000D02*
X135650000Y-111290000D01*
X134320000Y-112620000D02*
X134320000Y-111290000D01*
X134320000Y-113890000D02*
X134320000Y-113950000D01*
X134320000Y-113890000D02*
X136980000Y-113890000D01*
X134320000Y-113950000D02*
X136980000Y-113950000D01*
X136980000Y-113890000D02*
X136980000Y-113950000D01*
X158441252Y-111185000D02*
X157918748Y-111185000D01*
X158441252Y-109715000D02*
X157918748Y-109715000D01*
X141357595Y-100350859D02*
X139947595Y-100350859D01*
X139947595Y-102680859D02*
X139947595Y-102010859D01*
X139947595Y-102670859D02*
X142682595Y-102670859D01*
X139947595Y-101010859D02*
X139947595Y-100350859D01*
X166400000Y-116420000D02*
X167730000Y-116420000D01*
X166400000Y-117750000D02*
X166400000Y-116420000D01*
X166400000Y-119020000D02*
X166400000Y-119080000D01*
X166400000Y-119020000D02*
X169060000Y-119020000D01*
X166400000Y-119080000D02*
X169060000Y-119080000D01*
X169060000Y-119020000D02*
X169060000Y-119080000D01*
X162370000Y-122180000D02*
X161370000Y-122180000D01*
X162370000Y-121180000D02*
X162370000Y-122180000D01*
X160370000Y-120180000D02*
X160370000Y-117580000D01*
X154370000Y-122130000D02*
X160170000Y-122130000D01*
X154270000Y-115630000D02*
X160270000Y-115630000D01*
X154170000Y-120180000D02*
X154170000Y-117580000D01*
D12*
X165530000Y-97717500D02*
X165530000Y-98597500D01*
X164030000Y-97717500D02*
X164030000Y-98597500D01*
D13*
X164921419Y-95457500D02*
G75*
G03*
X164638581Y-95457500I-141419J0D01*
G01*
X164638581Y-95457500D02*
G75*
G03*
X164921419Y-95457500I141419J0D01*
G01*
D11*
X166531252Y-92475000D02*
X166008748Y-92475000D01*
X166531252Y-91005000D02*
X166008748Y-91005000D01*
X161964000Y-109084922D02*
X163884000Y-109084922D01*
X163884000Y-109084922D02*
X163884000Y-106224922D01*
X161964000Y-106224922D02*
X161964000Y-109084922D01*
X149481252Y-111987000D02*
X148958748Y-111987000D01*
X149481252Y-110517000D02*
X148958748Y-110517000D01*
X166098748Y-85415000D02*
X166621252Y-85415000D01*
X166098748Y-86885000D02*
X166621252Y-86885000D01*
X161954000Y-113749922D02*
X163874000Y-113749922D01*
X163874000Y-113749922D02*
X163874000Y-110889922D01*
X161954000Y-110889922D02*
X161954000Y-113749922D01*
X136675000Y-107038748D02*
X136675000Y-107561252D01*
X135205000Y-107038748D02*
X135205000Y-107561252D01*
X167155000Y-96218752D02*
X167155000Y-95696248D01*
X168625000Y-96218752D02*
X168625000Y-95696248D01*
X155310000Y-110210000D02*
X153390000Y-110210000D01*
X153390000Y-110210000D02*
X153390000Y-113070000D01*
X155310000Y-113070000D02*
X155310000Y-110210000D01*
X160755000Y-96004748D02*
X160755000Y-96527252D01*
X159285000Y-96004748D02*
X159285000Y-96527252D01*
X161950000Y-90760000D02*
X161690000Y-90760000D01*
X161950000Y-86740000D02*
X161950000Y-87000000D01*
X161950000Y-86740000D02*
X161690000Y-86740000D01*
X156530000Y-90760000D02*
X156790000Y-90760000D01*
X156530000Y-90760000D02*
X156530000Y-90500000D01*
X156530000Y-86740000D02*
X156790000Y-86740000D01*
X156530000Y-86740000D02*
X156530000Y-87000000D01*
X144980000Y-85800000D02*
X144980000Y-86800000D01*
X143980000Y-85800000D02*
X144980000Y-85800000D01*
X142980000Y-87800000D02*
X140380000Y-87800000D01*
X144930000Y-93800000D02*
X144930000Y-88000000D01*
X138430000Y-93900000D02*
X138430000Y-87900000D01*
X142980000Y-94000000D02*
X140380000Y-94000000D01*
X143255000Y-98401252D02*
X143255000Y-97878748D01*
X144725000Y-98401252D02*
X144725000Y-97878748D01*
X147203000Y-97486000D02*
X147203000Y-98436000D01*
X147203000Y-98436000D02*
X145863000Y-98436000D01*
X147203000Y-107706000D02*
X147203000Y-106756000D01*
X148153000Y-97486000D02*
X147203000Y-97486000D01*
X148153000Y-107706000D02*
X147203000Y-107706000D01*
X156473000Y-97486000D02*
X157423000Y-97486000D01*
X156473000Y-107706000D02*
X157423000Y-107706000D01*
X157423000Y-97486000D02*
X157423000Y-98436000D01*
X157423000Y-107706000D02*
X157423000Y-106756000D01*
D14*
X145380000Y-66490000D02*
X158880000Y-66490000D01*
X145380000Y-84990000D02*
X145380000Y-66490000D01*
X158880000Y-66490000D02*
X158880000Y-84990000D01*
X158880000Y-84990000D02*
X145380000Y-84990000D01*
D11*
X146331000Y-94219752D02*
X146331000Y-93697248D01*
X147801000Y-94219752D02*
X147801000Y-93697248D01*
X165664000Y-109079922D02*
X167584000Y-109079922D01*
X167584000Y-109079922D02*
X167584000Y-106219922D01*
X165664000Y-106219922D02*
X165664000Y-109079922D01*
X168435000Y-81791252D02*
X168435000Y-81268748D01*
X169905000Y-81791252D02*
X169905000Y-81268748D01*
X143009252Y-107923000D02*
X142486748Y-107923000D01*
X143009252Y-106453000D02*
X142486748Y-106453000D01*
X145994000Y-110154000D02*
X144074000Y-110154000D01*
X144074000Y-110154000D02*
X144074000Y-113014000D01*
X145994000Y-113014000D02*
X145994000Y-110154000D01*
X134120000Y-79710000D02*
X135450000Y-79710000D01*
X134120000Y-81040000D02*
X134120000Y-79710000D01*
X134120000Y-82310000D02*
X134120000Y-82370000D01*
X134120000Y-82310000D02*
X136780000Y-82310000D01*
X134120000Y-82370000D02*
X136780000Y-82370000D01*
X136780000Y-82310000D02*
X136780000Y-82370000D01*
X136685000Y-102588748D02*
X136685000Y-103111252D01*
X135215000Y-102588748D02*
X135215000Y-103111252D01*
X165654000Y-113744922D02*
X167574000Y-113744922D01*
X167574000Y-113744922D02*
X167574000Y-110884922D01*
X165654000Y-110884922D02*
X165654000Y-113744922D01*
X136655000Y-98602936D02*
X136655000Y-99057064D01*
X135185000Y-98602936D02*
X135185000Y-99057064D01*
%LPC*%
D15*
X167890000Y-99500000D03*
X167890000Y-101575000D03*
D16*
X149710000Y-121130000D03*
X141710000Y-121130000D03*
X149710000Y-116630000D03*
X141710000Y-116630000D03*
D17*
X152220000Y-88030000D03*
X150220000Y-88030000D03*
D18*
X164970000Y-82497500D03*
X164970000Y-80422500D03*
D19*
X135650000Y-112620000D03*
D20*
X159217500Y-110450000D03*
X157142500Y-110450000D03*
D21*
X142012595Y-102160859D03*
X142012595Y-100860859D03*
X139352595Y-101510859D03*
D19*
X167730000Y-117750000D03*
D16*
X161270000Y-121130000D03*
X153270000Y-121130000D03*
X161270000Y-116630000D03*
X153270000Y-116630000D03*
D22*
X136400000Y-75910000D03*
D23*
X164780000Y-96907500D03*
X164780000Y-99407500D03*
D20*
X167307500Y-91740000D03*
X165232500Y-91740000D03*
D24*
X162924000Y-108249922D03*
X162924000Y-106199922D03*
D20*
X150257500Y-111252000D03*
X148182500Y-111252000D03*
D25*
X165322500Y-86150000D03*
X167397500Y-86150000D03*
D22*
X167880000Y-122660000D03*
D24*
X162914000Y-112914922D03*
X162914000Y-110864922D03*
D15*
X135940000Y-106262500D03*
X135940000Y-108337500D03*
D18*
X167890000Y-96995000D03*
X167890000Y-94920000D03*
D26*
X154350000Y-111045000D03*
X154350000Y-113095000D03*
D15*
X160020000Y-95228500D03*
X160020000Y-97303500D03*
D27*
X161488500Y-90617500D03*
D28*
X161800000Y-89500000D03*
X161800000Y-89000000D03*
X161800000Y-88500000D03*
X161800000Y-88000000D03*
D27*
X161490000Y-86880000D03*
X160990000Y-86880000D03*
X160490000Y-86880000D03*
X159990000Y-86880000D03*
X159490000Y-86880000D03*
X158990000Y-86880000D03*
X158490000Y-86880000D03*
X157990000Y-86880000D03*
X157490000Y-86880000D03*
X156990000Y-86880000D03*
D28*
X156670000Y-88000000D03*
X156670000Y-88500000D03*
X156670000Y-89000000D03*
X156670000Y-89498500D03*
D27*
X156990000Y-90620000D03*
X157490000Y-90620000D03*
X157990000Y-90620000D03*
X158490000Y-90620000D03*
X158990000Y-90620000D03*
X159490000Y-90620000D03*
X159990000Y-90620000D03*
X160490000Y-90620000D03*
X160990000Y-90620000D03*
D29*
X143930000Y-86900000D03*
X143930000Y-94900000D03*
X139430000Y-86900000D03*
X139430000Y-94900000D03*
D22*
X167850000Y-75920000D03*
D18*
X143990000Y-99177500D03*
X143990000Y-97102500D03*
D30*
X146638000Y-98846000D03*
X146638000Y-99346000D03*
X146638000Y-99846000D03*
X146638000Y-100346000D03*
X146638000Y-100846000D03*
X146638000Y-101346000D03*
X146638000Y-101846000D03*
X146638000Y-102346000D03*
X146638000Y-102846000D03*
X146638000Y-103346000D03*
X146638000Y-103846000D03*
X146638000Y-104346000D03*
X146638000Y-104846000D03*
X146638000Y-105346000D03*
X146638000Y-105846000D03*
X146638000Y-106346000D03*
D31*
X148563000Y-108271000D03*
X149063000Y-108271000D03*
X149563000Y-108271000D03*
X150063000Y-108271000D03*
X150563000Y-108271000D03*
X151063000Y-108271000D03*
X151563000Y-108271000D03*
X152063000Y-108271000D03*
X152563000Y-108271000D03*
X153063000Y-108271000D03*
X153563000Y-108271000D03*
X154063000Y-108271000D03*
X154563000Y-108271000D03*
X155063000Y-108271000D03*
X155563000Y-108271000D03*
X156063000Y-108271000D03*
D30*
X157988000Y-106346000D03*
X157988000Y-105846000D03*
X157988000Y-105346000D03*
X157988000Y-104846000D03*
X157988000Y-104346000D03*
X157988000Y-103846000D03*
X157988000Y-103346000D03*
X157988000Y-102846000D03*
X157988000Y-102346000D03*
X157988000Y-101846000D03*
X157988000Y-101346000D03*
X157988000Y-100846000D03*
X157988000Y-100346000D03*
X157988000Y-99846000D03*
X157988000Y-99346000D03*
X157988000Y-98846000D03*
D31*
X156063000Y-96921000D03*
X155563000Y-96921000D03*
X155063000Y-96921000D03*
X154563000Y-96921000D03*
X154063000Y-96921000D03*
X153563000Y-96921000D03*
X153063000Y-96921000D03*
X152563000Y-96921000D03*
X152063000Y-96921000D03*
X151563000Y-96921000D03*
X151063000Y-96921000D03*
X150563000Y-96921000D03*
X150063000Y-96921000D03*
X149563000Y-96921000D03*
X149063000Y-96921000D03*
X148563000Y-96921000D03*
D32*
X145380000Y-73490000D03*
X145380000Y-74990000D03*
X145380000Y-76490000D03*
X145380000Y-77990000D03*
X145380000Y-79490000D03*
X145380000Y-80990000D03*
X145380000Y-82490000D03*
X145380000Y-83990000D03*
X158880000Y-83990000D03*
X158880000Y-82490000D03*
X158880000Y-80990000D03*
X158880000Y-79490000D03*
X158880000Y-77990000D03*
X158880000Y-76490000D03*
X158880000Y-74990000D03*
X158880000Y-73490000D03*
D18*
X147066000Y-94996000D03*
X147066000Y-92921000D03*
D24*
X166624000Y-108244922D03*
X166624000Y-106194922D03*
D18*
X169170000Y-82567500D03*
X169170000Y-80492500D03*
D20*
X143785500Y-107188000D03*
X141710500Y-107188000D03*
D22*
X136410000Y-122670000D03*
D26*
X145034000Y-110989000D03*
X145034000Y-113039000D03*
D19*
X135450000Y-81040000D03*
D15*
X135950000Y-101812500D03*
X135950000Y-103887500D03*
D24*
X166614000Y-112909922D03*
X166614000Y-110859922D03*
D33*
X135920000Y-97830000D03*
X135920000Y-99830000D03*
D19*
X151830000Y-123940000D03*
D34*
X149290000Y-123940000D03*
X146750000Y-123940000D03*
X144210000Y-123940000D03*
X141670000Y-123940000D03*
D19*
X135430000Y-86020000D03*
D34*
X135430000Y-88560000D03*
X135430000Y-91100000D03*
X135430000Y-93640000D03*
D35*
X143354506Y-101837657D03*
X139470000Y-88700000D03*
X139446000Y-96774000D03*
X139450000Y-92460000D03*
X163310000Y-90410000D03*
X169920000Y-89320000D03*
X151590000Y-119040000D03*
X168800000Y-114320000D03*
X166700000Y-114740000D03*
X137980000Y-96950000D03*
X160022347Y-93777653D03*
X138640000Y-119080000D03*
X151410000Y-114850000D03*
X163420000Y-124260000D03*
X163710000Y-87090000D03*
X137990000Y-104980000D03*
X159560000Y-112650000D03*
X146190000Y-97120000D03*
X141030000Y-97780000D03*
X169180000Y-84250000D03*
X142260000Y-110250000D03*
X165100000Y-89270000D03*
X167160000Y-89570000D03*
X160138202Y-102540000D03*
X137820000Y-95520000D03*
X155525000Y-94565000D03*
X152288000Y-93539624D03*
X141580000Y-76240000D03*
X152686724Y-92623276D03*
X142220000Y-77970000D03*
X163576000Y-76962000D03*
X163576000Y-74422000D03*
X143748597Y-104124597D03*
X154069009Y-92781395D03*
X152880000Y-114730000D03*
X164375000Y-116355000D03*
X154250000Y-89510000D03*
X154220000Y-91720000D03*
%LPD*%
M02*
