G04 #@! TF.GenerationSoftware,KiCad,Pcbnew,7.0.10*
G04 #@! TF.CreationDate,2024-03-08T11:33:54-05:00*
G04 #@! TF.ProjectId,swipe-stack-glove,73776970-652d-4737-9461-636b2d676c6f,1*
G04 #@! TF.SameCoordinates,Original*
G04 #@! TF.FileFunction,Paste,Top*
G04 #@! TF.FilePolarity,Positive*
%FSLAX46Y46*%
G04 Gerber Fmt 4.6, Leading zero omitted, Abs format (unit mm)*
G04 Created by KiCad (PCBNEW 7.0.10) date 2024-03-08 11:33:54*
%MOMM*%
%LPD*%
G01*
G04 APERTURE LIST*
G04 Aperture macros list*
%AMRoundRect*
0 Rectangle with rounded corners*
0 $1 Rounding radius*
0 $2 $3 $4 $5 $6 $7 $8 $9 X,Y pos of 4 corners*
0 Add a 4 corners polygon primitive as box body*
4,1,4,$2,$3,$4,$5,$6,$7,$8,$9,$2,$3,0*
0 Add four circle primitives for the rounded corners*
1,1,$1+$1,$2,$3*
1,1,$1+$1,$4,$5*
1,1,$1+$1,$6,$7*
1,1,$1+$1,$8,$9*
0 Add four rect primitives between the rounded corners*
20,1,$1+$1,$2,$3,$4,$5,0*
20,1,$1+$1,$4,$5,$6,$7,0*
20,1,$1+$1,$6,$7,$8,$9,0*
20,1,$1+$1,$8,$9,$2,$3,0*%
G04 Aperture macros list end*
%ADD10RoundRect,0.250000X-0.475000X0.337500X-0.475000X-0.337500X0.475000X-0.337500X0.475000X0.337500X0*%
%ADD11R,1.600000X1.400000*%
%ADD12RoundRect,0.250000X0.350000X0.450000X-0.350000X0.450000X-0.350000X-0.450000X0.350000X-0.450000X0*%
%ADD13RoundRect,0.250000X0.475000X-0.337500X0.475000X0.337500X-0.475000X0.337500X-0.475000X-0.337500X0*%
%ADD14RoundRect,0.250000X0.337500X0.475000X-0.337500X0.475000X-0.337500X-0.475000X0.337500X-0.475000X0*%
%ADD15R,1.500000X0.450000*%
%ADD16R,1.900000X1.100000*%
%ADD17RoundRect,0.250000X0.450000X-0.325000X0.450000X0.325000X-0.450000X0.325000X-0.450000X-0.325000X0*%
%ADD18RoundRect,0.250000X-0.337500X-0.475000X0.337500X-0.475000X0.337500X0.475000X-0.337500X0.475000X0*%
%ADD19RoundRect,0.250000X-0.450000X0.325000X-0.450000X-0.325000X0.450000X-0.325000X0.450000X0.325000X0*%
%ADD20R,0.257000X1.085000*%
%ADD21R,1.040000X0.257000*%
%ADD22R,1.400000X1.600000*%
%ADD23RoundRect,0.075000X-0.700000X-0.075000X0.700000X-0.075000X0.700000X0.075000X-0.700000X0.075000X0*%
%ADD24RoundRect,0.075000X-0.075000X-0.700000X0.075000X-0.700000X0.075000X0.700000X-0.075000X0.700000X0*%
%ADD25R,2.000000X0.900000*%
%ADD26RoundRect,0.250000X-0.450000X0.350000X-0.450000X-0.350000X0.450000X-0.350000X0.450000X0.350000X0*%
G04 APERTURE END LIST*
D10*
X167890000Y-99500000D03*
X167890000Y-101575000D03*
D11*
X149710000Y-121130000D03*
X141710000Y-121130000D03*
X149710000Y-116630000D03*
X141710000Y-116630000D03*
D12*
X152220000Y-88030000D03*
X150220000Y-88030000D03*
D13*
X164970000Y-82497500D03*
X164970000Y-80422500D03*
D14*
X159217500Y-110450000D03*
X157142500Y-110450000D03*
D15*
X142012595Y-102160859D03*
X142012595Y-100860859D03*
X139352595Y-101510859D03*
D11*
X161270000Y-121130000D03*
X153270000Y-121130000D03*
X161270000Y-116630000D03*
X153270000Y-116630000D03*
D16*
X164780000Y-96907500D03*
X164780000Y-99407500D03*
D14*
X167307500Y-91740000D03*
X165232500Y-91740000D03*
D17*
X162924000Y-108249922D03*
X162924000Y-106199922D03*
D14*
X150257500Y-111252000D03*
X148182500Y-111252000D03*
D18*
X165322500Y-86150000D03*
X167397500Y-86150000D03*
D17*
X162914000Y-112914922D03*
X162914000Y-110864922D03*
D10*
X135940000Y-106262500D03*
X135940000Y-108337500D03*
D13*
X167890000Y-96995000D03*
X167890000Y-94920000D03*
D19*
X154350000Y-111045000D03*
X154350000Y-113095000D03*
D10*
X160020000Y-95228500D03*
X160020000Y-97303500D03*
D20*
X161488500Y-90617500D03*
D21*
X161800000Y-89500000D03*
X161800000Y-89000000D03*
X161800000Y-88500000D03*
X161800000Y-88000000D03*
D20*
X161490000Y-86880000D03*
X160990000Y-86880000D03*
X160490000Y-86880000D03*
X159990000Y-86880000D03*
X159490000Y-86880000D03*
X158990000Y-86880000D03*
X158490000Y-86880000D03*
X157990000Y-86880000D03*
X157490000Y-86880000D03*
X156990000Y-86880000D03*
D21*
X156670000Y-88000000D03*
X156670000Y-88500000D03*
X156670000Y-89000000D03*
X156670000Y-89498500D03*
D20*
X156990000Y-90620000D03*
X157490000Y-90620000D03*
X157990000Y-90620000D03*
X158490000Y-90620000D03*
X158990000Y-90620000D03*
X159490000Y-90620000D03*
X159990000Y-90620000D03*
X160490000Y-90620000D03*
X160990000Y-90620000D03*
D22*
X143930000Y-86900000D03*
X143930000Y-94900000D03*
X139430000Y-86900000D03*
X139430000Y-94900000D03*
D13*
X143990000Y-99177500D03*
X143990000Y-97102500D03*
D23*
X146638000Y-98846000D03*
X146638000Y-99346000D03*
X146638000Y-99846000D03*
X146638000Y-100346000D03*
X146638000Y-100846000D03*
X146638000Y-101346000D03*
X146638000Y-101846000D03*
X146638000Y-102346000D03*
X146638000Y-102846000D03*
X146638000Y-103346000D03*
X146638000Y-103846000D03*
X146638000Y-104346000D03*
X146638000Y-104846000D03*
X146638000Y-105346000D03*
X146638000Y-105846000D03*
X146638000Y-106346000D03*
D24*
X148563000Y-108271000D03*
X149063000Y-108271000D03*
X149563000Y-108271000D03*
X150063000Y-108271000D03*
X150563000Y-108271000D03*
X151063000Y-108271000D03*
X151563000Y-108271000D03*
X152063000Y-108271000D03*
X152563000Y-108271000D03*
X153063000Y-108271000D03*
X153563000Y-108271000D03*
X154063000Y-108271000D03*
X154563000Y-108271000D03*
X155063000Y-108271000D03*
X155563000Y-108271000D03*
X156063000Y-108271000D03*
D23*
X157988000Y-106346000D03*
X157988000Y-105846000D03*
X157988000Y-105346000D03*
X157988000Y-104846000D03*
X157988000Y-104346000D03*
X157988000Y-103846000D03*
X157988000Y-103346000D03*
X157988000Y-102846000D03*
X157988000Y-102346000D03*
X157988000Y-101846000D03*
X157988000Y-101346000D03*
X157988000Y-100846000D03*
X157988000Y-100346000D03*
X157988000Y-99846000D03*
X157988000Y-99346000D03*
X157988000Y-98846000D03*
D24*
X156063000Y-96921000D03*
X155563000Y-96921000D03*
X155063000Y-96921000D03*
X154563000Y-96921000D03*
X154063000Y-96921000D03*
X153563000Y-96921000D03*
X153063000Y-96921000D03*
X152563000Y-96921000D03*
X152063000Y-96921000D03*
X151563000Y-96921000D03*
X151063000Y-96921000D03*
X150563000Y-96921000D03*
X150063000Y-96921000D03*
X149563000Y-96921000D03*
X149063000Y-96921000D03*
X148563000Y-96921000D03*
D25*
X145380000Y-73490000D03*
X145380000Y-74990000D03*
X145380000Y-76490000D03*
X145380000Y-77990000D03*
X145380000Y-79490000D03*
X145380000Y-80990000D03*
X145380000Y-82490000D03*
X145380000Y-83990000D03*
X158880000Y-83990000D03*
X158880000Y-82490000D03*
X158880000Y-80990000D03*
X158880000Y-79490000D03*
X158880000Y-77990000D03*
X158880000Y-76490000D03*
X158880000Y-74990000D03*
X158880000Y-73490000D03*
D13*
X147066000Y-94996000D03*
X147066000Y-92921000D03*
D17*
X166624000Y-108244922D03*
X166624000Y-106194922D03*
D13*
X169170000Y-82567500D03*
X169170000Y-80492500D03*
D14*
X143785500Y-107188000D03*
X141710500Y-107188000D03*
D19*
X145034000Y-110989000D03*
X145034000Y-113039000D03*
D10*
X135950000Y-101812500D03*
X135950000Y-103887500D03*
D17*
X166614000Y-112909922D03*
X166614000Y-110859922D03*
D26*
X135920000Y-97830000D03*
X135920000Y-99830000D03*
M02*
