M48
; DRILL file {KiCad 7.0.10} date Fri Mar  8 11:34:04 2024
; FORMAT={-:-/ absolute / metric / decimal}
; #@! TF.CreationDate,2024-03-08T11:34:04-05:00
; #@! TF.GenerationSoftware,Kicad,Pcbnew,7.0.10
; #@! TF.FileFunction,Plated,1,2,PTH
FMAT,2
METRIC
; #@! TA.AperFunction,Plated,PTH,ViaDrill
T1C0.400
; #@! TA.AperFunction,Plated,PTH,ComponentDrill
T2C1.000
%
G90
G05
T1
X137.82Y-95.52
X137.98Y-96.95
X137.99Y-104.98
X138.64Y-119.08
X139.446Y-96.774
X139.45Y-92.46
X139.47Y-88.7
X141.03Y-97.78
X141.58Y-76.24
X142.22Y-77.97
X142.26Y-110.25
X143.355Y-101.838
X143.749Y-104.125
X146.19Y-97.12
X151.41Y-114.85
X151.59Y-119.04
X152.288Y-93.54
X152.687Y-92.623
X152.88Y-114.73
X154.069Y-92.781
X154.22Y-91.72
X154.25Y-89.51
X155.525Y-94.565
X159.56Y-112.65
X160.022Y-93.778
X160.138Y-102.54
X163.31Y-90.41
X163.42Y-124.26
X163.576Y-74.422
X163.576Y-76.962
X163.71Y-87.09
X164.375Y-116.355
X165.1Y-89.27
X166.7Y-114.74
X167.16Y-89.57
X168.8Y-114.32
X169.18Y-84.25
X169.92Y-89.32
T2
X135.43Y-86.02
X135.43Y-88.56
X135.43Y-91.1
X135.43Y-93.64
X135.45Y-81.04
X135.65Y-112.62
X141.67Y-123.94
X144.21Y-123.94
X146.75Y-123.94
X149.29Y-123.94
X151.83Y-123.94
X167.73Y-117.75
M30
