G04 #@! TF.GenerationSoftware,KiCad,Pcbnew,7.0.10*
G04 #@! TF.CreationDate,2024-03-08T11:33:54-05:00*
G04 #@! TF.ProjectId,swipe-stack-glove,73776970-652d-4737-9461-636b2d676c6f,1*
G04 #@! TF.SameCoordinates,Original*
G04 #@! TF.FileFunction,Legend,Bot*
G04 #@! TF.FilePolarity,Positive*
%FSLAX46Y46*%
G04 Gerber Fmt 4.6, Leading zero omitted, Abs format (unit mm)*
G04 Created by KiCad (PCBNEW 7.0.10) date 2024-03-08 11:33:54*
%MOMM*%
%LPD*%
G01*
G04 APERTURE LIST*
G04 Aperture macros list*
%AMRoundRect*
0 Rectangle with rounded corners*
0 $1 Rounding radius*
0 $2 $3 $4 $5 $6 $7 $8 $9 X,Y pos of 4 corners*
0 Add a 4 corners polygon primitive as box body*
4,1,4,$2,$3,$4,$5,$6,$7,$8,$9,$2,$3,0*
0 Add four circle primitives for the rounded corners*
1,1,$1+$1,$2,$3*
1,1,$1+$1,$4,$5*
1,1,$1+$1,$6,$7*
1,1,$1+$1,$8,$9*
0 Add four rect primitives between the rounded corners*
20,1,$1+$1,$2,$3,$4,$5,0*
20,1,$1+$1,$4,$5,$6,$7,0*
20,1,$1+$1,$6,$7,$8,$9,0*
20,1,$1+$1,$8,$9,$2,$3,0*%
G04 Aperture macros list end*
%ADD10C,0.200000*%
%ADD11C,0.100000*%
%ADD12C,0.120000*%
%ADD13R,1.700000X1.700000*%
%ADD14C,2.500000*%
%ADD15O,1.700000X1.700000*%
%ADD16RoundRect,0.250000X-0.325000X-0.450000X0.325000X-0.450000X0.325000X0.450000X-0.325000X0.450000X0*%
%ADD17R,1.600000X1.400000*%
%ADD18RoundRect,0.250000X0.450000X-0.350000X0.450000X0.350000X-0.450000X0.350000X-0.450000X-0.350000X0*%
%ADD19RoundRect,0.250000X-0.450000X0.350000X-0.450000X-0.350000X0.450000X-0.350000X0.450000X0.350000X0*%
%ADD20RoundRect,0.250000X0.450000X-0.325000X0.450000X0.325000X-0.450000X0.325000X-0.450000X-0.325000X0*%
%ADD21RoundRect,0.250000X0.350000X0.450000X-0.350000X0.450000X-0.350000X-0.450000X0.350000X-0.450000X0*%
%ADD22C,0.800000*%
G04 APERTURE END LIST*
D10*
X160380476Y-74307219D02*
X159809048Y-74307219D01*
X160094762Y-75307219D02*
X160094762Y-74307219D01*
X159094762Y-75259600D02*
X159190000Y-75307219D01*
X159190000Y-75307219D02*
X159380476Y-75307219D01*
X159380476Y-75307219D02*
X159475714Y-75259600D01*
X159475714Y-75259600D02*
X159523333Y-75164361D01*
X159523333Y-75164361D02*
X159523333Y-74783409D01*
X159523333Y-74783409D02*
X159475714Y-74688171D01*
X159475714Y-74688171D02*
X159380476Y-74640552D01*
X159380476Y-74640552D02*
X159190000Y-74640552D01*
X159190000Y-74640552D02*
X159094762Y-74688171D01*
X159094762Y-74688171D02*
X159047143Y-74783409D01*
X159047143Y-74783409D02*
X159047143Y-74878647D01*
X159047143Y-74878647D02*
X159523333Y-74973885D01*
X158190000Y-75307219D02*
X158190000Y-74783409D01*
X158190000Y-74783409D02*
X158237619Y-74688171D01*
X158237619Y-74688171D02*
X158332857Y-74640552D01*
X158332857Y-74640552D02*
X158523333Y-74640552D01*
X158523333Y-74640552D02*
X158618571Y-74688171D01*
X158190000Y-75259600D02*
X158285238Y-75307219D01*
X158285238Y-75307219D02*
X158523333Y-75307219D01*
X158523333Y-75307219D02*
X158618571Y-75259600D01*
X158618571Y-75259600D02*
X158666190Y-75164361D01*
X158666190Y-75164361D02*
X158666190Y-75069123D01*
X158666190Y-75069123D02*
X158618571Y-74973885D01*
X158618571Y-74973885D02*
X158523333Y-74926266D01*
X158523333Y-74926266D02*
X158285238Y-74926266D01*
X158285238Y-74926266D02*
X158190000Y-74878647D01*
X157713809Y-75307219D02*
X157713809Y-74640552D01*
X157713809Y-74735790D02*
X157666190Y-74688171D01*
X157666190Y-74688171D02*
X157570952Y-74640552D01*
X157570952Y-74640552D02*
X157428095Y-74640552D01*
X157428095Y-74640552D02*
X157332857Y-74688171D01*
X157332857Y-74688171D02*
X157285238Y-74783409D01*
X157285238Y-74783409D02*
X157285238Y-75307219D01*
X157285238Y-74783409D02*
X157237619Y-74688171D01*
X157237619Y-74688171D02*
X157142381Y-74640552D01*
X157142381Y-74640552D02*
X156999524Y-74640552D01*
X156999524Y-74640552D02*
X156904285Y-74688171D01*
X156904285Y-74688171D02*
X156856666Y-74783409D01*
X156856666Y-74783409D02*
X156856666Y-75307219D01*
X155094762Y-75307219D02*
X155666190Y-75307219D01*
X155380476Y-75307219D02*
X155380476Y-74307219D01*
X155380476Y-74307219D02*
X155475714Y-74450076D01*
X155475714Y-74450076D02*
X155570952Y-74545314D01*
X155570952Y-74545314D02*
X155666190Y-74592933D01*
X154761428Y-74307219D02*
X154142381Y-74307219D01*
X154142381Y-74307219D02*
X154475714Y-74688171D01*
X154475714Y-74688171D02*
X154332857Y-74688171D01*
X154332857Y-74688171D02*
X154237619Y-74735790D01*
X154237619Y-74735790D02*
X154190000Y-74783409D01*
X154190000Y-74783409D02*
X154142381Y-74878647D01*
X154142381Y-74878647D02*
X154142381Y-75116742D01*
X154142381Y-75116742D02*
X154190000Y-75211980D01*
X154190000Y-75211980D02*
X154237619Y-75259600D01*
X154237619Y-75259600D02*
X154332857Y-75307219D01*
X154332857Y-75307219D02*
X154618571Y-75307219D01*
X154618571Y-75307219D02*
X154713809Y-75259600D01*
X154713809Y-75259600D02*
X154761428Y-75211980D01*
X153713809Y-75211980D02*
X153666190Y-75259600D01*
X153666190Y-75259600D02*
X153713809Y-75307219D01*
X153713809Y-75307219D02*
X153761428Y-75259600D01*
X153761428Y-75259600D02*
X153713809Y-75211980D01*
X153713809Y-75211980D02*
X153713809Y-75307219D01*
X153713809Y-74688171D02*
X153666190Y-74735790D01*
X153666190Y-74735790D02*
X153713809Y-74783409D01*
X153713809Y-74783409D02*
X153761428Y-74735790D01*
X153761428Y-74735790D02*
X153713809Y-74688171D01*
X153713809Y-74688171D02*
X153713809Y-74783409D01*
X151951905Y-74354838D02*
X152047143Y-74307219D01*
X152047143Y-74307219D02*
X152190000Y-74307219D01*
X152190000Y-74307219D02*
X152332857Y-74354838D01*
X152332857Y-74354838D02*
X152428095Y-74450076D01*
X152428095Y-74450076D02*
X152475714Y-74545314D01*
X152475714Y-74545314D02*
X152523333Y-74735790D01*
X152523333Y-74735790D02*
X152523333Y-74878647D01*
X152523333Y-74878647D02*
X152475714Y-75069123D01*
X152475714Y-75069123D02*
X152428095Y-75164361D01*
X152428095Y-75164361D02*
X152332857Y-75259600D01*
X152332857Y-75259600D02*
X152190000Y-75307219D01*
X152190000Y-75307219D02*
X152094762Y-75307219D01*
X152094762Y-75307219D02*
X151951905Y-75259600D01*
X151951905Y-75259600D02*
X151904286Y-75211980D01*
X151904286Y-75211980D02*
X151904286Y-74878647D01*
X151904286Y-74878647D02*
X152094762Y-74878647D01*
X151332857Y-75307219D02*
X151428095Y-75259600D01*
X151428095Y-75259600D02*
X151475714Y-75164361D01*
X151475714Y-75164361D02*
X151475714Y-74307219D01*
X150809047Y-75307219D02*
X150904285Y-75259600D01*
X150904285Y-75259600D02*
X150951904Y-75211980D01*
X150951904Y-75211980D02*
X150999523Y-75116742D01*
X150999523Y-75116742D02*
X150999523Y-74831028D01*
X150999523Y-74831028D02*
X150951904Y-74735790D01*
X150951904Y-74735790D02*
X150904285Y-74688171D01*
X150904285Y-74688171D02*
X150809047Y-74640552D01*
X150809047Y-74640552D02*
X150666190Y-74640552D01*
X150666190Y-74640552D02*
X150570952Y-74688171D01*
X150570952Y-74688171D02*
X150523333Y-74735790D01*
X150523333Y-74735790D02*
X150475714Y-74831028D01*
X150475714Y-74831028D02*
X150475714Y-75116742D01*
X150475714Y-75116742D02*
X150523333Y-75211980D01*
X150523333Y-75211980D02*
X150570952Y-75259600D01*
X150570952Y-75259600D02*
X150666190Y-75307219D01*
X150666190Y-75307219D02*
X150809047Y-75307219D01*
X150142380Y-74640552D02*
X149904285Y-75307219D01*
X149904285Y-75307219D02*
X149666190Y-74640552D01*
X148904285Y-75259600D02*
X148999523Y-75307219D01*
X148999523Y-75307219D02*
X149189999Y-75307219D01*
X149189999Y-75307219D02*
X149285237Y-75259600D01*
X149285237Y-75259600D02*
X149332856Y-75164361D01*
X149332856Y-75164361D02*
X149332856Y-74783409D01*
X149332856Y-74783409D02*
X149285237Y-74688171D01*
X149285237Y-74688171D02*
X149189999Y-74640552D01*
X149189999Y-74640552D02*
X148999523Y-74640552D01*
X148999523Y-74640552D02*
X148904285Y-74688171D01*
X148904285Y-74688171D02*
X148856666Y-74783409D01*
X148856666Y-74783409D02*
X148856666Y-74878647D01*
X148856666Y-74878647D02*
X149332856Y-74973885D01*
X147666189Y-75307219D02*
X147666189Y-74307219D01*
X147666189Y-74307219D02*
X147285237Y-74307219D01*
X147285237Y-74307219D02*
X147189999Y-74354838D01*
X147189999Y-74354838D02*
X147142380Y-74402457D01*
X147142380Y-74402457D02*
X147094761Y-74497695D01*
X147094761Y-74497695D02*
X147094761Y-74640552D01*
X147094761Y-74640552D02*
X147142380Y-74735790D01*
X147142380Y-74735790D02*
X147189999Y-74783409D01*
X147189999Y-74783409D02*
X147285237Y-74831028D01*
X147285237Y-74831028D02*
X147666189Y-74831028D01*
X146094761Y-75211980D02*
X146142380Y-75259600D01*
X146142380Y-75259600D02*
X146285237Y-75307219D01*
X146285237Y-75307219D02*
X146380475Y-75307219D01*
X146380475Y-75307219D02*
X146523332Y-75259600D01*
X146523332Y-75259600D02*
X146618570Y-75164361D01*
X146618570Y-75164361D02*
X146666189Y-75069123D01*
X146666189Y-75069123D02*
X146713808Y-74878647D01*
X146713808Y-74878647D02*
X146713808Y-74735790D01*
X146713808Y-74735790D02*
X146666189Y-74545314D01*
X146666189Y-74545314D02*
X146618570Y-74450076D01*
X146618570Y-74450076D02*
X146523332Y-74354838D01*
X146523332Y-74354838D02*
X146380475Y-74307219D01*
X146380475Y-74307219D02*
X146285237Y-74307219D01*
X146285237Y-74307219D02*
X146142380Y-74354838D01*
X146142380Y-74354838D02*
X146094761Y-74402457D01*
X145332856Y-74783409D02*
X145189999Y-74831028D01*
X145189999Y-74831028D02*
X145142380Y-74878647D01*
X145142380Y-74878647D02*
X145094761Y-74973885D01*
X145094761Y-74973885D02*
X145094761Y-75116742D01*
X145094761Y-75116742D02*
X145142380Y-75211980D01*
X145142380Y-75211980D02*
X145189999Y-75259600D01*
X145189999Y-75259600D02*
X145285237Y-75307219D01*
X145285237Y-75307219D02*
X145666189Y-75307219D01*
X145666189Y-75307219D02*
X145666189Y-74307219D01*
X145666189Y-74307219D02*
X145332856Y-74307219D01*
X145332856Y-74307219D02*
X145237618Y-74354838D01*
X145237618Y-74354838D02*
X145189999Y-74402457D01*
X145189999Y-74402457D02*
X145142380Y-74497695D01*
X145142380Y-74497695D02*
X145142380Y-74592933D01*
X145142380Y-74592933D02*
X145189999Y-74688171D01*
X145189999Y-74688171D02*
X145237618Y-74735790D01*
X145237618Y-74735790D02*
X145332856Y-74783409D01*
X145332856Y-74783409D02*
X145666189Y-74783409D01*
X159237619Y-78241504D02*
X158761429Y-78241504D01*
X159332857Y-78527219D02*
X158999524Y-77527219D01*
X158999524Y-77527219D02*
X158666191Y-78527219D01*
X157904286Y-78527219D02*
X157904286Y-77527219D01*
X157904286Y-78479600D02*
X157999524Y-78527219D01*
X157999524Y-78527219D02*
X158190000Y-78527219D01*
X158190000Y-78527219D02*
X158285238Y-78479600D01*
X158285238Y-78479600D02*
X158332857Y-78431980D01*
X158332857Y-78431980D02*
X158380476Y-78336742D01*
X158380476Y-78336742D02*
X158380476Y-78051028D01*
X158380476Y-78051028D02*
X158332857Y-77955790D01*
X158332857Y-77955790D02*
X158285238Y-77908171D01*
X158285238Y-77908171D02*
X158190000Y-77860552D01*
X158190000Y-77860552D02*
X157999524Y-77860552D01*
X157999524Y-77860552D02*
X157904286Y-77908171D01*
X157428095Y-78527219D02*
X157428095Y-77860552D01*
X157428095Y-77527219D02*
X157475714Y-77574838D01*
X157475714Y-77574838D02*
X157428095Y-77622457D01*
X157428095Y-77622457D02*
X157380476Y-77574838D01*
X157380476Y-77574838D02*
X157428095Y-77527219D01*
X157428095Y-77527219D02*
X157428095Y-77622457D01*
X157094762Y-77860552D02*
X156713810Y-77860552D01*
X156951905Y-77527219D02*
X156951905Y-78384361D01*
X156951905Y-78384361D02*
X156904286Y-78479600D01*
X156904286Y-78479600D02*
X156809048Y-78527219D01*
X156809048Y-78527219D02*
X156713810Y-78527219D01*
X156475714Y-77860552D02*
X156237619Y-78527219D01*
X155999524Y-77860552D02*
X156237619Y-78527219D01*
X156237619Y-78527219D02*
X156332857Y-78765314D01*
X156332857Y-78765314D02*
X156380476Y-78812933D01*
X156380476Y-78812933D02*
X156475714Y-78860552D01*
X155190000Y-78527219D02*
X155190000Y-78003409D01*
X155190000Y-78003409D02*
X155237619Y-77908171D01*
X155237619Y-77908171D02*
X155332857Y-77860552D01*
X155332857Y-77860552D02*
X155523333Y-77860552D01*
X155523333Y-77860552D02*
X155618571Y-77908171D01*
X155190000Y-78479600D02*
X155285238Y-78527219D01*
X155285238Y-78527219D02*
X155523333Y-78527219D01*
X155523333Y-78527219D02*
X155618571Y-78479600D01*
X155618571Y-78479600D02*
X155666190Y-78384361D01*
X155666190Y-78384361D02*
X155666190Y-78289123D01*
X155666190Y-78289123D02*
X155618571Y-78193885D01*
X155618571Y-78193885D02*
X155523333Y-78146266D01*
X155523333Y-78146266D02*
X155285238Y-78146266D01*
X155285238Y-78146266D02*
X155190000Y-78098647D01*
X153999523Y-78479600D02*
X153856666Y-78527219D01*
X153856666Y-78527219D02*
X153618571Y-78527219D01*
X153618571Y-78527219D02*
X153523333Y-78479600D01*
X153523333Y-78479600D02*
X153475714Y-78431980D01*
X153475714Y-78431980D02*
X153428095Y-78336742D01*
X153428095Y-78336742D02*
X153428095Y-78241504D01*
X153428095Y-78241504D02*
X153475714Y-78146266D01*
X153475714Y-78146266D02*
X153523333Y-78098647D01*
X153523333Y-78098647D02*
X153618571Y-78051028D01*
X153618571Y-78051028D02*
X153809047Y-78003409D01*
X153809047Y-78003409D02*
X153904285Y-77955790D01*
X153904285Y-77955790D02*
X153951904Y-77908171D01*
X153951904Y-77908171D02*
X153999523Y-77812933D01*
X153999523Y-77812933D02*
X153999523Y-77717695D01*
X153999523Y-77717695D02*
X153951904Y-77622457D01*
X153951904Y-77622457D02*
X153904285Y-77574838D01*
X153904285Y-77574838D02*
X153809047Y-77527219D01*
X153809047Y-77527219D02*
X153570952Y-77527219D01*
X153570952Y-77527219D02*
X153428095Y-77574838D01*
X152999523Y-78431980D02*
X152951904Y-78479600D01*
X152951904Y-78479600D02*
X152999523Y-78527219D01*
X152999523Y-78527219D02*
X153047142Y-78479600D01*
X153047142Y-78479600D02*
X152999523Y-78431980D01*
X152999523Y-78431980D02*
X152999523Y-78527219D01*
X151809047Y-78241504D02*
X151332857Y-78241504D01*
X151904285Y-78527219D02*
X151570952Y-77527219D01*
X151570952Y-77527219D02*
X151237619Y-78527219D01*
X150761428Y-78527219D02*
X150856666Y-78479600D01*
X150856666Y-78479600D02*
X150904285Y-78384361D01*
X150904285Y-78384361D02*
X150904285Y-77527219D01*
X149999523Y-78479600D02*
X150094761Y-78527219D01*
X150094761Y-78527219D02*
X150285237Y-78527219D01*
X150285237Y-78527219D02*
X150380475Y-78479600D01*
X150380475Y-78479600D02*
X150428094Y-78384361D01*
X150428094Y-78384361D02*
X150428094Y-78003409D01*
X150428094Y-78003409D02*
X150380475Y-77908171D01*
X150380475Y-77908171D02*
X150285237Y-77860552D01*
X150285237Y-77860552D02*
X150094761Y-77860552D01*
X150094761Y-77860552D02*
X149999523Y-77908171D01*
X149999523Y-77908171D02*
X149951904Y-78003409D01*
X149951904Y-78003409D02*
X149951904Y-78098647D01*
X149951904Y-78098647D02*
X150428094Y-78193885D01*
X149618570Y-78527219D02*
X149094761Y-77860552D01*
X149618570Y-77860552D02*
X149094761Y-78527219D01*
X147380475Y-78431980D02*
X147428094Y-78479600D01*
X147428094Y-78479600D02*
X147570951Y-78527219D01*
X147570951Y-78527219D02*
X147666189Y-78527219D01*
X147666189Y-78527219D02*
X147809046Y-78479600D01*
X147809046Y-78479600D02*
X147904284Y-78384361D01*
X147904284Y-78384361D02*
X147951903Y-78289123D01*
X147951903Y-78289123D02*
X147999522Y-78098647D01*
X147999522Y-78098647D02*
X147999522Y-77955790D01*
X147999522Y-77955790D02*
X147951903Y-77765314D01*
X147951903Y-77765314D02*
X147904284Y-77670076D01*
X147904284Y-77670076D02*
X147809046Y-77574838D01*
X147809046Y-77574838D02*
X147666189Y-77527219D01*
X147666189Y-77527219D02*
X147570951Y-77527219D01*
X147570951Y-77527219D02*
X147428094Y-77574838D01*
X147428094Y-77574838D02*
X147380475Y-77622457D01*
X146951903Y-78431980D02*
X146904284Y-78479600D01*
X146904284Y-78479600D02*
X146951903Y-78527219D01*
X146951903Y-78527219D02*
X146999522Y-78479600D01*
X146999522Y-78479600D02*
X146951903Y-78431980D01*
X146951903Y-78431980D02*
X146951903Y-78527219D01*
X159332857Y-79137219D02*
X159332857Y-79851504D01*
X159332857Y-79851504D02*
X159380476Y-79994361D01*
X159380476Y-79994361D02*
X159475714Y-80089600D01*
X159475714Y-80089600D02*
X159618571Y-80137219D01*
X159618571Y-80137219D02*
X159713809Y-80137219D01*
X158428095Y-79470552D02*
X158428095Y-80137219D01*
X158856666Y-79470552D02*
X158856666Y-79994361D01*
X158856666Y-79994361D02*
X158809047Y-80089600D01*
X158809047Y-80089600D02*
X158713809Y-80137219D01*
X158713809Y-80137219D02*
X158570952Y-80137219D01*
X158570952Y-80137219D02*
X158475714Y-80089600D01*
X158475714Y-80089600D02*
X158428095Y-80041980D01*
X157999523Y-80089600D02*
X157904285Y-80137219D01*
X157904285Y-80137219D02*
X157713809Y-80137219D01*
X157713809Y-80137219D02*
X157618571Y-80089600D01*
X157618571Y-80089600D02*
X157570952Y-79994361D01*
X157570952Y-79994361D02*
X157570952Y-79946742D01*
X157570952Y-79946742D02*
X157618571Y-79851504D01*
X157618571Y-79851504D02*
X157713809Y-79803885D01*
X157713809Y-79803885D02*
X157856666Y-79803885D01*
X157856666Y-79803885D02*
X157951904Y-79756266D01*
X157951904Y-79756266D02*
X157999523Y-79661028D01*
X157999523Y-79661028D02*
X157999523Y-79613409D01*
X157999523Y-79613409D02*
X157951904Y-79518171D01*
X157951904Y-79518171D02*
X157856666Y-79470552D01*
X157856666Y-79470552D02*
X157713809Y-79470552D01*
X157713809Y-79470552D02*
X157618571Y-79518171D01*
X157285237Y-79470552D02*
X156904285Y-79470552D01*
X157142380Y-79137219D02*
X157142380Y-79994361D01*
X157142380Y-79994361D02*
X157094761Y-80089600D01*
X157094761Y-80089600D02*
X156999523Y-80137219D01*
X156999523Y-80137219D02*
X156904285Y-80137219D01*
X156570951Y-80137219D02*
X156570951Y-79470552D01*
X156570951Y-79137219D02*
X156618570Y-79184838D01*
X156618570Y-79184838D02*
X156570951Y-79232457D01*
X156570951Y-79232457D02*
X156523332Y-79184838D01*
X156523332Y-79184838D02*
X156570951Y-79137219D01*
X156570951Y-79137219D02*
X156570951Y-79232457D01*
X156094761Y-79470552D02*
X156094761Y-80137219D01*
X156094761Y-79565790D02*
X156047142Y-79518171D01*
X156047142Y-79518171D02*
X155951904Y-79470552D01*
X155951904Y-79470552D02*
X155809047Y-79470552D01*
X155809047Y-79470552D02*
X155713809Y-79518171D01*
X155713809Y-79518171D02*
X155666190Y-79613409D01*
X155666190Y-79613409D02*
X155666190Y-80137219D01*
X153856666Y-80041980D02*
X153904285Y-80089600D01*
X153904285Y-80089600D02*
X154047142Y-80137219D01*
X154047142Y-80137219D02*
X154142380Y-80137219D01*
X154142380Y-80137219D02*
X154285237Y-80089600D01*
X154285237Y-80089600D02*
X154380475Y-79994361D01*
X154380475Y-79994361D02*
X154428094Y-79899123D01*
X154428094Y-79899123D02*
X154475713Y-79708647D01*
X154475713Y-79708647D02*
X154475713Y-79565790D01*
X154475713Y-79565790D02*
X154428094Y-79375314D01*
X154428094Y-79375314D02*
X154380475Y-79280076D01*
X154380475Y-79280076D02*
X154285237Y-79184838D01*
X154285237Y-79184838D02*
X154142380Y-79137219D01*
X154142380Y-79137219D02*
X154047142Y-79137219D01*
X154047142Y-79137219D02*
X153904285Y-79184838D01*
X153904285Y-79184838D02*
X153856666Y-79232457D01*
X153428094Y-80041980D02*
X153380475Y-80089600D01*
X153380475Y-80089600D02*
X153428094Y-80137219D01*
X153428094Y-80137219D02*
X153475713Y-80089600D01*
X153475713Y-80089600D02*
X153428094Y-80041980D01*
X153428094Y-80041980D02*
X153428094Y-80137219D01*
X152332856Y-79137219D02*
X151999523Y-80137219D01*
X151999523Y-80137219D02*
X151666190Y-79137219D01*
X151332856Y-80137219D02*
X151332856Y-79470552D01*
X151332856Y-79137219D02*
X151380475Y-79184838D01*
X151380475Y-79184838D02*
X151332856Y-79232457D01*
X151332856Y-79232457D02*
X151285237Y-79184838D01*
X151285237Y-79184838D02*
X151332856Y-79137219D01*
X151332856Y-79137219D02*
X151332856Y-79232457D01*
X150904285Y-80089600D02*
X150809047Y-80137219D01*
X150809047Y-80137219D02*
X150618571Y-80137219D01*
X150618571Y-80137219D02*
X150523333Y-80089600D01*
X150523333Y-80089600D02*
X150475714Y-79994361D01*
X150475714Y-79994361D02*
X150475714Y-79946742D01*
X150475714Y-79946742D02*
X150523333Y-79851504D01*
X150523333Y-79851504D02*
X150618571Y-79803885D01*
X150618571Y-79803885D02*
X150761428Y-79803885D01*
X150761428Y-79803885D02*
X150856666Y-79756266D01*
X150856666Y-79756266D02*
X150904285Y-79661028D01*
X150904285Y-79661028D02*
X150904285Y-79613409D01*
X150904285Y-79613409D02*
X150856666Y-79518171D01*
X150856666Y-79518171D02*
X150761428Y-79470552D01*
X150761428Y-79470552D02*
X150618571Y-79470552D01*
X150618571Y-79470552D02*
X150523333Y-79518171D01*
X150047142Y-80137219D02*
X150047142Y-79137219D01*
X149618571Y-80137219D02*
X149618571Y-79613409D01*
X149618571Y-79613409D02*
X149666190Y-79518171D01*
X149666190Y-79518171D02*
X149761428Y-79470552D01*
X149761428Y-79470552D02*
X149904285Y-79470552D01*
X149904285Y-79470552D02*
X149999523Y-79518171D01*
X149999523Y-79518171D02*
X150047142Y-79565790D01*
X149142380Y-79470552D02*
X149142380Y-80137219D01*
X149142380Y-79565790D02*
X149094761Y-79518171D01*
X149094761Y-79518171D02*
X148999523Y-79470552D01*
X148999523Y-79470552D02*
X148856666Y-79470552D01*
X148856666Y-79470552D02*
X148761428Y-79518171D01*
X148761428Y-79518171D02*
X148713809Y-79613409D01*
X148713809Y-79613409D02*
X148713809Y-80137219D01*
X147809047Y-79470552D02*
X147809047Y-80137219D01*
X148237618Y-79470552D02*
X148237618Y-79994361D01*
X148237618Y-79994361D02*
X148189999Y-80089600D01*
X148189999Y-80089600D02*
X148094761Y-80137219D01*
X148094761Y-80137219D02*
X147951904Y-80137219D01*
X147951904Y-80137219D02*
X147856666Y-80089600D01*
X147856666Y-80089600D02*
X147809047Y-80041980D01*
X146094761Y-80137219D02*
X146570951Y-80137219D01*
X146570951Y-80137219D02*
X146570951Y-79137219D01*
X145761427Y-80041980D02*
X145713808Y-80089600D01*
X145713808Y-80089600D02*
X145761427Y-80137219D01*
X145761427Y-80137219D02*
X145809046Y-80089600D01*
X145809046Y-80089600D02*
X145761427Y-80041980D01*
X145761427Y-80041980D02*
X145761427Y-80137219D01*
D11*
X154665333Y-122554633D02*
X154665333Y-123054633D01*
X154665333Y-123054633D02*
X154698666Y-123154633D01*
X154698666Y-123154633D02*
X154765333Y-123221300D01*
X154765333Y-123221300D02*
X154865333Y-123254633D01*
X154865333Y-123254633D02*
X154932000Y-123254633D01*
X154365333Y-122621300D02*
X154332000Y-122587966D01*
X154332000Y-122587966D02*
X154265333Y-122554633D01*
X154265333Y-122554633D02*
X154098667Y-122554633D01*
X154098667Y-122554633D02*
X154032000Y-122587966D01*
X154032000Y-122587966D02*
X153998667Y-122621300D01*
X153998667Y-122621300D02*
X153965333Y-122687966D01*
X153965333Y-122687966D02*
X153965333Y-122754633D01*
X153965333Y-122754633D02*
X153998667Y-122854633D01*
X153998667Y-122854633D02*
X154398667Y-123254633D01*
X154398667Y-123254633D02*
X153965333Y-123254633D01*
X156199166Y-117158633D02*
X156199166Y-116458633D01*
X156199166Y-116458633D02*
X156032499Y-116458633D01*
X156032499Y-116458633D02*
X155932499Y-116491966D01*
X155932499Y-116491966D02*
X155865833Y-116558633D01*
X155865833Y-116558633D02*
X155832499Y-116625300D01*
X155832499Y-116625300D02*
X155799166Y-116758633D01*
X155799166Y-116758633D02*
X155799166Y-116858633D01*
X155799166Y-116858633D02*
X155832499Y-116991966D01*
X155832499Y-116991966D02*
X155865833Y-117058633D01*
X155865833Y-117058633D02*
X155932499Y-117125300D01*
X155932499Y-117125300D02*
X156032499Y-117158633D01*
X156032499Y-117158633D02*
X156199166Y-117158633D01*
X155532499Y-116525300D02*
X155499166Y-116491966D01*
X155499166Y-116491966D02*
X155432499Y-116458633D01*
X155432499Y-116458633D02*
X155265833Y-116458633D01*
X155265833Y-116458633D02*
X155199166Y-116491966D01*
X155199166Y-116491966D02*
X155165833Y-116525300D01*
X155165833Y-116525300D02*
X155132499Y-116591966D01*
X155132499Y-116591966D02*
X155132499Y-116658633D01*
X155132499Y-116658633D02*
X155165833Y-116758633D01*
X155165833Y-116758633D02*
X155565833Y-117158633D01*
X155565833Y-117158633D02*
X155132499Y-117158633D01*
X141086666Y-90742633D02*
X141319999Y-90409300D01*
X141486666Y-90742633D02*
X141486666Y-90042633D01*
X141486666Y-90042633D02*
X141219999Y-90042633D01*
X141219999Y-90042633D02*
X141153333Y-90075966D01*
X141153333Y-90075966D02*
X141119999Y-90109300D01*
X141119999Y-90109300D02*
X141086666Y-90175966D01*
X141086666Y-90175966D02*
X141086666Y-90275966D01*
X141086666Y-90275966D02*
X141119999Y-90342633D01*
X141119999Y-90342633D02*
X141153333Y-90375966D01*
X141153333Y-90375966D02*
X141219999Y-90409300D01*
X141219999Y-90409300D02*
X141486666Y-90409300D01*
X140819999Y-90109300D02*
X140786666Y-90075966D01*
X140786666Y-90075966D02*
X140719999Y-90042633D01*
X140719999Y-90042633D02*
X140553333Y-90042633D01*
X140553333Y-90042633D02*
X140486666Y-90075966D01*
X140486666Y-90075966D02*
X140453333Y-90109300D01*
X140453333Y-90109300D02*
X140419999Y-90175966D01*
X140419999Y-90175966D02*
X140419999Y-90242633D01*
X140419999Y-90242633D02*
X140453333Y-90342633D01*
X140453333Y-90342633D02*
X140853333Y-90742633D01*
X140853333Y-90742633D02*
X140419999Y-90742633D01*
X170042666Y-103188633D02*
X170275999Y-102855300D01*
X170442666Y-103188633D02*
X170442666Y-102488633D01*
X170442666Y-102488633D02*
X170175999Y-102488633D01*
X170175999Y-102488633D02*
X170109333Y-102521966D01*
X170109333Y-102521966D02*
X170075999Y-102555300D01*
X170075999Y-102555300D02*
X170042666Y-102621966D01*
X170042666Y-102621966D02*
X170042666Y-102721966D01*
X170042666Y-102721966D02*
X170075999Y-102788633D01*
X170075999Y-102788633D02*
X170109333Y-102821966D01*
X170109333Y-102821966D02*
X170175999Y-102855300D01*
X170175999Y-102855300D02*
X170442666Y-102855300D01*
X169442666Y-102721966D02*
X169442666Y-103188633D01*
X169609333Y-102455300D02*
X169775999Y-102955300D01*
X169775999Y-102955300D02*
X169342666Y-102955300D01*
X143626666Y-90742633D02*
X143859999Y-90409300D01*
X144026666Y-90742633D02*
X144026666Y-90042633D01*
X144026666Y-90042633D02*
X143759999Y-90042633D01*
X143759999Y-90042633D02*
X143693333Y-90075966D01*
X143693333Y-90075966D02*
X143659999Y-90109300D01*
X143659999Y-90109300D02*
X143626666Y-90175966D01*
X143626666Y-90175966D02*
X143626666Y-90275966D01*
X143626666Y-90275966D02*
X143659999Y-90342633D01*
X143659999Y-90342633D02*
X143693333Y-90375966D01*
X143693333Y-90375966D02*
X143759999Y-90409300D01*
X143759999Y-90409300D02*
X144026666Y-90409300D01*
X143393333Y-90042633D02*
X142959999Y-90042633D01*
X142959999Y-90042633D02*
X143193333Y-90309300D01*
X143193333Y-90309300D02*
X143093333Y-90309300D01*
X143093333Y-90309300D02*
X143026666Y-90342633D01*
X143026666Y-90342633D02*
X142993333Y-90375966D01*
X142993333Y-90375966D02*
X142959999Y-90442633D01*
X142959999Y-90442633D02*
X142959999Y-90609300D01*
X142959999Y-90609300D02*
X142993333Y-90675966D01*
X142993333Y-90675966D02*
X143026666Y-90709300D01*
X143026666Y-90709300D02*
X143093333Y-90742633D01*
X143093333Y-90742633D02*
X143293333Y-90742633D01*
X143293333Y-90742633D02*
X143359999Y-90709300D01*
X143359999Y-90709300D02*
X143393333Y-90675966D01*
X170442666Y-108776633D02*
X170442666Y-108076633D01*
X170442666Y-108076633D02*
X170275999Y-108076633D01*
X170275999Y-108076633D02*
X170175999Y-108109966D01*
X170175999Y-108109966D02*
X170109333Y-108176633D01*
X170109333Y-108176633D02*
X170075999Y-108243300D01*
X170075999Y-108243300D02*
X170042666Y-108376633D01*
X170042666Y-108376633D02*
X170042666Y-108476633D01*
X170042666Y-108476633D02*
X170075999Y-108609966D01*
X170075999Y-108609966D02*
X170109333Y-108676633D01*
X170109333Y-108676633D02*
X170175999Y-108743300D01*
X170175999Y-108743300D02*
X170275999Y-108776633D01*
X170275999Y-108776633D02*
X170442666Y-108776633D01*
X169375999Y-108776633D02*
X169775999Y-108776633D01*
X169575999Y-108776633D02*
X169575999Y-108076633D01*
X169575999Y-108076633D02*
X169642666Y-108176633D01*
X169642666Y-108176633D02*
X169709333Y-108243300D01*
X169709333Y-108243300D02*
X169775999Y-108276633D01*
X135615333Y-95884633D02*
X135615333Y-96384633D01*
X135615333Y-96384633D02*
X135648666Y-96484633D01*
X135648666Y-96484633D02*
X135715333Y-96551300D01*
X135715333Y-96551300D02*
X135815333Y-96584633D01*
X135815333Y-96584633D02*
X135882000Y-96584633D01*
X134982000Y-95884633D02*
X135115333Y-95884633D01*
X135115333Y-95884633D02*
X135182000Y-95917966D01*
X135182000Y-95917966D02*
X135215333Y-95951300D01*
X135215333Y-95951300D02*
X135282000Y-96051300D01*
X135282000Y-96051300D02*
X135315333Y-96184633D01*
X135315333Y-96184633D02*
X135315333Y-96451300D01*
X135315333Y-96451300D02*
X135282000Y-96517966D01*
X135282000Y-96517966D02*
X135248667Y-96551300D01*
X135248667Y-96551300D02*
X135182000Y-96584633D01*
X135182000Y-96584633D02*
X135048667Y-96584633D01*
X135048667Y-96584633D02*
X134982000Y-96551300D01*
X134982000Y-96551300D02*
X134948667Y-96517966D01*
X134948667Y-96517966D02*
X134915333Y-96451300D01*
X134915333Y-96451300D02*
X134915333Y-96284633D01*
X134915333Y-96284633D02*
X134948667Y-96217966D01*
X134948667Y-96217966D02*
X134982000Y-96184633D01*
X134982000Y-96184633D02*
X135048667Y-96151300D01*
X135048667Y-96151300D02*
X135182000Y-96151300D01*
X135182000Y-96151300D02*
X135248667Y-96184633D01*
X135248667Y-96184633D02*
X135282000Y-96217966D01*
X135282000Y-96217966D02*
X135315333Y-96284633D01*
X160416666Y-117148633D02*
X160649999Y-116815300D01*
X160816666Y-117148633D02*
X160816666Y-116448633D01*
X160816666Y-116448633D02*
X160549999Y-116448633D01*
X160549999Y-116448633D02*
X160483333Y-116481966D01*
X160483333Y-116481966D02*
X160449999Y-116515300D01*
X160449999Y-116515300D02*
X160416666Y-116581966D01*
X160416666Y-116581966D02*
X160416666Y-116681966D01*
X160416666Y-116681966D02*
X160449999Y-116748633D01*
X160449999Y-116748633D02*
X160483333Y-116781966D01*
X160483333Y-116781966D02*
X160549999Y-116815300D01*
X160549999Y-116815300D02*
X160816666Y-116815300D01*
X160183333Y-116448633D02*
X159716666Y-116448633D01*
X159716666Y-116448633D02*
X160016666Y-117148633D01*
D12*
X140340000Y-125270000D02*
X140340000Y-122610000D01*
X150560000Y-125270000D02*
X140340000Y-125270000D01*
X150560000Y-125270000D02*
X150560000Y-122610000D01*
X151830000Y-125270000D02*
X153160000Y-125270000D01*
X153160000Y-125270000D02*
X153160000Y-123940000D01*
X150560000Y-122610000D02*
X140340000Y-122610000D01*
X153815000Y-117540000D02*
X156675000Y-117540000D01*
X153815000Y-119460000D02*
X153815000Y-117540000D01*
X156675000Y-119460000D02*
X153815000Y-119460000D01*
X155292500Y-110080000D02*
X155292500Y-111080000D01*
X155292500Y-111080000D02*
X156292500Y-111080000D01*
X157292500Y-109080000D02*
X157292500Y-106480000D01*
X163292500Y-111030000D02*
X157492500Y-111030000D01*
X163392500Y-104530000D02*
X157392500Y-104530000D01*
X163492500Y-109080000D02*
X163492500Y-106480000D01*
X140235000Y-87857064D02*
X140235000Y-87402936D01*
X141705000Y-87857064D02*
X141705000Y-87402936D01*
X169525000Y-105242936D02*
X169525000Y-105697064D01*
X168055000Y-105242936D02*
X168055000Y-105697064D01*
X142775000Y-87857064D02*
X142775000Y-87402936D01*
X144245000Y-87857064D02*
X144245000Y-87402936D01*
X167820000Y-112997500D02*
X167820000Y-110137500D01*
X169740000Y-112997500D02*
X167820000Y-112997500D01*
X169740000Y-110137500D02*
X169740000Y-112997500D01*
X136760000Y-94970000D02*
X134100000Y-94970000D01*
X136760000Y-87290000D02*
X136760000Y-94970000D01*
X136760000Y-87290000D02*
X134100000Y-87290000D01*
X136760000Y-86020000D02*
X136760000Y-84690000D01*
X136760000Y-84690000D02*
X135430000Y-84690000D01*
X134100000Y-87290000D02*
X134100000Y-94970000D01*
X160527064Y-119215000D02*
X160072936Y-119215000D01*
X160527064Y-117745000D02*
X160072936Y-117745000D01*
%LPC*%
D13*
X135650000Y-112620000D03*
X167730000Y-117750000D03*
D14*
X136400000Y-75910000D03*
X167880000Y-122660000D03*
X167850000Y-75920000D03*
X136410000Y-122670000D03*
D13*
X135450000Y-81040000D03*
X151830000Y-123940000D03*
D15*
X149290000Y-123940000D03*
X146750000Y-123940000D03*
X144210000Y-123940000D03*
X141670000Y-123940000D03*
D16*
X154650000Y-118500000D03*
X156700000Y-118500000D03*
D17*
X156392500Y-110030000D03*
X164392500Y-110030000D03*
X156392500Y-105530000D03*
X164392500Y-105530000D03*
D18*
X140970000Y-88630000D03*
X140970000Y-86630000D03*
D19*
X168790000Y-104470000D03*
X168790000Y-106470000D03*
D18*
X143510000Y-88630000D03*
X143510000Y-86630000D03*
D20*
X168780000Y-112162500D03*
X168780000Y-110112500D03*
D13*
X135430000Y-86020000D03*
D15*
X135430000Y-88560000D03*
X135430000Y-91100000D03*
X135430000Y-93640000D03*
D21*
X161300000Y-118480000D03*
X159300000Y-118480000D03*
D22*
X143354506Y-101837657D03*
X139470000Y-88700000D03*
X139446000Y-96774000D03*
X139450000Y-92460000D03*
X163310000Y-90410000D03*
X169920000Y-89320000D03*
X151590000Y-119040000D03*
X168800000Y-114320000D03*
X166700000Y-114740000D03*
X137980000Y-96950000D03*
X160022347Y-93777653D03*
X138640000Y-119080000D03*
X151410000Y-114850000D03*
X163420000Y-124260000D03*
X163710000Y-87090000D03*
X137990000Y-104980000D03*
X159560000Y-112650000D03*
X146190000Y-97120000D03*
X141030000Y-97780000D03*
X169180000Y-84250000D03*
X142260000Y-110250000D03*
X165100000Y-89270000D03*
X167160000Y-89570000D03*
X160138202Y-102540000D03*
X137820000Y-95520000D03*
X155525000Y-94565000D03*
X152288000Y-93539624D03*
X141580000Y-76240000D03*
X152686724Y-92623276D03*
X142220000Y-77970000D03*
X163576000Y-76962000D03*
X163576000Y-74422000D03*
X143748597Y-104124597D03*
X154069009Y-92781395D03*
X152880000Y-114730000D03*
X164375000Y-116355000D03*
X154250000Y-89510000D03*
X154220000Y-91720000D03*
%LPD*%
M02*
