%TF.GenerationSoftware,KiCad,Pcbnew,7.0.10*%
%TF.CreationDate,2024-03-08T11:34:05-05:00*%
%TF.ProjectId,swipe-stack-glove,73776970-652d-4737-9461-636b2d676c6f,1*%
%TF.SameCoordinates,Original*%
%TF.FileFunction,Drillmap*%
%TF.FilePolarity,Positive*%
%FSLAX45Y45*%
G04 Gerber Fmt 4.5, Leading zero omitted, Abs format (unit mm)*
G04 Created by KiCad (PCBNEW 7.0.10) date 2024-03-08 11:34:05*
%MOMM*%
%LPD*%
G01*
G04 APERTURE LIST*
%ADD10C,0.100000*%
%ADD11C,0.200000*%
G04 APERTURE END LIST*
D10*
X13309600Y-7264400D02*
X17119600Y-7264400D01*
X17119600Y-12598400D01*
X13309600Y-12598400D01*
X13309600Y-7264400D01*
D11*
D10*
X13762000Y-9532000D02*
X13802000Y-9572000D01*
X13802000Y-9532000D02*
X13762000Y-9572000D01*
X13778000Y-9675000D02*
X13818000Y-9715000D01*
X13818000Y-9675000D02*
X13778000Y-9715000D01*
X13779000Y-10478000D02*
X13819000Y-10518000D01*
X13819000Y-10478000D02*
X13779000Y-10518000D01*
X13844000Y-11888000D02*
X13884000Y-11928000D01*
X13884000Y-11888000D02*
X13844000Y-11928000D01*
X13924600Y-9657400D02*
X13964600Y-9697400D01*
X13964600Y-9657400D02*
X13924600Y-9697400D01*
X13925000Y-9226000D02*
X13965000Y-9266000D01*
X13965000Y-9226000D02*
X13925000Y-9266000D01*
X13927000Y-8850000D02*
X13967000Y-8890000D01*
X13967000Y-8850000D02*
X13927000Y-8890000D01*
X14083000Y-9758000D02*
X14123000Y-9798000D01*
X14123000Y-9758000D02*
X14083000Y-9798000D01*
X14138000Y-7604000D02*
X14178000Y-7644000D01*
X14178000Y-7604000D02*
X14138000Y-7644000D01*
X14202000Y-7777000D02*
X14242000Y-7817000D01*
X14242000Y-7777000D02*
X14202000Y-7817000D01*
X14206000Y-11005000D02*
X14246000Y-11045000D01*
X14246000Y-11005000D02*
X14206000Y-11045000D01*
X14315451Y-10163766D02*
X14355451Y-10203766D01*
X14355451Y-10163766D02*
X14315451Y-10203766D01*
X14354860Y-10392460D02*
X14394860Y-10432460D01*
X14394860Y-10392460D02*
X14354860Y-10432460D01*
X14599000Y-9692000D02*
X14639000Y-9732000D01*
X14639000Y-9692000D02*
X14599000Y-9732000D01*
X15121000Y-11465000D02*
X15161000Y-11505000D01*
X15161000Y-11465000D02*
X15121000Y-11505000D01*
X15139000Y-11884000D02*
X15179000Y-11924000D01*
X15179000Y-11884000D02*
X15139000Y-11924000D01*
X15208800Y-9333962D02*
X15248800Y-9373962D01*
X15248800Y-9333962D02*
X15208800Y-9373962D01*
X15248672Y-9242328D02*
X15288672Y-9282328D01*
X15288672Y-9242328D02*
X15248672Y-9282328D01*
X15268000Y-11453000D02*
X15308000Y-11493000D01*
X15308000Y-11453000D02*
X15268000Y-11493000D01*
X15386901Y-9258140D02*
X15426901Y-9298140D01*
X15426901Y-9258140D02*
X15386901Y-9298140D01*
X15402000Y-9152000D02*
X15442000Y-9192000D01*
X15442000Y-9152000D02*
X15402000Y-9192000D01*
X15405000Y-8931000D02*
X15445000Y-8971000D01*
X15445000Y-8931000D02*
X15405000Y-8971000D01*
X15532500Y-9436500D02*
X15572500Y-9476500D01*
X15572500Y-9436500D02*
X15532500Y-9476500D01*
X15936000Y-11245000D02*
X15976000Y-11285000D01*
X15976000Y-11245000D02*
X15936000Y-11285000D01*
X15982235Y-9357765D02*
X16022235Y-9397765D01*
X16022235Y-9357765D02*
X15982235Y-9397765D01*
X15993820Y-10234000D02*
X16033820Y-10274000D01*
X16033820Y-10234000D02*
X15993820Y-10274000D01*
X16311000Y-9021000D02*
X16351000Y-9061000D01*
X16351000Y-9021000D02*
X16311000Y-9061000D01*
X16322000Y-12406000D02*
X16362000Y-12446000D01*
X16362000Y-12406000D02*
X16322000Y-12446000D01*
X16337600Y-7422200D02*
X16377600Y-7462200D01*
X16377600Y-7422200D02*
X16337600Y-7462200D01*
X16337600Y-7676200D02*
X16377600Y-7716200D01*
X16377600Y-7676200D02*
X16337600Y-7716200D01*
X16351000Y-8689000D02*
X16391000Y-8729000D01*
X16391000Y-8689000D02*
X16351000Y-8729000D01*
X16417500Y-11615500D02*
X16457500Y-11655500D01*
X16457500Y-11615500D02*
X16417500Y-11655500D01*
X16490000Y-8907000D02*
X16530000Y-8947000D01*
X16530000Y-8907000D02*
X16490000Y-8947000D01*
X16650000Y-11454000D02*
X16690000Y-11494000D01*
X16690000Y-11454000D02*
X16650000Y-11494000D01*
X16696000Y-8937000D02*
X16736000Y-8977000D01*
X16736000Y-8937000D02*
X16696000Y-8977000D01*
X16860000Y-11412000D02*
X16900000Y-11452000D01*
X16900000Y-11412000D02*
X16860000Y-11452000D01*
X16898000Y-8405000D02*
X16938000Y-8445000D01*
X16938000Y-8405000D02*
X16898000Y-8445000D01*
X16972000Y-8912000D02*
X17012000Y-8952000D01*
X17012000Y-8912000D02*
X16972000Y-8952000D01*
X13593000Y-8602000D02*
G75*
G03*
X13493000Y-8602000I-50000J0D01*
G01*
X13493000Y-8602000D02*
G75*
G03*
X13593000Y-8602000I50000J0D01*
G01*
X13593000Y-8856000D02*
G75*
G03*
X13493000Y-8856000I-50000J0D01*
G01*
X13493000Y-8856000D02*
G75*
G03*
X13593000Y-8856000I50000J0D01*
G01*
X13593000Y-9110000D02*
G75*
G03*
X13493000Y-9110000I-50000J0D01*
G01*
X13493000Y-9110000D02*
G75*
G03*
X13593000Y-9110000I50000J0D01*
G01*
X13593000Y-9364000D02*
G75*
G03*
X13493000Y-9364000I-50000J0D01*
G01*
X13493000Y-9364000D02*
G75*
G03*
X13593000Y-9364000I50000J0D01*
G01*
X13595000Y-8104000D02*
G75*
G03*
X13495000Y-8104000I-50000J0D01*
G01*
X13495000Y-8104000D02*
G75*
G03*
X13595000Y-8104000I50000J0D01*
G01*
X13615000Y-11262000D02*
G75*
G03*
X13515000Y-11262000I-50000J0D01*
G01*
X13515000Y-11262000D02*
G75*
G03*
X13615000Y-11262000I50000J0D01*
G01*
X14217000Y-12394000D02*
G75*
G03*
X14117000Y-12394000I-50000J0D01*
G01*
X14117000Y-12394000D02*
G75*
G03*
X14217000Y-12394000I50000J0D01*
G01*
X14471000Y-12394000D02*
G75*
G03*
X14371000Y-12394000I-50000J0D01*
G01*
X14371000Y-12394000D02*
G75*
G03*
X14471000Y-12394000I50000J0D01*
G01*
X14725000Y-12394000D02*
G75*
G03*
X14625000Y-12394000I-50000J0D01*
G01*
X14625000Y-12394000D02*
G75*
G03*
X14725000Y-12394000I50000J0D01*
G01*
X14979000Y-12394000D02*
G75*
G03*
X14879000Y-12394000I-50000J0D01*
G01*
X14879000Y-12394000D02*
G75*
G03*
X14979000Y-12394000I50000J0D01*
G01*
X15233000Y-12394000D02*
G75*
G03*
X15133000Y-12394000I-50000J0D01*
G01*
X15133000Y-12394000D02*
G75*
G03*
X15233000Y-12394000I50000J0D01*
G01*
X16823000Y-11775000D02*
G75*
G03*
X16723000Y-11775000I-50000J0D01*
G01*
X16723000Y-11775000D02*
G75*
G03*
X16823000Y-11775000I50000J0D01*
G01*
D11*
X13565377Y-12914884D02*
X13565377Y-12714884D01*
X13565377Y-12714884D02*
X13612996Y-12714884D01*
X13612996Y-12714884D02*
X13641567Y-12724408D01*
X13641567Y-12724408D02*
X13660615Y-12743455D01*
X13660615Y-12743455D02*
X13670139Y-12762503D01*
X13670139Y-12762503D02*
X13679662Y-12800598D01*
X13679662Y-12800598D02*
X13679662Y-12829169D01*
X13679662Y-12829169D02*
X13670139Y-12867265D01*
X13670139Y-12867265D02*
X13660615Y-12886312D01*
X13660615Y-12886312D02*
X13641567Y-12905360D01*
X13641567Y-12905360D02*
X13612996Y-12914884D01*
X13612996Y-12914884D02*
X13565377Y-12914884D01*
X13765377Y-12914884D02*
X13765377Y-12781550D01*
X13765377Y-12819646D02*
X13774901Y-12800598D01*
X13774901Y-12800598D02*
X13784424Y-12791074D01*
X13784424Y-12791074D02*
X13803472Y-12781550D01*
X13803472Y-12781550D02*
X13822520Y-12781550D01*
X13889186Y-12914884D02*
X13889186Y-12781550D01*
X13889186Y-12714884D02*
X13879662Y-12724408D01*
X13879662Y-12724408D02*
X13889186Y-12733931D01*
X13889186Y-12733931D02*
X13898710Y-12724408D01*
X13898710Y-12724408D02*
X13889186Y-12714884D01*
X13889186Y-12714884D02*
X13889186Y-12733931D01*
X14012996Y-12914884D02*
X13993948Y-12905360D01*
X13993948Y-12905360D02*
X13984424Y-12886312D01*
X13984424Y-12886312D02*
X13984424Y-12714884D01*
X14117758Y-12914884D02*
X14098710Y-12905360D01*
X14098710Y-12905360D02*
X14089186Y-12886312D01*
X14089186Y-12886312D02*
X14089186Y-12714884D01*
X14346329Y-12914884D02*
X14346329Y-12714884D01*
X14346329Y-12714884D02*
X14412996Y-12857741D01*
X14412996Y-12857741D02*
X14479662Y-12714884D01*
X14479662Y-12714884D02*
X14479662Y-12914884D01*
X14660615Y-12914884D02*
X14660615Y-12810122D01*
X14660615Y-12810122D02*
X14651091Y-12791074D01*
X14651091Y-12791074D02*
X14632043Y-12781550D01*
X14632043Y-12781550D02*
X14593948Y-12781550D01*
X14593948Y-12781550D02*
X14574901Y-12791074D01*
X14660615Y-12905360D02*
X14641567Y-12914884D01*
X14641567Y-12914884D02*
X14593948Y-12914884D01*
X14593948Y-12914884D02*
X14574901Y-12905360D01*
X14574901Y-12905360D02*
X14565377Y-12886312D01*
X14565377Y-12886312D02*
X14565377Y-12867265D01*
X14565377Y-12867265D02*
X14574901Y-12848217D01*
X14574901Y-12848217D02*
X14593948Y-12838693D01*
X14593948Y-12838693D02*
X14641567Y-12838693D01*
X14641567Y-12838693D02*
X14660615Y-12829169D01*
X14755853Y-12781550D02*
X14755853Y-12981550D01*
X14755853Y-12791074D02*
X14774901Y-12781550D01*
X14774901Y-12781550D02*
X14812996Y-12781550D01*
X14812996Y-12781550D02*
X14832043Y-12791074D01*
X14832043Y-12791074D02*
X14841567Y-12800598D01*
X14841567Y-12800598D02*
X14851091Y-12819646D01*
X14851091Y-12819646D02*
X14851091Y-12876788D01*
X14851091Y-12876788D02*
X14841567Y-12895836D01*
X14841567Y-12895836D02*
X14832043Y-12905360D01*
X14832043Y-12905360D02*
X14812996Y-12914884D01*
X14812996Y-12914884D02*
X14774901Y-12914884D01*
X14774901Y-12914884D02*
X14755853Y-12905360D01*
X14936805Y-12895836D02*
X14946329Y-12905360D01*
X14946329Y-12905360D02*
X14936805Y-12914884D01*
X14936805Y-12914884D02*
X14927282Y-12905360D01*
X14927282Y-12905360D02*
X14936805Y-12895836D01*
X14936805Y-12895836D02*
X14936805Y-12914884D01*
X14936805Y-12791074D02*
X14946329Y-12800598D01*
X14946329Y-12800598D02*
X14936805Y-12810122D01*
X14936805Y-12810122D02*
X14927282Y-12800598D01*
X14927282Y-12800598D02*
X14936805Y-12791074D01*
X14936805Y-12791074D02*
X14936805Y-12810122D01*
D10*
X13264600Y-13223400D02*
X13304600Y-13263400D01*
X13304600Y-13223400D02*
X13264600Y-13263400D01*
D11*
X13603472Y-13134884D02*
X13622520Y-13134884D01*
X13622520Y-13134884D02*
X13641567Y-13144408D01*
X13641567Y-13144408D02*
X13651091Y-13153931D01*
X13651091Y-13153931D02*
X13660615Y-13172979D01*
X13660615Y-13172979D02*
X13670139Y-13211074D01*
X13670139Y-13211074D02*
X13670139Y-13258693D01*
X13670139Y-13258693D02*
X13660615Y-13296788D01*
X13660615Y-13296788D02*
X13651091Y-13315836D01*
X13651091Y-13315836D02*
X13641567Y-13325360D01*
X13641567Y-13325360D02*
X13622520Y-13334884D01*
X13622520Y-13334884D02*
X13603472Y-13334884D01*
X13603472Y-13334884D02*
X13584424Y-13325360D01*
X13584424Y-13325360D02*
X13574901Y-13315836D01*
X13574901Y-13315836D02*
X13565377Y-13296788D01*
X13565377Y-13296788D02*
X13555853Y-13258693D01*
X13555853Y-13258693D02*
X13555853Y-13211074D01*
X13555853Y-13211074D02*
X13565377Y-13172979D01*
X13565377Y-13172979D02*
X13574901Y-13153931D01*
X13574901Y-13153931D02*
X13584424Y-13144408D01*
X13584424Y-13144408D02*
X13603472Y-13134884D01*
X13755853Y-13315836D02*
X13765377Y-13325360D01*
X13765377Y-13325360D02*
X13755853Y-13334884D01*
X13755853Y-13334884D02*
X13746329Y-13325360D01*
X13746329Y-13325360D02*
X13755853Y-13315836D01*
X13755853Y-13315836D02*
X13755853Y-13334884D01*
X13936805Y-13201550D02*
X13936805Y-13334884D01*
X13889186Y-13125360D02*
X13841567Y-13268217D01*
X13841567Y-13268217D02*
X13965377Y-13268217D01*
X14079662Y-13134884D02*
X14098710Y-13134884D01*
X14098710Y-13134884D02*
X14117758Y-13144408D01*
X14117758Y-13144408D02*
X14127282Y-13153931D01*
X14127282Y-13153931D02*
X14136805Y-13172979D01*
X14136805Y-13172979D02*
X14146329Y-13211074D01*
X14146329Y-13211074D02*
X14146329Y-13258693D01*
X14146329Y-13258693D02*
X14136805Y-13296788D01*
X14136805Y-13296788D02*
X14127282Y-13315836D01*
X14127282Y-13315836D02*
X14117758Y-13325360D01*
X14117758Y-13325360D02*
X14098710Y-13334884D01*
X14098710Y-13334884D02*
X14079662Y-13334884D01*
X14079662Y-13334884D02*
X14060615Y-13325360D01*
X14060615Y-13325360D02*
X14051091Y-13315836D01*
X14051091Y-13315836D02*
X14041567Y-13296788D01*
X14041567Y-13296788D02*
X14032043Y-13258693D01*
X14032043Y-13258693D02*
X14032043Y-13211074D01*
X14032043Y-13211074D02*
X14041567Y-13172979D01*
X14041567Y-13172979D02*
X14051091Y-13153931D01*
X14051091Y-13153931D02*
X14060615Y-13144408D01*
X14060615Y-13144408D02*
X14079662Y-13134884D01*
X14270139Y-13134884D02*
X14289186Y-13134884D01*
X14289186Y-13134884D02*
X14308234Y-13144408D01*
X14308234Y-13144408D02*
X14317758Y-13153931D01*
X14317758Y-13153931D02*
X14327282Y-13172979D01*
X14327282Y-13172979D02*
X14336805Y-13211074D01*
X14336805Y-13211074D02*
X14336805Y-13258693D01*
X14336805Y-13258693D02*
X14327282Y-13296788D01*
X14327282Y-13296788D02*
X14317758Y-13315836D01*
X14317758Y-13315836D02*
X14308234Y-13325360D01*
X14308234Y-13325360D02*
X14289186Y-13334884D01*
X14289186Y-13334884D02*
X14270139Y-13334884D01*
X14270139Y-13334884D02*
X14251091Y-13325360D01*
X14251091Y-13325360D02*
X14241567Y-13315836D01*
X14241567Y-13315836D02*
X14232043Y-13296788D01*
X14232043Y-13296788D02*
X14222520Y-13258693D01*
X14222520Y-13258693D02*
X14222520Y-13211074D01*
X14222520Y-13211074D02*
X14232043Y-13172979D01*
X14232043Y-13172979D02*
X14241567Y-13153931D01*
X14241567Y-13153931D02*
X14251091Y-13144408D01*
X14251091Y-13144408D02*
X14270139Y-13134884D01*
X14422520Y-13334884D02*
X14422520Y-13201550D01*
X14422520Y-13220598D02*
X14432043Y-13211074D01*
X14432043Y-13211074D02*
X14451091Y-13201550D01*
X14451091Y-13201550D02*
X14479663Y-13201550D01*
X14479663Y-13201550D02*
X14498710Y-13211074D01*
X14498710Y-13211074D02*
X14508234Y-13230122D01*
X14508234Y-13230122D02*
X14508234Y-13334884D01*
X14508234Y-13230122D02*
X14517758Y-13211074D01*
X14517758Y-13211074D02*
X14536805Y-13201550D01*
X14536805Y-13201550D02*
X14565377Y-13201550D01*
X14565377Y-13201550D02*
X14584424Y-13211074D01*
X14584424Y-13211074D02*
X14593948Y-13230122D01*
X14593948Y-13230122D02*
X14593948Y-13334884D01*
X14689186Y-13334884D02*
X14689186Y-13201550D01*
X14689186Y-13220598D02*
X14698710Y-13211074D01*
X14698710Y-13211074D02*
X14717758Y-13201550D01*
X14717758Y-13201550D02*
X14746329Y-13201550D01*
X14746329Y-13201550D02*
X14765377Y-13211074D01*
X14765377Y-13211074D02*
X14774901Y-13230122D01*
X14774901Y-13230122D02*
X14774901Y-13334884D01*
X14774901Y-13230122D02*
X14784424Y-13211074D01*
X14784424Y-13211074D02*
X14803472Y-13201550D01*
X14803472Y-13201550D02*
X14832043Y-13201550D01*
X14832043Y-13201550D02*
X14851091Y-13211074D01*
X14851091Y-13211074D02*
X14860615Y-13230122D01*
X14860615Y-13230122D02*
X14860615Y-13334884D01*
X15251091Y-13125360D02*
X15079663Y-13382503D01*
X15508234Y-13134884D02*
X15527282Y-13134884D01*
X15527282Y-13134884D02*
X15546329Y-13144408D01*
X15546329Y-13144408D02*
X15555853Y-13153931D01*
X15555853Y-13153931D02*
X15565377Y-13172979D01*
X15565377Y-13172979D02*
X15574901Y-13211074D01*
X15574901Y-13211074D02*
X15574901Y-13258693D01*
X15574901Y-13258693D02*
X15565377Y-13296788D01*
X15565377Y-13296788D02*
X15555853Y-13315836D01*
X15555853Y-13315836D02*
X15546329Y-13325360D01*
X15546329Y-13325360D02*
X15527282Y-13334884D01*
X15527282Y-13334884D02*
X15508234Y-13334884D01*
X15508234Y-13334884D02*
X15489186Y-13325360D01*
X15489186Y-13325360D02*
X15479663Y-13315836D01*
X15479663Y-13315836D02*
X15470139Y-13296788D01*
X15470139Y-13296788D02*
X15460615Y-13258693D01*
X15460615Y-13258693D02*
X15460615Y-13211074D01*
X15460615Y-13211074D02*
X15470139Y-13172979D01*
X15470139Y-13172979D02*
X15479663Y-13153931D01*
X15479663Y-13153931D02*
X15489186Y-13144408D01*
X15489186Y-13144408D02*
X15508234Y-13134884D01*
X15660615Y-13315836D02*
X15670139Y-13325360D01*
X15670139Y-13325360D02*
X15660615Y-13334884D01*
X15660615Y-13334884D02*
X15651091Y-13325360D01*
X15651091Y-13325360D02*
X15660615Y-13315836D01*
X15660615Y-13315836D02*
X15660615Y-13334884D01*
X15793948Y-13134884D02*
X15812996Y-13134884D01*
X15812996Y-13134884D02*
X15832044Y-13144408D01*
X15832044Y-13144408D02*
X15841567Y-13153931D01*
X15841567Y-13153931D02*
X15851091Y-13172979D01*
X15851091Y-13172979D02*
X15860615Y-13211074D01*
X15860615Y-13211074D02*
X15860615Y-13258693D01*
X15860615Y-13258693D02*
X15851091Y-13296788D01*
X15851091Y-13296788D02*
X15841567Y-13315836D01*
X15841567Y-13315836D02*
X15832044Y-13325360D01*
X15832044Y-13325360D02*
X15812996Y-13334884D01*
X15812996Y-13334884D02*
X15793948Y-13334884D01*
X15793948Y-13334884D02*
X15774901Y-13325360D01*
X15774901Y-13325360D02*
X15765377Y-13315836D01*
X15765377Y-13315836D02*
X15755853Y-13296788D01*
X15755853Y-13296788D02*
X15746329Y-13258693D01*
X15746329Y-13258693D02*
X15746329Y-13211074D01*
X15746329Y-13211074D02*
X15755853Y-13172979D01*
X15755853Y-13172979D02*
X15765377Y-13153931D01*
X15765377Y-13153931D02*
X15774901Y-13144408D01*
X15774901Y-13144408D02*
X15793948Y-13134884D01*
X16051091Y-13334884D02*
X15936806Y-13334884D01*
X15993948Y-13334884D02*
X15993948Y-13134884D01*
X15993948Y-13134884D02*
X15974901Y-13163455D01*
X15974901Y-13163455D02*
X15955853Y-13182503D01*
X15955853Y-13182503D02*
X15936806Y-13192027D01*
X16232044Y-13134884D02*
X16136806Y-13134884D01*
X16136806Y-13134884D02*
X16127282Y-13230122D01*
X16127282Y-13230122D02*
X16136806Y-13220598D01*
X16136806Y-13220598D02*
X16155853Y-13211074D01*
X16155853Y-13211074D02*
X16203472Y-13211074D01*
X16203472Y-13211074D02*
X16222520Y-13220598D01*
X16222520Y-13220598D02*
X16232044Y-13230122D01*
X16232044Y-13230122D02*
X16241567Y-13249169D01*
X16241567Y-13249169D02*
X16241567Y-13296788D01*
X16241567Y-13296788D02*
X16232044Y-13315836D01*
X16232044Y-13315836D02*
X16222520Y-13325360D01*
X16222520Y-13325360D02*
X16203472Y-13334884D01*
X16203472Y-13334884D02*
X16155853Y-13334884D01*
X16155853Y-13334884D02*
X16136806Y-13325360D01*
X16136806Y-13325360D02*
X16127282Y-13315836D01*
X16308234Y-13134884D02*
X16441567Y-13134884D01*
X16441567Y-13134884D02*
X16355853Y-13334884D01*
X16508234Y-13134884D02*
X16508234Y-13172979D01*
X16584425Y-13134884D02*
X16584425Y-13172979D01*
X16879663Y-13411074D02*
X16870139Y-13401550D01*
X16870139Y-13401550D02*
X16851091Y-13372979D01*
X16851091Y-13372979D02*
X16841568Y-13353931D01*
X16841568Y-13353931D02*
X16832044Y-13325360D01*
X16832044Y-13325360D02*
X16822520Y-13277741D01*
X16822520Y-13277741D02*
X16822520Y-13239646D01*
X16822520Y-13239646D02*
X16832044Y-13192027D01*
X16832044Y-13192027D02*
X16841568Y-13163455D01*
X16841568Y-13163455D02*
X16851091Y-13144408D01*
X16851091Y-13144408D02*
X16870139Y-13115836D01*
X16870139Y-13115836D02*
X16879663Y-13106312D01*
X16936806Y-13134884D02*
X17060615Y-13134884D01*
X17060615Y-13134884D02*
X16993949Y-13211074D01*
X16993949Y-13211074D02*
X17022520Y-13211074D01*
X17022520Y-13211074D02*
X17041568Y-13220598D01*
X17041568Y-13220598D02*
X17051091Y-13230122D01*
X17051091Y-13230122D02*
X17060615Y-13249169D01*
X17060615Y-13249169D02*
X17060615Y-13296788D01*
X17060615Y-13296788D02*
X17051091Y-13315836D01*
X17051091Y-13315836D02*
X17041568Y-13325360D01*
X17041568Y-13325360D02*
X17022520Y-13334884D01*
X17022520Y-13334884D02*
X16965377Y-13334884D01*
X16965377Y-13334884D02*
X16946330Y-13325360D01*
X16946330Y-13325360D02*
X16936806Y-13315836D01*
X17174901Y-13220598D02*
X17155853Y-13211074D01*
X17155853Y-13211074D02*
X17146330Y-13201550D01*
X17146330Y-13201550D02*
X17136806Y-13182503D01*
X17136806Y-13182503D02*
X17136806Y-13172979D01*
X17136806Y-13172979D02*
X17146330Y-13153931D01*
X17146330Y-13153931D02*
X17155853Y-13144408D01*
X17155853Y-13144408D02*
X17174901Y-13134884D01*
X17174901Y-13134884D02*
X17212996Y-13134884D01*
X17212996Y-13134884D02*
X17232044Y-13144408D01*
X17232044Y-13144408D02*
X17241568Y-13153931D01*
X17241568Y-13153931D02*
X17251091Y-13172979D01*
X17251091Y-13172979D02*
X17251091Y-13182503D01*
X17251091Y-13182503D02*
X17241568Y-13201550D01*
X17241568Y-13201550D02*
X17232044Y-13211074D01*
X17232044Y-13211074D02*
X17212996Y-13220598D01*
X17212996Y-13220598D02*
X17174901Y-13220598D01*
X17174901Y-13220598D02*
X17155853Y-13230122D01*
X17155853Y-13230122D02*
X17146330Y-13239646D01*
X17146330Y-13239646D02*
X17136806Y-13258693D01*
X17136806Y-13258693D02*
X17136806Y-13296788D01*
X17136806Y-13296788D02*
X17146330Y-13315836D01*
X17146330Y-13315836D02*
X17155853Y-13325360D01*
X17155853Y-13325360D02*
X17174901Y-13334884D01*
X17174901Y-13334884D02*
X17212996Y-13334884D01*
X17212996Y-13334884D02*
X17232044Y-13325360D01*
X17232044Y-13325360D02*
X17241568Y-13315836D01*
X17241568Y-13315836D02*
X17251091Y-13296788D01*
X17251091Y-13296788D02*
X17251091Y-13258693D01*
X17251091Y-13258693D02*
X17241568Y-13239646D01*
X17241568Y-13239646D02*
X17232044Y-13230122D01*
X17232044Y-13230122D02*
X17212996Y-13220598D01*
X17489187Y-13334884D02*
X17489187Y-13134884D01*
X17574901Y-13334884D02*
X17574901Y-13230122D01*
X17574901Y-13230122D02*
X17565377Y-13211074D01*
X17565377Y-13211074D02*
X17546330Y-13201550D01*
X17546330Y-13201550D02*
X17517758Y-13201550D01*
X17517758Y-13201550D02*
X17498711Y-13211074D01*
X17498711Y-13211074D02*
X17489187Y-13220598D01*
X17698711Y-13334884D02*
X17679663Y-13325360D01*
X17679663Y-13325360D02*
X17670139Y-13315836D01*
X17670139Y-13315836D02*
X17660615Y-13296788D01*
X17660615Y-13296788D02*
X17660615Y-13239646D01*
X17660615Y-13239646D02*
X17670139Y-13220598D01*
X17670139Y-13220598D02*
X17679663Y-13211074D01*
X17679663Y-13211074D02*
X17698711Y-13201550D01*
X17698711Y-13201550D02*
X17727282Y-13201550D01*
X17727282Y-13201550D02*
X17746330Y-13211074D01*
X17746330Y-13211074D02*
X17755853Y-13220598D01*
X17755853Y-13220598D02*
X17765377Y-13239646D01*
X17765377Y-13239646D02*
X17765377Y-13296788D01*
X17765377Y-13296788D02*
X17755853Y-13315836D01*
X17755853Y-13315836D02*
X17746330Y-13325360D01*
X17746330Y-13325360D02*
X17727282Y-13334884D01*
X17727282Y-13334884D02*
X17698711Y-13334884D01*
X17879663Y-13334884D02*
X17860615Y-13325360D01*
X17860615Y-13325360D02*
X17851092Y-13306312D01*
X17851092Y-13306312D02*
X17851092Y-13134884D01*
X18032044Y-13325360D02*
X18012996Y-13334884D01*
X18012996Y-13334884D02*
X17974901Y-13334884D01*
X17974901Y-13334884D02*
X17955853Y-13325360D01*
X17955853Y-13325360D02*
X17946330Y-13306312D01*
X17946330Y-13306312D02*
X17946330Y-13230122D01*
X17946330Y-13230122D02*
X17955853Y-13211074D01*
X17955853Y-13211074D02*
X17974901Y-13201550D01*
X17974901Y-13201550D02*
X18012996Y-13201550D01*
X18012996Y-13201550D02*
X18032044Y-13211074D01*
X18032044Y-13211074D02*
X18041568Y-13230122D01*
X18041568Y-13230122D02*
X18041568Y-13249169D01*
X18041568Y-13249169D02*
X17946330Y-13268217D01*
X18117758Y-13325360D02*
X18136806Y-13334884D01*
X18136806Y-13334884D02*
X18174901Y-13334884D01*
X18174901Y-13334884D02*
X18193949Y-13325360D01*
X18193949Y-13325360D02*
X18203473Y-13306312D01*
X18203473Y-13306312D02*
X18203473Y-13296788D01*
X18203473Y-13296788D02*
X18193949Y-13277741D01*
X18193949Y-13277741D02*
X18174901Y-13268217D01*
X18174901Y-13268217D02*
X18146330Y-13268217D01*
X18146330Y-13268217D02*
X18127282Y-13258693D01*
X18127282Y-13258693D02*
X18117758Y-13239646D01*
X18117758Y-13239646D02*
X18117758Y-13230122D01*
X18117758Y-13230122D02*
X18127282Y-13211074D01*
X18127282Y-13211074D02*
X18146330Y-13201550D01*
X18146330Y-13201550D02*
X18174901Y-13201550D01*
X18174901Y-13201550D02*
X18193949Y-13211074D01*
X18270139Y-13411074D02*
X18279663Y-13401550D01*
X18279663Y-13401550D02*
X18298711Y-13372979D01*
X18298711Y-13372979D02*
X18308234Y-13353931D01*
X18308234Y-13353931D02*
X18317758Y-13325360D01*
X18317758Y-13325360D02*
X18327282Y-13277741D01*
X18327282Y-13277741D02*
X18327282Y-13239646D01*
X18327282Y-13239646D02*
X18317758Y-13192027D01*
X18317758Y-13192027D02*
X18308234Y-13163455D01*
X18308234Y-13163455D02*
X18298711Y-13144408D01*
X18298711Y-13144408D02*
X18279663Y-13115836D01*
X18279663Y-13115836D02*
X18270139Y-13106312D01*
D10*
X13304600Y-13507400D02*
G75*
G03*
X13204600Y-13507400I-50000J0D01*
G01*
X13204600Y-13507400D02*
G75*
G03*
X13304600Y-13507400I50000J0D01*
G01*
D11*
X13670139Y-13598884D02*
X13555853Y-13598884D01*
X13612996Y-13598884D02*
X13612996Y-13398884D01*
X13612996Y-13398884D02*
X13593948Y-13427455D01*
X13593948Y-13427455D02*
X13574901Y-13446503D01*
X13574901Y-13446503D02*
X13555853Y-13456027D01*
X13755853Y-13579836D02*
X13765377Y-13589360D01*
X13765377Y-13589360D02*
X13755853Y-13598884D01*
X13755853Y-13598884D02*
X13746329Y-13589360D01*
X13746329Y-13589360D02*
X13755853Y-13579836D01*
X13755853Y-13579836D02*
X13755853Y-13598884D01*
X13889186Y-13398884D02*
X13908234Y-13398884D01*
X13908234Y-13398884D02*
X13927282Y-13408408D01*
X13927282Y-13408408D02*
X13936805Y-13417931D01*
X13936805Y-13417931D02*
X13946329Y-13436979D01*
X13946329Y-13436979D02*
X13955853Y-13475074D01*
X13955853Y-13475074D02*
X13955853Y-13522693D01*
X13955853Y-13522693D02*
X13946329Y-13560788D01*
X13946329Y-13560788D02*
X13936805Y-13579836D01*
X13936805Y-13579836D02*
X13927282Y-13589360D01*
X13927282Y-13589360D02*
X13908234Y-13598884D01*
X13908234Y-13598884D02*
X13889186Y-13598884D01*
X13889186Y-13598884D02*
X13870139Y-13589360D01*
X13870139Y-13589360D02*
X13860615Y-13579836D01*
X13860615Y-13579836D02*
X13851091Y-13560788D01*
X13851091Y-13560788D02*
X13841567Y-13522693D01*
X13841567Y-13522693D02*
X13841567Y-13475074D01*
X13841567Y-13475074D02*
X13851091Y-13436979D01*
X13851091Y-13436979D02*
X13860615Y-13417931D01*
X13860615Y-13417931D02*
X13870139Y-13408408D01*
X13870139Y-13408408D02*
X13889186Y-13398884D01*
X14079662Y-13398884D02*
X14098710Y-13398884D01*
X14098710Y-13398884D02*
X14117758Y-13408408D01*
X14117758Y-13408408D02*
X14127282Y-13417931D01*
X14127282Y-13417931D02*
X14136805Y-13436979D01*
X14136805Y-13436979D02*
X14146329Y-13475074D01*
X14146329Y-13475074D02*
X14146329Y-13522693D01*
X14146329Y-13522693D02*
X14136805Y-13560788D01*
X14136805Y-13560788D02*
X14127282Y-13579836D01*
X14127282Y-13579836D02*
X14117758Y-13589360D01*
X14117758Y-13589360D02*
X14098710Y-13598884D01*
X14098710Y-13598884D02*
X14079662Y-13598884D01*
X14079662Y-13598884D02*
X14060615Y-13589360D01*
X14060615Y-13589360D02*
X14051091Y-13579836D01*
X14051091Y-13579836D02*
X14041567Y-13560788D01*
X14041567Y-13560788D02*
X14032043Y-13522693D01*
X14032043Y-13522693D02*
X14032043Y-13475074D01*
X14032043Y-13475074D02*
X14041567Y-13436979D01*
X14041567Y-13436979D02*
X14051091Y-13417931D01*
X14051091Y-13417931D02*
X14060615Y-13408408D01*
X14060615Y-13408408D02*
X14079662Y-13398884D01*
X14270139Y-13398884D02*
X14289186Y-13398884D01*
X14289186Y-13398884D02*
X14308234Y-13408408D01*
X14308234Y-13408408D02*
X14317758Y-13417931D01*
X14317758Y-13417931D02*
X14327282Y-13436979D01*
X14327282Y-13436979D02*
X14336805Y-13475074D01*
X14336805Y-13475074D02*
X14336805Y-13522693D01*
X14336805Y-13522693D02*
X14327282Y-13560788D01*
X14327282Y-13560788D02*
X14317758Y-13579836D01*
X14317758Y-13579836D02*
X14308234Y-13589360D01*
X14308234Y-13589360D02*
X14289186Y-13598884D01*
X14289186Y-13598884D02*
X14270139Y-13598884D01*
X14270139Y-13598884D02*
X14251091Y-13589360D01*
X14251091Y-13589360D02*
X14241567Y-13579836D01*
X14241567Y-13579836D02*
X14232043Y-13560788D01*
X14232043Y-13560788D02*
X14222520Y-13522693D01*
X14222520Y-13522693D02*
X14222520Y-13475074D01*
X14222520Y-13475074D02*
X14232043Y-13436979D01*
X14232043Y-13436979D02*
X14241567Y-13417931D01*
X14241567Y-13417931D02*
X14251091Y-13408408D01*
X14251091Y-13408408D02*
X14270139Y-13398884D01*
X14422520Y-13598884D02*
X14422520Y-13465550D01*
X14422520Y-13484598D02*
X14432043Y-13475074D01*
X14432043Y-13475074D02*
X14451091Y-13465550D01*
X14451091Y-13465550D02*
X14479663Y-13465550D01*
X14479663Y-13465550D02*
X14498710Y-13475074D01*
X14498710Y-13475074D02*
X14508234Y-13494122D01*
X14508234Y-13494122D02*
X14508234Y-13598884D01*
X14508234Y-13494122D02*
X14517758Y-13475074D01*
X14517758Y-13475074D02*
X14536805Y-13465550D01*
X14536805Y-13465550D02*
X14565377Y-13465550D01*
X14565377Y-13465550D02*
X14584424Y-13475074D01*
X14584424Y-13475074D02*
X14593948Y-13494122D01*
X14593948Y-13494122D02*
X14593948Y-13598884D01*
X14689186Y-13598884D02*
X14689186Y-13465550D01*
X14689186Y-13484598D02*
X14698710Y-13475074D01*
X14698710Y-13475074D02*
X14717758Y-13465550D01*
X14717758Y-13465550D02*
X14746329Y-13465550D01*
X14746329Y-13465550D02*
X14765377Y-13475074D01*
X14765377Y-13475074D02*
X14774901Y-13494122D01*
X14774901Y-13494122D02*
X14774901Y-13598884D01*
X14774901Y-13494122D02*
X14784424Y-13475074D01*
X14784424Y-13475074D02*
X14803472Y-13465550D01*
X14803472Y-13465550D02*
X14832043Y-13465550D01*
X14832043Y-13465550D02*
X14851091Y-13475074D01*
X14851091Y-13475074D02*
X14860615Y-13494122D01*
X14860615Y-13494122D02*
X14860615Y-13598884D01*
X15251091Y-13389360D02*
X15079663Y-13646503D01*
X15508234Y-13398884D02*
X15527282Y-13398884D01*
X15527282Y-13398884D02*
X15546329Y-13408408D01*
X15546329Y-13408408D02*
X15555853Y-13417931D01*
X15555853Y-13417931D02*
X15565377Y-13436979D01*
X15565377Y-13436979D02*
X15574901Y-13475074D01*
X15574901Y-13475074D02*
X15574901Y-13522693D01*
X15574901Y-13522693D02*
X15565377Y-13560788D01*
X15565377Y-13560788D02*
X15555853Y-13579836D01*
X15555853Y-13579836D02*
X15546329Y-13589360D01*
X15546329Y-13589360D02*
X15527282Y-13598884D01*
X15527282Y-13598884D02*
X15508234Y-13598884D01*
X15508234Y-13598884D02*
X15489186Y-13589360D01*
X15489186Y-13589360D02*
X15479663Y-13579836D01*
X15479663Y-13579836D02*
X15470139Y-13560788D01*
X15470139Y-13560788D02*
X15460615Y-13522693D01*
X15460615Y-13522693D02*
X15460615Y-13475074D01*
X15460615Y-13475074D02*
X15470139Y-13436979D01*
X15470139Y-13436979D02*
X15479663Y-13417931D01*
X15479663Y-13417931D02*
X15489186Y-13408408D01*
X15489186Y-13408408D02*
X15508234Y-13398884D01*
X15660615Y-13579836D02*
X15670139Y-13589360D01*
X15670139Y-13589360D02*
X15660615Y-13598884D01*
X15660615Y-13598884D02*
X15651091Y-13589360D01*
X15651091Y-13589360D02*
X15660615Y-13579836D01*
X15660615Y-13579836D02*
X15660615Y-13598884D01*
X15793948Y-13398884D02*
X15812996Y-13398884D01*
X15812996Y-13398884D02*
X15832044Y-13408408D01*
X15832044Y-13408408D02*
X15841567Y-13417931D01*
X15841567Y-13417931D02*
X15851091Y-13436979D01*
X15851091Y-13436979D02*
X15860615Y-13475074D01*
X15860615Y-13475074D02*
X15860615Y-13522693D01*
X15860615Y-13522693D02*
X15851091Y-13560788D01*
X15851091Y-13560788D02*
X15841567Y-13579836D01*
X15841567Y-13579836D02*
X15832044Y-13589360D01*
X15832044Y-13589360D02*
X15812996Y-13598884D01*
X15812996Y-13598884D02*
X15793948Y-13598884D01*
X15793948Y-13598884D02*
X15774901Y-13589360D01*
X15774901Y-13589360D02*
X15765377Y-13579836D01*
X15765377Y-13579836D02*
X15755853Y-13560788D01*
X15755853Y-13560788D02*
X15746329Y-13522693D01*
X15746329Y-13522693D02*
X15746329Y-13475074D01*
X15746329Y-13475074D02*
X15755853Y-13436979D01*
X15755853Y-13436979D02*
X15765377Y-13417931D01*
X15765377Y-13417931D02*
X15774901Y-13408408D01*
X15774901Y-13408408D02*
X15793948Y-13398884D01*
X15927282Y-13398884D02*
X16051091Y-13398884D01*
X16051091Y-13398884D02*
X15984425Y-13475074D01*
X15984425Y-13475074D02*
X16012996Y-13475074D01*
X16012996Y-13475074D02*
X16032044Y-13484598D01*
X16032044Y-13484598D02*
X16041567Y-13494122D01*
X16041567Y-13494122D02*
X16051091Y-13513169D01*
X16051091Y-13513169D02*
X16051091Y-13560788D01*
X16051091Y-13560788D02*
X16041567Y-13579836D01*
X16041567Y-13579836D02*
X16032044Y-13589360D01*
X16032044Y-13589360D02*
X16012996Y-13598884D01*
X16012996Y-13598884D02*
X15955853Y-13598884D01*
X15955853Y-13598884D02*
X15936806Y-13589360D01*
X15936806Y-13589360D02*
X15927282Y-13579836D01*
X16146329Y-13598884D02*
X16184425Y-13598884D01*
X16184425Y-13598884D02*
X16203472Y-13589360D01*
X16203472Y-13589360D02*
X16212996Y-13579836D01*
X16212996Y-13579836D02*
X16232044Y-13551265D01*
X16232044Y-13551265D02*
X16241567Y-13513169D01*
X16241567Y-13513169D02*
X16241567Y-13436979D01*
X16241567Y-13436979D02*
X16232044Y-13417931D01*
X16232044Y-13417931D02*
X16222520Y-13408408D01*
X16222520Y-13408408D02*
X16203472Y-13398884D01*
X16203472Y-13398884D02*
X16165377Y-13398884D01*
X16165377Y-13398884D02*
X16146329Y-13408408D01*
X16146329Y-13408408D02*
X16136806Y-13417931D01*
X16136806Y-13417931D02*
X16127282Y-13436979D01*
X16127282Y-13436979D02*
X16127282Y-13484598D01*
X16127282Y-13484598D02*
X16136806Y-13503646D01*
X16136806Y-13503646D02*
X16146329Y-13513169D01*
X16146329Y-13513169D02*
X16165377Y-13522693D01*
X16165377Y-13522693D02*
X16203472Y-13522693D01*
X16203472Y-13522693D02*
X16222520Y-13513169D01*
X16222520Y-13513169D02*
X16232044Y-13503646D01*
X16232044Y-13503646D02*
X16241567Y-13484598D01*
X16412996Y-13465550D02*
X16412996Y-13598884D01*
X16365377Y-13389360D02*
X16317758Y-13532217D01*
X16317758Y-13532217D02*
X16441567Y-13532217D01*
X16508234Y-13398884D02*
X16508234Y-13436979D01*
X16584425Y-13398884D02*
X16584425Y-13436979D01*
X16879663Y-13675074D02*
X16870139Y-13665550D01*
X16870139Y-13665550D02*
X16851091Y-13636979D01*
X16851091Y-13636979D02*
X16841568Y-13617931D01*
X16841568Y-13617931D02*
X16832044Y-13589360D01*
X16832044Y-13589360D02*
X16822520Y-13541741D01*
X16822520Y-13541741D02*
X16822520Y-13503646D01*
X16822520Y-13503646D02*
X16832044Y-13456027D01*
X16832044Y-13456027D02*
X16841568Y-13427455D01*
X16841568Y-13427455D02*
X16851091Y-13408408D01*
X16851091Y-13408408D02*
X16870139Y-13379836D01*
X16870139Y-13379836D02*
X16879663Y-13370312D01*
X17060615Y-13598884D02*
X16946330Y-13598884D01*
X17003472Y-13598884D02*
X17003472Y-13398884D01*
X17003472Y-13398884D02*
X16984425Y-13427455D01*
X16984425Y-13427455D02*
X16965377Y-13446503D01*
X16965377Y-13446503D02*
X16946330Y-13456027D01*
X17136806Y-13417931D02*
X17146330Y-13408408D01*
X17146330Y-13408408D02*
X17165377Y-13398884D01*
X17165377Y-13398884D02*
X17212996Y-13398884D01*
X17212996Y-13398884D02*
X17232044Y-13408408D01*
X17232044Y-13408408D02*
X17241568Y-13417931D01*
X17241568Y-13417931D02*
X17251091Y-13436979D01*
X17251091Y-13436979D02*
X17251091Y-13456027D01*
X17251091Y-13456027D02*
X17241568Y-13484598D01*
X17241568Y-13484598D02*
X17127282Y-13598884D01*
X17127282Y-13598884D02*
X17251091Y-13598884D01*
X17489187Y-13598884D02*
X17489187Y-13398884D01*
X17574901Y-13598884D02*
X17574901Y-13494122D01*
X17574901Y-13494122D02*
X17565377Y-13475074D01*
X17565377Y-13475074D02*
X17546330Y-13465550D01*
X17546330Y-13465550D02*
X17517758Y-13465550D01*
X17517758Y-13465550D02*
X17498711Y-13475074D01*
X17498711Y-13475074D02*
X17489187Y-13484598D01*
X17698711Y-13598884D02*
X17679663Y-13589360D01*
X17679663Y-13589360D02*
X17670139Y-13579836D01*
X17670139Y-13579836D02*
X17660615Y-13560788D01*
X17660615Y-13560788D02*
X17660615Y-13503646D01*
X17660615Y-13503646D02*
X17670139Y-13484598D01*
X17670139Y-13484598D02*
X17679663Y-13475074D01*
X17679663Y-13475074D02*
X17698711Y-13465550D01*
X17698711Y-13465550D02*
X17727282Y-13465550D01*
X17727282Y-13465550D02*
X17746330Y-13475074D01*
X17746330Y-13475074D02*
X17755853Y-13484598D01*
X17755853Y-13484598D02*
X17765377Y-13503646D01*
X17765377Y-13503646D02*
X17765377Y-13560788D01*
X17765377Y-13560788D02*
X17755853Y-13579836D01*
X17755853Y-13579836D02*
X17746330Y-13589360D01*
X17746330Y-13589360D02*
X17727282Y-13598884D01*
X17727282Y-13598884D02*
X17698711Y-13598884D01*
X17879663Y-13598884D02*
X17860615Y-13589360D01*
X17860615Y-13589360D02*
X17851092Y-13570312D01*
X17851092Y-13570312D02*
X17851092Y-13398884D01*
X18032044Y-13589360D02*
X18012996Y-13598884D01*
X18012996Y-13598884D02*
X17974901Y-13598884D01*
X17974901Y-13598884D02*
X17955853Y-13589360D01*
X17955853Y-13589360D02*
X17946330Y-13570312D01*
X17946330Y-13570312D02*
X17946330Y-13494122D01*
X17946330Y-13494122D02*
X17955853Y-13475074D01*
X17955853Y-13475074D02*
X17974901Y-13465550D01*
X17974901Y-13465550D02*
X18012996Y-13465550D01*
X18012996Y-13465550D02*
X18032044Y-13475074D01*
X18032044Y-13475074D02*
X18041568Y-13494122D01*
X18041568Y-13494122D02*
X18041568Y-13513169D01*
X18041568Y-13513169D02*
X17946330Y-13532217D01*
X18117758Y-13589360D02*
X18136806Y-13598884D01*
X18136806Y-13598884D02*
X18174901Y-13598884D01*
X18174901Y-13598884D02*
X18193949Y-13589360D01*
X18193949Y-13589360D02*
X18203473Y-13570312D01*
X18203473Y-13570312D02*
X18203473Y-13560788D01*
X18203473Y-13560788D02*
X18193949Y-13541741D01*
X18193949Y-13541741D02*
X18174901Y-13532217D01*
X18174901Y-13532217D02*
X18146330Y-13532217D01*
X18146330Y-13532217D02*
X18127282Y-13522693D01*
X18127282Y-13522693D02*
X18117758Y-13503646D01*
X18117758Y-13503646D02*
X18117758Y-13494122D01*
X18117758Y-13494122D02*
X18127282Y-13475074D01*
X18127282Y-13475074D02*
X18146330Y-13465550D01*
X18146330Y-13465550D02*
X18174901Y-13465550D01*
X18174901Y-13465550D02*
X18193949Y-13475074D01*
X18270139Y-13675074D02*
X18279663Y-13665550D01*
X18279663Y-13665550D02*
X18298711Y-13636979D01*
X18298711Y-13636979D02*
X18308234Y-13617931D01*
X18308234Y-13617931D02*
X18317758Y-13589360D01*
X18317758Y-13589360D02*
X18327282Y-13541741D01*
X18327282Y-13541741D02*
X18327282Y-13503646D01*
X18327282Y-13503646D02*
X18317758Y-13456027D01*
X18317758Y-13456027D02*
X18308234Y-13427455D01*
X18308234Y-13427455D02*
X18298711Y-13408408D01*
X18298711Y-13408408D02*
X18279663Y-13379836D01*
X18279663Y-13379836D02*
X18270139Y-13370312D01*
M02*
